solid Created by Gmsh
facet normal 0 0 1
  outer loop
    vertex 18 20 130
    vertex 20 20 130
    vertex 19 22.5 130
  endloop
endfacet
facet normal 0 0 1
  outer loop
    vertex 18 15 130
    vertex 20 15 130
    vertex 19 17.5 130
  endloop
endfacet
facet normal -0 0 1
  outer loop
    vertex 18 20 130
    vertex 19 17.5 130
    vertex 20 20 130
  endloop
endfacet
facet normal -0 0 1
  outer loop
    vertex 18 15 130
    vertex 19 12.5 130
    vertex 20 15 130
  endloop
endfacet
facet normal 0 0 1
  outer loop
    vertex 18 10 130
    vertex 20 10 130
    vertex 19 12.5 130
  endloop
endfacet
facet normal -0 0 1
  outer loop
    vertex 18 10 130
    vertex 19 7.5 130
    vertex 20 10 130
  endloop
endfacet
facet normal 0 0 1
  outer loop
    vertex 18 5 130
    vertex 20 5 130
    vertex 19 7.5 130
  endloop
endfacet
facet normal -0 0 1
  outer loop
    vertex 18 5 130
    vertex 19 2.5 130
    vertex 20 5 130
  endloop
endfacet
facet normal 0 0 1
  outer loop
    vertex 18 0 130
    vertex 20 0 130
    vertex 19 1.05 130
  endloop
endfacet
facet normal -0 0 1
  outer loop
    vertex 18 25 130
    vertex 19 23.95 130
    vertex 20 25 130
  endloop
endfacet
facet normal 0 0 1
  outer loop
    vertex 18 0 130
    vertex 19 2.5 130
    vertex 18 5 130
  endloop
endfacet
facet normal 0 0 1
  outer loop
    vertex 18 0 130
    vertex 19 1.05 130
    vertex 19 2.5 130
  endloop
endfacet
facet normal 0 -0 1
  outer loop
    vertex 20 0 130
    vertex 20 5 130
    vertex 19 2.5 130
  endloop
endfacet
facet normal 0 0 1
  outer loop
    vertex 20 0 130
    vertex 19 2.5 130
    vertex 19 1.05 130
  endloop
endfacet
facet normal 0 0 1
  outer loop
    vertex 18 25 130
    vertex 18 20 130
    vertex 19 22.5 130
  endloop
endfacet
facet normal 0 0 1
  outer loop
    vertex 18 25 130
    vertex 19 22.5 130
    vertex 19 23.95 130
  endloop
endfacet
facet normal 0 0 1
  outer loop
    vertex 20 25 130
    vertex 19 22.5 130
    vertex 20 20 130
  endloop
endfacet
facet normal 0 0 1
  outer loop
    vertex 20 25 130
    vertex 19 23.95 130
    vertex 19 22.5 130
  endloop
endfacet
facet normal 0 0 1
  outer loop
    vertex 18 5 130
    vertex 19 7.5 130
    vertex 18 10 130
  endloop
endfacet
facet normal 0 0 1
  outer loop
    vertex 18 10 130
    vertex 19 12.5 130
    vertex 18 15 130
  endloop
endfacet
facet normal 0 0 1
  outer loop
    vertex 18 15 130
    vertex 19 17.5 130
    vertex 18 20 130
  endloop
endfacet
facet normal 0 -0 1
  outer loop
    vertex 20 5 130
    vertex 20 10 130
    vertex 19 7.5 130
  endloop
endfacet
facet normal 0 -0 1
  outer loop
    vertex 20 10 130
    vertex 20 15 130
    vertex 19 12.5 130
  endloop
endfacet
facet normal 0 -0 1
  outer loop
    vertex 20 15 130
    vertex 20 20 130
    vertex 19 17.5 130
  endloop
endfacet
facet normal 0.688708 -0.226633 0.688708
  outer loop
    vertex 20 10 130
    vertex 22 10 128
    vertex 21.4142 12.5175 129.414
  endloop
endfacet
facet normal 0.793432 -0.0802225 0.603349
  outer loop
    vertex 21.8502 2.34198 128.759
    vertex 21.4779 3.08296 129.348
    vertex 21.0691 1.61788 129.69
  endloop
endfacet
facet normal 0.793432 0.0802225 0.603349
  outer loop
    vertex 21.8502 22.658 128.759
    vertex 21.0691 23.3821 129.69
    vertex 21.4779 21.917 129.348
  endloop
endfacet
facet normal 0.688473 -0.228055 0.688473
  outer loop
    vertex 20 15 130
    vertex 22 15 128
    vertex 21.4349 17.5 129.393
  endloop
endfacet
facet normal 0.688473 0.228055 0.688473
  outer loop
    vertex 20 20 130
    vertex 21.4349 17.5 129.393
    vertex 22 20 128
  endloop
endfacet
facet normal 0.688473 -0.228055 0.688473
  outer loop
    vertex 20 5 130
    vertex 22 5 128
    vertex 21.4349 7.5 129.393
  endloop
endfacet
facet normal 0.688473 0.228055 0.688473
  outer loop
    vertex 20 10 130
    vertex 21.4349 7.5 129.393
    vertex 22 10 128
  endloop
endfacet
facet normal 0.688207 0.229658 0.688207
  outer loop
    vertex 20 15 130
    vertex 21.4142 12.5175 129.414
    vertex 22 15 128
  endloop
endfacet
facet normal 0.408253 0.0983826 0.907552
  outer loop
    vertex 20.2231 2.38634 129.988
    vertex 21.0691 1.61788 129.69
    vertex 21.4779 3.08296 129.348
  endloop
endfacet
facet normal 0.408253 -0.0983826 0.907552
  outer loop
    vertex 20.2231 22.6137 129.988
    vertex 21.4779 21.917 129.348
    vertex 21.0691 23.3821 129.69
  endloop
endfacet
facet normal 0.439394 0.0332224 0.89768
  outer loop
    vertex 20 5 130
    vertex 20.2231 2.38634 129.988
    vertex 21.4779 3.08296 129.348
  endloop
endfacet
facet normal 0.439394 -0.0332224 0.89768
  outer loop
    vertex 20 20 130
    vertex 21.4779 21.917 129.348
    vertex 20.2231 22.6137 129.988
  endloop
endfacet
facet normal 0.676449 -0.291261 0.676449
  outer loop
    vertex 20 20 130
    vertex 22 20 128
    vertex 21.4779 21.917 129.348
  endloop
endfacet
facet normal 0.676449 0.291261 0.676449
  outer loop
    vertex 20 5 130
    vertex 21.4779 3.08296 129.348
    vertex 22 5 128
  endloop
endfacet
facet normal 0.921934 0.0648637 0.381878
  outer loop
    vertex 22 25 128
    vertex 21.4142 25 129.414
    vertex 21.8502 22.658 128.759
  endloop
endfacet
facet normal 0.921934 -0.0648637 0.381878
  outer loop
    vertex 22 0 128
    vertex 21.8502 2.34198 128.759
    vertex 21.4142 0 129.414
  endloop
endfacet
facet normal 0.381583 0.0757877 0.921222
  outer loop
    vertex 20 25 130
    vertex 21.0691 23.3821 129.69
    vertex 21.4142 25 129.414
  endloop
endfacet
facet normal 0.381583 -0.0757877 0.921222
  outer loop
    vertex 20 0 130
    vertex 21.4142 0 129.414
    vertex 21.0691 1.61788 129.69
  endloop
endfacet
facet normal 0.747223 -0.046262 0.662961
  outer loop
    vertex 21.4142 25 129.414
    vertex 21.0691 23.3821 129.69
    vertex 21.8502 22.658 128.759
  endloop
endfacet
facet normal 0.747223 0.046262 0.662961
  outer loop
    vertex 21.4142 0 129.414
    vertex 21.8502 2.34198 128.759
    vertex 21.0691 1.61788 129.69
  endloop
endfacet
facet normal 0.0558685 -0 0.998438
  outer loop
    vertex 20 0 130
    vertex 20.2231 2.38634 129.988
    vertex 20 5 130
  endloop
endfacet
facet normal 0.311784 -0.0241826 0.949845
  outer loop
    vertex 20 0 130
    vertex 21.0691 1.61788 129.69
    vertex 20.2231 2.38634 129.988
  endloop
endfacet
facet normal 0.981102 -0 0.193491
  outer loop
    vertex 22 0 128
    vertex 22 5 128
    vertex 21.8502 2.34198 128.759
  endloop
endfacet
facet normal 0.0558685 0 0.998438
  outer loop
    vertex 20 25 130
    vertex 20 20 130
    vertex 20.2231 22.6137 129.988
  endloop
endfacet
facet normal 0.311784 0.0241826 0.949845
  outer loop
    vertex 20 25 130
    vertex 20.2231 22.6137 129.988
    vertex 21.0691 23.3821 129.69
  endloop
endfacet
facet normal 0.981102 0 0.193491
  outer loop
    vertex 22 25 128
    vertex 21.8502 22.658 128.759
    vertex 22 20 128
  endloop
endfacet
facet normal 0.389486 -0 0.921033
  outer loop
    vertex 20 5 130
    vertex 21.4349 7.5 129.393
    vertex 20 10 130
  endloop
endfacet
facet normal 0.382683 -0 0.92388
  outer loop
    vertex 20 10 130
    vertex 21.4142 12.5175 129.414
    vertex 20 15 130
  endloop
endfacet
facet normal 0.389486 -0 0.921033
  outer loop
    vertex 20 15 130
    vertex 21.4349 17.5 129.393
    vertex 20 20 130
  endloop
endfacet
facet normal 0.926676 -0 0.37586
  outer loop
    vertex 22 5 128
    vertex 22 10 128
    vertex 21.4349 7.5 129.393
  endloop
endfacet
facet normal 0.88512 0.0810442 0.458252
  outer loop
    vertex 22 5 128
    vertex 21.4779 3.08296 129.348
    vertex 21.8502 2.34198 128.759
  endloop
endfacet
facet normal 0.92388 -0 0.382683
  outer loop
    vertex 22 10 128
    vertex 22 15 128
    vertex 21.4142 12.5175 129.414
  endloop
endfacet
facet normal 0.926676 -0 0.37586
  outer loop
    vertex 22 15 128
    vertex 22 20 128
    vertex 21.4349 17.5 129.393
  endloop
endfacet
facet normal 0.88512 -0.0810442 0.458252
  outer loop
    vertex 22 20 128
    vertex 21.8502 22.658 128.759
    vertex 21.4779 21.917 129.348
  endloop
endfacet
facet normal 1 0 0
  outer loop
    vertex 22 4.4977 120.17
    vertex 22 7.527 115.354
    vertex 22 9.96027 119.501
  endloop
endfacet
facet normal 1 0 0
  outer loop
    vertex 22 4.4977 120.17
    vertex 22 3.32225 115.63
    vertex 22 7.527 115.354
  endloop
endfacet
facet normal 1 0 0
  outer loop
    vertex 22 4.38201 101.811
    vertex 22 9.87038 102.325
    vertex 22 7.29453 106.502
  endloop
endfacet
facet normal 1 0 0
  outer loop
    vertex 22 4.38707 110.967
    vertex 22 7.29453 106.502
    vertex 22 10.0446 110.923
  endloop
endfacet
facet normal 1 -0 0
  outer loop
    vertex 22 4.38707 110.967
    vertex 22 10.0446 110.923
    vertex 22 7.527 115.354
  endloop
endfacet
facet normal 1 0 -0
  outer loop
    vertex 22 4.38201 101.811
    vertex 22 7.29453 106.502
    vertex 22 3.17324 106.189
  endloop
endfacet
facet normal 1 -0 0
  outer loop
    vertex 22 14.8735 110.918
    vertex 22 16.7689 107.01
    vertex 22 20.1344 110.962
  endloop
endfacet
facet normal 1 -0 0
  outer loop
    vertex 22 4.4977 120.17
    vertex 22 9.96027 119.501
    vertex 22 7.61577 123.99
  endloop
endfacet
facet normal 1 0 0
  outer loop
    vertex 22 14.8735 110.918
    vertex 22 20.1344 110.962
    vertex 22 16.8167 114.916
  endloop
endfacet
facet normal 1 0 0
  outer loop
    vertex 22 10.0446 110.923
    vertex 22 7.29453 106.502
    vertex 22 12.2895 106.79
  endloop
endfacet
facet normal 1 0 0
  outer loop
    vertex 22 12.2895 106.79
    vertex 22 7.29453 106.502
    vertex 22 9.87038 102.325
  endloop
endfacet
facet normal 1 -0 0
  outer loop
    vertex 22 4.38201 101.811
    vertex 22 7.57682 97.9629
    vertex 22 9.87038 102.325
  endloop
endfacet
facet normal 1 0 0
  outer loop
    vertex 22 21.0949 105.933
    vertex 22 20.1344 110.962
    vertex 22 16.7689 107.01
  endloop
endfacet
facet normal 1 0 0
  outer loop
    vertex 22 12.2895 106.79
    vertex 22 9.87038 102.325
    vertex 22 14.5925 102.888
  endloop
endfacet
facet normal 1 0 0
  outer loop
    vertex 22 21.0975 116.044
    vertex 22 16.8167 114.916
    vertex 22 20.1344 110.962
  endloop
endfacet
facet normal 1 0 -0
  outer loop
    vertex 22 12.5027 98.2348
    vertex 22 14.5925 102.888
    vertex 22 9.87038 102.325
  endloop
endfacet
facet normal 1 0 -0
  outer loop
    vertex 22 4.38707 110.967
    vertex 22 7.527 115.354
    vertex 22 3.32225 115.63
  endloop
endfacet
facet normal 1 0 0
  outer loop
    vertex 22 12.5459 123.708
    vertex 22 14.6718 119.012
    vertex 22 17.5849 123.094
  endloop
endfacet
facet normal 1 0 0
  outer loop
    vertex 22 12.5459 123.708
    vertex 22 9.96027 119.501
    vertex 22 14.6718 119.012
  endloop
endfacet
facet normal 1 0 0
  outer loop
    vertex 22 14.6718 119.012
    vertex 22 9.96027 119.501
    vertex 22 12.4774 115.102
  endloop
endfacet
facet normal 1 0 -0
  outer loop
    vertex 22 15 94
    vertex 22 17.5769 98.878
    vertex 22 12.5027 98.2348
  endloop
endfacet
facet normal 1 0 0
  outer loop
    vertex 22 15 128
    vertex 22 12.5459 123.708
    vertex 22 17.5849 123.094
  endloop
endfacet
facet normal 1 -0 0
  outer loop
    vertex 22 10 128
    vertex 22 12.5459 123.708
    vertex 22 15 128
  endloop
endfacet
facet normal 1 0 0
  outer loop
    vertex 22 10 94
    vertex 22 15 94
    vertex 22 12.5027 98.2348
  endloop
endfacet
facet normal 1 0 0
  outer loop
    vertex 22 9.96027 119.501
    vertex 22 7.527 115.354
    vertex 22 12.4774 115.102
  endloop
endfacet
facet normal 1 -0 0
  outer loop
    vertex 22 15 128
    vertex 22 17.5849 123.094
    vertex 22 20 128
  endloop
endfacet
facet normal 1 0 0
  outer loop
    vertex 22 15 94
    vertex 22 20 94
    vertex 22 17.5769 98.878
  endloop
endfacet
facet normal 1 0 0
  outer loop
    vertex 22 12.4774 115.102
    vertex 22 7.527 115.354
    vertex 22 10.0446 110.923
  endloop
endfacet
facet normal 1 0 0
  outer loop
    vertex 22 12.4774 115.102
    vertex 22 10.0446 110.923
    vertex 22 14.8735 110.918
  endloop
endfacet
facet normal 1 0 0
  outer loop
    vertex 22 0 113.429
    vertex 22 0 108.571
    vertex 22 4.38707 110.967
  endloop
endfacet
facet normal 1 0 0
  outer loop
    vertex 22 25 108.571
    vertex 22 20.1344 110.962
    vertex 22 21.0949 105.933
  endloop
endfacet
facet normal 1 0 0
  outer loop
    vertex 22 25 108.571
    vertex 22 21.0949 105.933
    vertex 22 25 103.714
  endloop
endfacet
facet normal 1 0 0
  outer loop
    vertex 22 25 118.286
    vertex 22 21.0975 116.044
    vertex 22 25 113.429
  endloop
endfacet
facet normal 1 0 0
  outer loop
    vertex 22 25 113.429
    vertex 22 20.1344 110.962
    vertex 22 25 108.571
  endloop
endfacet
facet normal 1 0 0
  outer loop
    vertex 22 25 113.429
    vertex 22 21.0975 116.044
    vertex 22 20.1344 110.962
  endloop
endfacet
facet normal 1 0 0
  outer loop
    vertex 22 10.0446 110.923
    vertex 22 12.2895 106.79
    vertex 22 14.8735 110.918
  endloop
endfacet
facet normal 1 0 0
  outer loop
    vertex 22 0 103.714
    vertex 22 0 98.8571
    vertex 22 4.38201 101.811
  endloop
endfacet
facet normal 1 0 0
  outer loop
    vertex 22 0 123.143
    vertex 22 0 118.286
    vertex 22 4.4977 120.17
  endloop
endfacet
facet normal 1 0 0
  outer loop
    vertex 22 12.5459 123.708
    vertex 22 7.61577 123.99
    vertex 22 9.96027 119.501
  endloop
endfacet
facet normal 1 0 0
  outer loop
    vertex 22 12.5027 98.2348
    vertex 22 17.5769 98.878
    vertex 22 14.5925 102.888
  endloop
endfacet
facet normal 1 -0 0
  outer loop
    vertex 22 5 128
    vertex 22 7.61577 123.99
    vertex 22 10 128
  endloop
endfacet
facet normal 1 0 0
  outer loop
    vertex 22 5 94
    vertex 22 10 94
    vertex 22 7.57682 97.9629
  endloop
endfacet
facet normal 1 0 0
  outer loop
    vertex 22 17.5849 123.094
    vertex 22 14.6718 119.012
    vertex 22 18.2771 118.779
  endloop
endfacet
facet normal 1 0 0
  outer loop
    vertex 22 25 103.714
    vertex 22 21.3221 101.488
    vertex 22 25 98.8571
  endloop
endfacet
facet normal 1 0 0
  outer loop
    vertex 22 25 123.143
    vertex 22 21.3279 120.502
    vertex 22 25 118.286
  endloop
endfacet
facet normal 1 0 0
  outer loop
    vertex 22 12.5027 98.2348
    vertex 22 9.87038 102.325
    vertex 22 7.57682 97.9629
  endloop
endfacet
facet normal 1 0 0
  outer loop
    vertex 22 4.38707 110.967
    vertex 22 3.17324 106.189
    vertex 22 7.29453 106.502
  endloop
endfacet
facet normal 1 0 -0
  outer loop
    vertex 22 17.5769 98.878
    vertex 22 18.2477 103.17
    vertex 22 14.5925 102.888
  endloop
endfacet
facet normal 1 0 0
  outer loop
    vertex 22 17.5849 123.094
    vertex 22 18.2771 118.779
    vertex 22 21.3279 120.502
  endloop
endfacet
facet normal 1 0 0
  outer loop
    vertex 22 17.5769 98.878
    vertex 22 21.3221 101.488
    vertex 22 18.2477 103.17
  endloop
endfacet
facet normal 1 0 0
  outer loop
    vertex 22 10 128
    vertex 22 7.61577 123.99
    vertex 22 12.5459 123.708
  endloop
endfacet
facet normal 1 0 -0
  outer loop
    vertex 22 10 94
    vertex 22 12.5027 98.2348
    vertex 22 7.57682 97.9629
  endloop
endfacet
facet normal 1 0 0
  outer loop
    vertex 22 25 103.714
    vertex 22 21.0949 105.933
    vertex 22 21.3221 101.488
  endloop
endfacet
facet normal 1 0 0
  outer loop
    vertex 22 25 118.286
    vertex 22 21.3279 120.502
    vertex 22 21.0975 116.044
  endloop
endfacet
facet normal 1 0 0
  outer loop
    vertex 22 14.6718 119.012
    vertex 22 12.4774 115.102
    vertex 22 16.8167 114.916
  endloop
endfacet
facet normal 1 0 0
  outer loop
    vertex 22 25 128
    vertex 22 20 128
    vertex 22 21.4338 124.411
  endloop
endfacet
facet normal 1 0 0
  outer loop
    vertex 22 25 94
    vertex 22 21.4333 97.5868
    vertex 22 20 94
  endloop
endfacet
facet normal 1 -0 0
  outer loop
    vertex 22 0 113.429
    vertex 22 4.38707 110.967
    vertex 22 3.32225 115.63
  endloop
endfacet
facet normal 1 0 0
  outer loop
    vertex 22 25 128
    vertex 22 21.4338 124.411
    vertex 22 25 123.143
  endloop
endfacet
facet normal 1 0 -0
  outer loop
    vertex 22 25 94
    vertex 22 25 98.8571
    vertex 22 21.4333 97.5868
  endloop
endfacet
facet normal 1 -0 0
  outer loop
    vertex 22 0 118.286
    vertex 22 3.32225 115.63
    vertex 22 4.4977 120.17
  endloop
endfacet
facet normal 1 -0 0
  outer loop
    vertex 22 0 108.571
    vertex 22 3.17324 106.189
    vertex 22 4.38707 110.967
  endloop
endfacet
facet normal 1 -0 0
  outer loop
    vertex 22 0 103.714
    vertex 22 4.38201 101.811
    vertex 22 3.17324 106.189
  endloop
endfacet
facet normal 1 -0 0
  outer loop
    vertex 22 12.2895 106.79
    vertex 22 14.5925 102.888
    vertex 22 16.7689 107.01
  endloop
endfacet
facet normal 1 0 0
  outer loop
    vertex 22 0 94
    vertex 22 5 94
    vertex 22 3.5703 97.5303
  endloop
endfacet
facet normal 1 -0 0
  outer loop
    vertex 22 0 128
    vertex 22 3.5703 124.47
    vertex 22 5 128
  endloop
endfacet
facet normal 1 0 0
  outer loop
    vertex 22 0 94
    vertex 22 3.5703 97.5303
    vertex 22 0 98.8571
  endloop
endfacet
facet normal 1 0 0
  outer loop
    vertex 22 0 128
    vertex 22 0 123.143
    vertex 22 3.5703 124.47
  endloop
endfacet
facet normal 1 0 0
  outer loop
    vertex 22 0 118.286
    vertex 22 0 113.429
    vertex 22 3.32225 115.63
  endloop
endfacet
facet normal 1 0 0
  outer loop
    vertex 22 12.4774 115.102
    vertex 22 14.8735 110.918
    vertex 22 16.8167 114.916
  endloop
endfacet
facet normal 1 0 0
  outer loop
    vertex 22 14.8735 110.918
    vertex 22 12.2895 106.79
    vertex 22 16.7689 107.01
  endloop
endfacet
facet normal 1 0 -0
  outer loop
    vertex 22 5 94
    vertex 22 7.57682 97.9629
    vertex 22 3.5703 97.5303
  endloop
endfacet
facet normal 1 0 0
  outer loop
    vertex 22 5 128
    vertex 22 3.5703 124.47
    vertex 22 7.61577 123.99
  endloop
endfacet
facet normal 1 0 0
  outer loop
    vertex 22 0 108.571
    vertex 22 0 103.714
    vertex 22 3.17324 106.189
  endloop
endfacet
facet normal 1 0 0
  outer loop
    vertex 22 20 128
    vertex 22 17.5849 123.094
    vertex 22 21.4338 124.411
  endloop
endfacet
facet normal 1 0 -0
  outer loop
    vertex 22 20 94
    vertex 22 21.4333 97.5868
    vertex 22 17.5769 98.878
  endloop
endfacet
facet normal 1 0 0
  outer loop
    vertex 22 14.6718 119.012
    vertex 22 16.8167 114.916
    vertex 22 18.2771 118.779
  endloop
endfacet
facet normal 1 0 0
  outer loop
    vertex 22 25 123.143
    vertex 22 21.4338 124.411
    vertex 22 21.3279 120.502
  endloop
endfacet
facet normal 1 0 0
  outer loop
    vertex 22 25 98.8571
    vertex 22 21.3221 101.488
    vertex 22 21.4333 97.5868
  endloop
endfacet
facet normal 1 0 -0
  outer loop
    vertex 22 4.4977 120.17
    vertex 22 7.61577 123.99
    vertex 22 3.5703 124.47
  endloop
endfacet
facet normal 1 0 0
  outer loop
    vertex 22 4.38201 101.811
    vertex 22 3.5703 97.5303
    vertex 22 7.57682 97.9629
  endloop
endfacet
facet normal 1 -0 0
  outer loop
    vertex 22 0 98.8571
    vertex 22 3.5703 97.5303
    vertex 22 4.38201 101.811
  endloop
endfacet
facet normal 1 -0 0
  outer loop
    vertex 22 0 123.143
    vertex 22 4.4977 120.17
    vertex 22 3.5703 124.47
  endloop
endfacet
facet normal 1 0 0
  outer loop
    vertex 22 14.5925 102.888
    vertex 22 18.2477 103.17
    vertex 22 16.7689 107.01
  endloop
endfacet
facet normal 1 -0 0
  outer loop
    vertex 22 17.5849 123.094
    vertex 22 21.3279 120.502
    vertex 22 21.4338 124.411
  endloop
endfacet
facet normal 1 -0 0
  outer loop
    vertex 22 17.5769 98.878
    vertex 22 21.4333 97.5868
    vertex 22 21.3221 101.488
  endloop
endfacet
facet normal 1 0 0
  outer loop
    vertex 22 21.0949 105.933
    vertex 22 18.2477 103.17
    vertex 22 21.3221 101.488
  endloop
endfacet
facet normal 1 0 -0
  outer loop
    vertex 22 21.0975 116.044
    vertex 22 21.3279 120.502
    vertex 22 18.2771 118.779
  endloop
endfacet
facet normal 1 0 0
  outer loop
    vertex 22 21.0975 116.044
    vertex 22 18.2771 118.779
    vertex 22 16.8167 114.916
  endloop
endfacet
facet normal 1 0 0
  outer loop
    vertex 22 21.0949 105.933
    vertex 22 16.7689 107.01
    vertex 22 18.2477 103.17
  endloop
endfacet
facet normal 0.19509 0 0.980785
  outer loop
    vertex 26 25 90
    vertex 24.4693 22.5186 90.3045
    vertex 26 20 90
  endloop
endfacet
facet normal 0.19509 -0 0.980785
  outer loop
    vertex 26 0 90
    vertex 26 5 90
    vertex 24.4693 2.48139 90.3045
  endloop
endfacet
facet normal 0.980785 -0 0.19509
  outer loop
    vertex 22 0 94
    vertex 22.3045 2.48139 92.4693
    vertex 22 5 94
  endloop
endfacet
facet normal 0.980534 0 0.19635
  outer loop
    vertex 22 25 94
    vertex 22 20 94
    vertex 22.3084 22.5 92.4598
  endloop
endfacet
facet normal 0.704927 -0.0663815 0.706167
  outer loop
    vertex 24.4693 22.5186 90.3045
    vertex 22.3084 22.5 92.4598
    vertex 23.1672 17.9622 91.1759
  endloop
endfacet
facet normal 0.705548 0.066353 0.705548
  outer loop
    vertex 24.4693 2.48139 90.3045
    vertex 23.1353 7.05509 91.2083
    vertex 22.3045 2.48139 92.4693
  endloop
endfacet
facet normal 0.328579 0.0859941 0.940553
  outer loop
    vertex 26 20 90
    vertex 24.4693 22.5186 90.3045
    vertex 23.1672 17.9622 91.1759
  endloop
endfacet
facet normal 0.941061 0.0855143 0.327247
  outer loop
    vertex 22 20 94
    vertex 23.1672 17.9622 91.1759
    vertex 22.3084 22.5 92.4598
  endloop
endfacet
facet normal 0.332496 -0.0885698 0.938937
  outer loop
    vertex 26 5 90
    vertex 23.1353 7.05509 91.2083
    vertex 24.4693 2.48139 90.3045
  endloop
endfacet
facet normal 0.942857 -0.0822557 0.322886
  outer loop
    vertex 22 5 94
    vertex 22.3045 2.48139 92.4693
    vertex 23.1353 7.05509 91.2083
  endloop
endfacet
facet normal 0.385867 -0 0.922554
  outer loop
    vertex 26 10 90
    vertex 26 15 90
    vertex 23.1521 12.2708 91.1911
  endloop
endfacet
facet normal 0.387077 0.00178349 0.922046
  outer loop
    vertex 26 10 90
    vertex 23.1521 12.2708 91.1911
    vertex 23.1353 7.05509 91.2083
  endloop
endfacet
facet normal 0.388634 -0 0.921392
  outer loop
    vertex 26 5 90
    vertex 26 10 90
    vertex 23.1353 7.05509 91.2083
  endloop
endfacet
facet normal 0.383395 -0 0.923585
  outer loop
    vertex 26 15 90
    vertex 26 20 90
    vertex 23.1672 17.9622 91.1759
  endloop
endfacet
facet normal 0.924174 -0 0.381972
  outer loop
    vertex 22 15 94
    vertex 23.1672 17.9622 91.1759
    vertex 22 20 94
  endloop
endfacet
facet normal 0.917103 -0.120894 0.379877
  outer loop
    vertex 22 25 94
    vertex 22.3084 22.5 92.4598
    vertex 23.1716 25 91.1716
  endloop
endfacet
facet normal 0.917002 0.121793 0.379835
  outer loop
    vertex 22 0 94
    vertex 23.1716 0 91.1716
    vertex 22.3045 2.48139 92.4693
  endloop
endfacet
facet normal 0.379835 0.121793 0.917002
  outer loop
    vertex 26 0 90
    vertex 24.4693 2.48139 90.3045
    vertex 23.1716 0 91.1716
  endloop
endfacet
facet normal 0.379835 -0.121793 0.917002
  outer loop
    vertex 26 25 90
    vertex 23.1716 25 91.1716
    vertex 24.4693 22.5186 90.3045
  endloop
endfacet
facet normal 0.925194 -0 0.379495
  outer loop
    vertex 22 10 94
    vertex 23.1521 12.2708 91.1911
    vertex 22 15 94
  endloop
endfacet
facet normal 0.925685 -0.00173974 0.37829
  outer loop
    vertex 22 10 94
    vertex 23.1353 7.05509 91.2083
    vertex 23.1521 12.2708 91.1911
  endloop
endfacet
facet normal 0.926329 -0 0.376716
  outer loop
    vertex 22 5 94
    vertex 23.1353 7.05509 91.2083
    vertex 22 10 94
  endloop
endfacet
facet normal 0.384686 0.00144799 0.923047
  outer loop
    vertex 26 15 90
    vertex 23.1672 17.9622 91.1759
    vertex 23.1521 12.2708 91.1911
  endloop
endfacet
facet normal 0.924703 -0.0014337 0.380687
  outer loop
    vertex 22 15 94
    vertex 23.1521 12.2708 91.1911
    vertex 23.1672 17.9622 91.1759
  endloop
endfacet
facet normal 0.701843 -0.121793 0.701843
  outer loop
    vertex 23.1716 0 91.1716
    vertex 24.4693 2.48139 90.3045
    vertex 22.3045 2.48139 92.4693
  endloop
endfacet
facet normal 0.700526 0.120571 0.703368
  outer loop
    vertex 23.1716 25 91.1716
    vertex 22.3084 22.5 92.4598
    vertex 24.4693 22.5186 90.3045
  endloop
endfacet
facet normal 0 0 1
  outer loop
    vertex 26 5 90
    vertex 31.6699 7.5 90
    vertex 26 10 90
  endloop
endfacet
facet normal 0 0 1
  outer loop
    vertex 26 15 90
    vertex 31.6699 17.5 90
    vertex 26 20 90
  endloop
endfacet
facet normal 0 -0 1
  outer loop
    vertex 36 10 90
    vertex 36 15 90
    vertex 30.7821 12.5 90
  endloop
endfacet
facet normal -0 0 1
  outer loop
    vertex 26 15 90
    vertex 30.7821 12.5 90
    vertex 31.6699 17.5 90
  endloop
endfacet
facet normal -0 0 1
  outer loop
    vertex 26 10 90
    vertex 31.6699 7.5 90
    vertex 30.7821 12.5 90
  endloop
endfacet
facet normal 0 0 1
  outer loop
    vertex 36 15 90
    vertex 31.6699 17.5 90
    vertex 30.7821 12.5 90
  endloop
endfacet
facet normal 0 0 1
  outer loop
    vertex 36 10 90
    vertex 30.7821 12.5 90
    vertex 31.6699 7.5 90
  endloop
endfacet
facet normal -0 0 1
  outer loop
    vertex 26 5 90
    vertex 29.8759 3.53073 90
    vertex 31.6699 7.5 90
  endloop
endfacet
facet normal -0 0 1
  outer loop
    vertex 26 20 90
    vertex 31.6699 17.5 90
    vertex 29.8759 21.4693 90
  endloop
endfacet
facet normal 0 0 1
  outer loop
    vertex 26 10 90
    vertex 30.7821 12.5 90
    vertex 26 15 90
  endloop
endfacet
facet normal 0 -0 1
  outer loop
    vertex 36 15 90
    vertex 36 20 90
    vertex 31.6699 17.5 90
  endloop
endfacet
facet normal 0 -0 1
  outer loop
    vertex 36 5 90
    vertex 36 10 90
    vertex 31.6699 7.5 90
  endloop
endfacet
facet normal 0 0 1
  outer loop
    vertex 26 0 90
    vertex 31 0 90
    vertex 29.8759 3.53073 90
  endloop
endfacet
facet normal 0 0 1
  outer loop
    vertex 26 0 90
    vertex 29.8759 3.53073 90
    vertex 26 5 90
  endloop
endfacet
facet normal 0 0 1
  outer loop
    vertex 26 25 90
    vertex 26 20 90
    vertex 29.8759 21.4693 90
  endloop
endfacet
facet normal -0 0 1
  outer loop
    vertex 26 25 90
    vertex 29.8759 21.4693 90
    vertex 31 25 90
  endloop
endfacet
facet normal 0 0 1
  outer loop
    vertex 36 20 90
    vertex 33.1009 21.9546 90
    vertex 31.6699 17.5 90
  endloop
endfacet
facet normal 0 0 1
  outer loop
    vertex 36 5 90
    vertex 31.6699 7.5 90
    vertex 33.1009 3.04543 90
  endloop
endfacet
facet normal 0 -0 1
  outer loop
    vertex 31.6699 17.5 90
    vertex 33.1009 21.9546 90
    vertex 29.8759 21.4693 90
  endloop
endfacet
facet normal 0 0 1
  outer loop
    vertex 31.6699 7.5 90
    vertex 29.8759 3.53073 90
    vertex 33.1009 3.04543 90
  endloop
endfacet
facet normal 0 0 1
  outer loop
    vertex 36 0 90
    vertex 33.1009 3.04543 90
    vertex 31 0 90
  endloop
endfacet
facet normal 0 -0 1
  outer loop
    vertex 36 0 90
    vertex 36 5 90
    vertex 33.1009 3.04543 90
  endloop
endfacet
facet normal 0 0 1
  outer loop
    vertex 36 25 90
    vertex 31 25 90
    vertex 33.1009 21.9546 90
  endloop
endfacet
facet normal 0 0 1
  outer loop
    vertex 36 25 90
    vertex 33.1009 21.9546 90
    vertex 36 20 90
  endloop
endfacet
facet normal 0 -0 1
  outer loop
    vertex 31 0 90
    vertex 33.1009 3.04543 90
    vertex 29.8759 3.53073 90
  endloop
endfacet
facet normal 0 0 1
  outer loop
    vertex 31 25 90
    vertex 29.8759 21.4693 90
    vertex 33.1009 21.9546 90
  endloop
endfacet
facet normal 0 0 -1
  outer loop
    vertex 18 20 130
    vertex 16 20 130
    vertex 17 22.5 130
  endloop
endfacet
facet normal -0 0 -1
  outer loop
    vertex 18 20 130
    vertex 17 17.5 130
    vertex 16 20 130
  endloop
endfacet
facet normal 0 0 -1
  outer loop
    vertex 18 15 130
    vertex 16 15 130
    vertex 17 17.5 130
  endloop
endfacet
facet normal -0 0 -1
  outer loop
    vertex 18 15 130
    vertex 17 12.5 130
    vertex 16 15 130
  endloop
endfacet
facet normal 0 0 -1
  outer loop
    vertex 18 10 130
    vertex 16 10 130
    vertex 17 12.5 130
  endloop
endfacet
facet normal -0 0 -1
  outer loop
    vertex 18 10 130
    vertex 17 7.5 130
    vertex 16 10 130
  endloop
endfacet
facet normal 0 0 -1
  outer loop
    vertex 18 5 130
    vertex 16 5 130
    vertex 17 7.5 130
  endloop
endfacet
facet normal -0 0 -1
  outer loop
    vertex 18 5 130
    vertex 17 2.5 130
    vertex 16 5 130
  endloop
endfacet
facet normal 0 0 -1
  outer loop
    vertex 18 0 130
    vertex 16 0 130
    vertex 17 1.05 130
  endloop
endfacet
facet normal -0 0 -1
  outer loop
    vertex 18 25 130
    vertex 17 23.95 130
    vertex 16 25 130
  endloop
endfacet
facet normal 0 0 -1
  outer loop
    vertex 18 0 130
    vertex 17 2.5 130
    vertex 18 5 130
  endloop
endfacet
facet normal 0 0 -1
  outer loop
    vertex 18 0 130
    vertex 17 1.05 130
    vertex 17 2.5 130
  endloop
endfacet
facet normal 0 -0 -1
  outer loop
    vertex 18 25 130
    vertex 18 20 130
    vertex 17 22.5 130
  endloop
endfacet
facet normal 0 0 -1
  outer loop
    vertex 18 25 130
    vertex 17 22.5 130
    vertex 17 23.95 130
  endloop
endfacet
facet normal 0 0 -1
  outer loop
    vertex 16 0 130
    vertex 16 5 130
    vertex 17 2.5 130
  endloop
endfacet
facet normal 0 0 -1
  outer loop
    vertex 16 0 130
    vertex 17 2.5 130
    vertex 17 1.05 130
  endloop
endfacet
facet normal 0 0 -1
  outer loop
    vertex 16 25 130
    vertex 17 22.5 130
    vertex 16 20 130
  endloop
endfacet
facet normal 0 0 -1
  outer loop
    vertex 16 25 130
    vertex 17 23.95 130
    vertex 17 22.5 130
  endloop
endfacet
facet normal 0 0 -1
  outer loop
    vertex 18 5 130
    vertex 17 7.5 130
    vertex 18 10 130
  endloop
endfacet
facet normal 0 0 -1
  outer loop
    vertex 18 10 130
    vertex 17 12.5 130
    vertex 18 15 130
  endloop
endfacet
facet normal 0 0 -1
  outer loop
    vertex 18 15 130
    vertex 17 17.5 130
    vertex 18 20 130
  endloop
endfacet
facet normal 0 0 -1
  outer loop
    vertex 16 5 130
    vertex 16 10 130
    vertex 17 7.5 130
  endloop
endfacet
facet normal 0 0 -1
  outer loop
    vertex 16 10 130
    vertex 16 15 130
    vertex 17 12.5 130
  endloop
endfacet
facet normal 0 0 -1
  outer loop
    vertex 16 15 130
    vertex 16 20 130
    vertex 17 17.5 130
  endloop
endfacet
facet normal 0.793432 -0.0802225 -0.603349
  outer loop
    vertex 14.1498 22.658 128.759
    vertex 14.9309 23.3821 129.69
    vertex 14.5221 21.917 129.348
  endloop
endfacet
facet normal 0.793432 0.0802225 -0.603349
  outer loop
    vertex 14.1498 2.34198 128.759
    vertex 14.5221 3.08296 129.348
    vertex 14.9309 1.61788 129.69
  endloop
endfacet
facet normal 0.688473 -0.228055 -0.688473
  outer loop
    vertex 16 10 130
    vertex 14.5651 7.5 129.393
    vertex 14 10 128
  endloop
endfacet
facet normal 0.688473 0.228055 -0.688473
  outer loop
    vertex 16 5 130
    vertex 14 5 128
    vertex 14.5651 7.5 129.393
  endloop
endfacet
facet normal 0.688473 0.228055 -0.688473
  outer loop
    vertex 16 15 130
    vertex 14 15 128
    vertex 14.5651 17.5 129.393
  endloop
endfacet
facet normal 0.688473 -0.228055 -0.688473
  outer loop
    vertex 16 20 130
    vertex 14.5651 17.5 129.393
    vertex 14 20 128
  endloop
endfacet
facet normal 0.688473 -0.228055 -0.688473
  outer loop
    vertex 16 15 130
    vertex 14.5651 12.5 129.393
    vertex 14 15 128
  endloop
endfacet
facet normal 0.688473 0.228055 -0.688473
  outer loop
    vertex 16 10 130
    vertex 14 10 128
    vertex 14.5651 12.5 129.393
  endloop
endfacet
facet normal 0.408253 0.0983826 -0.907552
  outer loop
    vertex 15.7769 22.6137 129.988
    vertex 14.5221 21.917 129.348
    vertex 14.9309 23.3821 129.69
  endloop
endfacet
facet normal 0.408252 -0.0983825 -0.907552
  outer loop
    vertex 15.7769 2.38634 129.988
    vertex 14.9309 1.61788 129.69
    vertex 14.5221 3.08296 129.348
  endloop
endfacet
facet normal 0.439394 0.0332224 -0.89768
  outer loop
    vertex 16 20 130
    vertex 14.5221 21.917 129.348
    vertex 15.7769 22.6137 129.988
  endloop
endfacet
facet normal 0.439394 -0.0332223 -0.89768
  outer loop
    vertex 16 5 130
    vertex 15.7769 2.38634 129.988
    vertex 14.5221 3.08296 129.348
  endloop
endfacet
facet normal 0.676449 -0.291261 -0.676449
  outer loop
    vertex 16 5 130
    vertex 14.5221 3.08296 129.348
    vertex 14 5 128
  endloop
endfacet
facet normal 0.676449 0.29126 -0.676449
  outer loop
    vertex 16 20 130
    vertex 14 20 128
    vertex 14.5221 21.917 129.348
  endloop
endfacet
facet normal 0.921934 -0.0648637 -0.381878
  outer loop
    vertex 14 25 128
    vertex 14.5858 25 129.414
    vertex 14.1498 22.658 128.759
  endloop
endfacet
facet normal 0.921934 0.0648637 -0.381878
  outer loop
    vertex 14 0 128
    vertex 14.1498 2.34198 128.759
    vertex 14.5858 0 129.414
  endloop
endfacet
facet normal 0.381583 0.0757877 -0.921222
  outer loop
    vertex 16 0 130
    vertex 14.5858 0 129.414
    vertex 14.9309 1.61788 129.69
  endloop
endfacet
facet normal 0.381583 -0.0757877 -0.921222
  outer loop
    vertex 16 25 130
    vertex 14.9309 23.3821 129.69
    vertex 14.5858 25 129.414
  endloop
endfacet
facet normal 0.747223 -0.046262 -0.662961
  outer loop
    vertex 14.5858 0 129.414
    vertex 14.1498 2.34198 128.759
    vertex 14.9309 1.61788 129.69
  endloop
endfacet
facet normal 0.747223 0.046262 -0.662961
  outer loop
    vertex 14.5858 25 129.414
    vertex 14.9309 23.3821 129.69
    vertex 14.1498 22.658 128.759
  endloop
endfacet
facet normal 0.0558684 0 -0.998438
  outer loop
    vertex 16 0 130
    vertex 15.7769 2.38634 129.988
    vertex 16 5 130
  endloop
endfacet
facet normal 0.311784 0.0241825 -0.949845
  outer loop
    vertex 16 0 130
    vertex 14.9309 1.61788 129.69
    vertex 15.7769 2.38634 129.988
  endloop
endfacet
facet normal 0.0558684 0 -0.998438
  outer loop
    vertex 16 25 130
    vertex 16 20 130
    vertex 15.7769 22.6137 129.988
  endloop
endfacet
facet normal 0.311784 -0.0241826 -0.949845
  outer loop
    vertex 16 25 130
    vertex 15.7769 22.6137 129.988
    vertex 14.9309 23.3821 129.69
  endloop
endfacet
facet normal 0.981102 0 -0.193491
  outer loop
    vertex 14 0 128
    vertex 14 5 128
    vertex 14.1498 2.34198 128.759
  endloop
endfacet
facet normal 0.981102 0 -0.193491
  outer loop
    vertex 14 25 128
    vertex 14.1498 22.658 128.759
    vertex 14 20 128
  endloop
endfacet
facet normal 0.389486 0 -0.921033
  outer loop
    vertex 16 5 130
    vertex 14.5651 7.5 129.393
    vertex 16 10 130
  endloop
endfacet
facet normal 0.389486 0 -0.921033
  outer loop
    vertex 16 10 130
    vertex 14.5651 12.5 129.393
    vertex 16 15 130
  endloop
endfacet
facet normal 0.389486 0 -0.921033
  outer loop
    vertex 16 15 130
    vertex 14.5651 17.5 129.393
    vertex 16 20 130
  endloop
endfacet
facet normal 0.926676 0 -0.37586
  outer loop
    vertex 14 5 128
    vertex 14 10 128
    vertex 14.5651 7.5 129.393
  endloop
endfacet
facet normal 0.88512 -0.0810442 -0.458252
  outer loop
    vertex 14 5 128
    vertex 14.5221 3.08296 129.348
    vertex 14.1498 2.34198 128.759
  endloop
endfacet
facet normal 0.926676 0 -0.375861
  outer loop
    vertex 14 10 128
    vertex 14 15 128
    vertex 14.5651 12.5 129.393
  endloop
endfacet
facet normal 0.926676 0 -0.37586
  outer loop
    vertex 14 15 128
    vertex 14 20 128
    vertex 14.5651 17.5 129.393
  endloop
endfacet
facet normal 0.88512 0.0810442 -0.458252
  outer loop
    vertex 14 20 128
    vertex 14.1498 22.658 128.759
    vertex 14.5221 21.917 129.348
  endloop
endfacet
facet normal 1 1.56502e-16 -1.37689e-15
  outer loop
    vertex 14 4.4977 120.17
    vertex 14 7.527 115.354
    vertex 14 9.96027 119.501
  endloop
endfacet
facet normal 1 1.66156e-15 -4.30231e-16
  outer loop
    vertex 14 4.4977 120.17
    vertex 14 3.32225 115.63
    vertex 14 7.527 115.354
  endloop
endfacet
facet normal 1 3.76693e-17 -4.01984e-16
  outer loop
    vertex 14 4.38201 101.811
    vertex 14 9.87038 102.325
    vertex 14 7.29453 106.502
  endloop
endfacet
facet normal 1 3.1362e-18 3.99883e-16
  outer loop
    vertex 14 4.38707 110.967
    vertex 14 7.29453 106.502
    vertex 14 10.0446 110.923
  endloop
endfacet
facet normal 1 9.47483e-18 1.20809e-15
  outer loop
    vertex 14 4.38707 110.967
    vertex 14 10.0446 110.923
    vertex 14 7.527 115.354
  endloop
endfacet
facet normal 1 -4.22166e-16 -1.16539e-16
  outer loop
    vertex 14 4.38201 101.811
    vertex 14 7.29453 106.502
    vertex 14 3.17324 106.189
  endloop
endfacet
facet normal 1 -0 0
  outer loop
    vertex 14 14.8735 110.918
    vertex 14 16.7689 107.01
    vertex 14 20.1344 110.962
  endloop
endfacet
facet normal 1 3.47416e-16 1.81446e-16
  outer loop
    vertex 14 4.4977 120.17
    vertex 14 9.96027 119.501
    vertex 14 7.61577 123.99
  endloop
endfacet
facet normal 1 0 0
  outer loop
    vertex 14 14.8735 110.918
    vertex 14 20.1344 110.962
    vertex 14 16.8167 114.916
  endloop
endfacet
facet normal 1 3.44828e-16 1.87317e-16
  outer loop
    vertex 14 10.0446 110.923
    vertex 14 7.29453 106.502
    vertex 14 12.2895 106.79
  endloop
endfacet
facet normal 1 3.67095e-16 -1.98865e-16
  outer loop
    vertex 14 12.2895 106.79
    vertex 14 7.29453 106.502
    vertex 14 9.87038 102.325
  endloop
endfacet
facet normal 1 4.01396e-17 -4.28345e-16
  outer loop
    vertex 14 4.38201 101.811
    vertex 14 7.57682 97.9629
    vertex 14 9.87038 102.325
  endloop
endfacet
facet normal 1 0 0
  outer loop
    vertex 14 21.0949 105.933
    vertex 14 20.1344 110.962
    vertex 14 16.7689 107.01
  endloop
endfacet
facet normal 1 -4.02171e-16 2.17867e-16
  outer loop
    vertex 14 12.2895 106.79
    vertex 14 9.87038 102.325
    vertex 14 14.5925 102.888
  endloop
endfacet
facet normal 1 0 0
  outer loop
    vertex 14 21.0975 116.044
    vertex 14 16.8167 114.916
    vertex 14 20.1344 110.962
  endloop
endfacet
facet normal 1 -3.01231e-16 -6.28195e-16
  outer loop
    vertex 14 12.5027 98.2348
    vertex 14 14.5925 102.888
    vertex 14 9.87038 102.325
  endloop
endfacet
facet normal 1 1.69019e-15 5.01488e-18
  outer loop
    vertex 14 4.38707 110.967
    vertex 14 7.527 115.354
    vertex 14 3.32225 115.63
  endloop
endfacet
facet normal 1 0 0
  outer loop
    vertex 14 12.5459 123.708
    vertex 14 14.6718 119.012
    vertex 14 17.5849 123.094
  endloop
endfacet
facet normal 1 0 0
  outer loop
    vertex 14 12.5459 123.708
    vertex 14 9.96027 119.501
    vertex 14 14.6718 119.012
  endloop
endfacet
facet normal 1 0 0
  outer loop
    vertex 14 14.6718 119.012
    vertex 14 9.96027 119.501
    vertex 14 12.4774 115.102
  endloop
endfacet
facet normal 1 0 0
  outer loop
    vertex 14 15 128
    vertex 14 12.5459 123.708
    vertex 14 17.5849 123.094
  endloop
endfacet
facet normal 1 -3.752e-16 1.98207e-16
  outer loop
    vertex 14 15 94
    vertex 14 17.5769 98.878
    vertex 14 12.5027 98.2348
  endloop
endfacet
facet normal 1 -0 0
  outer loop
    vertex 14 10 128
    vertex 14 12.5459 123.708
    vertex 14 15 128
  endloop
endfacet
facet normal 1 -0 4.19462e-16
  outer loop
    vertex 14 10 94
    vertex 14 15 94
    vertex 14 12.5027 98.2348
  endloop
endfacet
facet normal 1 -1.10879e-15 -6.34465e-16
  outer loop
    vertex 14 9.96027 119.501
    vertex 14 7.527 115.354
    vertex 14 12.4774 115.102
  endloop
endfacet
facet normal 1 -0 0
  outer loop
    vertex 14 15 128
    vertex 14 17.5849 123.094
    vertex 14 20 128
  endloop
endfacet
facet normal 1 0 0
  outer loop
    vertex 14 15 94
    vertex 14 20 94
    vertex 14 17.5769 98.878
  endloop
endfacet
facet normal 1 -1.0455e-15 6.08661e-16
  outer loop
    vertex 14 12.4774 115.102
    vertex 14 7.527 115.354
    vertex 14 10.0446 110.923
  endloop
endfacet
facet normal 1 0 0
  outer loop
    vertex 14 12.4774 115.102
    vertex 14 10.0446 110.923
    vertex 14 14.8735 110.918
  endloop
endfacet
facet normal 1 0 0
  outer loop
    vertex 14 25 113.429
    vertex 14 21.0975 116.044
    vertex 14 20.1344 110.962
  endloop
endfacet
facet normal 1 0 0
  outer loop
    vertex 14 0 113.429
    vertex 14 0 108.571
    vertex 14 4.38707 110.967
  endloop
endfacet
facet normal 1 0 -0
  outer loop
    vertex 14 25 113.429
    vertex 14 25 118.286
    vertex 14 21.0975 116.044
  endloop
endfacet
facet normal 1 0 -0
  outer loop
    vertex 14 25 103.714
    vertex 14 25 108.571
    vertex 14 21.0949 105.933
  endloop
endfacet
facet normal 1 0 -0
  outer loop
    vertex 14 25 108.571
    vertex 14 25 113.429
    vertex 14 20.1344 110.962
  endloop
endfacet
facet normal 1 0 0
  outer loop
    vertex 14 25 108.571
    vertex 14 20.1344 110.962
    vertex 14 21.0949 105.933
  endloop
endfacet
facet normal 1 0 0
  outer loop
    vertex 14 10.0446 110.923
    vertex 14 12.2895 106.79
    vertex 14 14.8735 110.918
  endloop
endfacet
facet normal 1 -3.94948e-16 0
  outer loop
    vertex 14 0 123.143
    vertex 14 0 118.286
    vertex 14 4.4977 120.17
  endloop
endfacet
facet normal 1 0 0
  outer loop
    vertex 14 0 103.714
    vertex 14 0 98.8571
    vertex 14 4.38201 101.811
  endloop
endfacet
facet normal 1 0 0
  outer loop
    vertex 14 12.5459 123.708
    vertex 14 7.61577 123.99
    vertex 14 9.96027 119.501
  endloop
endfacet
facet normal 1 -2.6859e-16 -6.42853e-16
  outer loop
    vertex 14 12.5027 98.2348
    vertex 14 17.5769 98.878
    vertex 14 14.5925 102.888
  endloop
endfacet
facet normal 1 -0 0
  outer loop
    vertex 14 5 128
    vertex 14 7.61577 123.99
    vertex 14 10 128
  endloop
endfacet
facet normal 1 -0 4.48252e-16
  outer loop
    vertex 14 5 94
    vertex 14 10 94
    vertex 14 7.57682 97.9629
  endloop
endfacet
facet normal 1 9.41953e-16 -6.72225e-16
  outer loop
    vertex 14 17.5849 123.094
    vertex 14 14.6718 119.012
    vertex 14 18.2771 118.779
  endloop
endfacet
facet normal 1 4.82981e-16 -0
  outer loop
    vertex 14 25 98.8571
    vertex 14 25 103.714
    vertex 14 21.3221 101.488
  endloop
endfacet
facet normal 1 -4.83744e-16 0
  outer loop
    vertex 14 25 118.286
    vertex 14 25 123.143
    vertex 14 21.3279 120.502
  endloop
endfacet
facet normal 1 2.31582e-17 -4.19416e-16
  outer loop
    vertex 14 12.5027 98.2348
    vertex 14 9.87038 102.325
    vertex 14 7.57682 97.9629
  endloop
endfacet
facet normal 1 -4.39501e-16 1.11652e-16
  outer loop
    vertex 14 4.38707 110.967
    vertex 14 3.17324 106.189
    vertex 14 7.29453 106.502
  endloop
endfacet
facet normal 1 4.91903e-16 -7.68829e-17
  outer loop
    vertex 14 17.5769 98.878
    vertex 14 18.2477 103.17
    vertex 14 14.5925 102.888
  endloop
endfacet
facet normal 1 -1.0746e-16 -8.4056e-16
  outer loop
    vertex 14 17.5849 123.094
    vertex 14 18.2771 118.779
    vertex 14 21.3279 120.502
  endloop
endfacet
facet normal 1 -5.32283e-16 8.31942e-17
  outer loop
    vertex 14 17.5769 98.878
    vertex 14 21.3221 101.488
    vertex 14 18.2477 103.17
  endloop
endfacet
facet normal 1 0 0
  outer loop
    vertex 14 10 128
    vertex 14 7.61577 123.99
    vertex 14 12.5459 123.708
  endloop
endfacet
facet normal 1 -2.39421e-17 4.33612e-16
  outer loop
    vertex 14 10 94
    vertex 14 12.5027 98.2348
    vertex 14 7.57682 97.9629
  endloop
endfacet
facet normal 1 2.33866e-16 4.11556e-16
  outer loop
    vertex 14 25 103.714
    vertex 14 21.0949 105.933
    vertex 14 21.3221 101.488
  endloop
endfacet
facet normal 1 -2.35871e-16 4.10651e-16
  outer loop
    vertex 14 25 118.286
    vertex 14 21.3279 120.502
    vertex 14 21.0975 116.044
  endloop
endfacet
facet normal 1 0 0
  outer loop
    vertex 14 14.6718 119.012
    vertex 14 12.4774 115.102
    vertex 14 16.8167 114.916
  endloop
endfacet
facet normal 1 0 0
  outer loop
    vertex 14 25 128
    vertex 14 20 128
    vertex 14 21.4338 124.411
  endloop
endfacet
facet normal 1 0 0
  outer loop
    vertex 14 25 94
    vertex 14 21.4333 97.5868
    vertex 14 20 94
  endloop
endfacet
facet normal 1 -2.45111e-16 -4.36912e-16
  outer loop
    vertex 14 0 113.429
    vertex 14 4.38707 110.967
    vertex 14 3.32225 115.63
  endloop
endfacet
facet normal 1 0 0
  outer loop
    vertex 14 25 128
    vertex 14 21.4338 124.411
    vertex 14 25 123.143
  endloop
endfacet
facet normal 1 0 -0
  outer loop
    vertex 14 25 94
    vertex 14 25 98.8571
    vertex 14 21.4333 97.5868
  endloop
endfacet
facet normal 1 -4.43006e-16 1.14708e-16
  outer loop
    vertex 14 0 118.286
    vertex 14 3.32225 115.63
    vertex 14 4.4977 120.17
  endloop
endfacet
facet normal 1 -0 0
  outer loop
    vertex 14 0 108.571
    vertex 14 3.17324 106.189
    vertex 14 4.38707 110.967
  endloop
endfacet
facet normal 1 -0 0
  outer loop
    vertex 14 0 103.714
    vertex 14 4.38201 101.811
    vertex 14 3.17324 106.189
  endloop
endfacet
facet normal 1 -2.1678e-17 4.42423e-16
  outer loop
    vertex 14 12.2895 106.79
    vertex 14 14.5925 102.888
    vertex 14 16.7689 107.01
  endloop
endfacet
facet normal 1 -0 0
  outer loop
    vertex 14 0 128
    vertex 14 3.5703 124.47
    vertex 14 5 128
  endloop
endfacet
facet normal 1 -0 5.03168e-16
  outer loop
    vertex 14 0 94
    vertex 14 5 94
    vertex 14 3.5703 97.5303
  endloop
endfacet
facet normal 1 4.97537e-16 -0
  outer loop
    vertex 14 0 94
    vertex 14 3.5703 97.5303
    vertex 14 0 98.8571
  endloop
endfacet
facet normal 1 0 0
  outer loop
    vertex 14 0 128
    vertex 14 0 123.143
    vertex 14 3.5703 124.47
  endloop
endfacet
facet normal 1 -5.34685e-16 0
  outer loop
    vertex 14 0 118.286
    vertex 14 0 113.429
    vertex 14 3.32225 115.63
  endloop
endfacet
facet normal 1 0 0
  outer loop
    vertex 14 12.4774 115.102
    vertex 14 14.8735 110.918
    vertex 14 16.8167 114.916
  endloop
endfacet
facet normal 1 0 0
  outer loop
    vertex 14 14.8735 110.918
    vertex 14 12.2895 106.79
    vertex 14 16.7689 107.01
  endloop
endfacet
facet normal 1 0 0
  outer loop
    vertex 14 5 128
    vertex 14 3.5703 124.47
    vertex 14 7.61577 123.99
  endloop
endfacet
facet normal 1 -5.20422e-17 4.82092e-16
  outer loop
    vertex 14 5 94
    vertex 14 7.57682 97.9629
    vertex 14 3.5703 97.5303
  endloop
endfacet
facet normal 1 0 0
  outer loop
    vertex 14 0 108.571
    vertex 14 0 103.714
    vertex 14 3.17324 106.189
  endloop
endfacet
facet normal 1 0 -0
  outer loop
    vertex 14 20 94
    vertex 14 21.4333 97.5868
    vertex 14 17.5769 98.878
  endloop
endfacet
facet normal 1 0 0
  outer loop
    vertex 14 20 128
    vertex 14 17.5849 123.094
    vertex 14 21.4338 124.411
  endloop
endfacet
facet normal 1 1.01994e-15 5.34045e-16
  outer loop
    vertex 14 14.6718 119.012
    vertex 14 16.8167 114.916
    vertex 14 18.2771 118.779
  endloop
endfacet
facet normal 1 -1.60084e-16 -4.50087e-16
  outer loop
    vertex 14 25 123.143
    vertex 14 21.4338 124.411
    vertex 14 21.3279 120.502
  endloop
endfacet
facet normal 1 1.60543e-16 -4.50755e-16
  outer loop
    vertex 14 25 98.8571
    vertex 14 21.3221 101.488
    vertex 14 21.4333 97.5868
  endloop
endfacet
facet normal 1 4.57383e-17 -4.23696e-16
  outer loop
    vertex 14 4.38201 101.811
    vertex 14 3.5703 97.5303
    vertex 14 7.57682 97.9629
  endloop
endfacet
facet normal 1 5.02813e-17 4.23993e-16
  outer loop
    vertex 14 4.4977 120.17
    vertex 14 7.61577 123.99
    vertex 14 3.5703 124.47
  endloop
endfacet
facet normal 1 3.20705e-16 -4.75842e-16
  outer loop
    vertex 14 0 98.8571
    vertex 14 3.5703 97.5303
    vertex 14 4.38201 101.811
  endloop
endfacet
facet normal 1 -1.4214e-16 3.82488e-16
  outer loop
    vertex 14 0 123.143
    vertex 14 4.4977 120.17
    vertex 14 3.5703 124.47
  endloop
endfacet
facet normal 1 4.71964e-16 1.81764e-16
  outer loop
    vertex 14 14.5925 102.888
    vertex 14 18.2477 103.17
    vertex 14 16.7689 107.01
  endloop
endfacet
facet normal 1 1.56973e-16 -4.5868e-16
  outer loop
    vertex 14 17.5849 123.094
    vertex 14 21.3279 120.502
    vertex 14 21.4338 124.411
  endloop
endfacet
facet normal 1 -1.53924e-16 -4.59721e-16
  outer loop
    vertex 14 17.5769 98.878
    vertex 14 21.4333 97.5868
    vertex 14 21.3221 101.488
  endloop
endfacet
facet normal 1 -3.69515e-16 3.80719e-16
  outer loop
    vertex 14 21.0949 105.933
    vertex 14 18.2477 103.17
    vertex 14 21.3221 101.488
  endloop
endfacet
facet normal 1 -8.31619e-16 4.41444e-16
  outer loop
    vertex 14 21.0975 116.044
    vertex 14 21.3279 120.502
    vertex 14 18.2771 118.779
  endloop
endfacet
facet normal 1 -2.69256e-16 1.02141e-15
  outer loop
    vertex 14 21.0975 116.044
    vertex 14 18.2771 118.779
    vertex 14 16.8167 114.916
  endloop
endfacet
facet normal 1 0 0
  outer loop
    vertex 14 21.0949 105.933
    vertex 14 16.7689 107.01
    vertex 14 18.2477 103.17
  endloop
endfacet
facet normal 0.19509 0 -0.980785
  outer loop
    vertex 10 25 90
    vertex 11.5307 22.5186 90.3045
    vertex 10 20 90
  endloop
endfacet
facet normal 0.21092 0 -0.977503
  outer loop
    vertex 10 0 90
    vertex 10 5 90
    vertex 11.6494 2.71221 90.3559
  endloop
endfacet
facet normal 0.980534 0 -0.196349
  outer loop
    vertex 14 25 94
    vertex 14 20 94
    vertex 13.6916 22.5 92.4598
  endloop
endfacet
facet normal 0.980534 0 -0.19635
  outer loop
    vertex 14 0 94
    vertex 13.6916 2.5 92.4598
    vertex 14 5 94
  endloop
endfacet
facet normal 0.704928 0.0663665 -0.706167
  outer loop
    vertex 11.5307 22.5186 90.3045
    vertex 13.6916 22.5 92.4598
    vertex 12.8279 17.9611 91.171
  endloop
endfacet
facet normal 0.327913 -0.0855561 -0.940826
  outer loop
    vertex 10 20 90
    vertex 11.5307 22.5186 90.3045
    vertex 12.8279 17.9611 91.171
  endloop
endfacet
facet normal 0.940808 -0.0859274 -0.327867
  outer loop
    vertex 14 20 94
    vertex 12.8279 17.9611 91.171
    vertex 13.6916 22.5 92.4598
  endloop
endfacet
facet normal 0.713046 -0.0619246 -0.698377
  outer loop
    vertex 11.6494 2.71221 90.3559
    vertex 12.8403 7.09155 91.1835
    vertex 13.6916 2.5 92.4598
  endloop
endfacet
facet normal 0.326524 0.0890258 -0.940987
  outer loop
    vertex 10 5 90
    vertex 12.8403 7.09155 91.1835
    vertex 11.6494 2.71221 90.3559
  endloop
endfacet
facet normal 0.941858 0.0842085 -0.325287
  outer loop
    vertex 14 5 94
    vertex 13.6916 2.5 92.4598
    vertex 12.8403 7.09155 91.1835
  endloop
endfacet
facet normal 0.923928 0.000226564 -0.382568
  outer loop
    vertex 14 15 94
    vertex 12.8303 12.2678 91.1734
    vertex 12.8279 17.9611 91.171
  endloop
endfacet
facet normal 0.3828 -0.000226682 -0.923831
  outer loop
    vertex 10 15 90
    vertex 12.8279 17.9611 91.171
    vertex 12.8303 12.2678 91.1734
  endloop
endfacet
facet normal 0.924005 0 -0.382381
  outer loop
    vertex 14 10 94
    vertex 12.8303 12.2678 91.1734
    vertex 14 15 94
  endloop
endfacet
facet normal 0.382986 0 -0.923754
  outer loop
    vertex 10 10 90
    vertex 10 15 90
    vertex 12.8303 12.2678 91.1734
  endloop
endfacet
facet normal 0.384619 0 -0.923076
  outer loop
    vertex 10 5 90
    vertex 10 10 90
    vertex 12.8403 7.09155 91.1835
  endloop
endfacet
facet normal 0.924679 0 -0.380747
  outer loop
    vertex 14 5 94
    vertex 12.8403 7.09155 91.1835
    vertex 14 10 94
  endloop
endfacet
facet normal 0.923844 0 -0.38277
  outer loop
    vertex 14 15 94
    vertex 12.8279 17.9611 91.171
    vertex 14 20 94
  endloop
endfacet
facet normal 0.382597 0 -0.923915
  outer loop
    vertex 10 15 90
    vertex 10 20 90
    vertex 12.8279 17.9611 91.171
  endloop
endfacet
facet normal 0.9243 0.0010422 -0.381666
  outer loop
    vertex 14 10 94
    vertex 12.8403 7.09155 91.1835
    vertex 12.8303 12.2678 91.1734
  endloop
endfacet
facet normal 0.383703 -0.00104887 -0.923456
  outer loop
    vertex 10 10 90
    vertex 12.8303 12.2678 91.1734
    vertex 12.8403 7.09155 91.1835
  endloop
endfacet
facet normal 0.917103 -0.120894 -0.379877
  outer loop
    vertex 14 0 94
    vertex 12.8284 0 91.1716
    vertex 13.6916 2.5 92.4598
  endloop
endfacet
facet normal 0.917103 0.120894 -0.379877
  outer loop
    vertex 14 25 94
    vertex 13.6916 22.5 92.4598
    vertex 12.8284 25 91.1716
  endloop
endfacet
facet normal 0.380327 -0.110806 -0.91819
  outer loop
    vertex 10 0 90
    vertex 11.6494 2.71221 90.3559
    vertex 12.8284 0 91.1716
  endloop
endfacet
facet normal 0.379835 0.121793 -0.917002
  outer loop
    vertex 10 25 90
    vertex 12.8284 25 91.1716
    vertex 11.5307 22.5186 90.3045
  endloop
endfacet
facet normal 0.700526 -0.120571 -0.703368
  outer loop
    vertex 12.8284 25 91.1716
    vertex 13.6916 22.5 92.4598
    vertex 11.5307 22.5186 90.3045
  endloop
endfacet
facet normal 0.718835 0.105853 -0.687074
  outer loop
    vertex 12.8284 0 91.1716
    vertex 11.6494 2.71221 90.3559
    vertex 13.6916 2.5 92.4598
  endloop
endfacet
facet normal 0 0 -1
  outer loop
    vertex 10 5 90
    vertex 4.33013 7.5 90
    vertex 10 10 90
  endloop
endfacet
facet normal 0 0 -1
  outer loop
    vertex 0 15 90
    vertex 0 20 90
    vertex 5.66987 17.5 90
  endloop
endfacet
facet normal 0 0 -1
  outer loop
    vertex 0 15 90
    vertex 5.66987 17.5 90
    vertex 5.41924 12.4911 90
  endloop
endfacet
facet normal 0 0 -1
  outer loop
    vertex 0 10 90
    vertex 0 15 90
    vertex 5.41924 12.4911 90
  endloop
endfacet
facet normal -0 0 -1
  outer loop
    vertex 10 10 90
    vertex 4.33013 7.5 90
    vertex 5.41924 12.4911 90
  endloop
endfacet
facet normal 0 0 -1
  outer loop
    vertex 0 10 90
    vertex 5.41924 12.4911 90
    vertex 4.33013 7.5 90
  endloop
endfacet
facet normal -0 0 -1
  outer loop
    vertex 10 5 90
    vertex 6.12415 3.53073 90
    vertex 4.33013 7.5 90
  endloop
endfacet
facet normal 0 0 -1
  outer loop
    vertex 0 20 90
    vertex 3.87585 21.4693 90
    vertex 5.66987 17.5 90
  endloop
endfacet
facet normal -0 0 -1
  outer loop
    vertex 10 15 90
    vertex 5.41924 12.4911 90
    vertex 5.66987 17.5 90
  endloop
endfacet
facet normal 0 0 -1
  outer loop
    vertex 10 10 90
    vertex 5.41924 12.4911 90
    vertex 10 15 90
  endloop
endfacet
facet normal 0 0 -1
  outer loop
    vertex 10 15 90
    vertex 5.66987 17.5 90
    vertex 10 20 90
  endloop
endfacet
facet normal 0 0 -1
  outer loop
    vertex 0 5 90
    vertex 0 10 90
    vertex 4.33013 7.5 90
  endloop
endfacet
facet normal 0 0 -1
  outer loop
    vertex 10 0 90
    vertex 6.12415 3.53073 90
    vertex 10 5 90
  endloop
endfacet
facet normal 0 0 -1
  outer loop
    vertex 0 25 90
    vertex 3.87585 21.4693 90
    vertex 0 20 90
  endloop
endfacet
facet normal 0 0 -1
  outer loop
    vertex 10 0 90
    vertex 5 0 90
    vertex 6.12415 3.53073 90
  endloop
endfacet
facet normal 0 0 -1
  outer loop
    vertex 0 25 90
    vertex 5 25 90
    vertex 3.87585 21.4693 90
  endloop
endfacet
facet normal -0 0 -1
  outer loop
    vertex 10 20 90
    vertex 5.66987 17.5 90
    vertex 7.10093 21.9546 90
  endloop
endfacet
facet normal 0 0 -1
  outer loop
    vertex 0 5 90
    vertex 4.33013 7.5 90
    vertex 2.89907 3.04543 90
  endloop
endfacet
facet normal 0 0 -1
  outer loop
    vertex 5.66987 17.5 90
    vertex 3.87585 21.4693 90
    vertex 7.10093 21.9546 90
  endloop
endfacet
facet normal 0 -0 -1
  outer loop
    vertex 4.33013 7.5 90
    vertex 6.12415 3.53073 90
    vertex 2.89907 3.04543 90
  endloop
endfacet
facet normal 0 0 -1
  outer loop
    vertex 0 0 90
    vertex 2.89907 3.04543 90
    vertex 5 0 90
  endloop
endfacet
facet normal 0 0 -1
  outer loop
    vertex 0 0 90
    vertex 0 5 90
    vertex 2.89907 3.04543 90
  endloop
endfacet
facet normal 0 -0 -1
  outer loop
    vertex 10 25 90
    vertex 10 20 90
    vertex 7.10093 21.9546 90
  endloop
endfacet
facet normal -0 0 -1
  outer loop
    vertex 10 25 90
    vertex 7.10093 21.9546 90
    vertex 5 25 90
  endloop
endfacet
facet normal 0 0 -1
  outer loop
    vertex 5 0 90
    vertex 2.89907 3.04543 90
    vertex 6.12415 3.53073 90
  endloop
endfacet
facet normal 0 -0 -1
  outer loop
    vertex 5 25 90
    vertex 7.10093 21.9546 90
    vertex 3.87585 21.4693 90
  endloop
endfacet
endsolid Created by Gmsh
