solid Created by Gmsh
facet normal 0 0 1
  outer loop
    vertex 25.5157 20.9428 0
    vertex 22.7999 19.5013 0
    vertex 25.5751 18.2 0
  endloop
endfacet
facet normal 0 0 1
  outer loop
    vertex 2.4843 20.9428 0
    vertex 2.42487 18.2 0
    vertex 5.19938 19.5018 0
  endloop
endfacet
facet normal 0 0 1
  outer loop
    vertex 2.63276 15.0184 0
    vertex 4.1491 12.2632 0
    vertex 5.59406 14.5672 0
  endloop
endfacet
facet normal 0 0 1
  outer loop
    vertex 25.3672 15.0184 0
    vertex 22.4035 14.5783 0
    vertex 23.8249 12.2984 0
  endloop
endfacet
facet normal 0 0 1
  outer loop
    vertex 25.464 4.45711 0
    vertex 23.8204 7.20653 0
    vertex 22.4207 4.75754 0
  endloop
endfacet
facet normal 0 0 1
  outer loop
    vertex 25.5157 20.9428 0
    vertex 23.4647 22.3954 0
    vertex 22.7999 19.5013 0
  endloop
endfacet
facet normal -0 0 1
  outer loop
    vertex 2.4843 20.9428 0
    vertex 5.19938 19.5018 0
    vertex 4.53535 22.3954 0
  endloop
endfacet
facet normal 0 0 1
  outer loop
    vertex 2.63276 15.0184 0
    vertex 1.82718 12.6 0
    vertex 4.1491 12.2632 0
  endloop
endfacet
facet normal 0 0 1
  outer loop
    vertex 25.3672 15.0184 0
    vertex 23.8249 12.2984 0
    vertex 26.1565 12.5277 0
  endloop
endfacet
facet normal 0 0 1
  outer loop
    vertex 0 2.8 0
    vertex 2.57895 4.56068 0
    vertex 0 5.6 0
  endloop
endfacet
facet normal 0 -0 1
  outer loop
    vertex 25.464 4.45711 0
    vertex 26.1593 7.08758 0
    vertex 23.8204 7.20653 0
  endloop
endfacet
facet normal 0 0 1
  outer loop
    vertex 2.48792 9.77423 0
    vertex 4.2 7.27461 0
    vertex 5.52561 9.72155 0
  endloop
endfacet
facet normal 0 0 1
  outer loop
    vertex 25.5121 9.77423 0
    vertex 22.4705 9.72012 0
    vertex 23.8204 7.20653 0
  endloop
endfacet
facet normal -0 0 1
  outer loop
    vertex 0 2.8 0
    vertex 2.04974 2.04974 0
    vertex 2.57895 4.56068 0
  endloop
endfacet
facet normal 0 0 1
  outer loop
    vertex 25.5121 9.77423 0
    vertex 23.8249 12.2984 0
    vertex 22.4705 9.72012 0
  endloop
endfacet
facet normal -0 0 1
  outer loop
    vertex 2.48792 9.77423 0
    vertex 5.52561 9.72155 0
    vertex 4.1491 12.2632 0
  endloop
endfacet
facet normal 0 0 1
  outer loop
    vertex 22.7999 19.5013 0
    vertex 23.4969 16.8058 0
    vertex 25.5751 18.2 0
  endloop
endfacet
facet normal 0 0 1
  outer loop
    vertex 5.19938 19.5018 0
    vertex 2.42487 18.2 0
    vertex 4.50311 16.8058 0
  endloop
endfacet
facet normal 0 0 1
  outer loop
    vertex 25.464 4.45711 0
    vertex 22.4207 4.75754 0
    vertex 23.7146 2.29827 0
  endloop
endfacet
facet normal -0 0 1
  outer loop
    vertex 20.9471 21.7918 0
    vertex 22.7999 19.5013 0
    vertex 23.4647 22.3954 0
  endloop
endfacet
facet normal 0 -0 1
  outer loop
    vertex 5.19938 19.5018 0
    vertex 7.02861 21.7981 0
    vertex 4.53535 22.3954 0
  endloop
endfacet
facet normal 0 -0 1
  outer loop
    vertex 22.4705 9.72012 0
    vertex 23.8249 12.2984 0
    vertex 21.0119 12.1286 0
  endloop
endfacet
facet normal 0 0 1
  outer loop
    vertex 6.97995 12.1318 0
    vertex 4.1491 12.2632 0
    vertex 5.52561 9.72155 0
  endloop
endfacet
facet normal 0 0 1
  outer loop
    vertex 25.3672 15.0184 0
    vertex 23.4969 16.8058 0
    vertex 22.4035 14.5783 0
  endloop
endfacet
facet normal -0 0 1
  outer loop
    vertex 2.63276 15.0184 0
    vertex 5.59406 14.5672 0
    vertex 4.50311 16.8058 0
  endloop
endfacet
facet normal 0 0 1
  outer loop
    vertex 23.6348 25.3523 0
    vertex 23.4647 22.3954 0
    vertex 25.7609 23.7068 0
  endloop
endfacet
facet normal 0 0 1
  outer loop
    vertex 4.35243 25.3261 0
    vertex 2.23697 23.7024 0
    vertex 4.53535 22.3954 0
  endloop
endfacet
facet normal 0 0 1
  outer loop
    vertex 21.0119 12.1286 0
    vertex 23.8249 12.2984 0
    vertex 22.4035 14.5783 0
  endloop
endfacet
facet normal 0 0 1
  outer loop
    vertex 6.97995 12.1318 0
    vertex 5.59406 14.5672 0
    vertex 4.1491 12.2632 0
  endloop
endfacet
facet normal 0 0 1
  outer loop
    vertex 2.48792 9.77423 0
    vertex 1.86985 7.03173 0
    vertex 4.2 7.27461 0
  endloop
endfacet
facet normal 0 0 1
  outer loop
    vertex 25.5121 9.77423 0
    vertex 23.8204 7.20653 0
    vertex 26.1593 7.08758 0
  endloop
endfacet
facet normal 0 -0 1
  outer loop
    vertex 21.0119 12.1286 0
    vertex 22.4035 14.5783 0
    vertex 19.6029 14.5549 0
  endloop
endfacet
facet normal 0 0 1
  outer loop
    vertex 21 16.9741 0
    vertex 19.6029 14.5549 0
    vertex 22.4035 14.5783 0
  endloop
endfacet
facet normal 0 0 1
  outer loop
    vertex 7.04802 16.9461 0
    vertex 5.59406 14.5672 0
    vertex 8.40551 14.5446 0
  endloop
endfacet
facet normal 0 0 1
  outer loop
    vertex 8.40551 14.5446 0
    vertex 5.59406 14.5672 0
    vertex 6.97995 12.1318 0
  endloop
endfacet
facet normal 0 -0 1
  outer loop
    vertex 20.9771 2.41166 0
    vertex 22.4207 4.75754 0
    vertex 19.5996 4.83217 0
  endloop
endfacet
facet normal 0 0 1
  outer loop
    vertex 21 7.27461 0
    vertex 19.5996 4.83217 0
    vertex 22.4207 4.75754 0
  endloop
endfacet
facet normal 0 0 1
  outer loop
    vertex 9.8 16.9741 0
    vertex 7.04802 16.9461 0
    vertex 8.40551 14.5446 0
  endloop
endfacet
facet normal -0 0 1
  outer loop
    vertex 18.2 7.27461 0
    vertex 19.5996 4.83217 0
    vertex 21 7.27461 0
  endloop
endfacet
facet normal -0 0 1
  outer loop
    vertex 15.4 2.42487 0
    vertex 18.1972 2.42121 0
    vertex 16.8 4.84974 0
  endloop
endfacet
facet normal 0 0 1
  outer loop
    vertex 15.4 7.27461 0
    vertex 18.2 7.27461 0
    vertex 16.8 9.69948 0
  endloop
endfacet
facet normal 0 0 1
  outer loop
    vertex 14 14.5492 0
    vertex 12.6 16.9741 0
    vertex 11.2 14.5492 0
  endloop
endfacet
facet normal -0 0 1
  outer loop
    vertex 16.8 14.5492 0
    vertex 18.202 12.1251 0
    vertex 19.6029 14.5549 0
  endloop
endfacet
facet normal -0 0 1
  outer loop
    vertex 0 19.6 0
    vertex 2.42487 18.2 0
    vertex 2.4843 20.9428 0
  endloop
endfacet
facet normal 0 0 1
  outer loop
    vertex 20.9771 2.41166 0
    vertex 19.5996 4.83217 0
    vertex 18.1972 2.42121 0
  endloop
endfacet
facet normal -0 0 1
  outer loop
    vertex 16.8 9.69948 0
    vertex 18.2 7.27461 0
    vertex 19.6 9.69948 0
  endloop
endfacet
facet normal 0 0 1
  outer loop
    vertex 14 14.5492 0
    vertex 16.8 14.5492 0
    vertex 15.4 16.9741 0
  endloop
endfacet
facet normal 0 0 1
  outer loop
    vertex 11.2 19.399 0
    vertex 14 19.399 0
    vertex 12.6 21.8238 0
  endloop
endfacet
facet normal 0 0 1
  outer loop
    vertex 16.8 4.84974 0
    vertex 18.1972 2.42121 0
    vertex 19.5996 4.83217 0
  endloop
endfacet
facet normal 0 0 1
  outer loop
    vertex 11.2 14.5492 0
    vertex 9.8 16.9741 0
    vertex 8.40551 14.5446 0
  endloop
endfacet
facet normal 0 0 1
  outer loop
    vertex 21.0119 12.1286 0
    vertex 19.6029 14.5549 0
    vertex 18.202 12.1251 0
  endloop
endfacet
facet normal 0 -0 1
  outer loop
    vertex 14 14.5492 0
    vertex 15.4 16.9741 0
    vertex 12.6 16.9741 0
  endloop
endfacet
facet normal 0 -0 1
  outer loop
    vertex 11.2 14.5492 0
    vertex 12.6 16.9741 0
    vertex 9.8 16.9741 0
  endloop
endfacet
facet normal 0 0 1
  outer loop
    vertex 14 0 0
    vertex 16.8 0 0
    vertex 15.4 2.42487 0
  endloop
endfacet
facet normal 0 0 1
  outer loop
    vertex 15.4 2.42487 0
    vertex 14 4.84974 0
    vertex 12.6 2.42487 0
  endloop
endfacet
facet normal 0 -0 1
  outer loop
    vertex 16.8 14.5492 0
    vertex 18.2 16.9741 0
    vertex 15.4 16.9741 0
  endloop
endfacet
facet normal 0 -0 1
  outer loop
    vertex 16.8 4.84974 0
    vertex 18.2 7.27461 0
    vertex 15.4 7.27461 0
  endloop
endfacet
facet normal 0 -0 1
  outer loop
    vertex 12.6 7.27461 0
    vertex 14 9.69948 0
    vertex 11.1994 9.69969 0
  endloop
endfacet
facet normal 0 -0 1
  outer loop
    vertex 14 19.399 0
    vertex 15.4 21.8238 0
    vertex 12.6 21.8238 0
  endloop
endfacet
facet normal 0 0 1
  outer loop
    vertex 0 16.8 0
    vertex 2.42487 18.2 0
    vertex 0 19.6 0
  endloop
endfacet
facet normal 0 0 1
  outer loop
    vertex 14 9.69948 0
    vertex 12.6 12.1244 0
    vertex 11.1994 9.69969 0
  endloop
endfacet
facet normal 0 0 1
  outer loop
    vertex 5.52561 9.72155 0
    vertex 4.2 7.27461 0
    vertex 6.98705 7.2785 0
  endloop
endfacet
facet normal -0 0 1
  outer loop
    vertex 16.8 19.399 0
    vertex 18.2 16.9741 0
    vertex 19.6 19.399 0
  endloop
endfacet
facet normal 0 0 1
  outer loop
    vertex 19.6 0 0
    vertex 22.4 0 0
    vertex 20.9771 2.41166 0
  endloop
endfacet
facet normal 0 0 1
  outer loop
    vertex 0 19.6 0
    vertex 2.4843 20.9428 0
    vertex 0 22.4 0
  endloop
endfacet
facet normal 0 0 1
  outer loop
    vertex 6.97995 12.1318 0
    vertex 5.52561 9.72155 0
    vertex 8.39666 9.70072 0
  endloop
endfacet
facet normal 0 0 1
  outer loop
    vertex 19.6 28 0
    vertex 18.2 25.5751 0
    vertex 20.9106 25.7582 0
  endloop
endfacet
facet normal 0 0 1
  outer loop
    vertex 28 19.6 0
    vertex 25.5157 20.9428 0
    vertex 25.5751 18.2 0
  endloop
endfacet
facet normal 0 0 1
  outer loop
    vertex 2.8 0 0
    vertex 5.6 0 0
    vertex 4.30829 2.36235 0
  endloop
endfacet
facet normal 0 0 1
  outer loop
    vertex 8.4 19.399 0
    vertex 5.19938 19.5018 0
    vertex 7.04802 16.9461 0
  endloop
endfacet
facet normal 0 0 1
  outer loop
    vertex 9.8 16.9741 0
    vertex 8.4 19.399 0
    vertex 7.04802 16.9461 0
  endloop
endfacet
facet normal 0 -0 1
  outer loop
    vertex 16.8 0 0
    vertex 18.1972 2.42121 0
    vertex 15.4 2.42487 0
  endloop
endfacet
facet normal 0 0 1
  outer loop
    vertex 0 14 0
    vertex 2.63276 15.0184 0
    vertex 0 16.8 0
  endloop
endfacet
facet normal 0 0 1
  outer loop
    vertex 8.4 0 0
    vertex 11.2 0 0
    vertex 9.8 2.42487 0
  endloop
endfacet
facet normal 0 0 1
  outer loop
    vertex 0 8.4 0
    vertex 2.48792 9.77423 0
    vertex 0 11.2 0
  endloop
endfacet
facet normal 0 0 1
  outer loop
    vertex 12.6 12.1244 0
    vertex 11.2 14.5492 0
    vertex 9.8 12.1244 0
  endloop
endfacet
facet normal 0 0 1
  outer loop
    vertex 15.4 7.27461 0
    vertex 14 9.69948 0
    vertex 12.6 7.27461 0
  endloop
endfacet
facet normal 0 -0 1
  outer loop
    vertex 12.6 12.1244 0
    vertex 14 14.5492 0
    vertex 11.2 14.5492 0
  endloop
endfacet
facet normal 0 -0 1
  outer loop
    vertex 19.6 0 0
    vertex 20.9771 2.41166 0
    vertex 18.1972 2.42121 0
  endloop
endfacet
facet normal 0 -0 1
  outer loop
    vertex 5.6 0 0
    vertex 7.01805 2.41445 0
    vertex 4.30829 2.36235 0
  endloop
endfacet
facet normal 0 0 1
  outer loop
    vertex 9.8 12.1244 0
    vertex 6.97995 12.1318 0
    vertex 8.39666 9.70072 0
  endloop
endfacet
facet normal 0 -0 1
  outer loop
    vertex 8.4 0 0
    vertex 9.8 2.42487 0
    vertex 7.01805 2.41445 0
  endloop
endfacet
facet normal 0 0 1
  outer loop
    vertex 18.2 21.8238 0
    vertex 19.6 19.399 0
    vertex 20.9471 21.7918 0
  endloop
endfacet
facet normal 0 -0 1
  outer loop
    vertex 14 0 0
    vertex 15.4 2.42487 0
    vertex 12.6 2.42487 0
  endloop
endfacet
facet normal 0 0 1
  outer loop
    vertex 8.39666 9.70072 0
    vertex 5.52561 9.72155 0
    vertex 6.98705 7.2785 0
  endloop
endfacet
facet normal 0 -0 1
  outer loop
    vertex 14 4.84974 0
    vertex 15.4 7.27461 0
    vertex 12.6 7.27461 0
  endloop
endfacet
facet normal 0 0 1
  outer loop
    vertex 11.2 14.5492 0
    vertex 8.40551 14.5446 0
    vertex 9.8 12.1244 0
  endloop
endfacet
facet normal 0 -0 1
  outer loop
    vertex 15.4 2.42487 0
    vertex 16.8 4.84974 0
    vertex 14 4.84974 0
  endloop
endfacet
facet normal 0 0 1
  outer loop
    vertex 5.6 0 0
    vertex 8.4 0 0
    vertex 7.01805 2.41445 0
  endloop
endfacet
facet normal 0 -0 1
  outer loop
    vertex 9.8 16.9741 0
    vertex 11.2 19.399 0
    vertex 8.4 19.399 0
  endloop
endfacet
facet normal 0 0 1
  outer loop
    vertex 16.8 14.5492 0
    vertex 19.6029 14.5549 0
    vertex 18.2 16.9741 0
  endloop
endfacet
facet normal 0 0 1
  outer loop
    vertex 19.6 19.399 0
    vertex 18.2 16.9741 0
    vertex 21 16.9741 0
  endloop
endfacet
facet normal 0 0 1
  outer loop
    vertex 16.8 0 0
    vertex 19.6 0 0
    vertex 18.1972 2.42121 0
  endloop
endfacet
facet normal 0 -0 1
  outer loop
    vertex 11.2 0 0
    vertex 12.6 2.42487 0
    vertex 9.8 2.42487 0
  endloop
endfacet
facet normal 0 -0 1
  outer loop
    vertex 19.6 9.69948 0
    vertex 21.0119 12.1286 0
    vertex 18.202 12.1251 0
  endloop
endfacet
facet normal 0 0 1
  outer loop
    vertex 18.2 7.27461 0
    vertex 21 7.27461 0
    vertex 19.6 9.69948 0
  endloop
endfacet
facet normal -0 0 1
  outer loop
    vertex 16.8 4.84974 0
    vertex 19.5996 4.83217 0
    vertex 18.2 7.27461 0
  endloop
endfacet
facet normal 0 0 1
  outer loop
    vertex 9.8 12.1244 0
    vertex 8.40551 14.5446 0
    vertex 6.97995 12.1318 0
  endloop
endfacet
facet normal -0 0 1
  outer loop
    vertex 16.8 28 0
    vertex 18.2 25.5751 0
    vertex 19.6 28 0
  endloop
endfacet
facet normal 0 -0 1
  outer loop
    vertex 28 16.8 0
    vertex 28 19.6 0
    vertex 25.5751 18.2 0
  endloop
endfacet
facet normal -0 0 1
  outer loop
    vertex 22.4 28 0
    vertex 23.6348 25.3523 0
    vertex 25.2 28 0
  endloop
endfacet
facet normal 0 0 1
  outer loop
    vertex 12.6 16.9741 0
    vertex 11.2 19.399 0
    vertex 9.8 16.9741 0
  endloop
endfacet
facet normal 0 0 1
  outer loop
    vertex 12.6 12.1244 0
    vertex 9.8 12.1244 0
    vertex 11.1994 9.69969 0
  endloop
endfacet
facet normal 0 0 1
  outer loop
    vertex 16.8 19.399 0
    vertex 15.4 16.9741 0
    vertex 18.2 16.9741 0
  endloop
endfacet
facet normal -0 0 1
  outer loop
    vertex 0 16.8 0
    vertex 2.63276 15.0184 0
    vertex 2.42487 18.2 0
  endloop
endfacet
facet normal 0 -0 1
  outer loop
    vertex 15.4 7.27461 0
    vertex 16.8 9.69948 0
    vertex 14 9.69948 0
  endloop
endfacet
facet normal 0 0 1
  outer loop
    vertex 11.2 4.84974 0
    vertex 9.79719 7.2755 0
    vertex 8.40038 4.8488 0
  endloop
endfacet
facet normal 0 0 1
  outer loop
    vertex 8.4 19.399 0
    vertex 7.02861 21.7981 0
    vertex 5.19938 19.5018 0
  endloop
endfacet
facet normal -0 0 1
  outer loop
    vertex 19.6 9.69948 0
    vertex 21 7.27461 0
    vertex 22.4705 9.72012 0
  endloop
endfacet
facet normal 0 0 1
  outer loop
    vertex 14 4.84974 0
    vertex 16.8 4.84974 0
    vertex 15.4 7.27461 0
  endloop
endfacet
facet normal 0 -0 1
  outer loop
    vertex 12.6 16.9741 0
    vertex 14 19.399 0
    vertex 11.2 19.399 0
  endloop
endfacet
facet normal 0 0 1
  outer loop
    vertex 11.2 28 0
    vertex 9.8 25.5751 0
    vertex 12.6 25.5751 0
  endloop
endfacet
facet normal 0 0 1
  outer loop
    vertex 8.4 28 0
    vertex 7.1148 25.7167 0
    vertex 9.8 25.5751 0
  endloop
endfacet
facet normal 0 0 1
  outer loop
    vertex 11.2 0 0
    vertex 14 0 0
    vertex 12.6 2.42487 0
  endloop
endfacet
facet normal 0 0 1
  outer loop
    vertex 16.8 19.399 0
    vertex 19.6 19.399 0
    vertex 18.2 21.8238 0
  endloop
endfacet
facet normal -0 0 1
  outer loop
    vertex 11.2 28 0
    vertex 12.6 25.5751 0
    vertex 14 28 0
  endloop
endfacet
facet normal -0 0 1
  outer loop
    vertex 5.6 28 0
    vertex 7.1148 25.7167 0
    vertex 8.4 28 0
  endloop
endfacet
facet normal -0 0 1
  outer loop
    vertex 14 28 0
    vertex 15.4 25.5751 0
    vertex 16.8 28 0
  endloop
endfacet
facet normal 0 -0 1
  outer loop
    vertex 28 14 0
    vertex 28 16.8 0
    vertex 25.3672 15.0184 0
  endloop
endfacet
facet normal -0 0 1
  outer loop
    vertex 2.8 28 0
    vertex 4.35243 25.3261 0
    vertex 5.6 28 0
  endloop
endfacet
facet normal 0 -0 1
  outer loop
    vertex 28 2.8 0
    vertex 28 5.6 0
    vertex 25.464 4.45711 0
  endloop
endfacet
facet normal -0 0 1
  outer loop
    vertex 19.6 28 0
    vertex 20.9106 25.7582 0
    vertex 22.4 28 0
  endloop
endfacet
facet normal 0 -0 1
  outer loop
    vertex 28 19.6 0
    vertex 28 22.4 0
    vertex 25.5157 20.9428 0
  endloop
endfacet
facet normal -0 0 1
  outer loop
    vertex 8.4 28 0
    vertex 9.8 25.5751 0
    vertex 11.2 28 0
  endloop
endfacet
facet normal 0 -0 1
  outer loop
    vertex 28 8.4 0
    vertex 28 11.2 0
    vertex 25.5121 9.77423 0
  endloop
endfacet
facet normal -0 0 1
  outer loop
    vertex 21 7.27461 0
    vertex 23.8204 7.20653 0
    vertex 22.4705 9.72012 0
  endloop
endfacet
facet normal 0 0 1
  outer loop
    vertex 19.6 9.69948 0
    vertex 22.4705 9.72012 0
    vertex 21.0119 12.1286 0
  endloop
endfacet
facet normal 0 -0 1
  outer loop
    vertex 14 9.69948 0
    vertex 15.4 12.1244 0
    vertex 12.6 12.1244 0
  endloop
endfacet
facet normal 0 0 1
  outer loop
    vertex 14 28 0
    vertex 12.6 25.5751 0
    vertex 15.4 25.5751 0
  endloop
endfacet
facet normal 0 0 1
  outer loop
    vertex 5.6 28 0
    vertex 4.35243 25.3261 0
    vertex 7.1148 25.7167 0
  endloop
endfacet
facet normal 0 0 1
  outer loop
    vertex 21 7.27461 0
    vertex 22.4207 4.75754 0
    vertex 23.8204 7.20653 0
  endloop
endfacet
facet normal 0 -0 1
  outer loop
    vertex 11.2 19.399 0
    vertex 12.6 21.8238 0
    vertex 9.8 21.8238 0
  endloop
endfacet
facet normal 0 0 1
  outer loop
    vertex 9.8 2.42487 0
    vertex 12.6 2.42487 0
    vertex 11.2 4.84974 0
  endloop
endfacet
facet normal 0 0 1
  outer loop
    vertex 19.6 19.399 0
    vertex 22.7999 19.5013 0
    vertex 20.9471 21.7918 0
  endloop
endfacet
facet normal 0 -0 1
  outer loop
    vertex 12.6 2.42487 0
    vertex 14 4.84974 0
    vertex 11.2 4.84974 0
  endloop
endfacet
facet normal 0 0 1
  outer loop
    vertex 12.6 7.27461 0
    vertex 11.1994 9.69969 0
    vertex 9.79719 7.2755 0
  endloop
endfacet
facet normal 0 0 1
  outer loop
    vertex 15.4 12.1244 0
    vertex 14 14.5492 0
    vertex 12.6 12.1244 0
  endloop
endfacet
facet normal 0 0 1
  outer loop
    vertex 8.39666 9.70072 0
    vertex 6.98705 7.2785 0
    vertex 9.79719 7.2755 0
  endloop
endfacet
facet normal 0 0 1
  outer loop
    vertex 14 19.399 0
    vertex 16.8 19.399 0
    vertex 15.4 21.8238 0
  endloop
endfacet
facet normal 0 0 1
  outer loop
    vertex 16.8 9.69948 0
    vertex 19.6 9.69948 0
    vertex 18.202 12.1251 0
  endloop
endfacet
facet normal 0 0 1
  outer loop
    vertex 8.39666 9.70072 0
    vertex 9.79719 7.2755 0
    vertex 11.1994 9.69969 0
  endloop
endfacet
facet normal 0 0 1
  outer loop
    vertex 14 4.84974 0
    vertex 12.6 7.27461 0
    vertex 11.2 4.84974 0
  endloop
endfacet
facet normal -0 0 1
  outer loop
    vertex 14 19.399 0
    vertex 15.4 16.9741 0
    vertex 16.8 19.399 0
  endloop
endfacet
facet normal 0 0 1
  outer loop
    vertex 12.6 16.9741 0
    vertex 15.4 16.9741 0
    vertex 14 19.399 0
  endloop
endfacet
facet normal 0 0 1
  outer loop
    vertex 16.8 28 0
    vertex 15.4 25.5751 0
    vertex 18.2 25.5751 0
  endloop
endfacet
facet normal 0 0 1
  outer loop
    vertex 28 16.8 0
    vertex 25.5751 18.2 0
    vertex 25.3672 15.0184 0
  endloop
endfacet
facet normal 0 0 1
  outer loop
    vertex 22.4 28 0
    vertex 20.9106 25.7582 0
    vertex 23.6348 25.3523 0
  endloop
endfacet
facet normal -0 0 1
  outer loop
    vertex 19.6 19.399 0
    vertex 21 16.9741 0
    vertex 22.7999 19.5013 0
  endloop
endfacet
facet normal 0 -0 1
  outer loop
    vertex 15.4 12.1244 0
    vertex 16.8 14.5492 0
    vertex 14 14.5492 0
  endloop
endfacet
facet normal -0 0 1
  outer loop
    vertex 15.4 21.8238 0
    vertex 16.8 19.399 0
    vertex 18.2 21.8238 0
  endloop
endfacet
facet normal 0 0 1
  outer loop
    vertex 9.8 12.1244 0
    vertex 8.39666 9.70072 0
    vertex 11.1994 9.69969 0
  endloop
endfacet
facet normal 0 0 1
  outer loop
    vertex 21 16.9741 0
    vertex 18.2 16.9741 0
    vertex 19.6029 14.5549 0
  endloop
endfacet
facet normal 0 0 1
  outer loop
    vertex 14 9.69948 0
    vertex 16.8 9.69948 0
    vertex 15.4 12.1244 0
  endloop
endfacet
facet normal 0 0 1
  outer loop
    vertex 11.2 19.399 0
    vertex 9.8 21.8238 0
    vertex 8.4 19.399 0
  endloop
endfacet
facet normal 0 -0 1
  outer loop
    vertex 8.4 19.399 0
    vertex 9.8 21.8238 0
    vertex 7.02861 21.7981 0
  endloop
endfacet
facet normal 0 -0 1
  outer loop
    vertex 9.8 2.42487 0
    vertex 11.2 4.84974 0
    vertex 8.40038 4.8488 0
  endloop
endfacet
facet normal 0 0 1
  outer loop
    vertex 12.6 7.27461 0
    vertex 9.79719 7.2755 0
    vertex 11.2 4.84974 0
  endloop
endfacet
facet normal 0 0 1
  outer loop
    vertex 6.98705 7.2785 0
    vertex 8.40038 4.8488 0
    vertex 9.79719 7.2755 0
  endloop
endfacet
facet normal 0 0 1
  outer loop
    vertex 15.4 12.1244 0
    vertex 18.202 12.1251 0
    vertex 16.8 14.5492 0
  endloop
endfacet
facet normal 0 -0 1
  outer loop
    vertex 16.8 9.69948 0
    vertex 18.202 12.1251 0
    vertex 15.4 12.1244 0
  endloop
endfacet
facet normal 0 0 1
  outer loop
    vertex 6.98705 7.2785 0
    vertex 5.61896 4.83808 0
    vertex 8.40038 4.8488 0
  endloop
endfacet
facet normal 0 0 1
  outer loop
    vertex 6.98705 7.2785 0
    vertex 4.2 7.27461 0
    vertex 5.61896 4.83808 0
  endloop
endfacet
facet normal 0 0 1
  outer loop
    vertex 9.8 2.42487 0
    vertex 8.40038 4.8488 0
    vertex 7.01805 2.41445 0
  endloop
endfacet
facet normal 0 -0 1
  outer loop
    vertex 7.01805 2.41445 0
    vertex 8.40038 4.8488 0
    vertex 5.61896 4.83808 0
  endloop
endfacet
facet normal 0 0 1
  outer loop
    vertex 4.30829 2.36235 0
    vertex 7.01805 2.41445 0
    vertex 5.61896 4.83808 0
  endloop
endfacet
facet normal 0 -0 1
  outer loop
    vertex 4.30829 2.36235 0
    vertex 5.61896 4.83808 0
    vertex 2.57895 4.56068 0
  endloop
endfacet
facet normal 0 0 1
  outer loop
    vertex 4.2 7.27461 0
    vertex 2.57895 4.56068 0
    vertex 5.61896 4.83808 0
  endloop
endfacet
facet normal 0 0 1
  outer loop
    vertex 23.6348 25.3523 0
    vertex 21.7114 23.7994 0
    vertex 23.4647 22.3954 0
  endloop
endfacet
facet normal 0 0 1
  outer loop
    vertex 4.35243 25.3261 0
    vertex 4.53535 22.3954 0
    vertex 6.24341 23.7621 0
  endloop
endfacet
facet normal -0 0 1
  outer loop
    vertex 20.9771 2.41166 0
    vertex 23.7146 2.29827 0
    vertex 22.4207 4.75754 0
  endloop
endfacet
facet normal 0 0 1
  outer loop
    vertex 22.4 0 0
    vertex 25.2 0 0
    vertex 23.7146 2.29827 0
  endloop
endfacet
facet normal 0 0 1
  outer loop
    vertex 0 22.4 0
    vertex 2.23697 23.7024 0
    vertex 0 25.2 0
  endloop
endfacet
facet normal 0 -0 1
  outer loop
    vertex 28 22.4 0
    vertex 28 25.2 0
    vertex 25.7609 23.7068 0
  endloop
endfacet
facet normal 0 -0 1
  outer loop
    vertex 25.5121 9.77423 0
    vertex 26.1565 12.5277 0
    vertex 23.8249 12.2984 0
  endloop
endfacet
facet normal 0 -0 1
  outer loop
    vertex 2.48792 9.77423 0
    vertex 4.1491 12.2632 0
    vertex 1.82718 12.6 0
  endloop
endfacet
facet normal 0 0 1
  outer loop
    vertex 7.04802 16.9461 0
    vertex 5.19938 19.5018 0
    vertex 4.50311 16.8058 0
  endloop
endfacet
facet normal 0 0 1
  outer loop
    vertex 22.7999 19.5013 0
    vertex 21 16.9741 0
    vertex 23.4969 16.8058 0
  endloop
endfacet
facet normal 0 -0 1
  outer loop
    vertex 22.4 0 0
    vertex 23.7146 2.29827 0
    vertex 20.9771 2.41166 0
  endloop
endfacet
facet normal -0 0 1
  outer loop
    vertex 0 22.4 0
    vertex 2.4843 20.9428 0
    vertex 2.23697 23.7024 0
  endloop
endfacet
facet normal 0 0 1
  outer loop
    vertex 28 22.4 0
    vertex 25.7609 23.7068 0
    vertex 25.5157 20.9428 0
  endloop
endfacet
facet normal 0 0 1
  outer loop
    vertex 28 5.6 0
    vertex 26.1593 7.08758 0
    vertex 25.464 4.45711 0
  endloop
endfacet
facet normal 0 0 1
  outer loop
    vertex 28 8.4 0
    vertex 25.5121 9.77423 0
    vertex 26.1593 7.08758 0
  endloop
endfacet
facet normal -0 0 1
  outer loop
    vertex 0 8.4 0
    vertex 1.86985 7.03173 0
    vertex 2.48792 9.77423 0
  endloop
endfacet
facet normal -0 0 1
  outer loop
    vertex 0 14 0
    vertex 1.82718 12.6 0
    vertex 2.63276 15.0184 0
  endloop
endfacet
facet normal -0 0 1
  outer loop
    vertex 0 11.2 0
    vertex 2.48792 9.77423 0
    vertex 1.82718 12.6 0
  endloop
endfacet
facet normal 0 0 1
  outer loop
    vertex 28 14 0
    vertex 25.3672 15.0184 0
    vertex 26.1565 12.5277 0
  endloop
endfacet
facet normal 0 0 1
  outer loop
    vertex 28 11.2 0
    vertex 26.1565 12.5277 0
    vertex 25.5121 9.77423 0
  endloop
endfacet
facet normal 0 0 1
  outer loop
    vertex 28 28 0
    vertex 25.2 28 0
    vertex 25.9503 25.9503 0
  endloop
endfacet
facet normal 0 0 1
  outer loop
    vertex 28 28 0
    vertex 25.9503 25.9503 0
    vertex 28 25.2 0
  endloop
endfacet
facet normal 0 -0 1
  outer loop
    vertex 28 0 0
    vertex 28 2.8 0
    vertex 25.9503 2.04974 0
  endloop
endfacet
facet normal -0 0 1
  outer loop
    vertex 0 28 0
    vertex 2.04974 25.9503 0
    vertex 2.8 28 0
  endloop
endfacet
facet normal 0 0 1
  outer loop
    vertex 0 28 0
    vertex 0 25.2 0
    vertex 2.04974 25.9503 0
  endloop
endfacet
facet normal 0 0 1
  outer loop
    vertex 28 0 0
    vertex 25.9503 2.04974 0
    vertex 25.2 0 0
  endloop
endfacet
facet normal 0 0 1
  outer loop
    vertex 0 0 0
    vertex 2.04974 2.04974 0
    vertex 0 2.8 0
  endloop
endfacet
facet normal 0 0 1
  outer loop
    vertex 0 0 0
    vertex 2.8 0 0
    vertex 2.04974 2.04974 0
  endloop
endfacet
facet normal 0 0 1
  outer loop
    vertex 4.30829 2.36235 0
    vertex 2.57895 4.56068 0
    vertex 2.04974 2.04974 0
  endloop
endfacet
facet normal 0 0 1
  outer loop
    vertex 21 16.9741 0
    vertex 22.4035 14.5783 0
    vertex 23.4969 16.8058 0
  endloop
endfacet
facet normal 0 0 1
  outer loop
    vertex 7.04802 16.9461 0
    vertex 4.50311 16.8058 0
    vertex 5.59406 14.5672 0
  endloop
endfacet
facet normal 0 -0 1
  outer loop
    vertex 25.3672 15.0184 0
    vertex 25.5751 18.2 0
    vertex 23.4969 16.8058 0
  endloop
endfacet
facet normal 0 -0 1
  outer loop
    vertex 2.63276 15.0184 0
    vertex 4.50311 16.8058 0
    vertex 2.42487 18.2 0
  endloop
endfacet
facet normal -0 0 1
  outer loop
    vertex 0 5.6 0
    vertex 2.57895 4.56068 0
    vertex 1.86985 7.03173 0
  endloop
endfacet
facet normal 0 -0 1
  outer loop
    vertex 25.5157 20.9428 0
    vertex 25.7609 23.7068 0
    vertex 23.4647 22.3954 0
  endloop
endfacet
facet normal 0 -0 1
  outer loop
    vertex 2.4843 20.9428 0
    vertex 4.53535 22.3954 0
    vertex 2.23697 23.7024 0
  endloop
endfacet
facet normal 0 0 1
  outer loop
    vertex 20.9106 25.7582 0
    vertex 21.7114 23.7994 0
    vertex 23.6348 25.3523 0
  endloop
endfacet
facet normal -0 0 1
  outer loop
    vertex 4.35243 25.3261 0
    vertex 6.24341 23.7621 0
    vertex 7.1148 25.7167 0
  endloop
endfacet
facet normal 0 0 1
  outer loop
    vertex 15.4 25.5751 0
    vertex 14 23.6995 0
    vertex 16.8 23.6995 0
  endloop
endfacet
facet normal 0 -0 1
  outer loop
    vertex 15.4 21.8238 0
    vertex 16.8 23.6995 0
    vertex 14 23.6995 0
  endloop
endfacet
facet normal 0 0 1
  outer loop
    vertex 12.6 25.5751 0
    vertex 11.2 23.6995 0
    vertex 14 23.6995 0
  endloop
endfacet
facet normal 0 0 1
  outer loop
    vertex 9.8 25.5751 0
    vertex 11.2 23.6995 0
    vertex 12.6 25.5751 0
  endloop
endfacet
facet normal 0 0 1
  outer loop
    vertex 9.8 25.5751 0
    vertex 7.1148 25.7167 0
    vertex 8.4 23.6995 0
  endloop
endfacet
facet normal 0 -0 1
  outer loop
    vertex 18.2 21.8238 0
    vertex 19.6 23.6995 0
    vertex 16.8 23.6995 0
  endloop
endfacet
facet normal 0 0 1
  outer loop
    vertex 15.4 25.5751 0
    vertex 12.6 25.5751 0
    vertex 14 23.6995 0
  endloop
endfacet
facet normal -0 0 1
  outer loop
    vertex 18.2 21.8238 0
    vertex 20.9471 21.7918 0
    vertex 19.6 23.6995 0
  endloop
endfacet
facet normal 0 0 1
  outer loop
    vertex 15.4 21.8238 0
    vertex 18.2 21.8238 0
    vertex 16.8 23.6995 0
  endloop
endfacet
facet normal 0 -0 1
  outer loop
    vertex 28 5.6 0
    vertex 28 8.4 0
    vertex 26.1593 7.08758 0
  endloop
endfacet
facet normal 0 0 1
  outer loop
    vertex 9.8 25.5751 0
    vertex 8.4 23.6995 0
    vertex 11.2 23.6995 0
  endloop
endfacet
facet normal 0 0 1
  outer loop
    vertex 0 5.6 0
    vertex 1.86985 7.03173 0
    vertex 0 8.4 0
  endloop
endfacet
facet normal 0 -0 1
  outer loop
    vertex 12.6 21.8238 0
    vertex 14 23.6995 0
    vertex 11.2 23.6995 0
  endloop
endfacet
facet normal 0 0 1
  outer loop
    vertex 7.02861 21.7981 0
    vertex 9.8 21.8238 0
    vertex 8.4 23.6995 0
  endloop
endfacet
facet normal 0 0 1
  outer loop
    vertex 12.6 21.8238 0
    vertex 15.4 21.8238 0
    vertex 14 23.6995 0
  endloop
endfacet
facet normal 0 0 1
  outer loop
    vertex 20.9106 25.7582 0
    vertex 18.2 25.5751 0
    vertex 19.6 23.6995 0
  endloop
endfacet
facet normal 0 0 1
  outer loop
    vertex 12.6 21.8238 0
    vertex 11.2 23.6995 0
    vertex 9.8 21.8238 0
  endloop
endfacet
facet normal 0 0 1
  outer loop
    vertex 18.2 25.5751 0
    vertex 16.8 23.6995 0
    vertex 19.6 23.6995 0
  endloop
endfacet
facet normal 0 0 1
  outer loop
    vertex 15.4 25.5751 0
    vertex 16.8 23.6995 0
    vertex 18.2 25.5751 0
  endloop
endfacet
facet normal 0 -0 1
  outer loop
    vertex 9.8 21.8238 0
    vertex 11.2 23.6995 0
    vertex 8.4 23.6995 0
  endloop
endfacet
facet normal 0 0 1
  outer loop
    vertex 4.2 7.27461 0
    vertex 1.86985 7.03173 0
    vertex 2.57895 4.56068 0
  endloop
endfacet
facet normal 0 0 1
  outer loop
    vertex 0 11.2 0
    vertex 1.82718 12.6 0
    vertex 0 14 0
  endloop
endfacet
facet normal 0 -0 1
  outer loop
    vertex 28 11.2 0
    vertex 28 14 0
    vertex 26.1565 12.5277 0
  endloop
endfacet
facet normal 0 -0 1
  outer loop
    vertex 25.2 0 0
    vertex 25.9503 2.04974 0
    vertex 23.7146 2.29827 0
  endloop
endfacet
facet normal -0 0 1
  outer loop
    vertex 0 25.2 0
    vertex 2.23697 23.7024 0
    vertex 2.04974 25.9503 0
  endloop
endfacet
facet normal 0 0 1
  outer loop
    vertex 28 25.2 0
    vertex 25.9503 25.9503 0
    vertex 25.7609 23.7068 0
  endloop
endfacet
facet normal 0 0 1
  outer loop
    vertex 25.2 28 0
    vertex 23.6348 25.3523 0
    vertex 25.9503 25.9503 0
  endloop
endfacet
facet normal 0 -0 1
  outer loop
    vertex 2.8 0 0
    vertex 4.30829 2.36235 0
    vertex 2.04974 2.04974 0
  endloop
endfacet
facet normal 0 0 1
  outer loop
    vertex 28 2.8 0
    vertex 25.464 4.45711 0
    vertex 25.9503 2.04974 0
  endloop
endfacet
facet normal 0 0 1
  outer loop
    vertex 2.8 28 0
    vertex 2.04974 25.9503 0
    vertex 4.35243 25.3261 0
  endloop
endfacet
facet normal 0 0 1
  outer loop
    vertex 25.464 4.45711 0
    vertex 23.7146 2.29827 0
    vertex 25.9503 2.04974 0
  endloop
endfacet
facet normal 0 0 1
  outer loop
    vertex 4.35243 25.3261 0
    vertex 2.04974 25.9503 0
    vertex 2.23697 23.7024 0
  endloop
endfacet
facet normal -0 0 1
  outer loop
    vertex 23.6348 25.3523 0
    vertex 25.7609 23.7068 0
    vertex 25.9503 25.9503 0
  endloop
endfacet
facet normal 0 0 1
  outer loop
    vertex 20.9471 21.7918 0
    vertex 23.4647 22.3954 0
    vertex 21.7114 23.7994 0
  endloop
endfacet
facet normal 0 0 1
  outer loop
    vertex 7.02861 21.7981 0
    vertex 6.24341 23.7621 0
    vertex 4.53535 22.3954 0
  endloop
endfacet
facet normal 0 0 1
  outer loop
    vertex 7.1148 25.7167 0
    vertex 6.24341 23.7621 0
    vertex 8.4 23.6995 0
  endloop
endfacet
facet normal 0 -0 1
  outer loop
    vertex 7.02861 21.7981 0
    vertex 8.4 23.6995 0
    vertex 6.24341 23.7621 0
  endloop
endfacet
facet normal 0 0 1
  outer loop
    vertex 20.9106 25.7582 0
    vertex 19.6 23.6995 0
    vertex 21.7114 23.7994 0
  endloop
endfacet
facet normal 0 -0 1
  outer loop
    vertex 20.9471 21.7918 0
    vertex 21.7114 23.7994 0
    vertex 19.6 23.6995 0
  endloop
endfacet
endsolid Created by Gmsh
