solid Created by Gmsh
facet normal 0 -0 -1
  outer loop
    vertex 25.5157 20.9428 80
    vertex 25.5751 18.2 80
    vertex 22.7999 19.5013 80
  endloop
endfacet
facet normal 0 -0 -1
  outer loop
    vertex 2.4843 20.9428 80
    vertex 5.19938 19.5018 80
    vertex 2.42487 18.2 80
  endloop
endfacet
facet normal 0 0 -1
  outer loop
    vertex 2.63276 15.0184 80
    vertex 5.59406 14.5672 80
    vertex 4.1491 12.2632 80
  endloop
endfacet
facet normal 0 0 -1
  outer loop
    vertex 25.3672 15.0184 80
    vertex 23.8249 12.2984 80
    vertex 22.4035 14.5783 80
  endloop
endfacet
facet normal 0 0 -1
  outer loop
    vertex 25.464 4.45711 80
    vertex 22.4207 4.75754 80
    vertex 23.8204 7.20653 80
  endloop
endfacet
facet normal -0 0 -1
  outer loop
    vertex 25.5157 20.9428 80
    vertex 22.7999 19.5013 80
    vertex 23.4647 22.3954 80
  endloop
endfacet
facet normal 0 0 -1
  outer loop
    vertex 2.4843 20.9428 80
    vertex 4.53535 22.3954 80
    vertex 5.19938 19.5018 80
  endloop
endfacet
facet normal 0 -0 -1
  outer loop
    vertex 2.63276 15.0184 80
    vertex 4.1491 12.2632 80
    vertex 1.82718 12.6 80
  endloop
endfacet
facet normal 0 -0 -1
  outer loop
    vertex 25.3672 15.0184 80
    vertex 26.1565 12.5277 80
    vertex 23.8249 12.2984 80
  endloop
endfacet
facet normal 0 0 -1
  outer loop
    vertex 0 2.8 80
    vertex 0 5.6 80
    vertex 2.57895 4.56068 80
  endloop
endfacet
facet normal 0 0 -1
  outer loop
    vertex 25.464 4.45711 80
    vertex 23.8204 7.20653 80
    vertex 26.1593 7.08758 80
  endloop
endfacet
facet normal 0 0 -1
  outer loop
    vertex 2.48792 9.77423 80
    vertex 5.52561 9.72155 80
    vertex 4.2 7.27461 80
  endloop
endfacet
facet normal 0 0 -1
  outer loop
    vertex 25.5121 9.77423 80
    vertex 23.8204 7.20653 80
    vertex 22.4705 9.72012 80
  endloop
endfacet
facet normal 0 0 -1
  outer loop
    vertex 0 2.8 80
    vertex 2.57895 4.56068 80
    vertex 2.04974 2.04974 80
  endloop
endfacet
facet normal -0 0 -1
  outer loop
    vertex 25.5121 9.77423 80
    vertex 22.4705 9.72012 80
    vertex 23.8249 12.2984 80
  endloop
endfacet
facet normal 0 0 -1
  outer loop
    vertex 2.48792 9.77423 80
    vertex 4.1491 12.2632 80
    vertex 5.52561 9.72155 80
  endloop
endfacet
facet normal 0 0 -1
  outer loop
    vertex 22.7999 19.5013 80
    vertex 25.5751 18.2 80
    vertex 23.4969 16.8058 80
  endloop
endfacet
facet normal 0 0 -1
  outer loop
    vertex 5.19938 19.5018 80
    vertex 4.50311 16.8058 80
    vertex 2.42487 18.2 80
  endloop
endfacet
facet normal -0 0 -1
  outer loop
    vertex 25.464 4.45711 80
    vertex 23.7146 2.29827 80
    vertex 22.4207 4.75754 80
  endloop
endfacet
facet normal 0 0 -1
  outer loop
    vertex 20.9471 21.7918 80
    vertex 23.4647 22.3954 80
    vertex 22.7999 19.5013 80
  endloop
endfacet
facet normal 0 0 -1
  outer loop
    vertex 5.19938 19.5018 80
    vertex 4.53535 22.3954 80
    vertex 7.02861 21.7981 80
  endloop
endfacet
facet normal 0 0 -1
  outer loop
    vertex 22.4705 9.72012 80
    vertex 21.0119 12.1286 80
    vertex 23.8249 12.2984 80
  endloop
endfacet
facet normal -0 0 -1
  outer loop
    vertex 6.97995 12.1318 80
    vertex 5.52561 9.72155 80
    vertex 4.1491 12.2632 80
  endloop
endfacet
facet normal -0 0 -1
  outer loop
    vertex 25.3672 15.0184 80
    vertex 22.4035 14.5783 80
    vertex 23.4969 16.8058 80
  endloop
endfacet
facet normal 0 0 -1
  outer loop
    vertex 2.63276 15.0184 80
    vertex 4.50311 16.8058 80
    vertex 5.59406 14.5672 80
  endloop
endfacet
facet normal 0 -0 -1
  outer loop
    vertex 23.6348 25.3523 80
    vertex 25.7609 23.7068 80
    vertex 23.4647 22.3954 80
  endloop
endfacet
facet normal 0 -0 -1
  outer loop
    vertex 4.35243 25.3261 80
    vertex 4.53535 22.3954 80
    vertex 2.23697 23.7024 80
  endloop
endfacet
facet normal 0 0 -1
  outer loop
    vertex 21.0119 12.1286 80
    vertex 22.4035 14.5783 80
    vertex 23.8249 12.2984 80
  endloop
endfacet
facet normal 0 0 -1
  outer loop
    vertex 6.97995 12.1318 80
    vertex 4.1491 12.2632 80
    vertex 5.59406 14.5672 80
  endloop
endfacet
facet normal 0 -0 -1
  outer loop
    vertex 2.48792 9.77423 80
    vertex 4.2 7.27461 80
    vertex 1.86985 7.03173 80
  endloop
endfacet
facet normal 0 -0 -1
  outer loop
    vertex 25.5121 9.77423 80
    vertex 26.1593 7.08758 80
    vertex 23.8204 7.20653 80
  endloop
endfacet
facet normal 0 0 -1
  outer loop
    vertex 21.0119 12.1286 80
    vertex 19.6029 14.5549 80
    vertex 22.4035 14.5783 80
  endloop
endfacet
facet normal 0 -0 -1
  outer loop
    vertex 21 16.9741 80
    vertex 22.4035 14.5783 80
    vertex 19.6029 14.5549 80
  endloop
endfacet
facet normal 0 -0 -1
  outer loop
    vertex 7.04802 16.9461 80
    vertex 8.40551 14.5446 80
    vertex 5.59406 14.5672 80
  endloop
endfacet
facet normal -0 0 -1
  outer loop
    vertex 8.40551 14.5446 80
    vertex 6.97995 12.1318 80
    vertex 5.59406 14.5672 80
  endloop
endfacet
facet normal 0 0 -1
  outer loop
    vertex 20.9771 2.41166 80
    vertex 19.5996 4.83217 80
    vertex 22.4207 4.75754 80
  endloop
endfacet
facet normal 0 -0 -1
  outer loop
    vertex 21 7.27461 80
    vertex 22.4207 4.75754 80
    vertex 19.5996 4.83217 80
  endloop
endfacet
facet normal 0 0 -1
  outer loop
    vertex 9.8 16.9741 80
    vertex 8.40551 14.5446 80
    vertex 7.04802 16.9461 80
  endloop
endfacet
facet normal 0 0 -1
  outer loop
    vertex 18.2 7.27461 80
    vertex 21 7.27461 80
    vertex 19.5996 4.83217 80
  endloop
endfacet
facet normal 0 0 -1
  outer loop
    vertex 15.4 2.42487 80
    vertex 16.8 4.84974 80
    vertex 18.1972 2.42121 80
  endloop
endfacet
facet normal 0 0 -1
  outer loop
    vertex 15.4 7.27461 80
    vertex 16.8 9.69948 80
    vertex 18.2 7.27461 80
  endloop
endfacet
facet normal -0 0 -1
  outer loop
    vertex 14 14.5492 80
    vertex 11.2 14.5492 80
    vertex 12.6 16.9741 80
  endloop
endfacet
facet normal 0 0 -1
  outer loop
    vertex 16.8 14.5492 80
    vertex 19.6029 14.5549 80
    vertex 18.202 12.1251 80
  endloop
endfacet
facet normal 0 0 -1
  outer loop
    vertex 0 19.6 80
    vertex 2.4843 20.9428 80
    vertex 2.42487 18.2 80
  endloop
endfacet
facet normal 0 0 -1
  outer loop
    vertex 20.9771 2.41166 80
    vertex 18.1972 2.42121 80
    vertex 19.5996 4.83217 80
  endloop
endfacet
facet normal 0 0 -1
  outer loop
    vertex 16.8 9.69948 80
    vertex 19.6 9.69948 80
    vertex 18.2 7.27461 80
  endloop
endfacet
facet normal 0 0 -1
  outer loop
    vertex 14 14.5492 80
    vertex 15.4 16.9741 80
    vertex 16.8 14.5492 80
  endloop
endfacet
facet normal 0 0 -1
  outer loop
    vertex 11.2 19.399 80
    vertex 12.6 21.8238 80
    vertex 14 19.399 80
  endloop
endfacet
facet normal 0 0 -1
  outer loop
    vertex 16.8 4.84974 80
    vertex 19.5996 4.83217 80
    vertex 18.1972 2.42121 80
  endloop
endfacet
facet normal -0 0 -1
  outer loop
    vertex 11.2 14.5492 80
    vertex 8.40551 14.5446 80
    vertex 9.8 16.9741 80
  endloop
endfacet
facet normal -0 0 -1
  outer loop
    vertex 21.0119 12.1286 80
    vertex 18.202 12.1251 80
    vertex 19.6029 14.5549 80
  endloop
endfacet
facet normal 0 0 -1
  outer loop
    vertex 14 14.5492 80
    vertex 12.6 16.9741 80
    vertex 15.4 16.9741 80
  endloop
endfacet
facet normal 0 0 -1
  outer loop
    vertex 11.2 14.5492 80
    vertex 9.8 16.9741 80
    vertex 12.6 16.9741 80
  endloop
endfacet
facet normal 0 0 -1
  outer loop
    vertex 14 0 80
    vertex 15.4 2.42487 80
    vertex 16.8 0 80
  endloop
endfacet
facet normal -0 0 -1
  outer loop
    vertex 15.4 2.42487 80
    vertex 12.6 2.42487 80
    vertex 14 4.84974 80
  endloop
endfacet
facet normal 0 0 -1
  outer loop
    vertex 16.8 14.5492 80
    vertex 15.4 16.9741 80
    vertex 18.2 16.9741 80
  endloop
endfacet
facet normal 0 0 -1
  outer loop
    vertex 16.8 4.84974 80
    vertex 15.4 7.27461 80
    vertex 18.2 7.27461 80
  endloop
endfacet
facet normal 0 0 -1
  outer loop
    vertex 12.6 7.27461 80
    vertex 11.1994 9.69969 80
    vertex 14 9.69948 80
  endloop
endfacet
facet normal 0 0 -1
  outer loop
    vertex 14 19.399 80
    vertex 12.6 21.8238 80
    vertex 15.4 21.8238 80
  endloop
endfacet
facet normal 0 0 -1
  outer loop
    vertex 0 16.8 80
    vertex 0 19.6 80
    vertex 2.42487 18.2 80
  endloop
endfacet
facet normal 0 0 -1
  outer loop
    vertex 14 9.69948 80
    vertex 11.1994 9.69969 80
    vertex 12.6 12.1244 80
  endloop
endfacet
facet normal 0 -0 -1
  outer loop
    vertex 5.52561 9.72155 80
    vertex 6.98705 7.2785 80
    vertex 4.2 7.27461 80
  endloop
endfacet
facet normal 0 0 -1
  outer loop
    vertex 16.8 19.399 80
    vertex 19.6 19.399 80
    vertex 18.2 16.9741 80
  endloop
endfacet
facet normal 0 0 -1
  outer loop
    vertex 19.6 0 80
    vertex 20.9771 2.41166 80
    vertex 22.4 0 80
  endloop
endfacet
facet normal 0 0 -1
  outer loop
    vertex 0 19.6 80
    vertex 0 22.4 80
    vertex 2.4843 20.9428 80
  endloop
endfacet
facet normal 0 -0 -1
  outer loop
    vertex 6.97995 12.1318 80
    vertex 8.39666 9.70072 80
    vertex 5.52561 9.72155 80
  endloop
endfacet
facet normal 0 -0 -1
  outer loop
    vertex 19.6 28 80
    vertex 20.9106 25.7582 80
    vertex 18.2 25.5751 80
  endloop
endfacet
facet normal -0 0 -1
  outer loop
    vertex 28 19.6 80
    vertex 25.5751 18.2 80
    vertex 25.5157 20.9428 80
  endloop
endfacet
facet normal 0 0 -1
  outer loop
    vertex 2.8 0 80
    vertex 4.30829 2.36235 80
    vertex 5.6 0 80
  endloop
endfacet
facet normal -0 0 -1
  outer loop
    vertex 8.4 19.399 80
    vertex 7.04802 16.9461 80
    vertex 5.19938 19.5018 80
  endloop
endfacet
facet normal -0 0 -1
  outer loop
    vertex 9.8 16.9741 80
    vertex 7.04802 16.9461 80
    vertex 8.4 19.399 80
  endloop
endfacet
facet normal 0 0 -1
  outer loop
    vertex 16.8 0 80
    vertex 15.4 2.42487 80
    vertex 18.1972 2.42121 80
  endloop
endfacet
facet normal 0 0 -1
  outer loop
    vertex 0 14 80
    vertex 0 16.8 80
    vertex 2.63276 15.0184 80
  endloop
endfacet
facet normal 0 0 -1
  outer loop
    vertex 8.4 0 80
    vertex 9.8 2.42487 80
    vertex 11.2 0 80
  endloop
endfacet
facet normal 0 0 -1
  outer loop
    vertex 0 8.4 80
    vertex 0 11.2 80
    vertex 2.48792 9.77423 80
  endloop
endfacet
facet normal -0 0 -1
  outer loop
    vertex 12.6 12.1244 80
    vertex 9.8 12.1244 80
    vertex 11.2 14.5492 80
  endloop
endfacet
facet normal -0 0 -1
  outer loop
    vertex 15.4 7.27461 80
    vertex 12.6 7.27461 80
    vertex 14 9.69948 80
  endloop
endfacet
facet normal 0 0 -1
  outer loop
    vertex 12.6 12.1244 80
    vertex 11.2 14.5492 80
    vertex 14 14.5492 80
  endloop
endfacet
facet normal 0 0 -1
  outer loop
    vertex 19.6 0 80
    vertex 18.1972 2.42121 80
    vertex 20.9771 2.41166 80
  endloop
endfacet
facet normal 0 0 -1
  outer loop
    vertex 5.6 0 80
    vertex 4.30829 2.36235 80
    vertex 7.01805 2.41445 80
  endloop
endfacet
facet normal -0 0 -1
  outer loop
    vertex 9.8 12.1244 80
    vertex 8.39666 9.70072 80
    vertex 6.97995 12.1318 80
  endloop
endfacet
facet normal 0 0 -1
  outer loop
    vertex 8.4 0 80
    vertex 7.01805 2.41445 80
    vertex 9.8 2.42487 80
  endloop
endfacet
facet normal 0 0 -1
  outer loop
    vertex 18.2 21.8238 80
    vertex 20.9471 21.7918 80
    vertex 19.6 19.399 80
  endloop
endfacet
facet normal 0 0 -1
  outer loop
    vertex 14 0 80
    vertex 12.6 2.42487 80
    vertex 15.4 2.42487 80
  endloop
endfacet
facet normal -0 0 -1
  outer loop
    vertex 8.39666 9.70072 80
    vertex 6.98705 7.2785 80
    vertex 5.52561 9.72155 80
  endloop
endfacet
facet normal 0 0 -1
  outer loop
    vertex 14 4.84974 80
    vertex 12.6 7.27461 80
    vertex 15.4 7.27461 80
  endloop
endfacet
facet normal 0 0 -1
  outer loop
    vertex 11.2 14.5492 80
    vertex 9.8 12.1244 80
    vertex 8.40551 14.5446 80
  endloop
endfacet
facet normal 0 0 -1
  outer loop
    vertex 15.4 2.42487 80
    vertex 14 4.84974 80
    vertex 16.8 4.84974 80
  endloop
endfacet
facet normal 0 0 -1
  outer loop
    vertex 5.6 0 80
    vertex 7.01805 2.41445 80
    vertex 8.4 0 80
  endloop
endfacet
facet normal 0 0 -1
  outer loop
    vertex 9.8 16.9741 80
    vertex 8.4 19.399 80
    vertex 11.2 19.399 80
  endloop
endfacet
facet normal 0 0 -1
  outer loop
    vertex 16.8 14.5492 80
    vertex 18.2 16.9741 80
    vertex 19.6029 14.5549 80
  endloop
endfacet
facet normal 0 -0 -1
  outer loop
    vertex 19.6 19.399 80
    vertex 21 16.9741 80
    vertex 18.2 16.9741 80
  endloop
endfacet
facet normal 0 0 -1
  outer loop
    vertex 16.8 0 80
    vertex 18.1972 2.42121 80
    vertex 19.6 0 80
  endloop
endfacet
facet normal 0 0 -1
  outer loop
    vertex 11.2 0 80
    vertex 9.8 2.42487 80
    vertex 12.6 2.42487 80
  endloop
endfacet
facet normal 0 0 -1
  outer loop
    vertex 19.6 9.69948 80
    vertex 18.202 12.1251 80
    vertex 21.0119 12.1286 80
  endloop
endfacet
facet normal 0 0 -1
  outer loop
    vertex 18.2 7.27461 80
    vertex 19.6 9.69948 80
    vertex 21 7.27461 80
  endloop
endfacet
facet normal 0 0 -1
  outer loop
    vertex 16.8 4.84974 80
    vertex 18.2 7.27461 80
    vertex 19.5996 4.83217 80
  endloop
endfacet
facet normal 0 0 -1
  outer loop
    vertex 9.8 12.1244 80
    vertex 6.97995 12.1318 80
    vertex 8.40551 14.5446 80
  endloop
endfacet
facet normal 0 0 -1
  outer loop
    vertex 16.8 28 80
    vertex 19.6 28 80
    vertex 18.2 25.5751 80
  endloop
endfacet
facet normal 0 0 -1
  outer loop
    vertex 28 16.8 80
    vertex 25.5751 18.2 80
    vertex 28 19.6 80
  endloop
endfacet
facet normal 0 0 -1
  outer loop
    vertex 22.4 28 80
    vertex 25.2 28 80
    vertex 23.6348 25.3523 80
  endloop
endfacet
facet normal -0 0 -1
  outer loop
    vertex 12.6 16.9741 80
    vertex 9.8 16.9741 80
    vertex 11.2 19.399 80
  endloop
endfacet
facet normal 0 0 -1
  outer loop
    vertex 12.6 12.1244 80
    vertex 11.1994 9.69969 80
    vertex 9.8 12.1244 80
  endloop
endfacet
facet normal 0 -0 -1
  outer loop
    vertex 16.8 19.399 80
    vertex 18.2 16.9741 80
    vertex 15.4 16.9741 80
  endloop
endfacet
facet normal 0 0 -1
  outer loop
    vertex 0 16.8 80
    vertex 2.42487 18.2 80
    vertex 2.63276 15.0184 80
  endloop
endfacet
facet normal 0 0 -1
  outer loop
    vertex 15.4 7.27461 80
    vertex 14 9.69948 80
    vertex 16.8 9.69948 80
  endloop
endfacet
facet normal -0 0 -1
  outer loop
    vertex 11.2 4.84974 80
    vertex 8.40038 4.8488 80
    vertex 9.79719 7.2755 80
  endloop
endfacet
facet normal 0 0 -1
  outer loop
    vertex 8.4 19.399 80
    vertex 5.19938 19.5018 80
    vertex 7.02861 21.7981 80
  endloop
endfacet
facet normal 0 0 -1
  outer loop
    vertex 19.6 9.69948 80
    vertex 22.4705 9.72012 80
    vertex 21 7.27461 80
  endloop
endfacet
facet normal 0 0 -1
  outer loop
    vertex 14 4.84974 80
    vertex 15.4 7.27461 80
    vertex 16.8 4.84974 80
  endloop
endfacet
facet normal 0 0 -1
  outer loop
    vertex 12.6 16.9741 80
    vertex 11.2 19.399 80
    vertex 14 19.399 80
  endloop
endfacet
facet normal 0 -0 -1
  outer loop
    vertex 11.2 28 80
    vertex 12.6 25.5751 80
    vertex 9.8 25.5751 80
  endloop
endfacet
facet normal 0 -0 -1
  outer loop
    vertex 8.4 28 80
    vertex 9.8 25.5751 80
    vertex 7.1148 25.7167 80
  endloop
endfacet
facet normal 0 0 -1
  outer loop
    vertex 11.2 0 80
    vertex 12.6 2.42487 80
    vertex 14 0 80
  endloop
endfacet
facet normal 0 0 -1
  outer loop
    vertex 16.8 19.399 80
    vertex 18.2 21.8238 80
    vertex 19.6 19.399 80
  endloop
endfacet
facet normal 0 0 -1
  outer loop
    vertex 11.2 28 80
    vertex 14 28 80
    vertex 12.6 25.5751 80
  endloop
endfacet
facet normal 0 0 -1
  outer loop
    vertex 5.6 28 80
    vertex 8.4 28 80
    vertex 7.1148 25.7167 80
  endloop
endfacet
facet normal 0 0 -1
  outer loop
    vertex 14 28 80
    vertex 16.8 28 80
    vertex 15.4 25.5751 80
  endloop
endfacet
facet normal 0 0 -1
  outer loop
    vertex 28 14 80
    vertex 25.3672 15.0184 80
    vertex 28 16.8 80
  endloop
endfacet
facet normal 0 0 -1
  outer loop
    vertex 2.8 28 80
    vertex 5.6 28 80
    vertex 4.35243 25.3261 80
  endloop
endfacet
facet normal 0 0 -1
  outer loop
    vertex 28 2.8 80
    vertex 25.464 4.45711 80
    vertex 28 5.6 80
  endloop
endfacet
facet normal 0 0 -1
  outer loop
    vertex 19.6 28 80
    vertex 22.4 28 80
    vertex 20.9106 25.7582 80
  endloop
endfacet
facet normal 0 0 -1
  outer loop
    vertex 28 19.6 80
    vertex 25.5157 20.9428 80
    vertex 28 22.4 80
  endloop
endfacet
facet normal 0 0 -1
  outer loop
    vertex 8.4 28 80
    vertex 11.2 28 80
    vertex 9.8 25.5751 80
  endloop
endfacet
facet normal 0 0 -1
  outer loop
    vertex 28 8.4 80
    vertex 25.5121 9.77423 80
    vertex 28 11.2 80
  endloop
endfacet
facet normal 0 0 -1
  outer loop
    vertex 21 7.27461 80
    vertex 22.4705 9.72012 80
    vertex 23.8204 7.20653 80
  endloop
endfacet
facet normal 0 0 -1
  outer loop
    vertex 19.6 9.69948 80
    vertex 21.0119 12.1286 80
    vertex 22.4705 9.72012 80
  endloop
endfacet
facet normal 0 0 -1
  outer loop
    vertex 14 9.69948 80
    vertex 12.6 12.1244 80
    vertex 15.4 12.1244 80
  endloop
endfacet
facet normal 0 -0 -1
  outer loop
    vertex 14 28 80
    vertex 15.4 25.5751 80
    vertex 12.6 25.5751 80
  endloop
endfacet
facet normal 0 -0 -1
  outer loop
    vertex 5.6 28 80
    vertex 7.1148 25.7167 80
    vertex 4.35243 25.3261 80
  endloop
endfacet
facet normal 0 0 -1
  outer loop
    vertex 21 7.27461 80
    vertex 23.8204 7.20653 80
    vertex 22.4207 4.75754 80
  endloop
endfacet
facet normal 0 0 -1
  outer loop
    vertex 11.2 19.399 80
    vertex 9.8 21.8238 80
    vertex 12.6 21.8238 80
  endloop
endfacet
facet normal 0 0 -1
  outer loop
    vertex 9.8 2.42487 80
    vertex 11.2 4.84974 80
    vertex 12.6 2.42487 80
  endloop
endfacet
facet normal 0 0 -1
  outer loop
    vertex 19.6 19.399 80
    vertex 20.9471 21.7918 80
    vertex 22.7999 19.5013 80
  endloop
endfacet
facet normal 0 0 -1
  outer loop
    vertex 12.6 2.42487 80
    vertex 11.2 4.84974 80
    vertex 14 4.84974 80
  endloop
endfacet
facet normal 0 0 -1
  outer loop
    vertex 12.6 7.27461 80
    vertex 9.79719 7.2755 80
    vertex 11.1994 9.69969 80
  endloop
endfacet
facet normal -0 0 -1
  outer loop
    vertex 15.4 12.1244 80
    vertex 12.6 12.1244 80
    vertex 14 14.5492 80
  endloop
endfacet
facet normal 0 -0 -1
  outer loop
    vertex 8.39666 9.70072 80
    vertex 9.79719 7.2755 80
    vertex 6.98705 7.2785 80
  endloop
endfacet
facet normal 0 0 -1
  outer loop
    vertex 14 19.399 80
    vertex 15.4 21.8238 80
    vertex 16.8 19.399 80
  endloop
endfacet
facet normal 0 0 -1
  outer loop
    vertex 16.8 9.69948 80
    vertex 18.202 12.1251 80
    vertex 19.6 9.69948 80
  endloop
endfacet
facet normal 0 0 -1
  outer loop
    vertex 8.39666 9.70072 80
    vertex 11.1994 9.69969 80
    vertex 9.79719 7.2755 80
  endloop
endfacet
facet normal -0 0 -1
  outer loop
    vertex 14 4.84974 80
    vertex 11.2 4.84974 80
    vertex 12.6 7.27461 80
  endloop
endfacet
facet normal 0 0 -1
  outer loop
    vertex 14 19.399 80
    vertex 16.8 19.399 80
    vertex 15.4 16.9741 80
  endloop
endfacet
facet normal 0 0 -1
  outer loop
    vertex 12.6 16.9741 80
    vertex 14 19.399 80
    vertex 15.4 16.9741 80
  endloop
endfacet
facet normal 0 -0 -1
  outer loop
    vertex 16.8 28 80
    vertex 18.2 25.5751 80
    vertex 15.4 25.5751 80
  endloop
endfacet
facet normal -0 0 -1
  outer loop
    vertex 28 16.8 80
    vertex 25.3672 15.0184 80
    vertex 25.5751 18.2 80
  endloop
endfacet
facet normal 0 -0 -1
  outer loop
    vertex 22.4 28 80
    vertex 23.6348 25.3523 80
    vertex 20.9106 25.7582 80
  endloop
endfacet
facet normal 0 0 -1
  outer loop
    vertex 19.6 19.399 80
    vertex 22.7999 19.5013 80
    vertex 21 16.9741 80
  endloop
endfacet
facet normal 0 0 -1
  outer loop
    vertex 15.4 12.1244 80
    vertex 14 14.5492 80
    vertex 16.8 14.5492 80
  endloop
endfacet
facet normal 0 0 -1
  outer loop
    vertex 15.4 21.8238 80
    vertex 18.2 21.8238 80
    vertex 16.8 19.399 80
  endloop
endfacet
facet normal 0 -0 -1
  outer loop
    vertex 9.8 12.1244 80
    vertex 11.1994 9.69969 80
    vertex 8.39666 9.70072 80
  endloop
endfacet
facet normal 0 0 -1
  outer loop
    vertex 21 16.9741 80
    vertex 19.6029 14.5549 80
    vertex 18.2 16.9741 80
  endloop
endfacet
facet normal 0 0 -1
  outer loop
    vertex 14 9.69948 80
    vertex 15.4 12.1244 80
    vertex 16.8 9.69948 80
  endloop
endfacet
facet normal -0 0 -1
  outer loop
    vertex 11.2 19.399 80
    vertex 8.4 19.399 80
    vertex 9.8 21.8238 80
  endloop
endfacet
facet normal 0 0 -1
  outer loop
    vertex 8.4 19.399 80
    vertex 7.02861 21.7981 80
    vertex 9.8 21.8238 80
  endloop
endfacet
facet normal 0 0 -1
  outer loop
    vertex 9.8 2.42487 80
    vertex 8.40038 4.8488 80
    vertex 11.2 4.84974 80
  endloop
endfacet
facet normal -0 0 -1
  outer loop
    vertex 12.6 7.27461 80
    vertex 11.2 4.84974 80
    vertex 9.79719 7.2755 80
  endloop
endfacet
facet normal 0 0 -1
  outer loop
    vertex 6.98705 7.2785 80
    vertex 9.79719 7.2755 80
    vertex 8.40038 4.8488 80
  endloop
endfacet
facet normal 0 0 -1
  outer loop
    vertex 15.4 12.1244 80
    vertex 16.8 14.5492 80
    vertex 18.202 12.1251 80
  endloop
endfacet
facet normal 0 0 -1
  outer loop
    vertex 16.8 9.69948 80
    vertex 15.4 12.1244 80
    vertex 18.202 12.1251 80
  endloop
endfacet
facet normal 0 -0 -1
  outer loop
    vertex 6.98705 7.2785 80
    vertex 8.40038 4.8488 80
    vertex 5.61896 4.83808 80
  endloop
endfacet
facet normal 0 0 -1
  outer loop
    vertex 6.98705 7.2785 80
    vertex 5.61896 4.83808 80
    vertex 4.2 7.27461 80
  endloop
endfacet
facet normal -0 0 -1
  outer loop
    vertex 9.8 2.42487 80
    vertex 7.01805 2.41445 80
    vertex 8.40038 4.8488 80
  endloop
endfacet
facet normal 0 0 -1
  outer loop
    vertex 7.01805 2.41445 80
    vertex 5.61896 4.83808 80
    vertex 8.40038 4.8488 80
  endloop
endfacet
facet normal 0 0 -1
  outer loop
    vertex 4.30829 2.36235 80
    vertex 5.61896 4.83808 80
    vertex 7.01805 2.41445 80
  endloop
endfacet
facet normal 0 0 -1
  outer loop
    vertex 4.30829 2.36235 80
    vertex 2.57895 4.56068 80
    vertex 5.61896 4.83808 80
  endloop
endfacet
facet normal 0 -0 -1
  outer loop
    vertex 4.2 7.27461 80
    vertex 5.61896 4.83808 80
    vertex 2.57895 4.56068 80
  endloop
endfacet
facet normal 0 0 -1
  outer loop
    vertex 23.6348 25.3523 80
    vertex 23.4647 22.3954 80
    vertex 21.7114 23.7994 80
  endloop
endfacet
facet normal 0 0 -1
  outer loop
    vertex 4.35243 25.3261 80
    vertex 6.24341 23.7621 80
    vertex 4.53535 22.3954 80
  endloop
endfacet
facet normal 0 0 -1
  outer loop
    vertex 20.9771 2.41166 80
    vertex 22.4207 4.75754 80
    vertex 23.7146 2.29827 80
  endloop
endfacet
facet normal 0 0 -1
  outer loop
    vertex 22.4 0 80
    vertex 23.7146 2.29827 80
    vertex 25.2 0 80
  endloop
endfacet
facet normal 0 0 -1
  outer loop
    vertex 0 22.4 80
    vertex 0 25.2 80
    vertex 2.23697 23.7024 80
  endloop
endfacet
facet normal 0 0 -1
  outer loop
    vertex 28 22.4 80
    vertex 25.7609 23.7068 80
    vertex 28 25.2 80
  endloop
endfacet
facet normal 0 0 -1
  outer loop
    vertex 25.5121 9.77423 80
    vertex 23.8249 12.2984 80
    vertex 26.1565 12.5277 80
  endloop
endfacet
facet normal 0 0 -1
  outer loop
    vertex 2.48792 9.77423 80
    vertex 1.82718 12.6 80
    vertex 4.1491 12.2632 80
  endloop
endfacet
facet normal -0 0 -1
  outer loop
    vertex 7.04802 16.9461 80
    vertex 4.50311 16.8058 80
    vertex 5.19938 19.5018 80
  endloop
endfacet
facet normal 0 -0 -1
  outer loop
    vertex 22.7999 19.5013 80
    vertex 23.4969 16.8058 80
    vertex 21 16.9741 80
  endloop
endfacet
facet normal 0 0 -1
  outer loop
    vertex 22.4 0 80
    vertex 20.9771 2.41166 80
    vertex 23.7146 2.29827 80
  endloop
endfacet
facet normal 0 0 -1
  outer loop
    vertex 0 22.4 80
    vertex 2.23697 23.7024 80
    vertex 2.4843 20.9428 80
  endloop
endfacet
facet normal -0 0 -1
  outer loop
    vertex 28 22.4 80
    vertex 25.5157 20.9428 80
    vertex 25.7609 23.7068 80
  endloop
endfacet
facet normal -0 0 -1
  outer loop
    vertex 28 5.6 80
    vertex 25.464 4.45711 80
    vertex 26.1593 7.08758 80
  endloop
endfacet
facet normal -0 0 -1
  outer loop
    vertex 28 8.4 80
    vertex 26.1593 7.08758 80
    vertex 25.5121 9.77423 80
  endloop
endfacet
facet normal 0 0 -1
  outer loop
    vertex 0 8.4 80
    vertex 2.48792 9.77423 80
    vertex 1.86985 7.03173 80
  endloop
endfacet
facet normal 0 0 -1
  outer loop
    vertex 0 14 80
    vertex 2.63276 15.0184 80
    vertex 1.82718 12.6 80
  endloop
endfacet
facet normal 0 0 -1
  outer loop
    vertex 0 11.2 80
    vertex 1.82718 12.6 80
    vertex 2.48792 9.77423 80
  endloop
endfacet
facet normal -0 0 -1
  outer loop
    vertex 28 14 80
    vertex 26.1565 12.5277 80
    vertex 25.3672 15.0184 80
  endloop
endfacet
facet normal -0 0 -1
  outer loop
    vertex 28 11.2 80
    vertex 25.5121 9.77423 80
    vertex 26.1565 12.5277 80
  endloop
endfacet
facet normal -0 0 -1
  outer loop
    vertex 28 28 80
    vertex 25.9503 25.9503 80
    vertex 25.2 28 80
  endloop
endfacet
facet normal 0 -0 -1
  outer loop
    vertex 28 28 80
    vertex 28 25.2 80
    vertex 25.9503 25.9503 80
  endloop
endfacet
facet normal 0 0 -1
  outer loop
    vertex 28 0 80
    vertex 25.9503 2.04974 80
    vertex 28 2.8 80
  endloop
endfacet
facet normal 0 0 -1
  outer loop
    vertex 0 28 80
    vertex 2.8 28 80
    vertex 2.04974 25.9503 80
  endloop
endfacet
facet normal 0 0 -1
  outer loop
    vertex 0 28 80
    vertex 2.04974 25.9503 80
    vertex 0 25.2 80
  endloop
endfacet
facet normal 0 0 -1
  outer loop
    vertex 28 0 80
    vertex 25.2 0 80
    vertex 25.9503 2.04974 80
  endloop
endfacet
facet normal 0 0 -1
  outer loop
    vertex 0 0 80
    vertex 0 2.8 80
    vertex 2.04974 2.04974 80
  endloop
endfacet
facet normal 0 0 -1
  outer loop
    vertex 0 0 80
    vertex 2.04974 2.04974 80
    vertex 2.8 0 80
  endloop
endfacet
facet normal -0 0 -1
  outer loop
    vertex 4.30829 2.36235 80
    vertex 2.04974 2.04974 80
    vertex 2.57895 4.56068 80
  endloop
endfacet
facet normal 0 0 -1
  outer loop
    vertex 21 16.9741 80
    vertex 23.4969 16.8058 80
    vertex 22.4035 14.5783 80
  endloop
endfacet
facet normal 0 0 -1
  outer loop
    vertex 7.04802 16.9461 80
    vertex 5.59406 14.5672 80
    vertex 4.50311 16.8058 80
  endloop
endfacet
facet normal 0 0 -1
  outer loop
    vertex 25.3672 15.0184 80
    vertex 23.4969 16.8058 80
    vertex 25.5751 18.2 80
  endloop
endfacet
facet normal 0 0 -1
  outer loop
    vertex 2.63276 15.0184 80
    vertex 2.42487 18.2 80
    vertex 4.50311 16.8058 80
  endloop
endfacet
facet normal 0 0 -1
  outer loop
    vertex 0 5.6 80
    vertex 1.86985 7.03173 80
    vertex 2.57895 4.56068 80
  endloop
endfacet
facet normal 0 0 -1
  outer loop
    vertex 25.5157 20.9428 80
    vertex 23.4647 22.3954 80
    vertex 25.7609 23.7068 80
  endloop
endfacet
facet normal 0 0 -1
  outer loop
    vertex 2.4843 20.9428 80
    vertex 2.23697 23.7024 80
    vertex 4.53535 22.3954 80
  endloop
endfacet
facet normal 0 0 -1
  outer loop
    vertex 20.9106 25.7582 80
    vertex 23.6348 25.3523 80
    vertex 21.7114 23.7994 80
  endloop
endfacet
facet normal 0 0 -1
  outer loop
    vertex 4.35243 25.3261 80
    vertex 7.1148 25.7167 80
    vertex 6.24341 23.7621 80
  endloop
endfacet
facet normal 0 -0 -1
  outer loop
    vertex 15.4 25.5751 80
    vertex 16.8 23.6995 80
    vertex 14 23.6995 80
  endloop
endfacet
facet normal 0 0 -1
  outer loop
    vertex 15.4 21.8238 80
    vertex 14 23.6995 80
    vertex 16.8 23.6995 80
  endloop
endfacet
facet normal 0 -0 -1
  outer loop
    vertex 12.6 25.5751 80
    vertex 14 23.6995 80
    vertex 11.2 23.6995 80
  endloop
endfacet
facet normal 0 0 -1
  outer loop
    vertex 9.8 25.5751 80
    vertex 12.6 25.5751 80
    vertex 11.2 23.6995 80
  endloop
endfacet
facet normal -0 0 -1
  outer loop
    vertex 9.8 25.5751 80
    vertex 8.4 23.6995 80
    vertex 7.1148 25.7167 80
  endloop
endfacet
facet normal 0 0 -1
  outer loop
    vertex 18.2 21.8238 80
    vertex 16.8 23.6995 80
    vertex 19.6 23.6995 80
  endloop
endfacet
facet normal 0 0 -1
  outer loop
    vertex 15.4 25.5751 80
    vertex 14 23.6995 80
    vertex 12.6 25.5751 80
  endloop
endfacet
facet normal 0 0 -1
  outer loop
    vertex 18.2 21.8238 80
    vertex 19.6 23.6995 80
    vertex 20.9471 21.7918 80
  endloop
endfacet
facet normal 0 0 -1
  outer loop
    vertex 15.4 21.8238 80
    vertex 16.8 23.6995 80
    vertex 18.2 21.8238 80
  endloop
endfacet
facet normal 0 0 -1
  outer loop
    vertex 28 5.6 80
    vertex 26.1593 7.08758 80
    vertex 28 8.4 80
  endloop
endfacet
facet normal 0 -0 -1
  outer loop
    vertex 9.8 25.5751 80
    vertex 11.2 23.6995 80
    vertex 8.4 23.6995 80
  endloop
endfacet
facet normal 0 0 -1
  outer loop
    vertex 0 5.6 80
    vertex 0 8.4 80
    vertex 1.86985 7.03173 80
  endloop
endfacet
facet normal 0 0 -1
  outer loop
    vertex 12.6 21.8238 80
    vertex 11.2 23.6995 80
    vertex 14 23.6995 80
  endloop
endfacet
facet normal 0 0 -1
  outer loop
    vertex 7.02861 21.7981 80
    vertex 8.4 23.6995 80
    vertex 9.8 21.8238 80
  endloop
endfacet
facet normal 0 0 -1
  outer loop
    vertex 12.6 21.8238 80
    vertex 14 23.6995 80
    vertex 15.4 21.8238 80
  endloop
endfacet
facet normal 0 0 -1
  outer loop
    vertex 20.9106 25.7582 80
    vertex 19.6 23.6995 80
    vertex 18.2 25.5751 80
  endloop
endfacet
facet normal -0 0 -1
  outer loop
    vertex 12.6 21.8238 80
    vertex 9.8 21.8238 80
    vertex 11.2 23.6995 80
  endloop
endfacet
facet normal 0 -0 -1
  outer loop
    vertex 18.2 25.5751 80
    vertex 19.6 23.6995 80
    vertex 16.8 23.6995 80
  endloop
endfacet
facet normal 0 0 -1
  outer loop
    vertex 15.4 25.5751 80
    vertex 18.2 25.5751 80
    vertex 16.8 23.6995 80
  endloop
endfacet
facet normal 0 0 -1
  outer loop
    vertex 9.8 21.8238 80
    vertex 8.4 23.6995 80
    vertex 11.2 23.6995 80
  endloop
endfacet
facet normal 0 0 -1
  outer loop
    vertex 4.2 7.27461 80
    vertex 2.57895 4.56068 80
    vertex 1.86985 7.03173 80
  endloop
endfacet
facet normal 0 0 -1
  outer loop
    vertex 0 11.2 80
    vertex 0 14 80
    vertex 1.82718 12.6 80
  endloop
endfacet
facet normal 0 0 -1
  outer loop
    vertex 28 11.2 80
    vertex 26.1565 12.5277 80
    vertex 28 14 80
  endloop
endfacet
facet normal 0 0 -1
  outer loop
    vertex 25.2 0 80
    vertex 23.7146 2.29827 80
    vertex 25.9503 2.04974 80
  endloop
endfacet
facet normal 0 0 -1
  outer loop
    vertex 0 25.2 80
    vertex 2.04974 25.9503 80
    vertex 2.23697 23.7024 80
  endloop
endfacet
facet normal -0 0 -1
  outer loop
    vertex 28 25.2 80
    vertex 25.7609 23.7068 80
    vertex 25.9503 25.9503 80
  endloop
endfacet
facet normal 0 -0 -1
  outer loop
    vertex 25.2 28 80
    vertex 25.9503 25.9503 80
    vertex 23.6348 25.3523 80
  endloop
endfacet
facet normal 0 0 -1
  outer loop
    vertex 2.8 0 80
    vertex 2.04974 2.04974 80
    vertex 4.30829 2.36235 80
  endloop
endfacet
facet normal -0 0 -1
  outer loop
    vertex 28 2.8 80
    vertex 25.9503 2.04974 80
    vertex 25.464 4.45711 80
  endloop
endfacet
facet normal 0 -0 -1
  outer loop
    vertex 2.8 28 80
    vertex 4.35243 25.3261 80
    vertex 2.04974 25.9503 80
  endloop
endfacet
facet normal 0 -0 -1
  outer loop
    vertex 25.464 4.45711 80
    vertex 25.9503 2.04974 80
    vertex 23.7146 2.29827 80
  endloop
endfacet
facet normal -0 0 -1
  outer loop
    vertex 4.35243 25.3261 80
    vertex 2.23697 23.7024 80
    vertex 2.04974 25.9503 80
  endloop
endfacet
facet normal 0 0 -1
  outer loop
    vertex 23.6348 25.3523 80
    vertex 25.9503 25.9503 80
    vertex 25.7609 23.7068 80
  endloop
endfacet
facet normal 0 0 -1
  outer loop
    vertex 20.9471 21.7918 80
    vertex 21.7114 23.7994 80
    vertex 23.4647 22.3954 80
  endloop
endfacet
facet normal 0 0 -1
  outer loop
    vertex 7.02861 21.7981 80
    vertex 4.53535 22.3954 80
    vertex 6.24341 23.7621 80
  endloop
endfacet
facet normal 0 -0 -1
  outer loop
    vertex 7.1148 25.7167 80
    vertex 8.4 23.6995 80
    vertex 6.24341 23.7621 80
  endloop
endfacet
facet normal 0 0 -1
  outer loop
    vertex 7.02861 21.7981 80
    vertex 6.24341 23.7621 80
    vertex 8.4 23.6995 80
  endloop
endfacet
facet normal 0 -0 -1
  outer loop
    vertex 20.9106 25.7582 80
    vertex 21.7114 23.7994 80
    vertex 19.6 23.6995 80
  endloop
endfacet
facet normal 0 0 -1
  outer loop
    vertex 20.9471 21.7918 80
    vertex 19.6 23.6995 80
    vertex 21.7114 23.7994 80
  endloop
endfacet
endsolid Created by Gmsh
