solid Created by Gmsh
facet normal 0 -0 1
  outer loop
    vertex 10.6767 16.39 0
    vertex 12.7632 17.645 0
    vertex 10.4328 19.2916 0
  endloop
endfacet
facet normal 0 0 1
  outer loop
    vertex 31.2 0 0
    vertex 33.6 0 0
    vertex 32.016 2.34104 0
  endloop
endfacet
facet normal -0 0 1
  outer loop
    vertex 25.5199 19.6297 0
    vertex 27.413 17.9784 0
    vertex 27.6085 19.8236 0
  endloop
endfacet
facet normal 0 0 1
  outer loop
    vertex 25.5199 19.6297 0
    vertex 25.3254 17.2792 0
    vertex 27.413 17.9784 0
  endloop
endfacet
facet normal -0 0 1
  outer loop
    vertex 2.4 25 0
    vertex 4.05315 22.6618 0
    vertex 4.8 25 0
  endloop
endfacet
facet normal 0 0 1
  outer loop
    vertex 12.9716 22.8087 0
    vertex 11.2429 21.4642 0
    vertex 12.8075 20.1587 0
  endloop
endfacet
facet normal 0 0 1
  outer loop
    vertex 26.4214 21.4746 0
    vertex 23.5967 21.164 0
    vertex 25.5199 19.6297 0
  endloop
endfacet
facet normal 0 0 1
  outer loop
    vertex 25.1632 23.1411 0
    vertex 23.5967 21.164 0
    vertex 26.4214 21.4746 0
  endloop
endfacet
facet normal 0 -0 1
  outer loop
    vertex 33.6 0 0
    vertex 34.1791 1.84608 0
    vertex 32.016 2.34104 0
  endloop
endfacet
facet normal 0 0 1
  outer loop
    vertex 26.4214 21.4746 0
    vertex 27.6085 19.8236 0
    vertex 29.2511 21.1612 0
  endloop
endfacet
facet normal 0 0 1
  outer loop
    vertex 27.7256 23.0973 0
    vertex 26.4214 21.4746 0
    vertex 29.2511 21.1612 0
  endloop
endfacet
facet normal 0 0 1
  outer loop
    vertex 2.4 25 0
    vertex 1.82092 23.1539 0
    vertex 4.05315 22.6618 0
  endloop
endfacet
facet normal 0 0 1
  outer loop
    vertex 8.46235 2.20845 0
    vertex 10.8298 3.48448 0
    vertex 8.63547 4.90612 0
  endloop
endfacet
facet normal 0 0 1
  outer loop
    vertex 8.59092 10.2482 0
    vertex 6.53458 8.83823 0
    vertex 8.91897 7.70846 0
  endloop
endfacet
facet normal 0 -0 1
  outer loop
    vertex 8.46235 2.20845 0
    vertex 8.63547 4.90612 0
    vertex 6.41877 3.96757 0
  endloop
endfacet
facet normal 0 0 1
  outer loop
    vertex 12.9716 22.8087 0
    vertex 12.8075 20.1587 0
    vertex 14.884 21.1372 0
  endloop
endfacet
facet normal 0 0 1
  outer loop
    vertex 6.52935 6.2936 0
    vertex 8.91897 7.70846 0
    vertex 6.53458 8.83823 0
  endloop
endfacet
facet normal 0 0 1
  outer loop
    vertex 10.6767 16.39 0
    vertex 10.4328 19.2916 0
    vertex 8.49716 17.626 0
  endloop
endfacet
facet normal 0 0 1
  outer loop
    vertex 14.8337 6.619 0
    vertex 12.8759 4.63914 0
    vertex 15.0449 4.22899 0
  endloop
endfacet
facet normal 0 0 1
  outer loop
    vertex 14.8337 6.619 0
    vertex 12.6906 6.7508 0
    vertex 12.8759 4.63914 0
  endloop
endfacet
facet normal 0 0 1
  outer loop
    vertex 12.8075 20.1587 0
    vertex 10.4328 19.2916 0
    vertex 12.7632 17.645 0
  endloop
endfacet
facet normal -0 0 1
  outer loop
    vertex 10.8298 3.48448 0
    vertex 13.0689 2.27316 0
    vertex 12.8759 4.63914 0
  endloop
endfacet
facet normal 0 -0 1
  outer loop
    vertex 33.827 8.67777 0
    vertex 33.8429 11.0565 0
    vertex 31.7255 9.53425 0
  endloop
endfacet
facet normal 0 0 1
  outer loop
    vertex 15.641 2.0514 0
    vertex 15.0449 4.22899 0
    vertex 13.0689 2.27316 0
  endloop
endfacet
facet normal 0 0 1
  outer loop
    vertex 12.8759 4.63914 0
    vertex 13.0689 2.27316 0
    vertex 15.0449 4.22899 0
  endloop
endfacet
facet normal 0 -0 1
  outer loop
    vertex 29.5723 3.77978 0
    vertex 29.573 5.98001 0
    vertex 27.6197 4.67754 0
  endloop
endfacet
facet normal 0 0 1
  outer loop
    vertex 10.8298 3.48448 0
    vertex 10.8 1.52848 0
    vertex 13.0689 2.27316 0
  endloop
endfacet
facet normal 0 0 1
  outer loop
    vertex 33.5085 13.5592 0
    vertex 31.81 11.5475 0
    vertex 33.8429 11.0565 0
  endloop
endfacet
facet normal 0 0 1
  outer loop
    vertex 31.81 11.5475 0
    vertex 31.7255 9.53425 0
    vertex 33.8429 11.0565 0
  endloop
endfacet
facet normal 0 0 1
  outer loop
    vertex 27.5602 6.87153 0
    vertex 27.6197 4.67754 0
    vertex 29.573 5.98001 0
  endloop
endfacet
facet normal -0 0 1
  outer loop
    vertex 6.52935 6.2936 0
    vertex 8.63547 4.90612 0
    vertex 8.91897 7.70846 0
  endloop
endfacet
facet normal 0 0 1
  outer loop
    vertex 22.7753 2.05915 0
    vertex 25.016 2.06716 0
    vertex 23.6593 4.17666 0
  endloop
endfacet
facet normal 0 0 1
  outer loop
    vertex 8.59092 10.2482 0
    vertex 6.47343 11.3581 0
    vertex 6.53458 8.83823 0
  endloop
endfacet
facet normal 0 0 1
  outer loop
    vertex 33.5085 13.5592 0
    vertex 31.2865 13.3531 0
    vertex 31.81 11.5475 0
  endloop
endfacet
facet normal 0 0 1
  outer loop
    vertex 6.53458 8.83823 0
    vertex 6.47343 11.3581 0
    vertex 4.33091 10.0431 0
  endloop
endfacet
facet normal 0 0 1
  outer loop
    vertex 12.8075 20.1587 0
    vertex 11.2429 21.4642 0
    vertex 10.4328 19.2916 0
  endloop
endfacet
facet normal -0 0 1
  outer loop
    vertex 6.45359 16.2993 0
    vertex 8.59004 15.0823 0
    vertex 8.49716 17.626 0
  endloop
endfacet
facet normal -0 0 1
  outer loop
    vertex 8.63547 4.90612 0
    vertex 10.8298 3.48448 0
    vertex 10.8667 5.90104 0
  endloop
endfacet
facet normal 0 0 1
  outer loop
    vertex 4.31731 12.5468 0
    vertex 4.33091 10.0431 0
    vertex 6.47343 11.3581 0
  endloop
endfacet
facet normal 0 -0 1
  outer loop
    vertex 25.016 2.06716 0
    vertex 25.8571 3.76185 0
    vertex 23.6593 4.17666 0
  endloop
endfacet
facet normal -0 0 1
  outer loop
    vertex 2.15993 11.2635 0
    vertex 4.33091 10.0431 0
    vertex 4.31731 12.5468 0
  endloop
endfacet
facet normal 0 0 1
  outer loop
    vertex 8.23039 23.2172 0
    vertex 6.75387 21.2856 0
    vertex 9.23793 21.4188 0
  endloop
endfacet
facet normal 0 -0 1
  outer loop
    vertex 8.59004 15.0823 0
    vertex 10.6767 16.39 0
    vertex 8.49716 17.626 0
  endloop
endfacet
facet normal 0 -0 1
  outer loop
    vertex 6.45359 16.2993 0
    vertex 8.49716 17.626 0
    vertex 6.40479 18.7611 0
  endloop
endfacet
facet normal 0 -0 1
  outer loop
    vertex 2.15993 11.2635 0
    vertex 4.31731 12.5468 0
    vertex 2.1591 13.7663 0
  endloop
endfacet
facet normal 0 0 1
  outer loop
    vertex 8.59092 10.2482 0
    vertex 8.91897 7.70846 0
    vertex 10.366 9.6861 0
  endloop
endfacet
facet normal 0 0 1
  outer loop
    vertex 19.1835 4.11901 0
    vertex 17.9969 1.96904 0
    vertex 20.4004 1.99097 0
  endloop
endfacet
facet normal 0 -0 1
  outer loop
    vertex 4.28123 19.9789 0
    vertex 6.75387 21.2856 0
    vertex 4.05315 22.6618 0
  endloop
endfacet
facet normal 0 0 1
  outer loop
    vertex 10.8298 3.48448 0
    vertex 12.8759 4.63914 0
    vertex 10.8667 5.90104 0
  endloop
endfacet
facet normal 0 0 1
  outer loop
    vertex 23.3855 6.66968 0
    vertex 21.2573 7.84725 0
    vertex 21.342 5.5029 0
  endloop
endfacet
facet normal 0 0 1
  outer loop
    vertex 33.8908 3.83867 0
    vertex 33.8383 6.25588 0
    vertex 31.7639 5.01949 0
  endloop
endfacet
facet normal 0 -0 1
  outer loop
    vertex 4.30446 17.5106 0
    vertex 6.40479 18.7611 0
    vertex 4.28123 19.9789 0
  endloop
endfacet
facet normal 0 0 1
  outer loop
    vertex 33.8383 6.25588 0
    vertex 31.6977 7.35579 0
    vertex 31.7639 5.01949 0
  endloop
endfacet
facet normal 0 0 1
  outer loop
    vertex 33.8908 3.83867 0
    vertex 31.7639 5.01949 0
    vertex 32.016 2.34104 0
  endloop
endfacet
facet normal 0 -0 1
  outer loop
    vertex 2.15913 16.2592 0
    vertex 4.30446 17.5106 0
    vertex 2.14785 18.7423 0
  endloop
endfacet
facet normal 0 0 1
  outer loop
    vertex 23.3855 6.66968 0
    vertex 23.3504 9.0652 0
    vertex 21.2573 7.84725 0
  endloop
endfacet
facet normal 0 0 1
  outer loop
    vertex 36 5 0
    vertex 33.8383 6.25588 0
    vertex 33.8908 3.83867 0
  endloop
endfacet
facet normal 0 0 1
  outer loop
    vertex 14.9048 13.8751 0
    vertex 14.8953 16.3312 0
    vertex 12.7984 15.1188 0
  endloop
endfacet
facet normal 0 -0 1
  outer loop
    vertex 6.40479 18.7611 0
    vertex 6.75387 21.2856 0
    vertex 4.28123 19.9789 0
  endloop
endfacet
facet normal 0 0 1
  outer loop
    vertex 23.3322 11.4907 0
    vertex 21.2309 10.2708 0
    vertex 23.3504 9.0652 0
  endloop
endfacet
facet normal 0 0 1
  outer loop
    vertex 2.14833 6.27542 0
    vertex 4.30117 7.50973 0
    vertex 2.15649 8.75637 0
  endloop
endfacet
facet normal -0 0 1
  outer loop
    vertex 2.14785 18.7423 0
    vertex 4.30446 17.5106 0
    vertex 4.28123 19.9789 0
  endloop
endfacet
facet normal -0 0 1
  outer loop
    vertex 0 17.5 0
    vertex 2.15913 16.2592 0
    vertex 2.14785 18.7423 0
  endloop
endfacet
facet normal 0 0 1
  outer loop
    vertex 8.63547 4.90612 0
    vertex 10.8667 5.90104 0
    vertex 8.91897 7.70846 0
  endloop
endfacet
facet normal -0 0 1
  outer loop
    vertex 2.10767 21.1653 0
    vertex 4.28123 19.9789 0
    vertex 4.05315 22.6618 0
  endloop
endfacet
facet normal -0 0 1
  outer loop
    vertex 2.14833 6.27542 0
    vertex 4.34755 5.15895 0
    vertex 4.30117 7.50973 0
  endloop
endfacet
facet normal 0 0 1
  outer loop
    vertex 4.30117 7.50973 0
    vertex 4.34755 5.15895 0
    vertex 6.52935 6.2936 0
  endloop
endfacet
facet normal -0 0 1
  outer loop
    vertex 2.15649 8.75637 0
    vertex 4.30117 7.50973 0
    vertex 4.33091 10.0431 0
  endloop
endfacet
facet normal -0 0 1
  outer loop
    vertex 10.6767 16.39 0
    vertex 12.7984 15.1188 0
    vertex 12.7632 17.645 0
  endloop
endfacet
facet normal 0 0 1
  outer loop
    vertex 31.7639 5.01949 0
    vertex 29.5723 3.77978 0
    vertex 32.016 2.34104 0
  endloop
endfacet
facet normal 0 0 1
  outer loop
    vertex 4.30117 7.50973 0
    vertex 6.53458 8.83823 0
    vertex 4.33091 10.0431 0
  endloop
endfacet
facet normal -0 0 1
  outer loop
    vertex 0 7.5 0
    vertex 2.14833 6.27542 0
    vertex 2.15649 8.75637 0
  endloop
endfacet
facet normal 0 0 1
  outer loop
    vertex 2.15913 16.2592 0
    vertex 2.1591 13.7663 0
    vertex 4.31563 15.0335 0
  endloop
endfacet
facet normal 0 0 1
  outer loop
    vertex 4.31563 15.0335 0
    vertex 2.1591 13.7663 0
    vertex 4.31731 12.5468 0
  endloop
endfacet
facet normal 0 0 1
  outer loop
    vertex 31.6887 17.4919 0
    vertex 29.4294 16.4662 0
    vertex 31.4513 15.2382 0
  endloop
endfacet
facet normal 0 0 1
  outer loop
    vertex 36 15 0
    vertex 33.7995 16.2209 0
    vertex 33.5085 13.5592 0
  endloop
endfacet
facet normal 0 0 1
  outer loop
    vertex 33.8527 18.7281 0
    vertex 31.6515 19.8458 0
    vertex 31.6887 17.4919 0
  endloop
endfacet
facet normal -0 0 1
  outer loop
    vertex 4.34755 5.15895 0
    vertex 6.41877 3.96757 0
    vertex 6.52935 6.2936 0
  endloop
endfacet
facet normal -0 0 1
  outer loop
    vertex 0 12.5 0
    vertex 2.15993 11.2635 0
    vertex 2.1591 13.7663 0
  endloop
endfacet
facet normal 0 0 1
  outer loop
    vertex 2.10767 21.1653 0
    vertex 2.14785 18.7423 0
    vertex 4.28123 19.9789 0
  endloop
endfacet
facet normal 0 0 1
  outer loop
    vertex 31.6515 19.8458 0
    vertex 29.2511 21.1612 0
    vertex 29.5973 18.7072 0
  endloop
endfacet
facet normal 0 0 1
  outer loop
    vertex 33.7995 16.2209 0
    vertex 31.6887 17.4919 0
    vertex 31.4513 15.2382 0
  endloop
endfacet
facet normal 0 -0 1
  outer loop
    vertex 33.5085 13.5592 0
    vertex 33.7995 16.2209 0
    vertex 31.4513 15.2382 0
  endloop
endfacet
facet normal 0 0 1
  outer loop
    vertex 31.6887 17.4919 0
    vertex 31.6515 19.8458 0
    vertex 29.5973 18.7072 0
  endloop
endfacet
facet normal 0 0 1
  outer loop
    vertex 33.827 8.67777 0
    vertex 31.6977 7.35579 0
    vertex 33.8383 6.25588 0
  endloop
endfacet
facet normal 0 0 1
  outer loop
    vertex 19.1491 6.63038 0
    vertex 19.1835 4.11901 0
    vertex 21.342 5.5029 0
  endloop
endfacet
facet normal 0 -0 1
  outer loop
    vertex 21.2573 7.84725 0
    vertex 23.3504 9.0652 0
    vertex 21.2309 10.2708 0
  endloop
endfacet
facet normal -0 0 1
  outer loop
    vertex 4.30446 17.5106 0
    vertex 6.45359 16.2993 0
    vertex 6.40479 18.7611 0
  endloop
endfacet
facet normal 0 0 1
  outer loop
    vertex 4.30446 17.5106 0
    vertex 4.31563 15.0335 0
    vertex 6.45359 16.2993 0
  endloop
endfacet
facet normal 0 0 1
  outer loop
    vertex 23.3322 11.4907 0
    vertex 23.3504 9.0652 0
    vertex 25.4502 10.283 0
  endloop
endfacet
facet normal -0 0 1
  outer loop
    vertex 0 20 0
    vertex 2.14785 18.7423 0
    vertex 2.10767 21.1653 0
  endloop
endfacet
facet normal 0 0 1
  outer loop
    vertex 0 20 0
    vertex 2.10767 21.1653 0
    vertex 0 22.5 0
  endloop
endfacet
facet normal 0 -0 1
  outer loop
    vertex 36 2.5 0
    vertex 36 5 0
    vertex 33.8908 3.83867 0
  endloop
endfacet
facet normal 0 0 1
  outer loop
    vertex 33.8527 18.7281 0
    vertex 31.6887 17.4919 0
    vertex 33.7995 16.2209 0
  endloop
endfacet
facet normal 0 0 1
  outer loop
    vertex 6.45359 16.2993 0
    vertex 6.46615 13.8265 0
    vertex 8.59004 15.0823 0
  endloop
endfacet
facet normal 0 -0 1
  outer loop
    vertex 14.9048 13.8751 0
    vertex 17.0037 15.1043 0
    vertex 14.8953 16.3312 0
  endloop
endfacet
facet normal 0 0 1
  outer loop
    vertex 12.7632 17.645 0
    vertex 12.7984 15.1188 0
    vertex 14.8953 16.3312 0
  endloop
endfacet
facet normal 0 0 1
  outer loop
    vertex 6.52935 6.2936 0
    vertex 6.41877 3.96757 0
    vertex 8.63547 4.90612 0
  endloop
endfacet
facet normal -0 0 1
  outer loop
    vertex 4.31563 15.0335 0
    vertex 6.46615 13.8265 0
    vertex 6.45359 16.2993 0
  endloop
endfacet
facet normal 0 0 1
  outer loop
    vertex 36 7.5 0
    vertex 33.827 8.67777 0
    vertex 33.8383 6.25588 0
  endloop
endfacet
facet normal -0 0 1
  outer loop
    vertex 19.1491 6.63038 0
    vertex 21.342 5.5029 0
    vertex 21.2573 7.84725 0
  endloop
endfacet
facet normal -0 0 1
  outer loop
    vertex 2.15913 16.2592 0
    vertex 4.31563 15.0335 0
    vertex 4.30446 17.5106 0
  endloop
endfacet
facet normal 0 0 1
  outer loop
    vertex 36 17.5 0
    vertex 33.8527 18.7281 0
    vertex 33.7995 16.2209 0
  endloop
endfacet
facet normal 0 0 1
  outer loop
    vertex 29.5973 18.7072 0
    vertex 27.413 17.9784 0
    vertex 29.4294 16.4662 0
  endloop
endfacet
facet normal -0 0 1
  outer loop
    vertex 6.46615 13.8265 0
    vertex 8.60052 12.6231 0
    vertex 8.59004 15.0823 0
  endloop
endfacet
facet normal 0 0 1
  outer loop
    vertex 8.59004 15.0823 0
    vertex 8.60052 12.6231 0
    vertex 10.7047 13.8565 0
  endloop
endfacet
facet normal 0 0 1
  outer loop
    vertex 0 5 0
    vertex 2.14833 6.27542 0
    vertex 0 7.5 0
  endloop
endfacet
facet normal 0 -0 1
  outer loop
    vertex 36 17.5 0
    vertex 36 20 0
    vertex 33.8527 18.7281 0
  endloop
endfacet
facet normal -0 0 1
  outer loop
    vertex 0 10 0
    vertex 2.15649 8.75637 0
    vertex 2.15993 11.2635 0
  endloop
endfacet
facet normal 0 0 1
  outer loop
    vertex 2.15993 11.2635 0
    vertex 2.15649 8.75637 0
    vertex 4.33091 10.0431 0
  endloop
endfacet
facet normal 0 0 1
  outer loop
    vertex 25.4611 7.85168 0
    vertex 25.5126 5.5984 0
    vertex 27.5602 6.87153 0
  endloop
endfacet
facet normal 0 -0 1
  outer loop
    vertex 10.7047 13.8565 0
    vertex 12.7984 15.1188 0
    vertex 10.6767 16.39 0
  endloop
endfacet
facet normal -0 0 1
  outer loop
    vertex 8.60052 12.6231 0
    vertex 10.6579 11.5218 0
    vertex 10.7047 13.8565 0
  endloop
endfacet
facet normal -0 0 1
  outer loop
    vertex 8.59004 15.0823 0
    vertex 10.7047 13.8565 0
    vertex 10.6767 16.39 0
  endloop
endfacet
facet normal 0 0 1
  outer loop
    vertex 10.7047 13.8565 0
    vertex 10.6579 11.5218 0
    vertex 12.797 12.6646 0
  endloop
endfacet
facet normal -0 0 1
  outer loop
    vertex 14.9048 13.8751 0
    vertex 17.0047 12.6747 0
    vertex 17.0037 15.1043 0
  endloop
endfacet
facet normal -0 0 1
  outer loop
    vertex 12.6334 10.1836 0
    vertex 14.9419 9.02371 0
    vertex 14.88 11.4425 0
  endloop
endfacet
facet normal 0 0 1
  outer loop
    vertex 25.4502 10.283 0
    vertex 25.4611 7.85168 0
    vertex 27.545 9.14178 0
  endloop
endfacet
facet normal 0 -0 1
  outer loop
    vertex 36 5 0
    vertex 36 7.5 0
    vertex 33.8383 6.25588 0
  endloop
endfacet
facet normal 0 -0 1
  outer loop
    vertex 19.0938 16.3301 0
    vertex 21.1817 17.5554 0
    vertex 19.0714 18.7367 0
  endloop
endfacet
facet normal 0 0 1
  outer loop
    vertex 0 15 0
    vertex 2.15913 16.2592 0
    vertex 0 17.5 0
  endloop
endfacet
facet normal 0 -0 1
  outer loop
    vertex 36 7.5 0
    vertex 36 10 0
    vertex 33.827 8.67777 0
  endloop
endfacet
facet normal 0 0 1
  outer loop
    vertex 25.4611 7.85168 0
    vertex 23.3855 6.66968 0
    vertex 25.5126 5.5984 0
  endloop
endfacet
facet normal -0 0 1
  outer loop
    vertex 10.6579 11.5218 0
    vertex 12.6334 10.1836 0
    vertex 12.797 12.6646 0
  endloop
endfacet
facet normal 0 -0 1
  outer loop
    vertex 19.1055 13.9038 0
    vertex 21.1992 15.1305 0
    vertex 19.0938 16.3301 0
  endloop
endfacet
facet normal 0 0 1
  outer loop
    vertex 16.8 25 0
    vertex 15.1485 23.2125 0
    vertex 16.8881 22.2547 0
  endloop
endfacet
facet normal 0 0 1
  outer loop
    vertex 0 10 0
    vertex 2.15993 11.2635 0
    vertex 0 12.5 0
  endloop
endfacet
facet normal 0 -0 1
  outer loop
    vertex 36 12.5 0
    vertex 36 15 0
    vertex 33.5085 13.5592 0
  endloop
endfacet
facet normal 0 -0 1
  outer loop
    vertex 10.8667 5.90104 0
    vertex 11.466 8.15537 0
    vertex 8.91897 7.70846 0
  endloop
endfacet
facet normal -0 0 1
  outer loop
    vertex 0 15 0
    vertex 2.1591 13.7663 0
    vertex 2.15913 16.2592 0
  endloop
endfacet
facet normal 0 0 1
  outer loop
    vertex 17.0452 7.82836 0
    vertex 17.0334 5.51039 0
    vertex 19.1491 6.63038 0
  endloop
endfacet
facet normal 0 0 1
  outer loop
    vertex 17.0194 10.2497 0
    vertex 17.0452 7.82836 0
    vertex 19.1342 9.05014 0
  endloop
endfacet
facet normal -0 0 1
  outer loop
    vertex 4.30117 7.50973 0
    vertex 6.52935 6.2936 0
    vertex 6.53458 8.83823 0
  endloop
endfacet
facet normal 0 0 1
  outer loop
    vertex 0 7.5 0
    vertex 2.15649 8.75637 0
    vertex 0 10 0
  endloop
endfacet
facet normal 0 0 1
  outer loop
    vertex 19.0938 16.3301 0
    vertex 16.9932 17.5269 0
    vertex 17.0037 15.1043 0
  endloop
endfacet
facet normal 0 0 1
  outer loop
    vertex 19.1342 9.05014 0
    vertex 17.0452 7.82836 0
    vertex 19.1491 6.63038 0
  endloop
endfacet
facet normal 0 0 1
  outer loop
    vertex 27.545 9.14178 0
    vertex 25.4611 7.85168 0
    vertex 27.5602 6.87153 0
  endloop
endfacet
facet normal 0 -0 1
  outer loop
    vertex 17.0047 12.6747 0
    vertex 19.1055 13.9038 0
    vertex 17.0037 15.1043 0
  endloop
endfacet
facet normal 0 0 1
  outer loop
    vertex 0 17.5 0
    vertex 2.14785 18.7423 0
    vertex 0 20 0
  endloop
endfacet
facet normal 0 0 1
  outer loop
    vertex 19.1055 13.9038 0
    vertex 19.0938 16.3301 0
    vertex 17.0037 15.1043 0
  endloop
endfacet
facet normal 0 -0 1
  outer loop
    vertex 21.1817 17.5554 0
    vertex 21.2074 19.8578 0
    vertex 19.0714 18.7367 0
  endloop
endfacet
facet normal 0 0 1
  outer loop
    vertex 12.797 12.6646 0
    vertex 14.9048 13.8751 0
    vertex 12.7984 15.1188 0
  endloop
endfacet
facet normal 0 0 1
  outer loop
    vertex 31.6887 17.4919 0
    vertex 29.5973 18.7072 0
    vertex 29.4294 16.4662 0
  endloop
endfacet
facet normal 0 0 1
  outer loop
    vertex 19.1491 6.63038 0
    vertex 17.0334 5.51039 0
    vertex 19.1835 4.11901 0
  endloop
endfacet
facet normal 0 0 1
  outer loop
    vertex 16.971 19.9258 0
    vertex 16.8881 22.2547 0
    vertex 14.884 21.1372 0
  endloop
endfacet
facet normal 0 0 1
  outer loop
    vertex 21.1992 15.1305 0
    vertex 21.1817 17.5554 0
    vertex 19.0938 16.3301 0
  endloop
endfacet
facet normal 0 -0 1
  outer loop
    vertex 36 15 0
    vertex 36 17.5 0
    vertex 33.7995 16.2209 0
  endloop
endfacet
facet normal 0 0 1
  outer loop
    vertex 19.0714 18.7367 0
    vertex 16.971 19.9258 0
    vertex 16.9932 17.5269 0
  endloop
endfacet
facet normal 0 0 1
  outer loop
    vertex 14.88 11.4425 0
    vertex 14.9419 9.02371 0
    vertex 17.0194 10.2497 0
  endloop
endfacet
facet normal 0 -0 1
  outer loop
    vertex 23.3149 13.9289 0
    vertex 25.3406 15.0487 0
    vertex 23.2257 16.3363 0
  endloop
endfacet
facet normal 0 0 1
  outer loop
    vertex 19.0938 16.3301 0
    vertex 19.0714 18.7367 0
    vertex 16.9932 17.5269 0
  endloop
endfacet
facet normal 0 0 1
  outer loop
    vertex 17.0452 7.82836 0
    vertex 14.9419 9.02371 0
    vertex 14.8337 6.619 0
  endloop
endfacet
facet normal 0 0 1
  outer loop
    vertex 25.4502 10.283 0
    vertex 23.3504 9.0652 0
    vertex 25.4611 7.85168 0
  endloop
endfacet
facet normal 0 0 1
  outer loop
    vertex 16.971 19.9258 0
    vertex 14.884 21.1372 0
    vertex 14.8973 18.7221 0
  endloop
endfacet
facet normal 0 0 1
  outer loop
    vertex 12.797 12.6646 0
    vertex 12.6334 10.1836 0
    vertex 14.88 11.4425 0
  endloop
endfacet
facet normal 0 0 1
  outer loop
    vertex 0 12.5 0
    vertex 2.1591 13.7663 0
    vertex 0 15 0
  endloop
endfacet
facet normal -0 0 1
  outer loop
    vertex 10.7047 13.8565 0
    vertex 12.797 12.6646 0
    vertex 12.7984 15.1188 0
  endloop
endfacet
facet normal 0 0 1
  outer loop
    vertex 17.0194 10.2497 0
    vertex 14.9419 9.02371 0
    vertex 17.0452 7.82836 0
  endloop
endfacet
facet normal 0 0 1
  outer loop
    vertex 17.0452 7.82836 0
    vertex 14.8337 6.619 0
    vertex 17.0334 5.51039 0
  endloop
endfacet
facet normal -0 0 1
  outer loop
    vertex 21.2074 19.8578 0
    vertex 23.2302 18.7653 0
    vertex 23.5967 21.164 0
  endloop
endfacet
facet normal -0 0 1
  outer loop
    vertex 12.797 12.6646 0
    vertex 14.88 11.4425 0
    vertex 14.9048 13.8751 0
  endloop
endfacet
facet normal -0 0 1
  outer loop
    vertex 17.0194 10.2497 0
    vertex 19.1342 9.05014 0
    vertex 19.119 11.4758 0
  endloop
endfacet
facet normal 0 0 1
  outer loop
    vertex 21.2162 12.7007 0
    vertex 21.2309 10.2708 0
    vertex 23.3322 11.4907 0
  endloop
endfacet
facet normal 0 0 1
  outer loop
    vertex 14.8973 18.7221 0
    vertex 14.884 21.1372 0
    vertex 12.8075 20.1587 0
  endloop
endfacet
facet normal 0 0 1
  outer loop
    vertex 16.9932 17.5269 0
    vertex 16.971 19.9258 0
    vertex 14.8973 18.7221 0
  endloop
endfacet
facet normal -0 0 1
  outer loop
    vertex 19.2 25 0
    vertex 20.4895 23.1846 0
    vertex 21.6 25 0
  endloop
endfacet
facet normal 0 0 1
  outer loop
    vertex 21.6 0 0
    vertex 24 0 0
    vertex 22.7753 2.05915 0
  endloop
endfacet
facet normal -0 0 1
  outer loop
    vertex 12 25 0
    vertex 12.9716 22.8087 0
    vertex 14.4 25 0
  endloop
endfacet
facet normal 0 0 1
  outer loop
    vertex 14.4 0 0
    vertex 16.8 0 0
    vertex 15.641 2.0514 0
  endloop
endfacet
facet normal 0 0 1
  outer loop
    vertex 19.1342 9.05014 0
    vertex 19.1491 6.63038 0
    vertex 21.2573 7.84725 0
  endloop
endfacet
facet normal -0 0 1
  outer loop
    vertex 25.4502 10.283 0
    vertex 27.545 9.14178 0
    vertex 27.5574 11.5172 0
  endloop
endfacet
facet normal 0 -0 1
  outer loop
    vertex 16.8 0 0
    vertex 17.9969 1.96904 0
    vertex 15.641 2.0514 0
  endloop
endfacet
facet normal 0 0 1
  outer loop
    vertex 16.8 0 0
    vertex 19.2 0 0
    vertex 17.9969 1.96904 0
  endloop
endfacet
facet normal -0 0 1
  outer loop
    vertex 23.3322 11.4907 0
    vertex 25.4502 10.283 0
    vertex 25.4353 12.7235 0
  endloop
endfacet
facet normal -0 0 1
  outer loop
    vertex 19.1055 13.9038 0
    vertex 21.2162 12.7007 0
    vertex 21.1992 15.1305 0
  endloop
endfacet
facet normal 0 0 1
  outer loop
    vertex 4.31563 15.0335 0
    vertex 4.31731 12.5468 0
    vertex 6.46615 13.8265 0
  endloop
endfacet
facet normal 0 0 1
  outer loop
    vertex 25.4611 7.85168 0
    vertex 23.3504 9.0652 0
    vertex 23.3855 6.66968 0
  endloop
endfacet
facet normal -0 0 1
  outer loop
    vertex 14.88 11.4425 0
    vertex 17.0194 10.2497 0
    vertex 17.0047 12.6747 0
  endloop
endfacet
facet normal 0 -0 1
  outer loop
    vertex 21.6 0 0
    vertex 22.7753 2.05915 0
    vertex 20.4004 1.99097 0
  endloop
endfacet
facet normal 0 0 1
  outer loop
    vertex 19.2 0 0
    vertex 21.6 0 0
    vertex 20.4004 1.99097 0
  endloop
endfacet
facet normal 0 0 1
  outer loop
    vertex 8.60052 12.6231 0
    vertex 8.59092 10.2482 0
    vertex 10.6579 11.5218 0
  endloop
endfacet
facet normal -0 0 1
  outer loop
    vertex 17.0047 12.6747 0
    vertex 19.119 11.4758 0
    vertex 19.1055 13.9038 0
  endloop
endfacet
facet normal 0 0 1
  outer loop
    vertex 21.1817 17.5554 0
    vertex 23.2302 18.7653 0
    vertex 21.2074 19.8578 0
  endloop
endfacet
facet normal 0 -0 1
  outer loop
    vertex 19.2 0 0
    vertex 20.4004 1.99097 0
    vertex 17.9969 1.96904 0
  endloop
endfacet
facet normal -0 0 1
  outer loop
    vertex 23.3149 13.9289 0
    vertex 25.4353 12.7235 0
    vertex 25.3406 15.0487 0
  endloop
endfacet
facet normal 0 0 1
  outer loop
    vertex 14.88 11.4425 0
    vertex 17.0047 12.6747 0
    vertex 14.9048 13.8751 0
  endloop
endfacet
facet normal 0 0 1
  outer loop
    vertex 23.2302 18.7653 0
    vertex 25.5199 19.6297 0
    vertex 23.5967 21.164 0
  endloop
endfacet
facet normal 0 0 1
  outer loop
    vertex 16.9932 17.5269 0
    vertex 14.8953 16.3312 0
    vertex 17.0037 15.1043 0
  endloop
endfacet
facet normal -0 0 1
  outer loop
    vertex 21.2162 12.7007 0
    vertex 23.3322 11.4907 0
    vertex 23.3149 13.9289 0
  endloop
endfacet
facet normal 0 0 1
  outer loop
    vertex 24 0 0
    vertex 26.4 0 0
    vertex 25.016 2.06716 0
  endloop
endfacet
facet normal 0 -0 1
  outer loop
    vertex 24 0 0
    vertex 25.016 2.06716 0
    vertex 22.7753 2.05915 0
  endloop
endfacet
facet normal 0 0 1
  outer loop
    vertex 17.0047 12.6747 0
    vertex 17.0194 10.2497 0
    vertex 19.119 11.4758 0
  endloop
endfacet
facet normal 0 0 1
  outer loop
    vertex 19.119 11.4758 0
    vertex 19.1342 9.05014 0
    vertex 21.2309 10.2708 0
  endloop
endfacet
facet normal 0 -0 1
  outer loop
    vertex 19.119 11.4758 0
    vertex 21.2162 12.7007 0
    vertex 19.1055 13.9038 0
  endloop
endfacet
facet normal -0 0 1
  outer loop
    vertex 6.75387 21.2856 0
    vertex 8.28466 19.6905 0
    vertex 9.23793 21.4188 0
  endloop
endfacet
facet normal 0 0 1
  outer loop
    vertex 6.46615 13.8265 0
    vertex 6.47343 11.3581 0
    vertex 8.60052 12.6231 0
  endloop
endfacet
facet normal -0 0 1
  outer loop
    vertex 19.119 11.4758 0
    vertex 21.2309 10.2708 0
    vertex 21.2162 12.7007 0
  endloop
endfacet
facet normal -0 0 1
  outer loop
    vertex 24 25 0
    vertex 25.1632 23.1411 0
    vertex 26.4 25 0
  endloop
endfacet
facet normal 0 0 1
  outer loop
    vertex 23.3149 13.9289 0
    vertex 23.3322 11.4907 0
    vertex 25.4353 12.7235 0
  endloop
endfacet
facet normal 0 0 1
  outer loop
    vertex 14.8973 18.7221 0
    vertex 12.8075 20.1587 0
    vertex 12.7632 17.645 0
  endloop
endfacet
facet normal 0 0 1
  outer loop
    vertex 25.4353 12.7235 0
    vertex 25.4502 10.283 0
    vertex 27.5574 11.5172 0
  endloop
endfacet
facet normal 0 -0 1
  outer loop
    vertex 21.2162 12.7007 0
    vertex 23.3149 13.9289 0
    vertex 21.1992 15.1305 0
  endloop
endfacet
facet normal 0 -0 1
  outer loop
    vertex 23.5967 21.164 0
    vertex 25.1632 23.1411 0
    vertex 22.7361 23.202 0
  endloop
endfacet
facet normal 0 0 1
  outer loop
    vertex 6.46615 13.8265 0
    vertex 4.31731 12.5468 0
    vertex 6.47343 11.3581 0
  endloop
endfacet
facet normal -0 0 1
  outer loop
    vertex 19.1342 9.05014 0
    vertex 21.2573 7.84725 0
    vertex 21.2309 10.2708 0
  endloop
endfacet
facet normal 0 -0 1
  outer loop
    vertex 14.4 0 0
    vertex 15.641 2.0514 0
    vertex 13.0689 2.27316 0
  endloop
endfacet
facet normal -0 0 1
  outer loop
    vertex 7.2 25 0
    vertex 8.23039 23.2172 0
    vertex 9.6 25 0
  endloop
endfacet
facet normal 0 0 1
  outer loop
    vertex 26.4 0 0
    vertex 28.8 0 0
    vertex 27.5845 2.24369 0
  endloop
endfacet
facet normal 0 -0 1
  outer loop
    vertex 21.1992 15.1305 0
    vertex 23.2257 16.3363 0
    vertex 21.1817 17.5554 0
  endloop
endfacet
facet normal -0 0 1
  outer loop
    vertex 21.1817 17.5554 0
    vertex 23.2257 16.3363 0
    vertex 23.2302 18.7653 0
  endloop
endfacet
facet normal 0 0 1
  outer loop
    vertex 8.60052 12.6231 0
    vertex 6.47343 11.3581 0
    vertex 8.59092 10.2482 0
  endloop
endfacet
facet normal -0 0 1
  outer loop
    vertex 26.4 25 0
    vertex 27.7256 23.0973 0
    vertex 28.8 25 0
  endloop
endfacet
facet normal 0 0 1
  outer loop
    vertex 7.2 0 0
    vertex 9.6 0 0
    vertex 8.46235 2.20845 0
  endloop
endfacet
facet normal -0 0 1
  outer loop
    vertex 21.1992 15.1305 0
    vertex 23.3149 13.9289 0
    vertex 23.2257 16.3363 0
  endloop
endfacet
facet normal 0 0 1
  outer loop
    vertex 16.9932 17.5269 0
    vertex 14.8973 18.7221 0
    vertex 14.8953 16.3312 0
  endloop
endfacet
facet normal 0 -0 1
  outer loop
    vertex 25.4353 12.7235 0
    vertex 27.5055 13.8971 0
    vertex 25.3406 15.0487 0
  endloop
endfacet
facet normal 0 0 1
  outer loop
    vertex 27.5574 11.5172 0
    vertex 27.545 9.14178 0
    vertex 29.6842 10.3094 0
  endloop
endfacet
facet normal 0 -0 1
  outer loop
    vertex 26.4 0 0
    vertex 27.5845 2.24369 0
    vertex 25.016 2.06716 0
  endloop
endfacet
facet normal 0 0 1
  outer loop
    vertex 12 0 0
    vertex 14.4 0 0
    vertex 13.0689 2.27316 0
  endloop
endfacet
facet normal 0 0 1
  outer loop
    vertex 14.8973 18.7221 0
    vertex 12.7632 17.645 0
    vertex 14.8953 16.3312 0
  endloop
endfacet
facet normal 0 0 1
  outer loop
    vertex 8.46235 2.20845 0
    vertex 6.41877 3.96757 0
    vertex 5.94152 1.81781 0
  endloop
endfacet
facet normal -0 0 1
  outer loop
    vertex 27.5574 11.5172 0
    vertex 29.6842 10.3094 0
    vertex 29.6438 12.7054 0
  endloop
endfacet
facet normal 0 0 1
  outer loop
    vertex 16.8 25 0
    vertex 16.8881 22.2547 0
    vertex 18.5698 23.289 0
  endloop
endfacet
facet normal 0 -0 1
  outer loop
    vertex 29.6842 10.3094 0
    vertex 31.81 11.5475 0
    vertex 29.6438 12.7054 0
  endloop
endfacet
facet normal 0 0 1
  outer loop
    vertex 26.4 25 0
    vertex 25.1632 23.1411 0
    vertex 27.7256 23.0973 0
  endloop
endfacet
facet normal -0 0 1
  outer loop
    vertex 31.2 25 0
    vertex 32.342 23.1792 0
    vertex 33.6 25 0
  endloop
endfacet
facet normal 0 0 1
  outer loop
    vertex 2.4 0 0
    vertex 4.8 0 0
    vertex 3.65822 1.82245 0
  endloop
endfacet
facet normal 0 -0 1
  outer loop
    vertex 27.5574 11.5172 0
    vertex 29.6438 12.7054 0
    vertex 27.5055 13.8971 0
  endloop
endfacet
facet normal -0 0 1
  outer loop
    vertex 25.4353 12.7235 0
    vertex 27.5574 11.5172 0
    vertex 27.5055 13.8971 0
  endloop
endfacet
facet normal 0 0 1
  outer loop
    vertex 2.14833 6.27542 0
    vertex 2.33004 3.76403 0
    vertex 4.34755 5.15895 0
  endloop
endfacet
facet normal 0 0 1
  outer loop
    vertex 23.3855 6.66968 0
    vertex 21.342 5.5029 0
    vertex 23.6593 4.17666 0
  endloop
endfacet
facet normal -0 0 1
  outer loop
    vertex 27.7256 23.0973 0
    vertex 29.2511 21.1612 0
    vertex 30.0957 23.1917 0
  endloop
endfacet
facet normal 0 0 1
  outer loop
    vertex 33.8527 18.7281 0
    vertex 33.67 21.2371 0
    vertex 31.6515 19.8458 0
  endloop
endfacet
facet normal 0 0 1
  outer loop
    vertex 27.5845 2.24369 0
    vertex 29.5723 3.77978 0
    vertex 27.6197 4.67754 0
  endloop
endfacet
facet normal 0 0 1
  outer loop
    vertex 4.34755 5.15895 0
    vertex 2.33004 3.76403 0
    vertex 4.63927 3.34115 0
  endloop
endfacet
facet normal 0 -0 1
  outer loop
    vertex 31.6515 19.8458 0
    vertex 33.67 21.2371 0
    vertex 31.4122 21.6984 0
  endloop
endfacet
facet normal 0 0 1
  outer loop
    vertex 19.0714 18.7367 0
    vertex 21.2074 19.8578 0
    vertex 19.2896 21.2499 0
  endloop
endfacet
facet normal 0 -0 1
  outer loop
    vertex 16.971 19.9258 0
    vertex 19.2896 21.2499 0
    vertex 16.8881 22.2547 0
  endloop
endfacet
facet normal 0 0 1
  outer loop
    vertex 0 2.5 0
    vertex 2.33004 3.76403 0
    vertex 0 5 0
  endloop
endfacet
facet normal 0 -0 1
  outer loop
    vertex 36 20 0
    vertex 36 22.5 0
    vertex 33.67 21.2371 0
  endloop
endfacet
facet normal 0 -0 1
  outer loop
    vertex 25.3406 15.0487 0
    vertex 27.3996 15.8376 0
    vertex 25.3254 17.2792 0
  endloop
endfacet
facet normal 0 0 1
  outer loop
    vertex 29.5973 18.7072 0
    vertex 27.6085 19.8236 0
    vertex 27.413 17.9784 0
  endloop
endfacet
facet normal 0 -0 1
  outer loop
    vertex 3.65822 1.82245 0
    vertex 4.63927 3.34115 0
    vertex 2.33004 3.76403 0
  endloop
endfacet
facet normal 0 0 1
  outer loop
    vertex 32.342 23.1792 0
    vertex 31.4122 21.6984 0
    vertex 33.67 21.2371 0
  endloop
endfacet
facet normal -0 0 1
  outer loop
    vertex 8.23039 23.2172 0
    vertex 9.23793 21.4188 0
    vertex 10.6023 23.2858 0
  endloop
endfacet
facet normal 0 0 1
  outer loop
    vertex 31.7639 5.01949 0
    vertex 29.573 5.98001 0
    vertex 29.5723 3.77978 0
  endloop
endfacet
facet normal 0 0 1
  outer loop
    vertex 12.9716 22.8087 0
    vertex 10.6023 23.2858 0
    vertex 11.2429 21.4642 0
  endloop
endfacet
facet normal -0 0 1
  outer loop
    vertex 8.46235 2.20845 0
    vertex 10.8 1.52848 0
    vertex 10.8298 3.48448 0
  endloop
endfacet
facet normal 0 0 1
  outer loop
    vertex 36 10 0
    vertex 33.8429 11.0565 0
    vertex 33.827 8.67777 0
  endloop
endfacet
facet normal 0 0 1
  outer loop
    vertex 36 12.5 0
    vertex 33.5085 13.5592 0
    vertex 33.8429 11.0565 0
  endloop
endfacet
facet normal 0 0 1
  outer loop
    vertex 25.3406 15.0487 0
    vertex 25.3254 17.2792 0
    vertex 23.2257 16.3363 0
  endloop
endfacet
facet normal -0 0 1
  outer loop
    vertex 23.2302 18.7653 0
    vertex 25.3254 17.2792 0
    vertex 25.5199 19.6297 0
  endloop
endfacet
facet normal 0 -0 1
  outer loop
    vertex 19.0714 18.7367 0
    vertex 19.2896 21.2499 0
    vertex 16.971 19.9258 0
  endloop
endfacet
facet normal 0 0 1
  outer loop
    vertex 0 25 0
    vertex 0 22.5 0
    vertex 1.82092 23.1539 0
  endloop
endfacet
facet normal 0 -0 1
  outer loop
    vertex 36 0 0
    vertex 36 2.5 0
    vertex 34.1791 1.84608 0
  endloop
endfacet
facet normal -0 0 1
  outer loop
    vertex 0 25 0
    vertex 1.82092 23.1539 0
    vertex 2.4 25 0
  endloop
endfacet
facet normal 0 0 1
  outer loop
    vertex 36 0 0
    vertex 34.1791 1.84608 0
    vertex 33.6 0 0
  endloop
endfacet
facet normal 0 0 1
  outer loop
    vertex 19.1835 4.11901 0
    vertex 20.4004 1.99097 0
    vertex 21.6 3.55423 0
  endloop
endfacet
facet normal 0 0 1
  outer loop
    vertex 25.5126 5.5984 0
    vertex 23.3855 6.66968 0
    vertex 23.6593 4.17666 0
  endloop
endfacet
facet normal 0 -0 1
  outer loop
    vertex 21.2074 19.8578 0
    vertex 21.4607 21.708 0
    vertex 19.2896 21.2499 0
  endloop
endfacet
facet normal -0 0 1
  outer loop
    vertex 0 5 0
    vertex 2.33004 3.76403 0
    vertex 2.14833 6.27542 0
  endloop
endfacet
facet normal 0 0 1
  outer loop
    vertex 36 20 0
    vertex 33.67 21.2371 0
    vertex 33.8527 18.7281 0
  endloop
endfacet
facet normal 0 0 1
  outer loop
    vertex 10.4328 19.2916 0
    vertex 8.28466 19.6905 0
    vertex 8.49716 17.626 0
  endloop
endfacet
facet normal 0 0 1
  outer loop
    vertex 27.413 17.9784 0
    vertex 25.3254 17.2792 0
    vertex 27.3996 15.8376 0
  endloop
endfacet
facet normal 0 0 1
  outer loop
    vertex 33.8908 3.83867 0
    vertex 32.016 2.34104 0
    vertex 34.1791 1.84608 0
  endloop
endfacet
facet normal -0 0 1
  outer loop
    vertex 6.40479 18.7611 0
    vertex 8.49716 17.626 0
    vertex 8.28466 19.6905 0
  endloop
endfacet
facet normal 0 0 1
  outer loop
    vertex 21.6 25 0
    vertex 20.4895 23.1846 0
    vertex 22.7361 23.202 0
  endloop
endfacet
facet normal 0 -0 1
  outer loop
    vertex 2.10767 21.1653 0
    vertex 4.05315 22.6618 0
    vertex 1.82092 23.1539 0
  endloop
endfacet
facet normal 0 0 1
  outer loop
    vertex 8.91897 7.70846 0
    vertex 11.466 8.15537 0
    vertex 10.366 9.6861 0
  endloop
endfacet
facet normal 0 0 1
  outer loop
    vertex 24 25 0
    vertex 22.7361 23.202 0
    vertex 25.1632 23.1411 0
  endloop
endfacet
facet normal -0 0 1
  outer loop
    vertex 19.1835 4.11901 0
    vertex 21.6 3.55423 0
    vertex 21.342 5.5029 0
  endloop
endfacet
facet normal 0 -0 1
  outer loop
    vertex 7.2 0 0
    vertex 8.46235 2.20845 0
    vertex 5.94152 1.81781 0
  endloop
endfacet
facet normal 0 0 1
  outer loop
    vertex 20.4895 23.1846 0
    vertex 19.2896 21.2499 0
    vertex 21.4607 21.708 0
  endloop
endfacet
facet normal 0 0 1
  outer loop
    vertex 28.8 25 0
    vertex 27.7256 23.0973 0
    vertex 30.0957 23.1917 0
  endloop
endfacet
facet normal 0 0 1
  outer loop
    vertex 12.6334 10.1836 0
    vertex 10.366 9.6861 0
    vertex 11.466 8.15537 0
  endloop
endfacet
facet normal 0 -0 1
  outer loop
    vertex 4.8 0 0
    vertex 5.94152 1.81781 0
    vertex 3.65822 1.82245 0
  endloop
endfacet
facet normal -0 0 1
  outer loop
    vertex 10.8667 5.90104 0
    vertex 12.8759 4.63914 0
    vertex 12.6906 6.7508 0
  endloop
endfacet
facet normal 0 0 1
  outer loop
    vertex 31.2 25 0
    vertex 30.0957 23.1917 0
    vertex 32.342 23.1792 0
  endloop
endfacet
facet normal -0 0 1
  outer loop
    vertex 27.5845 2.24369 0
    vertex 29.8393 1.70424 0
    vertex 29.5723 3.77978 0
  endloop
endfacet
facet normal 0 0 1
  outer loop
    vertex 4.8 25 0
    vertex 4.05315 22.6618 0
    vertex 6.20065 23.4082 0
  endloop
endfacet
facet normal 0 -0 1
  outer loop
    vertex 31.2 0 0
    vertex 32.016 2.34104 0
    vertex 29.8393 1.70424 0
  endloop
endfacet
facet normal 0 0 1
  outer loop
    vertex 17.0334 5.51039 0
    vertex 14.8337 6.619 0
    vertex 15.0449 4.22899 0
  endloop
endfacet
facet normal 0 0 1
  outer loop
    vertex 8.23039 23.2172 0
    vertex 6.20065 23.4082 0
    vertex 6.75387 21.2856 0
  endloop
endfacet
facet normal 0 0 1
  outer loop
    vertex 27.545 9.14178 0
    vertex 27.5602 6.87153 0
    vertex 29.5025 8.25434 0
  endloop
endfacet
facet normal 0 0 1
  outer loop
    vertex 29.5973 18.7072 0
    vertex 29.2511 21.1612 0
    vertex 27.6085 19.8236 0
  endloop
endfacet
facet normal -0 0 1
  outer loop
    vertex 14.4 25 0
    vertex 15.1485 23.2125 0
    vertex 16.8 25 0
  endloop
endfacet
facet normal 0 -0 1
  outer loop
    vertex 14.8337 6.619 0
    vertex 14.9419 9.02371 0
    vertex 13.286 8.34088 0
  endloop
endfacet
facet normal 0 0 1
  outer loop
    vertex 11.2429 21.4642 0
    vertex 10.6023 23.2858 0
    vertex 9.23793 21.4188 0
  endloop
endfacet
facet normal 0 0 1
  outer loop
    vertex 10.6579 11.5218 0
    vertex 10.366 9.6861 0
    vertex 12.6334 10.1836 0
  endloop
endfacet
facet normal 0 0 1
  outer loop
    vertex 31.7639 5.01949 0
    vertex 31.6977 7.35579 0
    vertex 29.573 5.98001 0
  endloop
endfacet
facet normal 0 -0 1
  outer loop
    vertex 9.6 0 0
    vertex 10.8 1.52848 0
    vertex 8.46235 2.20845 0
  endloop
endfacet
facet normal 0 0 1
  outer loop
    vertex 19.1835 4.11901 0
    vertex 16.8 3.5393 0
    vertex 17.9969 1.96904 0
  endloop
endfacet
facet normal 0 0 1
  outer loop
    vertex 12 25 0
    vertex 10.6023 23.2858 0
    vertex 12.9716 22.8087 0
  endloop
endfacet
facet normal 0 -0 1
  outer loop
    vertex 12 0 0
    vertex 13.0689 2.27316 0
    vertex 10.8 1.52848 0
  endloop
endfacet
facet normal -0 0 1
  outer loop
    vertex 16.8 25 0
    vertex 18.5698 23.289 0
    vertex 19.2 25 0
  endloop
endfacet
facet normal 0 0 1
  outer loop
    vertex 23.2302 18.7653 0
    vertex 23.2257 16.3363 0
    vertex 25.3254 17.2792 0
  endloop
endfacet
facet normal 0 0 1
  outer loop
    vertex 9.6 25 0
    vertex 8.23039 23.2172 0
    vertex 10.6023 23.2858 0
  endloop
endfacet
facet normal 0 0 1
  outer loop
    vertex 0 0 0
    vertex 1.72139 1.72013 0
    vertex 0 2.5 0
  endloop
endfacet
facet normal 0 0 1
  outer loop
    vertex 36 25 0
    vertex 34.2786 23.2801 0
    vertex 36 22.5 0
  endloop
endfacet
facet normal 0 0 1
  outer loop
    vertex 6.40479 18.7611 0
    vertex 8.28466 19.6905 0
    vertex 6.75387 21.2856 0
  endloop
endfacet
facet normal 0 0 1
  outer loop
    vertex 17.0334 5.51039 0
    vertex 16.8 3.5393 0
    vertex 19.1835 4.11901 0
  endloop
endfacet
facet normal 0 -0 1
  outer loop
    vertex 36 10 0
    vertex 36 12.5 0
    vertex 33.8429 11.0565 0
  endloop
endfacet
facet normal 0 0 1
  outer loop
    vertex 0 0 0
    vertex 2.4 0 0
    vertex 1.72139 1.72013 0
  endloop
endfacet
facet normal 0 0 1
  outer loop
    vertex 36 25 0
    vertex 33.6 25 0
    vertex 34.2786 23.2801 0
  endloop
endfacet
facet normal 0 0 1
  outer loop
    vertex 27.5602 6.87153 0
    vertex 25.5126 5.5984 0
    vertex 27.6197 4.67754 0
  endloop
endfacet
facet normal 0 0 1
  outer loop
    vertex 33.827 8.67777 0
    vertex 31.7255 9.53425 0
    vertex 31.6977 7.35579 0
  endloop
endfacet
facet normal 0 0 1
  outer loop
    vertex 29.4294 16.4662 0
    vertex 29.306 14.5193 0
    vertex 31.4513 15.2382 0
  endloop
endfacet
facet normal 0 0 1
  outer loop
    vertex 29.4294 16.4662 0
    vertex 27.413 17.9784 0
    vertex 27.3996 15.8376 0
  endloop
endfacet
facet normal 0 0 1
  outer loop
    vertex 11.2429 21.4642 0
    vertex 9.23793 21.4188 0
    vertex 10.4328 19.2916 0
  endloop
endfacet
facet normal -0 0 1
  outer loop
    vertex 27.5602 6.87153 0
    vertex 29.573 5.98001 0
    vertex 29.5025 8.25434 0
  endloop
endfacet
facet normal 0 0 1
  outer loop
    vertex 33.5085 13.5592 0
    vertex 31.4513 15.2382 0
    vertex 31.2865 13.3531 0
  endloop
endfacet
facet normal -0 0 1
  outer loop
    vertex 4.8 25 0
    vertex 6.20065 23.4082 0
    vertex 7.2 25 0
  endloop
endfacet
facet normal 0 -0 1
  outer loop
    vertex 31.6977 7.35579 0
    vertex 31.7255 9.53425 0
    vertex 29.5025 8.25434 0
  endloop
endfacet
facet normal 0 0 1
  outer loop
    vertex 10.8667 5.90104 0
    vertex 12.6906 6.7508 0
    vertex 11.466 8.15537 0
  endloop
endfacet
facet normal 0 0 1
  outer loop
    vertex 31.4513 15.2382 0
    vertex 29.306 14.5193 0
    vertex 31.2865 13.3531 0
  endloop
endfacet
facet normal 0 0 1
  outer loop
    vertex 28.8 0 0
    vertex 31.2 0 0
    vertex 29.8393 1.70424 0
  endloop
endfacet
facet normal 0 0 1
  outer loop
    vertex 29.4294 16.4662 0
    vertex 27.3996 15.8376 0
    vertex 29.306 14.5193 0
  endloop
endfacet
facet normal 0 0 1
  outer loop
    vertex 14.8337 6.619 0
    vertex 13.286 8.34088 0
    vertex 12.6906 6.7508 0
  endloop
endfacet
facet normal 0 0 1
  outer loop
    vertex 25.5126 5.5984 0
    vertex 23.6593 4.17666 0
    vertex 25.8571 3.76185 0
  endloop
endfacet
facet normal 0 -0 1
  outer loop
    vertex 28.8 0 0
    vertex 29.8393 1.70424 0
    vertex 27.5845 2.24369 0
  endloop
endfacet
facet normal 0 0 1
  outer loop
    vertex 4.8 0 0
    vertex 7.2 0 0
    vertex 5.94152 1.81781 0
  endloop
endfacet
facet normal 0 0 1
  outer loop
    vertex 7.2 25 0
    vertex 6.20065 23.4082 0
    vertex 8.23039 23.2172 0
  endloop
endfacet
facet normal -0 0 1
  outer loop
    vertex 28.8 25 0
    vertex 30.0957 23.1917 0
    vertex 31.2 25 0
  endloop
endfacet
facet normal -0 0 1
  outer loop
    vertex 21.6 25 0
    vertex 22.7361 23.202 0
    vertex 24 25 0
  endloop
endfacet
facet normal 0 0 1
  outer loop
    vertex 27.5845 2.24369 0
    vertex 25.8571 3.76185 0
    vertex 25.016 2.06716 0
  endloop
endfacet
facet normal -0 0 1
  outer loop
    vertex 12.9716 22.8087 0
    vertex 14.884 21.1372 0
    vertex 15.1485 23.2125 0
  endloop
endfacet
facet normal -0 0 1
  outer loop
    vertex 16.8881 22.2547 0
    vertex 19.2896 21.2499 0
    vertex 18.5698 23.289 0
  endloop
endfacet
facet normal 0 0 1
  outer loop
    vertex 6.75387 21.2856 0
    vertex 6.20065 23.4082 0
    vertex 4.05315 22.6618 0
  endloop
endfacet
facet normal 0 -0 1
  outer loop
    vertex 27.5845 2.24369 0
    vertex 27.6197 4.67754 0
    vertex 25.8571 3.76185 0
  endloop
endfacet
facet normal 0 0 1
  outer loop
    vertex 31.6977 7.35579 0
    vertex 29.5025 8.25434 0
    vertex 29.573 5.98001 0
  endloop
endfacet
facet normal 0 0 1
  outer loop
    vertex 32.016 2.34104 0
    vertex 29.5723 3.77978 0
    vertex 29.8393 1.70424 0
  endloop
endfacet
facet normal 0 0 1
  outer loop
    vertex 14.884 21.1372 0
    vertex 16.8881 22.2547 0
    vertex 15.1485 23.2125 0
  endloop
endfacet
facet normal 0 0 1
  outer loop
    vertex 21.342 5.5029 0
    vertex 21.6 3.55423 0
    vertex 23.6593 4.17666 0
  endloop
endfacet
facet normal -0 0 1
  outer loop
    vertex 0 2.5 0
    vertex 1.72139 1.72013 0
    vertex 2.33004 3.76403 0
  endloop
endfacet
facet normal 0 0 1
  outer loop
    vertex 36 22.5 0
    vertex 34.2786 23.2801 0
    vertex 33.67 21.2371 0
  endloop
endfacet
facet normal 0 0 1
  outer loop
    vertex 10.4328 19.2916 0
    vertex 9.23793 21.4188 0
    vertex 8.28466 19.6905 0
  endloop
endfacet
facet normal -0 0 1
  outer loop
    vertex 27.545 9.14178 0
    vertex 29.5025 8.25434 0
    vertex 29.6842 10.3094 0
  endloop
endfacet
facet normal 0 0 1
  outer loop
    vertex 29.6842 10.3094 0
    vertex 29.5025 8.25434 0
    vertex 31.7255 9.53425 0
  endloop
endfacet
facet normal 0 0 1
  outer loop
    vertex 20.4895 23.1846 0
    vertex 18.5698 23.289 0
    vertex 19.2896 21.2499 0
  endloop
endfacet
facet normal 0 0 1
  outer loop
    vertex 14.4 25 0
    vertex 12.9716 22.8087 0
    vertex 15.1485 23.2125 0
  endloop
endfacet
facet normal 0 0 1
  outer loop
    vertex 12.6334 10.1836 0
    vertex 11.466 8.15537 0
    vertex 13.286 8.34088 0
  endloop
endfacet
facet normal -0 0 1
  outer loop
    vertex 29.6842 10.3094 0
    vertex 31.7255 9.53425 0
    vertex 31.81 11.5475 0
  endloop
endfacet
facet normal 0 0 1
  outer loop
    vertex 9.6 0 0
    vertex 12 0 0
    vertex 10.8 1.52848 0
  endloop
endfacet
facet normal -0 0 1
  outer loop
    vertex 0 22.5 0
    vertex 2.10767 21.1653 0
    vertex 1.82092 23.1539 0
  endloop
endfacet
facet normal 0 0 1
  outer loop
    vertex 36 2.5 0
    vertex 33.8908 3.83867 0
    vertex 34.1791 1.84608 0
  endloop
endfacet
facet normal -0 0 1
  outer loop
    vertex 20.4895 23.1846 0
    vertex 21.4607 21.708 0
    vertex 22.7361 23.202 0
  endloop
endfacet
facet normal 0 0 1
  outer loop
    vertex 22.7753 2.05915 0
    vertex 21.6 3.55423 0
    vertex 20.4004 1.99097 0
  endloop
endfacet
facet normal -0 0 1
  outer loop
    vertex 32.342 23.1792 0
    vertex 33.67 21.2371 0
    vertex 34.2786 23.2801 0
  endloop
endfacet
facet normal 0 0 1
  outer loop
    vertex 3.65822 1.82245 0
    vertex 2.33004 3.76403 0
    vertex 1.72139 1.72013 0
  endloop
endfacet
facet normal -0 0 1
  outer loop
    vertex 15.641 2.0514 0
    vertex 17.9969 1.96904 0
    vertex 16.8 3.5393 0
  endloop
endfacet
facet normal -0 0 1
  outer loop
    vertex 9.6 25 0
    vertex 10.6023 23.2858 0
    vertex 12 25 0
  endloop
endfacet
facet normal 0 0 1
  outer loop
    vertex 32.342 23.1792 0
    vertex 30.0957 23.1917 0
    vertex 31.4122 21.6984 0
  endloop
endfacet
facet normal -0 0 1
  outer loop
    vertex 3.65822 1.82245 0
    vertex 5.94152 1.81781 0
    vertex 4.63927 3.34115 0
  endloop
endfacet
facet normal 0 0 1
  outer loop
    vertex 19.2 25 0
    vertex 18.5698 23.289 0
    vertex 20.4895 23.1846 0
  endloop
endfacet
facet normal 0 0 1
  outer loop
    vertex 33.6 25 0
    vertex 32.342 23.1792 0
    vertex 34.2786 23.2801 0
  endloop
endfacet
facet normal 0 -0 1
  outer loop
    vertex 2.4 0 0
    vertex 3.65822 1.82245 0
    vertex 1.72139 1.72013 0
  endloop
endfacet
facet normal 0 -0 1
  outer loop
    vertex 22.7753 2.05915 0
    vertex 23.6593 4.17666 0
    vertex 21.6 3.55423 0
  endloop
endfacet
facet normal 0 0 1
  outer loop
    vertex 27.7256 23.0973 0
    vertex 25.1632 23.1411 0
    vertex 26.4214 21.4746 0
  endloop
endfacet
facet normal 0 0 1
  outer loop
    vertex 31.6515 19.8458 0
    vertex 31.4122 21.6984 0
    vertex 29.2511 21.1612 0
  endloop
endfacet
facet normal 0 0 1
  outer loop
    vertex 12.6334 10.1836 0
    vertex 13.286 8.34088 0
    vertex 14.9419 9.02371 0
  endloop
endfacet
facet normal 0 0 1
  outer loop
    vertex 4.34755 5.15895 0
    vertex 4.63927 3.34115 0
    vertex 6.41877 3.96757 0
  endloop
endfacet
facet normal 0 0 1
  outer loop
    vertex 21.2074 19.8578 0
    vertex 23.5967 21.164 0
    vertex 21.4607 21.708 0
  endloop
endfacet
facet normal -0 0 1
  outer loop
    vertex 25.3406 15.0487 0
    vertex 27.5055 13.8971 0
    vertex 27.3996 15.8376 0
  endloop
endfacet
facet normal 0 0 1
  outer loop
    vertex 10.6579 11.5218 0
    vertex 8.59092 10.2482 0
    vertex 10.366 9.6861 0
  endloop
endfacet
facet normal 0 -0 1
  outer loop
    vertex 29.6438 12.7054 0
    vertex 31.2865 13.3531 0
    vertex 29.306 14.5193 0
  endloop
endfacet
facet normal 0 -0 1
  outer loop
    vertex 15.641 2.0514 0
    vertex 16.8 3.5393 0
    vertex 15.0449 4.22899 0
  endloop
endfacet
facet normal 0 0 1
  outer loop
    vertex 29.6438 12.7054 0
    vertex 29.306 14.5193 0
    vertex 27.5055 13.8971 0
  endloop
endfacet
facet normal -0 0 1
  outer loop
    vertex 29.6438 12.7054 0
    vertex 31.81 11.5475 0
    vertex 31.2865 13.3531 0
  endloop
endfacet
facet normal 0 -0 1
  outer loop
    vertex 27.5055 13.8971 0
    vertex 29.306 14.5193 0
    vertex 27.3996 15.8376 0
  endloop
endfacet
facet normal 0 0 1
  outer loop
    vertex 25.5199 19.6297 0
    vertex 27.6085 19.8236 0
    vertex 26.4214 21.4746 0
  endloop
endfacet
facet normal 0 0 1
  outer loop
    vertex 17.0334 5.51039 0
    vertex 15.0449 4.22899 0
    vertex 16.8 3.5393 0
  endloop
endfacet
facet normal -0 0 1
  outer loop
    vertex 11.466 8.15537 0
    vertex 12.6906 6.7508 0
    vertex 13.286 8.34088 0
  endloop
endfacet
facet normal 0 0 1
  outer loop
    vertex 23.5967 21.164 0
    vertex 22.7361 23.202 0
    vertex 21.4607 21.708 0
  endloop
endfacet
facet normal 0 0 1
  outer loop
    vertex 6.41877 3.96757 0
    vertex 4.63927 3.34115 0
    vertex 5.94152 1.81781 0
  endloop
endfacet
facet normal 0 0 1
  outer loop
    vertex 29.2511 21.1612 0
    vertex 31.4122 21.6984 0
    vertex 30.0957 23.1917 0
  endloop
endfacet
facet normal 0 0 1
  outer loop
    vertex 25.5126 5.5984 0
    vertex 25.8571 3.76185 0
    vertex 27.6197 4.67754 0
  endloop
endfacet
endsolid Created by Gmsh
