solid Created by Gmsh
facet normal -0 0 1
  outer loop
    vertex 39.8034 16.6712 0
    vertex 40.3259 14.1857 0
    vertex 42.6245 16.8667 0
  endloop
endfacet
facet normal -0 0 1
  outer loop
    vertex 40.3259 14.1857 0
    vertex 43.2961 14.0668 0
    vertex 42.6245 16.8667 0
  endloop
endfacet
facet normal 0 0 1
  outer loop
    vertex 37.7755 22.5274 0
    vertex 35.4457 20.2123 0
    vertex 38.478 20.3035 0
  endloop
endfacet
facet normal 0 -0 1
  outer loop
    vertex 37.76 18.1744 0
    vertex 38.478 20.3035 0
    vertex 35.4457 20.2123 0
  endloop
endfacet
facet normal 0 0 1
  outer loop
    vertex 7.47054 22.2614 0
    vertex 4.5476 22.4098 0
    vertex 5.65167 19.1528 0
  endloop
endfacet
facet normal 0 0 1
  outer loop
    vertex 7.47054 22.2614 0
    vertex 5.65167 19.1528 0
    vertex 8.42801 19.754 0
  endloop
endfacet
facet normal 0 0 1
  outer loop
    vertex 37.7755 22.5274 0
    vertex 35.1517 22.9328 0
    vertex 35.4457 20.2123 0
  endloop
endfacet
facet normal 0 0 1
  outer loop
    vertex 24.5333 25 0
    vertex 23.0214 22.4474 0
    vertex 26.5646 22.0101 0
  endloop
endfacet
facet normal 0 0 1
  outer loop
    vertex 3.06667 0 0
    vertex 6.13333 0 0
    vertex 5.0185 2.92652 0
  endloop
endfacet
facet normal 0 0 1
  outer loop
    vertex 39.8667 0 0
    vertex 42.9333 0 0
    vertex 41.0158 2.91716 0
  endloop
endfacet
facet normal -0 0 1
  outer loop
    vertex 13.7356 4.45444 0
    vertex 16.5834 2.84452 0
    vertex 16.2192 5.90987 0
  endloop
endfacet
facet normal 0 0 1
  outer loop
    vertex 32.1493 22.2249 0
    vertex 29.4009 20.3796 0
    vertex 32.3019 18.7668 0
  endloop
endfacet
facet normal 0 0 1
  outer loop
    vertex 32.1493 22.2249 0
    vertex 32.3019 18.7668 0
    vertex 35.4457 20.2123 0
  endloop
endfacet
facet normal 0 -0 1
  outer loop
    vertex 10.7775 18.6438 0
    vertex 13.2542 19.7691 0
    vertex 10.7402 21.9115 0
  endloop
endfacet
facet normal 0 -0 1
  outer loop
    vertex 3.06667 0 0
    vertex 5.0185 2.92652 0
    vertex 2.2821 2.29729 0
  endloop
endfacet
facet normal 0 -0 1
  outer loop
    vertex 42.9333 0 0
    vertex 43.7179 2.29729 0
    vertex 41.0158 2.91716 0
  endloop
endfacet
facet normal 0 0 1
  outer loop
    vertex 13.7356 4.45444 0
    vertex 13.8 1.97675 0
    vertex 16.5834 2.84452 0
  endloop
endfacet
facet normal 0 0 1
  outer loop
    vertex 10.7724 2.75947 0
    vertex 13.7356 4.45444 0
    vertex 10.8034 6.15859 0
  endloop
endfacet
facet normal -0 0 1
  outer loop
    vertex 24.5333 25 0
    vertex 26.5646 22.0101 0
    vertex 27.6 25 0
  endloop
endfacet
facet normal 0 -0 1
  outer loop
    vertex 10.7724 2.75947 0
    vertex 10.8034 6.15859 0
    vertex 8.09456 4.72848 0
  endloop
endfacet
facet normal 0 0 1
  outer loop
    vertex 32.0981 6.37215 0
    vertex 29.607 5.19876 0
    vertex 32.176 3.03073 0
  endloop
endfacet
facet normal 0 0 1
  outer loop
    vertex 10.7775 18.6438 0
    vertex 10.7402 21.9115 0
    vertex 8.42801 19.754 0
  endloop
endfacet
facet normal 0 0 1
  outer loop
    vertex 23.0214 22.4474 0
    vertex 24.0499 19.8756 0
    vertex 26.5646 22.0101 0
  endloop
endfacet
facet normal 0 0 1
  outer loop
    vertex 18.7662 7.85807 0
    vertex 16.1034 9.39329 0
    vertex 16.2192 5.90987 0
  endloop
endfacet
facet normal 0 0 1
  outer loop
    vertex 29.4116 17.069 0
    vertex 29.4009 20.3796 0
    vertex 26.7873 18.8758 0
  endloop
endfacet
facet normal 0 0 1
  outer loop
    vertex 32.0981 6.37215 0
    vertex 32.176 3.03073 0
    vertex 34.8844 5.25092 0
  endloop
endfacet
facet normal -0 0 1
  outer loop
    vertex 2.57799 20.2832 0
    vertex 5.65167 19.1528 0
    vertex 4.5476 22.4098 0
  endloop
endfacet
facet normal 0 0 1
  outer loop
    vertex 43.3369 20.2833 0
    vertex 40.9817 22.1328 0
    vertex 40.5996 18.75 0
  endloop
endfacet
facet normal 0 -0 1
  outer loop
    vertex 29.4116 17.069 0
    vertex 32.3019 18.7668 0
    vertex 29.4009 20.3796 0
  endloop
endfacet
facet normal 0 0 1
  outer loop
    vertex 13.4566 10.8912 0
    vertex 10.7909 9.3171 0
    vertex 13.6093 7.55847 0
  endloop
endfacet
facet normal -0 0 1
  outer loop
    vertex 13.6093 7.55847 0
    vertex 16.2192 5.90987 0
    vertex 16.1034 9.39329 0
  endloop
endfacet
facet normal 0 -0 1
  outer loop
    vertex 26.7533 15.5677 0
    vertex 26.7873 18.8758 0
    vertex 24.0895 17.0687 0
  endloop
endfacet
facet normal 0 -0 1
  outer loop
    vertex 40.5996 18.75 0
    vertex 40.9817 22.1328 0
    vertex 38.478 20.3035 0
  endloop
endfacet
facet normal 0 0 1
  outer loop
    vertex 26.7533 15.5677 0
    vertex 29.4116 17.069 0
    vertex 26.7873 18.8758 0
  endloop
endfacet
facet normal 0 -0 1
  outer loop
    vertex 35.5537 2.48518 0
    vertex 37.9323 4.73711 0
    vertex 34.8844 5.25092 0
  endloop
endfacet
facet normal 0 -0 1
  outer loop
    vertex 10.8034 6.15859 0
    vertex 13.6093 7.55847 0
    vertex 10.7909 9.3171 0
  endloop
endfacet
facet normal 0 0 1
  outer loop
    vertex 28.9883 2.49087 0
    vertex 32.176 3.03073 0
    vertex 29.607 5.19876 0
  endloop
endfacet
facet normal 0 0 1
  outer loop
    vertex 13.9365 22.5031 0
    vertex 10.7402 21.9115 0
    vertex 13.2542 19.7691 0
  endloop
endfacet
facet normal 0 0 1
  outer loop
    vertex 13.4566 10.8912 0
    vertex 13.6093 7.55847 0
    vertex 16.1034 9.39329 0
  endloop
endfacet
facet normal 0 0 1
  outer loop
    vertex 42.6245 16.8667 0
    vertex 40.5996 18.75 0
    vertex 39.8034 16.6712 0
  endloop
endfacet
facet normal -0 0 1
  outer loop
    vertex 10.8034 6.15859 0
    vertex 13.7356 4.45444 0
    vertex 13.6093 7.55847 0
  endloop
endfacet
facet normal 0 0 1
  outer loop
    vertex 7.47054 22.2614 0
    vertex 8.42801 19.754 0
    vertex 10.7402 21.9115 0
  endloop
endfacet
facet normal 0 0 1
  outer loop
    vertex 29.4009 20.3796 0
    vertex 26.5646 22.0101 0
    vertex 26.7873 18.8758 0
  endloop
endfacet
facet normal 0 0 1
  outer loop
    vertex 8.13024 17.0683 0
    vertex 5.65167 19.1528 0
    vertex 5.44216 15.6409 0
  endloop
endfacet
facet normal -0 0 1
  outer loop
    vertex 2.70074 17.1777 0
    vertex 5.44216 15.6409 0
    vertex 5.65167 19.1528 0
  endloop
endfacet
facet normal -0 0 1
  outer loop
    vertex 24.4718 4.81527 0
    vertex 27.4131 4.28893 0
    vertex 26.7389 6.32192 0
  endloop
endfacet
facet normal 0 0 1
  outer loop
    vertex 24.4718 4.81527 0
    vertex 26.0403 2.36263 0
    vertex 27.4131 4.28893 0
  endloop
endfacet
facet normal 0 0 1
  outer loop
    vertex 2.70074 17.1777 0
    vertex 2.70344 14.0482 0
    vertex 5.44216 15.6409 0
  endloop
endfacet
facet normal 0 -0 1
  outer loop
    vertex 13.7356 4.45444 0
    vertex 16.2192 5.90987 0
    vertex 13.6093 7.55847 0
  endloop
endfacet
facet normal -0 0 1
  outer loop
    vertex 0 15.625 0
    vertex 2.70344 14.0482 0
    vertex 2.70074 17.1777 0
  endloop
endfacet
facet normal 0 0 1
  outer loop
    vertex 5.37537 6.27423 0
    vertex 5.0185 2.92652 0
    vertex 8.09456 4.72848 0
  endloop
endfacet
facet normal 0 0 1
  outer loop
    vertex 35.5537 2.48518 0
    vertex 34.8844 5.25092 0
    vertex 32.176 3.03073 0
  endloop
endfacet
facet normal 0 0 1
  outer loop
    vertex 26.7873 18.8758 0
    vertex 26.5646 22.0101 0
    vertex 24.0499 19.8756 0
  endloop
endfacet
facet normal 0 0 1
  outer loop
    vertex 5.39279 9.37502 0
    vertex 5.37537 6.27423 0
    vertex 8.08238 7.8263 0
  endloop
endfacet
facet normal 0 0 1
  outer loop
    vertex 2.64726 4.78207 0
    vertex 5.37537 6.27423 0
    vertex 2.6925 7.82573 0
  endloop
endfacet
facet normal -0 0 1
  outer loop
    vertex 2.6925 7.82573 0
    vertex 5.37537 6.27423 0
    vertex 5.39279 9.37502 0
  endloop
endfacet
facet normal 0 0 1
  outer loop
    vertex 43.3524 4.78156 0
    vertex 43.34 7.82126 0
    vertex 40.894 6.2269 0
  endloop
endfacet
facet normal -0 0 1
  outer loop
    vertex 0 6.25 0
    vertex 2.64726 4.78207 0
    vertex 2.6925 7.82573 0
  endloop
endfacet
facet normal 0 0 1
  outer loop
    vertex 8.08238 7.8263 0
    vertex 5.37537 6.27423 0
    vertex 8.09456 4.72848 0
  endloop
endfacet
facet normal 0 0 1
  outer loop
    vertex 46 6.25 0
    vertex 43.34 7.82126 0
    vertex 43.3524 4.78156 0
  endloop
endfacet
facet normal 0 0 1
  outer loop
    vertex 43.3524 4.78156 0
    vertex 40.894 6.2269 0
    vertex 41.0158 2.91716 0
  endloop
endfacet
facet normal 0 0 1
  outer loop
    vertex 43.34 7.82126 0
    vertex 40.7662 9.45555 0
    vertex 40.894 6.2269 0
  endloop
endfacet
facet normal -0 0 1
  outer loop
    vertex 29.4116 17.069 0
    vertex 32.1028 15.5589 0
    vertex 32.3019 18.7668 0
  endloop
endfacet
facet normal 0 0 1
  outer loop
    vertex 0 12.5 0
    vertex 2.70344 14.0482 0
    vertex 0 15.625 0
  endloop
endfacet
facet normal -0 0 1
  outer loop
    vertex 2.64726 4.78207 0
    vertex 5.0185 2.92652 0
    vertex 5.37537 6.27423 0
  endloop
endfacet
facet normal -0 0 1
  outer loop
    vertex 8.08238 7.8263 0
    vertex 10.8034 6.15859 0
    vertex 10.7909 9.3171 0
  endloop
endfacet
facet normal 0 -0 1
  outer loop
    vertex 2.70074 17.1777 0
    vertex 5.65167 19.1528 0
    vertex 2.57799 20.2832 0
  endloop
endfacet
facet normal 0 0 1
  outer loop
    vertex 40.894 6.2269 0
    vertex 37.9323 4.73711 0
    vertex 41.0158 2.91716 0
  endloop
endfacet
facet normal 0 -0 1
  outer loop
    vertex 42.6245 16.8667 0
    vertex 43.3369 20.2833 0
    vertex 40.5996 18.75 0
  endloop
endfacet
facet normal 0 0 1
  outer loop
    vertex 2.70343 10.9336 0
    vertex 2.6925 7.82573 0
    vertex 5.39279 9.37502 0
  endloop
endfacet
facet normal 0 0 1
  outer loop
    vertex 46 12.5 0
    vertex 43.2961 14.0668 0
    vertex 43.556 10.8944 0
  endloop
endfacet
facet normal 0 0 1
  outer loop
    vertex 8.08238 7.8263 0
    vertex 8.09456 4.72848 0
    vertex 10.8034 6.15859 0
  endloop
endfacet
facet normal 0 0 1
  outer loop
    vertex 43.556 10.8944 0
    vertex 40.7662 9.45555 0
    vertex 43.34 7.82126 0
  endloop
endfacet
facet normal 0 0 1
  outer loop
    vertex 5.39279 9.37502 0
    vertex 8.0821 10.9266 0
    vertex 5.40081 12.4804 0
  endloop
endfacet
facet normal -0 0 1
  outer loop
    vertex 2.70343 10.9336 0
    vertex 5.39279 9.37502 0
    vertex 5.40081 12.4804 0
  endloop
endfacet
facet normal -0 0 1
  outer loop
    vertex 0 9.375 0
    vertex 2.6925 7.82573 0
    vertex 2.70343 10.9336 0
  endloop
endfacet
facet normal 0 0 1
  outer loop
    vertex 10.7699 15.5591 0
    vertex 13.4444 17.0879 0
    vertex 10.7775 18.6438 0
  endloop
endfacet
facet normal 0 -0 1
  outer loop
    vertex 46 3.125 0
    vertex 46 6.25 0
    vertex 43.3524 4.78156 0
  endloop
endfacet
facet normal -0 0 1
  outer loop
    vertex 29.415 14.0014 0
    vertex 32.0774 12.4585 0
    vertex 32.1028 15.5589 0
  endloop
endfacet
facet normal 0 0 1
  outer loop
    vertex 0 3.125 0
    vertex 2.64726 4.78207 0
    vertex 0 6.25 0
  endloop
endfacet
facet normal -0 0 1
  outer loop
    vertex 0 18.75 0
    vertex 2.70074 17.1777 0
    vertex 2.57799 20.2832 0
  endloop
endfacet
facet normal 0 0 1
  outer loop
    vertex 46 18.75 0
    vertex 43.3369 20.2833 0
    vertex 42.6245 16.8667 0
  endloop
endfacet
facet normal 0 0 1
  outer loop
    vertex 8.0821 10.9266 0
    vertex 10.7621 12.4714 0
    vertex 8.08906 14.0211 0
  endloop
endfacet
facet normal -0 0 1
  outer loop
    vertex 5.40081 12.4804 0
    vertex 8.0821 10.9266 0
    vertex 8.08906 14.0211 0
  endloop
endfacet
facet normal 0 0 1
  outer loop
    vertex 46 9.375 0
    vertex 43.556 10.8944 0
    vertex 43.34 7.82126 0
  endloop
endfacet
facet normal -0 0 1
  outer loop
    vertex 32.1493 22.2249 0
    vertex 35.4457 20.2123 0
    vertex 35.1517 22.9328 0
  endloop
endfacet
facet normal -0 0 1
  outer loop
    vertex 8.08906 14.0211 0
    vertex 10.7621 12.4714 0
    vertex 10.7699 15.5591 0
  endloop
endfacet
facet normal -0 0 1
  outer loop
    vertex 5.39279 9.37502 0
    vertex 8.08238 7.8263 0
    vertex 8.0821 10.9266 0
  endloop
endfacet
facet normal 0 0 1
  outer loop
    vertex 8.0821 10.9266 0
    vertex 8.08238 7.8263 0
    vertex 10.7909 9.3171 0
  endloop
endfacet
facet normal 0 -0 1
  outer loop
    vertex 34.7356 17.0791 0
    vertex 35.4457 20.2123 0
    vertex 32.3019 18.7668 0
  endloop
endfacet
facet normal 0 0 1
  outer loop
    vertex 34.7356 17.0791 0
    vertex 37.76 18.1744 0
    vertex 35.4457 20.2123 0
  endloop
endfacet
facet normal 0 0 1
  outer loop
    vertex 37.9323 4.73711 0
    vertex 36.8391 7.0667 0
    vertex 34.8844 5.25092 0
  endloop
endfacet
facet normal 0 0 1
  outer loop
    vertex 46 15.625 0
    vertex 42.6245 16.8667 0
    vertex 43.2961 14.0668 0
  endloop
endfacet
facet normal 0 0 1
  outer loop
    vertex 0 9.375 0
    vertex 2.70343 10.9336 0
    vertex 0 12.5 0
  endloop
endfacet
facet normal 0 -0 1
  outer loop
    vertex 29.415 14.0014 0
    vertex 32.1028 15.5589 0
    vertex 29.4116 17.069 0
  endloop
endfacet
facet normal 0 0 1
  outer loop
    vertex 0 15.625 0
    vertex 2.70074 17.1777 0
    vertex 0 18.75 0
  endloop
endfacet
facet normal 0 -0 1
  outer loop
    vertex 46 15.625 0
    vertex 46 18.75 0
    vertex 42.6245 16.8667 0
  endloop
endfacet
facet normal 0 0 1
  outer loop
    vertex 10.7621 12.4714 0
    vertex 13.437 14.01 0
    vertex 10.7699 15.5591 0
  endloop
endfacet
facet normal 0 0 1
  outer loop
    vertex 34.7356 17.0791 0
    vertex 32.3019 18.7668 0
    vertex 32.1028 15.5589 0
  endloop
endfacet
facet normal 0 0 1
  outer loop
    vertex 10.7621 12.4714 0
    vertex 10.7909 9.3171 0
    vertex 13.4566 10.8912 0
  endloop
endfacet
facet normal 0 0 1
  outer loop
    vertex 0 6.25 0
    vertex 2.6925 7.82573 0
    vertex 0 9.375 0
  endloop
endfacet
facet normal 0 -0 1
  outer loop
    vertex 46 6.25 0
    vertex 46 9.375 0
    vertex 43.34 7.82126 0
  endloop
endfacet
facet normal 0 0 1
  outer loop
    vertex 0 18.75 0
    vertex 2.57799 20.2832 0
    vertex 0 21.875 0
  endloop
endfacet
facet normal 0 -0 1
  outer loop
    vertex 46 18.75 0
    vertex 46 21.875 0
    vertex 43.3369 20.2833 0
  endloop
endfacet
facet normal 0 -0 1
  outer loop
    vertex 10.7699 15.5591 0
    vertex 10.7775 18.6438 0
    vertex 8.13024 17.0683 0
  endloop
endfacet
facet normal -0 0 1
  outer loop
    vertex 13.437 14.01 0
    vertex 16.1036 12.467 0
    vertex 16.1061 15.5442 0
  endloop
endfacet
facet normal 0 -0 1
  outer loop
    vertex 46 9.375 0
    vertex 46 12.5 0
    vertex 43.556 10.8944 0
  endloop
endfacet
facet normal 0 0 1
  outer loop
    vertex 13.437 14.01 0
    vertex 13.4566 10.8912 0
    vertex 16.1036 12.467 0
  endloop
endfacet
facet normal 0 -0 1
  outer loop
    vertex 34.7434 14.0004 0
    vertex 37.3916 15.4568 0
    vertex 34.7356 17.0791 0
  endloop
endfacet
facet normal 0 0 1
  outer loop
    vertex 16.1036 12.467 0
    vertex 18.7675 14.0036 0
    vertex 16.1061 15.5442 0
  endloop
endfacet
facet normal 0 0 1
  outer loop
    vertex 29.4078 10.9204 0
    vertex 29.4384 7.90263 0
    vertex 32.0711 9.3771 0
  endloop
endfacet
facet normal 0 0 1
  outer loop
    vertex 16.1061 15.5442 0
    vertex 15.9071 18.4536 0
    vertex 13.4444 17.0879 0
  endloop
endfacet
facet normal 0 0 1
  outer loop
    vertex 24.0895 17.0687 0
    vertex 21.4056 18.4721 0
    vertex 21.4257 15.519 0
  endloop
endfacet
facet normal -0 0 1
  outer loop
    vertex 8.0821 10.9266 0
    vertex 10.7909 9.3171 0
    vertex 10.7621 12.4714 0
  endloop
endfacet
facet normal -0 0 1
  outer loop
    vertex 0 12.5 0
    vertex 2.70343 10.9336 0
    vertex 2.70344 14.0482 0
  endloop
endfacet
facet normal 0 -0 1
  outer loop
    vertex 46 12.5 0
    vertex 46 15.625 0
    vertex 43.2961 14.0668 0
  endloop
endfacet
facet normal 0 0 1
  outer loop
    vertex 29.4078 10.9204 0
    vertex 26.7578 9.39641 0
    vertex 29.4384 7.90263 0
  endloop
endfacet
facet normal -0 0 1
  outer loop
    vertex 18.7706 17.0763 0
    vertex 21.4257 15.519 0
    vertex 21.4056 18.4721 0
  endloop
endfacet
facet normal -0 0 1
  outer loop
    vertex 16.1061 15.5442 0
    vertex 18.7675 14.0036 0
    vertex 18.7706 17.0763 0
  endloop
endfacet
facet normal -0 0 1
  outer loop
    vertex 10.7621 12.4714 0
    vertex 13.4566 10.8912 0
    vertex 13.437 14.01 0
  endloop
endfacet
facet normal 0 -0 1
  outer loop
    vertex 15.9071 18.4536 0
    vertex 18.5269 20.1367 0
    vertex 15.8214 20.6441 0
  endloop
endfacet
facet normal 0 0 1
  outer loop
    vertex 18.7706 17.0763 0
    vertex 18.5269 20.1367 0
    vertex 15.9071 18.4536 0
  endloop
endfacet
facet normal 0 -0 1
  outer loop
    vertex 37.3916 15.4568 0
    vertex 37.76 18.1744 0
    vertex 34.7356 17.0791 0
  endloop
endfacet
facet normal 0 0 1
  outer loop
    vertex 32.0711 9.3771 0
    vertex 29.4384 7.90263 0
    vertex 32.0981 6.37215 0
  endloop
endfacet
facet normal -0 0 1
  outer loop
    vertex 16.1036 12.467 0
    vertex 18.7655 10.9298 0
    vertex 18.7675 14.0036 0
  endloop
endfacet
facet normal 0 0 1
  outer loop
    vertex 24.0873 13.9986 0
    vertex 26.7533 15.5677 0
    vertex 24.0895 17.0687 0
  endloop
endfacet
facet normal 0 0 1
  outer loop
    vertex 18.7675 14.0036 0
    vertex 18.7655 10.9298 0
    vertex 21.427 12.4647 0
  endloop
endfacet
facet normal 0 -0 1
  outer loop
    vertex 16.1061 15.5442 0
    vertex 18.7706 17.0763 0
    vertex 15.9071 18.4536 0
  endloop
endfacet
facet normal 0 0 1
  outer loop
    vertex 8.08906 14.0211 0
    vertex 10.7699 15.5591 0
    vertex 8.13024 17.0683 0
  endloop
endfacet
facet normal -0 0 1
  outer loop
    vertex 10.7699 15.5591 0
    vertex 13.437 14.01 0
    vertex 13.4444 17.0879 0
  endloop
endfacet
facet normal 0 0 1
  outer loop
    vertex 21.4257 9.39344 0
    vertex 21.4312 6.47633 0
    vertex 24.0834 7.85779 0
  endloop
endfacet
facet normal 0 0 1
  outer loop
    vertex 24.0834 7.85779 0
    vertex 21.4312 6.47633 0
    vertex 24.4718 4.81527 0
  endloop
endfacet
facet normal -0 0 1
  outer loop
    vertex 18.7655 10.9298 0
    vertex 21.4257 9.39344 0
    vertex 21.427 12.4647 0
  endloop
endfacet
facet normal 0 0 1
  outer loop
    vertex 13.437 14.01 0
    vertex 16.1061 15.5442 0
    vertex 13.4444 17.0879 0
  endloop
endfacet
facet normal 0 -0 1
  outer loop
    vertex 18.7706 17.0763 0
    vertex 21.4056 18.4721 0
    vertex 18.5269 20.1367 0
  endloop
endfacet
facet normal 0 -0 1
  outer loop
    vertex 24.0873 13.9986 0
    vertex 24.0895 17.0687 0
    vertex 21.4257 15.519 0
  endloop
endfacet
facet normal -0 0 1
  outer loop
    vertex 13.4566 10.8912 0
    vertex 16.1034 9.39329 0
    vertex 16.1036 12.467 0
  endloop
endfacet
facet normal 0 0 1
  outer loop
    vertex 21.4257 9.39344 0
    vertex 18.7662 7.85807 0
    vertex 21.4312 6.47633 0
  endloop
endfacet
facet normal 0 0 1
  outer loop
    vertex 18.7675 14.0036 0
    vertex 21.4257 15.519 0
    vertex 18.7706 17.0763 0
  endloop
endfacet
facet normal 0 0 1
  outer loop
    vertex 21.427 12.4647 0
    vertex 21.4257 9.39344 0
    vertex 24.0857 10.9279 0
  endloop
endfacet
facet normal -0 0 1
  outer loop
    vertex 21.4257 9.39344 0
    vertex 24.0834 7.85779 0
    vertex 24.0857 10.9279 0
  endloop
endfacet
facet normal -0 0 1
  outer loop
    vertex 21.427 12.4647 0
    vertex 24.0857 10.9279 0
    vertex 24.0873 13.9986 0
  endloop
endfacet
facet normal 0 0 1
  outer loop
    vertex 18.7655 10.9298 0
    vertex 18.7662 7.85807 0
    vertex 21.4257 9.39344 0
  endloop
endfacet
facet normal 0 0 1
  outer loop
    vertex 32.0774 12.4585 0
    vertex 34.7434 14.0004 0
    vertex 32.1028 15.5589 0
  endloop
endfacet
facet normal 0 0 1
  outer loop
    vertex 18.7655 10.9298 0
    vertex 16.1034 9.39329 0
    vertex 18.7662 7.85807 0
  endloop
endfacet
facet normal 0 -0 1
  outer loop
    vertex 21.427 12.4647 0
    vertex 24.0873 13.9986 0
    vertex 21.4257 15.519 0
  endloop
endfacet
facet normal 0 0 1
  outer loop
    vertex 29.4384 7.90263 0
    vertex 26.7578 9.39641 0
    vertex 26.7389 6.32192 0
  endloop
endfacet
facet normal -0 0 1
  outer loop
    vertex 21.4667 25 0
    vertex 23.0214 22.4474 0
    vertex 24.5333 25 0
  endloop
endfacet
facet normal -0 0 1
  outer loop
    vertex 12.2667 25 0
    vertex 13.9365 22.5031 0
    vertex 15.3333 25 0
  endloop
endfacet
facet normal 0 0 1
  outer loop
    vertex 27.6 0 0
    vertex 30.6667 0 0
    vertex 28.9883 2.49087 0
  endloop
endfacet
facet normal 0 0 1
  outer loop
    vertex 18.4 0 0
    vertex 21.4667 0 0
    vertex 19.9333 2.65581 0
  endloop
endfacet
facet normal -0 0 1
  outer loop
    vertex 30.6667 25 0
    vertex 32.1493 22.2249 0
    vertex 33.7333 25 0
  endloop
endfacet
facet normal 0 0 1
  outer loop
    vertex 16.1036 12.467 0
    vertex 16.1034 9.39329 0
    vertex 18.7655 10.9298 0
  endloop
endfacet
facet normal -0 0 1
  outer loop
    vertex 18.7675 14.0036 0
    vertex 21.427 12.4647 0
    vertex 21.4257 15.519 0
  endloop
endfacet
facet normal -0 0 1
  outer loop
    vertex 26.7533 15.5677 0
    vertex 29.415 14.0014 0
    vertex 29.4116 17.069 0
  endloop
endfacet
facet normal 0 -0 1
  outer loop
    vertex 18.4 0 0
    vertex 19.9333 2.65581 0
    vertex 16.5834 2.84452 0
  endloop
endfacet
facet normal 0 0 1
  outer loop
    vertex 15.3333 0 0
    vertex 18.4 0 0
    vertex 16.5834 2.84452 0
  endloop
endfacet
facet normal -0 0 1
  outer loop
    vertex 24.0873 13.9986 0
    vertex 26.7453 12.4616 0
    vertex 26.7533 15.5677 0
  endloop
endfacet
facet normal 0 -0 1
  outer loop
    vertex 8.08906 14.0211 0
    vertex 8.13024 17.0683 0
    vertex 5.44216 15.6409 0
  endloop
endfacet
facet normal 0 0 1
  outer loop
    vertex 24.0857 10.9279 0
    vertex 24.0834 7.85779 0
    vertex 26.7578 9.39641 0
  endloop
endfacet
facet normal 0 0 1
  outer loop
    vertex 2.70343 10.9336 0
    vertex 5.40081 12.4804 0
    vertex 2.70344 14.0482 0
  endloop
endfacet
facet normal -0 0 1
  outer loop
    vertex 29.4078 10.9204 0
    vertex 32.0711 9.3771 0
    vertex 32.0774 12.4585 0
  endloop
endfacet
facet normal 0 0 1
  outer loop
    vertex 30.6667 0 0
    vertex 33.7333 0 0
    vertex 32.176 3.03073 0
  endloop
endfacet
facet normal 0 -0 1
  outer loop
    vertex 30.6667 0 0
    vertex 32.176 3.03073 0
    vertex 28.9883 2.49087 0
  endloop
endfacet
facet normal 0 0 1
  outer loop
    vertex 5.40081 12.4804 0
    vertex 8.08906 14.0211 0
    vertex 5.44216 15.6409 0
  endloop
endfacet
facet normal 0 0 1
  outer loop
    vertex 24.0857 10.9279 0
    vertex 26.7453 12.4616 0
    vertex 24.0873 13.9986 0
  endloop
endfacet
facet normal 0 0 1
  outer loop
    vertex 24.0834 7.85779 0
    vertex 24.4718 4.81527 0
    vertex 26.7389 6.32192 0
  endloop
endfacet
facet normal -0 0 1
  outer loop
    vertex 26.7453 12.4616 0
    vertex 29.4078 10.9204 0
    vertex 29.415 14.0014 0
  endloop
endfacet
facet normal -0 0 1
  outer loop
    vertex 24.0834 7.85779 0
    vertex 26.7389 6.32192 0
    vertex 26.7578 9.39641 0
  endloop
endfacet
facet normal 0 0 1
  outer loop
    vertex 34.7434 14.0004 0
    vertex 34.7356 17.0791 0
    vertex 32.1028 15.5589 0
  endloop
endfacet
facet normal 0 0 1
  outer loop
    vertex 12.2667 25 0
    vertex 10.7402 21.9115 0
    vertex 13.9365 22.5031 0
  endloop
endfacet
facet normal -0 0 1
  outer loop
    vertex 9.2 25 0
    vertex 10.7402 21.9115 0
    vertex 12.2667 25 0
  endloop
endfacet
facet normal -0 0 1
  outer loop
    vertex 34.7434 14.0004 0
    vertex 37.3919 12.5665 0
    vertex 37.3916 15.4568 0
  endloop
endfacet
facet normal 0 0 1
  outer loop
    vertex 33.7333 0 0
    vertex 36.8 0 0
    vertex 35.5537 2.48518 0
  endloop
endfacet
facet normal -0 0 1
  outer loop
    vertex 32.0774 12.4585 0
    vertex 34.7434 10.9143 0
    vertex 34.7434 14.0004 0
  endloop
endfacet
facet normal 0 0 1
  outer loop
    vertex 26.7453 12.4616 0
    vertex 29.415 14.0014 0
    vertex 26.7533 15.5677 0
  endloop
endfacet
facet normal 0 0 1
  outer loop
    vertex 26.7453 12.4616 0
    vertex 26.7578 9.39641 0
    vertex 29.4078 10.9204 0
  endloop
endfacet
facet normal 0 0 1
  outer loop
    vertex 34.7434 10.9143 0
    vertex 34.7145 8.02519 0
    vertex 37.6074 9.49199 0
  endloop
endfacet
facet normal 0 -0 1
  outer loop
    vertex 5.40081 12.4804 0
    vertex 5.44216 15.6409 0
    vertex 2.70344 14.0482 0
  endloop
endfacet
facet normal -0 0 1
  outer loop
    vertex 24.0857 10.9279 0
    vertex 26.7578 9.39641 0
    vertex 26.7453 12.4616 0
  endloop
endfacet
facet normal 0 0 1
  outer loop
    vertex 32.0711 9.3771 0
    vertex 32.0981 6.37215 0
    vertex 34.7145 8.02519 0
  endloop
endfacet
facet normal 0 0 1
  outer loop
    vertex 29.415 14.0014 0
    vertex 29.4078 10.9204 0
    vertex 32.0774 12.4585 0
  endloop
endfacet
facet normal 0 0 1
  outer loop
    vertex 9.2 0 0
    vertex 12.2667 0 0
    vertex 10.7724 2.75947 0
  endloop
endfacet
facet normal -0 0 1
  outer loop
    vertex 34.7434 10.9143 0
    vertex 37.6074 9.49199 0
    vertex 37.3919 12.5665 0
  endloop
endfacet
facet normal 0 -0 1
  outer loop
    vertex 34.7434 10.9143 0
    vertex 37.3919 12.5665 0
    vertex 34.7434 14.0004 0
  endloop
endfacet
facet normal 0 0 1
  outer loop
    vertex 32.0774 12.4585 0
    vertex 32.0711 9.3771 0
    vertex 34.7434 10.9143 0
  endloop
endfacet
facet normal 0 -0 1
  outer loop
    vertex 33.7333 0 0
    vertex 35.5537 2.48518 0
    vertex 32.176 3.03073 0
  endloop
endfacet
facet normal -0 0 1
  outer loop
    vertex 32.0711 9.3771 0
    vertex 34.7145 8.02519 0
    vertex 34.7434 10.9143 0
  endloop
endfacet
facet normal -0 0 1
  outer loop
    vertex 6.13333 25 0
    vertex 7.47054 22.2614 0
    vertex 9.2 25 0
  endloop
endfacet
facet normal -0 0 1
  outer loop
    vertex 36.8 25 0
    vertex 37.7755 22.5274 0
    vertex 39.8667 25 0
  endloop
endfacet
facet normal 0 0 1
  outer loop
    vertex 16.2192 5.90987 0
    vertex 16.5834 2.84452 0
    vertex 18.9244 5.0839 0
  endloop
endfacet
facet normal 0 -0 1
  outer loop
    vertex 37.3919 12.5665 0
    vertex 40.3259 14.1857 0
    vertex 37.3916 15.4568 0
  endloop
endfacet
facet normal 0 0 1
  outer loop
    vertex 9.2 25 0
    vertex 7.47054 22.2614 0
    vertex 10.7402 21.9115 0
  endloop
endfacet
facet normal 0 0 1
  outer loop
    vertex 18.5269 20.1367 0
    vertex 16.9042 22.6153 0
    vertex 15.8214 20.6441 0
  endloop
endfacet
facet normal 0 0 1
  outer loop
    vertex 24.5333 0 0
    vertex 27.6 0 0
    vertex 26.0403 2.36263 0
  endloop
endfacet
facet normal -0 0 1
  outer loop
    vertex 15.3333 25 0
    vertex 16.9042 22.6153 0
    vertex 18.4 25 0
  endloop
endfacet
facet normal 0 -0 1
  outer loop
    vertex 27.6 0 0
    vertex 28.9883 2.49087 0
    vertex 26.0403 2.36263 0
  endloop
endfacet
facet normal -0 0 1
  outer loop
    vertex 39.8667 25 0
    vertex 40.9817 22.1328 0
    vertex 42.9333 25 0
  endloop
endfacet
facet normal -0 0 1
  outer loop
    vertex 3.06667 25 0
    vertex 4.5476 22.4098 0
    vertex 6.13333 25 0
  endloop
endfacet
facet normal 0 0 1
  outer loop
    vertex 15.3333 25 0
    vertex 13.9365 22.5031 0
    vertex 16.9042 22.6153 0
  endloop
endfacet
facet normal -0 0 1
  outer loop
    vertex 35.5537 2.48518 0
    vertex 38.2151 2.08876 0
    vertex 37.9323 4.73711 0
  endloop
endfacet
facet normal 0 0 1
  outer loop
    vertex 18.4 25 0
    vertex 16.9042 22.6153 0
    vertex 19.9333 22.6784 0
  endloop
endfacet
facet normal 0 0 1
  outer loop
    vertex 10.7724 2.75947 0
    vertex 8.09456 4.72848 0
    vertex 7.79156 2.16418 0
  endloop
endfacet
facet normal 0 0 1
  outer loop
    vertex 32.1493 22.2249 0
    vertex 29.2346 22.9542 0
    vertex 29.4009 20.3796 0
  endloop
endfacet
facet normal 0 -0 1
  outer loop
    vertex 24.5333 0 0
    vertex 26.0403 2.36263 0
    vertex 23 2.27124 0
  endloop
endfacet
facet normal 0 0 1
  outer loop
    vertex 19.9333 2.65581 0
    vertex 18.9244 5.0839 0
    vertex 16.5834 2.84452 0
  endloop
endfacet
facet normal -0 0 1
  outer loop
    vertex 10.7724 2.75947 0
    vertex 13.8 1.97675 0
    vertex 13.7356 4.45444 0
  endloop
endfacet
facet normal 0 -0 1
  outer loop
    vertex 18.5269 20.1367 0
    vertex 19.9333 22.6784 0
    vertex 16.9042 22.6153 0
  endloop
endfacet
facet normal 0 0 1
  outer loop
    vertex 21.4667 25 0
    vertex 19.9333 22.6784 0
    vertex 23.0214 22.4474 0
  endloop
endfacet
facet normal 0 -0 1
  outer loop
    vertex 8.13024 17.0683 0
    vertex 8.42801 19.754 0
    vertex 5.65167 19.1528 0
  endloop
endfacet
facet normal 0 0 1
  outer loop
    vertex 24.4718 4.81527 0
    vertex 23 2.27124 0
    vertex 26.0403 2.36263 0
  endloop
endfacet
facet normal 0 -0 1
  outer loop
    vertex 21.4667 0 0
    vertex 23 2.27124 0
    vertex 19.9333 2.65581 0
  endloop
endfacet
facet normal 0 0 1
  outer loop
    vertex 39.8667 25 0
    vertex 37.7755 22.5274 0
    vertex 40.9817 22.1328 0
  endloop
endfacet
facet normal 0 0 1
  outer loop
    vertex 6.13333 25 0
    vertex 4.5476 22.4098 0
    vertex 7.47054 22.2614 0
  endloop
endfacet
facet normal 0 0 1
  outer loop
    vertex 15.9071 18.4536 0
    vertex 13.2542 19.7691 0
    vertex 13.4444 17.0879 0
  endloop
endfacet
facet normal 0 0 1
  outer loop
    vertex 33.7333 25 0
    vertex 32.1493 22.2249 0
    vertex 35.1517 22.9328 0
  endloop
endfacet
facet normal -0 0 1
  outer loop
    vertex 37.76 18.1744 0
    vertex 39.8034 16.6712 0
    vertex 40.5996 18.75 0
  endloop
endfacet
facet normal 0 -0 1
  outer loop
    vertex 24.0895 17.0687 0
    vertex 26.7873 18.8758 0
    vertex 24.0499 19.8756 0
  endloop
endfacet
facet normal 0 0 1
  outer loop
    vertex 24.0895 17.0687 0
    vertex 24.0499 19.8756 0
    vertex 21.4056 18.4721 0
  endloop
endfacet
facet normal 0 0 1
  outer loop
    vertex 36.8 25 0
    vertex 35.1517 22.9328 0
    vertex 37.7755 22.5274 0
  endloop
endfacet
facet normal 0 0 1
  outer loop
    vertex 29.4384 7.90263 0
    vertex 26.7389 6.32192 0
    vertex 29.607 5.19876 0
  endloop
endfacet
facet normal 0 0 1
  outer loop
    vertex 46 25 0
    vertex 43.7157 22.7006 0
    vertex 46 21.875 0
  endloop
endfacet
facet normal 0 0 1
  outer loop
    vertex 0 25 0
    vertex 0 21.875 0
    vertex 2.28427 22.7006 0
  endloop
endfacet
facet normal -0 0 1
  outer loop
    vertex 0 25 0
    vertex 2.28427 22.7006 0
    vertex 3.06667 25 0
  endloop
endfacet
facet normal 0 0 1
  outer loop
    vertex 46 25 0
    vertex 42.9333 25 0
    vertex 43.7157 22.7006 0
  endloop
endfacet
facet normal 0 -0 1
  outer loop
    vertex 46 0 0
    vertex 46 3.125 0
    vertex 43.7179 2.29729 0
  endloop
endfacet
facet normal 0 0 1
  outer loop
    vertex 0 0 0
    vertex 2.2821 2.29729 0
    vertex 0 3.125 0
  endloop
endfacet
facet normal 0 0 1
  outer loop
    vertex 18.7662 7.85807 0
    vertex 16.2192 5.90987 0
    vertex 18.9244 5.0839 0
  endloop
endfacet
facet normal 0 0 1
  outer loop
    vertex 46 0 0
    vertex 43.7179 2.29729 0
    vertex 42.9333 0 0
  endloop
endfacet
facet normal 0 0 1
  outer loop
    vertex 0 0 0
    vertex 3.06667 0 0
    vertex 2.2821 2.29729 0
  endloop
endfacet
facet normal -0 0 1
  outer loop
    vertex 37.6074 9.49199 0
    vertex 40.7662 9.45555 0
    vertex 39.6183 11.6458 0
  endloop
endfacet
facet normal 0 0 1
  outer loop
    vertex 43.3524 4.78156 0
    vertex 41.0158 2.91716 0
    vertex 43.7179 2.29729 0
  endloop
endfacet
facet normal 0 0 1
  outer loop
    vertex 2.64726 4.78207 0
    vertex 2.2821 2.29729 0
    vertex 5.0185 2.92652 0
  endloop
endfacet
facet normal 0 -0 1
  outer loop
    vertex 15.3333 0 0
    vertex 16.5834 2.84452 0
    vertex 13.8 1.97675 0
  endloop
endfacet
facet normal 0 0 1
  outer loop
    vertex 30.6667 25 0
    vertex 29.2346 22.9542 0
    vertex 32.1493 22.2249 0
  endloop
endfacet
facet normal 0 0 1
  outer loop
    vertex 40.894 6.2269 0
    vertex 38.9644 7.71458 0
    vertex 37.9323 4.73711 0
  endloop
endfacet
facet normal 0 -0 1
  outer loop
    vertex 12.2667 0 0
    vertex 13.8 1.97675 0
    vertex 10.7724 2.75947 0
  endloop
endfacet
facet normal 0 0 1
  outer loop
    vertex 43.556 10.8944 0
    vertex 41.65 12.3836 0
    vertex 40.7662 9.45555 0
  endloop
endfacet
facet normal 0 0 1
  outer loop
    vertex 37.3916 15.4568 0
    vertex 39.8034 16.6712 0
    vertex 37.76 18.1744 0
  endloop
endfacet
facet normal 0 0 1
  outer loop
    vertex 37.3919 12.5665 0
    vertex 37.6074 9.49199 0
    vertex 39.6183 11.6458 0
  endloop
endfacet
facet normal 0 0 1
  outer loop
    vertex 18.7662 7.85807 0
    vertex 18.9244 5.0839 0
    vertex 21.4312 6.47633 0
  endloop
endfacet
facet normal 0 -0 1
  outer loop
    vertex 36.8 0 0
    vertex 38.2151 2.08876 0
    vertex 35.5537 2.48518 0
  endloop
endfacet
facet normal 0 -0 1
  outer loop
    vertex 9.2 0 0
    vertex 10.7724 2.75947 0
    vertex 7.79156 2.16418 0
  endloop
endfacet
facet normal 0 -0 1
  outer loop
    vertex 6.13333 0 0
    vertex 7.79156 2.16418 0
    vertex 5.0185 2.92652 0
  endloop
endfacet
facet normal -0 0 1
  outer loop
    vertex 18.4 25 0
    vertex 19.9333 22.6784 0
    vertex 21.4667 25 0
  endloop
endfacet
facet normal 0 -0 1
  outer loop
    vertex 39.8667 0 0
    vertex 41.0158 2.91716 0
    vertex 38.2151 2.08876 0
  endloop
endfacet
facet normal 0 0 1
  outer loop
    vertex 21.4667 0 0
    vertex 24.5333 0 0
    vertex 23 2.27124 0
  endloop
endfacet
facet normal 0 -0 1
  outer loop
    vertex 21.4056 18.4721 0
    vertex 24.0499 19.8756 0
    vertex 21.2874 20.866 0
  endloop
endfacet
facet normal 0 0 1
  outer loop
    vertex 37.7755 22.5274 0
    vertex 38.478 20.3035 0
    vertex 40.9817 22.1328 0
  endloop
endfacet
facet normal 0 -0 1
  outer loop
    vertex 37.9323 4.73711 0
    vertex 38.9644 7.71458 0
    vertex 36.8391 7.0667 0
  endloop
endfacet
facet normal 0 -0 1
  outer loop
    vertex 40.7662 9.45555 0
    vertex 41.65 12.3836 0
    vertex 39.6183 11.6458 0
  endloop
endfacet
facet normal -0 0 1
  outer loop
    vertex 33.7333 25 0
    vertex 35.1517 22.9328 0
    vertex 36.8 25 0
  endloop
endfacet
facet normal -0 0 1
  outer loop
    vertex 10.7775 18.6438 0
    vertex 13.4444 17.0879 0
    vertex 13.2542 19.7691 0
  endloop
endfacet
facet normal 0 0 1
  outer loop
    vertex 8.13024 17.0683 0
    vertex 10.7775 18.6438 0
    vertex 8.42801 19.754 0
  endloop
endfacet
facet normal 0 0 1
  outer loop
    vertex 27.6 25 0
    vertex 26.5646 22.0101 0
    vertex 29.2346 22.9542 0
  endloop
endfacet
facet normal 0 0 1
  outer loop
    vertex 6.13333 0 0
    vertex 9.2 0 0
    vertex 7.79156 2.16418 0
  endloop
endfacet
facet normal -0 0 1
  outer loop
    vertex 32.0981 6.37215 0
    vertex 34.8844 5.25092 0
    vertex 34.7145 8.02519 0
  endloop
endfacet
facet normal 0 0 1
  outer loop
    vertex 36.8 0 0
    vertex 39.8667 0 0
    vertex 38.2151 2.08876 0
  endloop
endfacet
facet normal 0 0 1
  outer loop
    vertex 29.4384 7.90263 0
    vertex 29.607 5.19876 0
    vertex 32.0981 6.37215 0
  endloop
endfacet
facet normal 0 0 1
  outer loop
    vertex 8.09456 4.72848 0
    vertex 5.0185 2.92652 0
    vertex 7.79156 2.16418 0
  endloop
endfacet
facet normal 0 0 1
  outer loop
    vertex 29.4009 20.3796 0
    vertex 29.2346 22.9542 0
    vertex 26.5646 22.0101 0
  endloop
endfacet
facet normal 0 0 1
  outer loop
    vertex 21.4312 6.47633 0
    vertex 18.9244 5.0839 0
    vertex 21.6701 4.08613 0
  endloop
endfacet
facet normal 0 0 1
  outer loop
    vertex 41.0158 2.91716 0
    vertex 37.9323 4.73711 0
    vertex 38.2151 2.08876 0
  endloop
endfacet
facet normal 0 0 1
  outer loop
    vertex 23.0214 22.4474 0
    vertex 21.2874 20.866 0
    vertex 24.0499 19.8756 0
  endloop
endfacet
facet normal 0 0 1
  outer loop
    vertex 34.7145 8.02519 0
    vertex 34.8844 5.25092 0
    vertex 36.8391 7.0667 0
  endloop
endfacet
facet normal 0 0 1
  outer loop
    vertex 12.2667 0 0
    vertex 15.3333 0 0
    vertex 13.8 1.97675 0
  endloop
endfacet
facet normal 0 0 1
  outer loop
    vertex 37.76 18.1744 0
    vertex 40.5996 18.75 0
    vertex 38.478 20.3035 0
  endloop
endfacet
facet normal -0 0 1
  outer loop
    vertex 27.6 25 0
    vertex 29.2346 22.9542 0
    vertex 30.6667 25 0
  endloop
endfacet
facet normal 0 -0 1
  outer loop
    vertex 19.9333 2.65581 0
    vertex 21.6701 4.08613 0
    vertex 18.9244 5.0839 0
  endloop
endfacet
facet normal 0 0 1
  outer loop
    vertex 40.3259 14.1857 0
    vertex 41.65 12.3836 0
    vertex 43.2961 14.0668 0
  endloop
endfacet
facet normal 0 0 1
  outer loop
    vertex 37.6074 9.49199 0
    vertex 38.9644 7.71458 0
    vertex 40.7662 9.45555 0
  endloop
endfacet
facet normal -0 0 1
  outer loop
    vertex 18.5269 20.1367 0
    vertex 21.4056 18.4721 0
    vertex 21.2874 20.866 0
  endloop
endfacet
facet normal -0 0 1
  outer loop
    vertex 37.3916 15.4568 0
    vertex 40.3259 14.1857 0
    vertex 39.8034 16.6712 0
  endloop
endfacet
facet normal 0 0 1
  outer loop
    vertex 46 3.125 0
    vertex 43.3524 4.78156 0
    vertex 43.7179 2.29729 0
  endloop
endfacet
facet normal -0 0 1
  outer loop
    vertex 0 3.125 0
    vertex 2.2821 2.29729 0
    vertex 2.64726 4.78207 0
  endloop
endfacet
facet normal -0 0 1
  outer loop
    vertex 0 21.875 0
    vertex 2.57799 20.2832 0
    vertex 2.28427 22.7006 0
  endloop
endfacet
facet normal 0 0 1
  outer loop
    vertex 46 21.875 0
    vertex 43.7157 22.7006 0
    vertex 43.3369 20.2833 0
  endloop
endfacet
facet normal 0 0 1
  outer loop
    vertex 42.9333 25 0
    vertex 40.9817 22.1328 0
    vertex 43.7157 22.7006 0
  endloop
endfacet
facet normal 0 0 1
  outer loop
    vertex 3.06667 25 0
    vertex 2.28427 22.7006 0
    vertex 4.5476 22.4098 0
  endloop
endfacet
facet normal 0 0 1
  outer loop
    vertex 37.6074 9.49199 0
    vertex 34.7145 8.02519 0
    vertex 36.8391 7.0667 0
  endloop
endfacet
facet normal 0 0 1
  outer loop
    vertex 26.7389 6.32192 0
    vertex 27.4131 4.28893 0
    vertex 29.607 5.19876 0
  endloop
endfacet
facet normal 0 0 1
  outer loop
    vertex 15.9071 18.4536 0
    vertex 15.8214 20.6441 0
    vertex 13.2542 19.7691 0
  endloop
endfacet
facet normal 0 0 1
  outer loop
    vertex 21.4312 6.47633 0
    vertex 21.6701 4.08613 0
    vertex 24.4718 4.81527 0
  endloop
endfacet
facet normal -0 0 1
  outer loop
    vertex 37.3919 12.5665 0
    vertex 39.6183 11.6458 0
    vertex 40.3259 14.1857 0
  endloop
endfacet
facet normal -0 0 1
  outer loop
    vertex 19.9333 2.65581 0
    vertex 23 2.27124 0
    vertex 21.6701 4.08613 0
  endloop
endfacet
facet normal 0 0 1
  outer loop
    vertex 23.0214 22.4474 0
    vertex 19.9333 22.6784 0
    vertex 21.2874 20.866 0
  endloop
endfacet
facet normal 0 0 1
  outer loop
    vertex 40.894 6.2269 0
    vertex 40.7662 9.45555 0
    vertex 38.9644 7.71458 0
  endloop
endfacet
facet normal 0 0 1
  outer loop
    vertex 43.556 10.8944 0
    vertex 43.2961 14.0668 0
    vertex 41.65 12.3836 0
  endloop
endfacet
facet normal 0 -0 1
  outer loop
    vertex 43.3369 20.2833 0
    vertex 43.7157 22.7006 0
    vertex 40.9817 22.1328 0
  endloop
endfacet
facet normal 0 -0 1
  outer loop
    vertex 2.57799 20.2832 0
    vertex 4.5476 22.4098 0
    vertex 2.28427 22.7006 0
  endloop
endfacet
facet normal -0 0 1
  outer loop
    vertex 13.9365 22.5031 0
    vertex 15.8214 20.6441 0
    vertex 16.9042 22.6153 0
  endloop
endfacet
facet normal 0 0 1
  outer loop
    vertex 28.9883 2.49087 0
    vertex 27.4131 4.28893 0
    vertex 26.0403 2.36263 0
  endloop
endfacet
facet normal 0 0 1
  outer loop
    vertex 18.5269 20.1367 0
    vertex 21.2874 20.866 0
    vertex 19.9333 22.6784 0
  endloop
endfacet
facet normal 0 0 1
  outer loop
    vertex 24.4718 4.81527 0
    vertex 21.6701 4.08613 0
    vertex 23 2.27124 0
  endloop
endfacet
facet normal 0 0 1
  outer loop
    vertex 13.9365 22.5031 0
    vertex 13.2542 19.7691 0
    vertex 15.8214 20.6441 0
  endloop
endfacet
facet normal 0 -0 1
  outer loop
    vertex 28.9883 2.49087 0
    vertex 29.607 5.19876 0
    vertex 27.4131 4.28893 0
  endloop
endfacet
facet normal 0 0 1
  outer loop
    vertex 37.6074 9.49199 0
    vertex 36.8391 7.0667 0
    vertex 38.9644 7.71458 0
  endloop
endfacet
facet normal 0 0 1
  outer loop
    vertex 40.3259 14.1857 0
    vertex 39.6183 11.6458 0
    vertex 41.65 12.3836 0
  endloop
endfacet
endsolid Created by Gmsh
