solid Created by Gmsh
facet normal -0 0 1
  outer loop
    vertex 31.5926 2.56749 0
    vertex 34.2127 2.42785 0
    vertex 33.1237 5.24885 0
  endloop
endfacet
facet normal 0 -0 1
  outer loop
    vertex 38.3872 18.1156 0
    vertex 38.5731 20.96 0
    vertex 35.5846 20.4856 0
  endloop
endfacet
facet normal 0 0 1
  outer loop
    vertex 19.0925 5.24018 0
    vertex 17.7667 2.36714 0
    vertex 20.5 2.36714 0
  endloop
endfacet
facet normal 0 0 1
  outer loop
    vertex 6.6458 22.556 0
    vertex 4.03893 22.6961 0
    vertex 5.02507 19.8127 0
  endloop
endfacet
facet normal 0 0 1
  outer loop
    vertex 38.3872 18.1156 0
    vertex 35.5846 20.4856 0
    vertex 35.6718 17.8821 0
  endloop
endfacet
facet normal 0 0 1
  outer loop
    vertex 14.6897 2.64192 0
    vertex 14.3331 5.6342 0
    vertex 11.9959 4.24859 0
  endloop
endfacet
facet normal 0 0 1
  outer loop
    vertex 6.6458 22.556 0
    vertex 5.02507 19.8127 0
    vertex 7.50135 20.3475 0
  endloop
endfacet
facet normal 0 -0 1
  outer loop
    vertex 31.5926 2.56749 0
    vertex 33.1237 5.24885 0
    vertex 30.5826 4.68993 0
  endloop
endfacet
facet normal 0 0 1
  outer loop
    vertex 23.5257 2.6402 0
    vertex 26.1101 4.26445 0
    vertex 23.8153 5.62729 0
  endloop
endfacet
facet normal 0 0 1
  outer loop
    vertex 4.41378 2.45899 0
    vertex 7.05054 4.0969 0
    vertex 4.67672 5.52223 0
  endloop
endfacet
facet normal 0 0 1
  outer loop
    vertex 14.6897 2.64192 0
    vertex 11.9959 4.24859 0
    vertex 12.3 1.92548 0
  endloop
endfacet
facet normal 0 0 1
  outer loop
    vertex 19.0925 5.24018 0
    vertex 20.5 2.36714 0
    vertex 21.6309 4.60262 0
  endloop
endfacet
facet normal 0 0 1
  outer loop
    vertex 19.0925 5.24018 0
    vertex 16.5542 4.57868 0
    vertex 17.7667 2.36714 0
  endloop
endfacet
facet normal 0 0 1
  outer loop
    vertex 27.3333 0 0
    vertex 30.0667 0 0
    vertex 28.6366 2.75043 0
  endloop
endfacet
facet normal -0 0 1
  outer loop
    vertex 23.5257 2.6402 0
    vertex 26.0047 1.94882 0
    vertex 26.1101 4.26445 0
  endloop
endfacet
facet normal 0 0 1
  outer loop
    vertex 9.56881 2.45251 0
    vertex 11.9959 4.24859 0
    vertex 9.58654 5.63036 0
  endloop
endfacet
facet normal -0 0 1
  outer loop
    vertex 4.41378 2.45899 0
    vertex 6.83333 1.79102 0
    vertex 7.05054 4.0969 0
  endloop
endfacet
facet normal 0 -0 1
  outer loop
    vertex 28.5899 19.2896 0
    vertex 28.6494 22.273 0
    vertex 26.4033 20.3421 0
  endloop
endfacet
facet normal 0 -0 1
  outer loop
    vertex 9.56881 2.45251 0
    vertex 9.58654 5.63036 0
    vertex 7.05054 4.0969 0
  endloop
endfacet
facet normal 0 -0 1
  outer loop
    vertex 30.0667 0 0
    vertex 31.5926 2.56749 0
    vertex 28.6366 2.75043 0
  endloop
endfacet
facet normal 0 0 1
  outer loop
    vertex 28.5899 19.2896 0
    vertex 30.8687 20.3831 0
    vertex 28.6494 22.273 0
  endloop
endfacet
facet normal 0 0 1
  outer loop
    vertex 9.56079 19.3558 0
    vertex 9.51432 22.2578 0
    vertex 7.50135 20.3475 0
  endloop
endfacet
facet normal -0 0 1
  outer loop
    vertex 2.29867 20.8101 0
    vertex 5.02507 19.8127 0
    vertex 4.03893 22.6961 0
  endloop
endfacet
facet normal 0 -0 1
  outer loop
    vertex 14.6897 2.64192 0
    vertex 16.5542 4.57868 0
    vertex 14.3331 5.6342 0
  endloop
endfacet
facet normal 0 -0 1
  outer loop
    vertex 23.5257 2.6402 0
    vertex 23.8153 5.62729 0
    vertex 21.6309 4.60262 0
  endloop
endfacet
facet normal 0 -0 1
  outer loop
    vertex 4.41378 2.45899 0
    vertex 4.67672 5.52223 0
    vertex 2.25583 4.25602 0
  endloop
endfacet
facet normal 0 0 1
  outer loop
    vertex 33.1237 5.24885 0
    vertex 34.2127 2.42785 0
    vertex 35.3246 4.60131 0
  endloop
endfacet
facet normal 0 -0 1
  outer loop
    vertex 9.56079 19.3558 0
    vertex 11.4943 20.5782 0
    vertex 9.51432 22.2578 0
  endloop
endfacet
facet normal 0 0 1
  outer loop
    vertex 9.58654 5.63036 0
    vertex 7.20425 6.94878 0
    vertex 7.05054 4.0969 0
  endloop
endfacet
facet normal 0 0 1
  outer loop
    vertex 25.8289 22.7793 0
    vertex 26.4033 20.3421 0
    vertex 28.6494 22.273 0
  endloop
endfacet
facet normal 0 0 1
  outer loop
    vertex 7.20425 6.94878 0
    vertex 4.67672 5.52223 0
    vertex 7.05054 4.0969 0
  endloop
endfacet
facet normal 0 -0 1
  outer loop
    vertex 27.3333 0 0
    vertex 28.6366 2.75043 0
    vertex 26.0047 1.94882 0
  endloop
endfacet
facet normal 0 0 1
  outer loop
    vertex 6.6458 22.556 0
    vertex 7.50135 20.3475 0
    vertex 9.51432 22.2578 0
  endloop
endfacet
facet normal 0 0 1
  outer loop
    vertex 7.20425 6.94878 0
    vertex 4.78085 8.33744 0
    vertex 4.67672 5.52223 0
  endloop
endfacet
facet normal -0 0 1
  outer loop
    vertex 2.39084 6.9591 0
    vertex 4.67672 5.52223 0
    vertex 4.78085 8.33744 0
  endloop
endfacet
facet normal -0 0 1
  outer loop
    vertex 21.7738 20.6746 0
    vertex 24.0899 19.1501 0
    vertex 24.181 21.1338 0
  endloop
endfacet
facet normal 0 -0 1
  outer loop
    vertex 36.8772 2.61005 0
    vertex 37.1826 5.58177 0
    vertex 35.3246 4.60131 0
  endloop
endfacet
facet normal 0 0 1
  outer loop
    vertex 36.8848 22.6692 0
    vertex 35.5846 20.4856 0
    vertex 38.5731 20.96 0
  endloop
endfacet
facet normal 0 0 1
  outer loop
    vertex 36.8772 2.61005 0
    vertex 39.042 4.24569 0
    vertex 37.1826 5.58177 0
  endloop
endfacet
facet normal 0 0 1
  outer loop
    vertex 21.7738 20.6746 0
    vertex 24.181 21.1338 0
    vertex 23.2007 22.8876 0
  endloop
endfacet
facet normal 0 0 1
  outer loop
    vertex 31.555 22.7793 0
    vertex 28.6494 22.273 0
    vertex 30.8687 20.3831 0
  endloop
endfacet
facet normal 0 0 1
  outer loop
    vertex 7.23215 17.9578 0
    vertex 5.02507 19.8127 0
    vertex 4.84148 16.6893 0
  endloop
endfacet
facet normal -0 0 1
  outer loop
    vertex 9.56881 2.45251 0
    vertex 12.3 1.92548 0
    vertex 11.9959 4.24859 0
  endloop
endfacet
facet normal -0 0 1
  outer loop
    vertex 2.40243 18.0483 0
    vertex 4.84148 16.6893 0
    vertex 5.02507 19.8127 0
  endloop
endfacet
facet normal 0 0 1
  outer loop
    vertex 2.40243 18.0483 0
    vertex 2.40441 15.2679 0
    vertex 4.84148 16.6893 0
  endloop
endfacet
facet normal -0 0 1
  outer loop
    vertex 0 16.6667 0
    vertex 2.40441 15.2679 0
    vertex 2.40243 18.0483 0
  endloop
endfacet
facet normal 0 0 1
  outer loop
    vertex 19.0283 19.2074 0
    vertex 16.6709 20.4652 0
    vertex 16.7171 17.9625 0
  endloop
endfacet
facet normal 0 -0 1
  outer loop
    vertex 14.3354 13.8651 0
    vertex 16.7097 15.2298 0
    vertex 14.3315 16.6164 0
  endloop
endfacet
facet normal 0 -0 1
  outer loop
    vertex 19.0283 19.2074 0
    vertex 19.3073 21.3323 0
    vertex 16.6709 20.4652 0
  endloop
endfacet
facet normal 0 0 1
  outer loop
    vertex 7.20425 6.94878 0
    vertex 7.18957 9.73289 0
    vertex 4.78085 8.33744 0
  endloop
endfacet
facet normal 0 0 1
  outer loop
    vertex 4.8028 11.1111 0
    vertex 4.78085 8.33744 0
    vertex 7.18957 9.73289 0
  endloop
endfacet
facet normal 0 0 1
  outer loop
    vertex 11.9582 12.494 0
    vertex 14.3354 13.8651 0
    vertex 11.9968 15.2676 0
  endloop
endfacet
facet normal 0 0 1
  outer loop
    vertex 14.3354 13.8651 0
    vertex 14.3315 16.6164 0
    vertex 11.9968 15.2676 0
  endloop
endfacet
facet normal 0 0 1
  outer loop
    vertex 2.39084 6.9591 0
    vertex 4.78085 8.33744 0
    vertex 2.40013 9.72655 0
  endloop
endfacet
facet normal -0 0 1
  outer loop
    vertex 0 8.33333 0
    vertex 2.39084 6.9591 0
    vertex 2.40013 9.72655 0
  endloop
endfacet
facet normal 0 0 1
  outer loop
    vertex 0 13.8889 0
    vertex 2.40441 15.2679 0
    vertex 0 16.6667 0
  endloop
endfacet
facet normal 0 0 1
  outer loop
    vertex 41 8.33333 0
    vertex 38.765 9.72416 0
    vertex 38.7118 6.95111 0
  endloop
endfacet
facet normal 0 -0 1
  outer loop
    vertex 2.40243 18.0483 0
    vertex 5.02507 19.8127 0
    vertex 2.29867 20.8101 0
  endloop
endfacet
facet normal 0 0 1
  outer loop
    vertex 16.7171 17.9625 0
    vertex 14.3315 16.6164 0
    vertex 16.7097 15.2298 0
  endloop
endfacet
facet normal 0 0 1
  outer loop
    vertex 16.6867 7.045 0
    vertex 14.3312 8.38345 0
    vertex 14.3331 5.6342 0
  endloop
endfacet
facet normal 0 0 1
  outer loop
    vertex 41 13.8889 0
    vertex 38.5965 15.2815 0
    vertex 38.7068 12.4988 0
  endloop
endfacet
facet normal 0 0 1
  outer loop
    vertex 30.953 9.72521 0
    vertex 28.5643 8.36591 0
    vertex 30.9151 7.0291 0
  endloop
endfacet
facet normal -0 0 1
  outer loop
    vertex 9.58052 13.87 0
    vertex 11.9582 12.494 0
    vertex 11.9968 15.2676 0
  endloop
endfacet
facet normal 0 0 1
  outer loop
    vertex 4.8028 11.1111 0
    vertex 7.1939 12.4947 0
    vertex 4.80428 13.8755 0
  endloop
endfacet
facet normal 0 0 1
  outer loop
    vertex 2.40381 12.4973 0
    vertex 2.40013 9.72655 0
    vertex 4.8028 11.1111 0
  endloop
endfacet
facet normal -0 0 1
  outer loop
    vertex 11.9593 7.00458 0
    vertex 14.3331 5.6342 0
    vertex 14.3312 8.38345 0
  endloop
endfacet
facet normal -0 0 1
  outer loop
    vertex 4.80428 13.8755 0
    vertex 7.1939 12.4947 0
    vertex 7.19711 15.2499 0
  endloop
endfacet
facet normal -0 0 1
  outer loop
    vertex 23.8243 13.8526 0
    vertex 26.199 12.4807 0
    vertex 26.2051 15.2176 0
  endloop
endfacet
facet normal 0 0 1
  outer loop
    vertex 26.2383 17.9099 0
    vertex 24.0899 19.1501 0
    vertex 23.824 16.5899 0
  endloop
endfacet
facet normal -0 0 1
  outer loop
    vertex 0 19.4444 0
    vertex 2.40243 18.0483 0
    vertex 2.29867 20.8101 0
  endloop
endfacet
facet normal 0 0 1
  outer loop
    vertex 26.2383 17.9099 0
    vertex 23.824 16.5899 0
    vertex 26.2051 15.2176 0
  endloop
endfacet
facet normal 0 0 1
  outer loop
    vertex 30.9151 7.0291 0
    vertex 28.5643 8.36591 0
    vertex 28.5125 5.68469 0
  endloop
endfacet
facet normal -0 0 1
  outer loop
    vertex 2.40381 12.4973 0
    vertex 4.8028 11.1111 0
    vertex 4.80428 13.8755 0
  endloop
endfacet
facet normal 0 0 1
  outer loop
    vertex 26.199 12.4807 0
    vertex 28.5766 13.8517 0
    vertex 26.2051 15.2176 0
  endloop
endfacet
facet normal 0 0 1
  outer loop
    vertex 7.1939 12.4947 0
    vertex 9.58052 13.87 0
    vertex 7.19711 15.2499 0
  endloop
endfacet
facet normal 0 0 1
  outer loop
    vertex 9.58052 13.87 0
    vertex 9.57924 11.1194 0
    vertex 11.9582 12.494 0
  endloop
endfacet
facet normal -0 0 1
  outer loop
    vertex 0 11.1111 0
    vertex 2.40013 9.72655 0
    vertex 2.40381 12.4973 0
  endloop
endfacet
facet normal 0 0 1
  outer loop
    vertex 41 16.6667 0
    vertex 38.3872 18.1156 0
    vertex 38.5965 15.2815 0
  endloop
endfacet
facet normal -0 0 1
  outer loop
    vertex 7.19711 15.2499 0
    vertex 9.58052 13.87 0
    vertex 9.58181 16.6214 0
  endloop
endfacet
facet normal 0 0 1
  outer loop
    vertex 0 5.55556 0
    vertex 2.39084 6.9591 0
    vertex 0 8.33333 0
  endloop
endfacet
facet normal 0 0 1
  outer loop
    vertex 41 11.1111 0
    vertex 38.7068 12.4988 0
    vertex 38.765 9.72416 0
  endloop
endfacet
facet normal 0 -0 1
  outer loop
    vertex 41 16.6667 0
    vertex 41 19.4444 0
    vertex 38.3872 18.1156 0
  endloop
endfacet
facet normal 0 -0 1
  outer loop
    vertex 9.58181 16.6214 0
    vertex 12.253 18.1608 0
    vertex 9.56079 19.3558 0
  endloop
endfacet
facet normal 0 0 1
  outer loop
    vertex 0 16.6667 0
    vertex 2.40243 18.0483 0
    vertex 0 19.4444 0
  endloop
endfacet
facet normal 0 -0 1
  outer loop
    vertex 41 5.55556 0
    vertex 41 8.33333 0
    vertex 38.7118 6.95111 0
  endloop
endfacet
facet normal -0 0 1
  outer loop
    vertex 9.57924 11.1194 0
    vertex 11.9591 9.7469 0
    vertex 11.9582 12.494 0
  endloop
endfacet
facet normal -0 0 1
  outer loop
    vertex 7.1939 12.4947 0
    vertex 9.57924 11.1194 0
    vertex 9.58052 13.87 0
  endloop
endfacet
facet normal 0 0 1
  outer loop
    vertex 0 11.1111 0
    vertex 2.40381 12.4973 0
    vertex 0 13.8889 0
  endloop
endfacet
facet normal 0 0 1
  outer loop
    vertex 11.9591 9.7469 0
    vertex 11.9593 7.00458 0
    vertex 14.3312 8.38345 0
  endloop
endfacet
facet normal 0 0 1
  outer loop
    vertex 9.58181 16.6214 0
    vertex 9.56079 19.3558 0
    vertex 7.23215 17.9578 0
  endloop
endfacet
facet normal 0 0 1
  outer loop
    vertex 28.5806 16.5998 0
    vertex 30.9308 17.9233 0
    vertex 28.5899 19.2896 0
  endloop
endfacet
facet normal 0 0 1
  outer loop
    vertex 0 19.4444 0
    vertex 2.29867 20.8101 0
    vertex 0 22.2222 0
  endloop
endfacet
facet normal 0 0 1
  outer loop
    vertex 30.953 9.72521 0
    vertex 30.9151 7.0291 0
    vertex 33.3352 8.34681 0
  endloop
endfacet
facet normal 0 -0 1
  outer loop
    vertex 41 11.1111 0
    vertex 41 13.8889 0
    vertex 38.7068 12.4988 0
  endloop
endfacet
facet normal 0 -0 1
  outer loop
    vertex 28.5806 16.5998 0
    vertex 28.5899 19.2896 0
    vertex 26.2383 17.9099 0
  endloop
endfacet
facet normal 0 0 1
  outer loop
    vertex 28.5766 13.8517 0
    vertex 30.9576 15.2242 0
    vertex 28.5806 16.5998 0
  endloop
endfacet
facet normal 0 0 1
  outer loop
    vertex 11.9582 12.494 0
    vertex 11.9591 9.7469 0
    vertex 14.3345 11.12 0
  endloop
endfacet
facet normal 0 0 1
  outer loop
    vertex 0 8.33333 0
    vertex 2.40013 9.72655 0
    vertex 0 11.1111 0
  endloop
endfacet
facet normal 0 0 1
  outer loop
    vertex 11.9593 7.00458 0
    vertex 9.58654 5.63036 0
    vertex 11.9959 4.24859 0
  endloop
endfacet
facet normal 0 0 1
  outer loop
    vertex 11.9593 7.00458 0
    vertex 11.9959 4.24859 0
    vertex 14.3331 5.6342 0
  endloop
endfacet
facet normal 0 -0 1
  outer loop
    vertex 41 8.33333 0
    vertex 41 11.1111 0
    vertex 38.765 9.72416 0
  endloop
endfacet
facet normal 0 0 1
  outer loop
    vertex 11.9591 9.7469 0
    vertex 9.5825 8.37404 0
    vertex 11.9593 7.00458 0
  endloop
endfacet
facet normal -0 0 1
  outer loop
    vertex 2.40013 9.72655 0
    vertex 4.78085 8.33744 0
    vertex 4.8028 11.1111 0
  endloop
endfacet
facet normal 0 0 1
  outer loop
    vertex 23.8193 8.3707 0
    vertex 21.4449 7.0118 0
    vertex 23.8153 5.62729 0
  endloop
endfacet
facet normal 0 0 1
  outer loop
    vertex 23.8193 8.3707 0
    vertex 23.8153 5.62729 0
    vertex 26.1903 6.99447 0
  endloop
endfacet
facet normal 0 0 1
  outer loop
    vertex 14.3345 11.12 0
    vertex 16.7089 12.4891 0
    vertex 14.3354 13.8651 0
  endloop
endfacet
facet normal 0 0 1
  outer loop
    vertex 9.58052 13.87 0
    vertex 11.9968 15.2676 0
    vertex 9.58181 16.6214 0
  endloop
endfacet
facet normal -0 0 1
  outer loop
    vertex 0 13.8889 0
    vertex 2.40381 12.4973 0
    vertex 2.40441 15.2679 0
  endloop
endfacet
facet normal -0 0 1
  outer loop
    vertex 14.3345 11.12 0
    vertex 16.7074 9.7497 0
    vertex 16.7089 12.4891 0
  endloop
endfacet
facet normal 0 -0 1
  outer loop
    vertex 41 13.8889 0
    vertex 41 16.6667 0
    vertex 38.5965 15.2815 0
  endloop
endfacet
facet normal 0 0 1
  outer loop
    vertex 16.7089 12.4891 0
    vertex 16.7074 9.7497 0
    vertex 19.0794 11.1178 0
  endloop
endfacet
facet normal 0 0 1
  outer loop
    vertex 33.3352 8.34681 0
    vertex 30.9151 7.0291 0
    vertex 33.1237 5.24885 0
  endloop
endfacet
facet normal 0 0 1
  outer loop
    vertex 23.8224 11.1108 0
    vertex 23.8193 8.3707 0
    vertex 26.195 9.73602 0
  endloop
endfacet
facet normal 0 0 1
  outer loop
    vertex 7.19711 15.2499 0
    vertex 9.58181 16.6214 0
    vertex 7.23215 17.9578 0
  endloop
endfacet
facet normal 0 0 1
  outer loop
    vertex 30.9576 15.2242 0
    vertex 30.9308 17.9233 0
    vertex 28.5806 16.5998 0
  endloop
endfacet
facet normal 0 0 1
  outer loop
    vertex 26.1903 6.99447 0
    vertex 23.8153 5.62729 0
    vertex 26.1101 4.26445 0
  endloop
endfacet
facet normal -0 0 1
  outer loop
    vertex 11.9582 12.494 0
    vertex 14.3345 11.12 0
    vertex 14.3354 13.8651 0
  endloop
endfacet
facet normal 0 0 1
  outer loop
    vertex 16.7074 9.7497 0
    vertex 14.3312 8.38345 0
    vertex 16.6867 7.045 0
  endloop
endfacet
facet normal -0 0 1
  outer loop
    vertex 14.3354 13.8651 0
    vertex 16.7089 12.4891 0
    vertex 16.7097 15.2298 0
  endloop
endfacet
facet normal 0 -0 1
  outer loop
    vertex 28.5766 13.8517 0
    vertex 28.5806 16.5998 0
    vertex 26.2051 15.2176 0
  endloop
endfacet
facet normal 0 0 1
  outer loop
    vertex 19.0819 13.8556 0
    vertex 21.4533 15.2222 0
    vertex 19.0848 16.5924 0
  endloop
endfacet
facet normal -0 0 1
  outer loop
    vertex 16.7074 9.7497 0
    vertex 19.0775 8.38065 0
    vertex 19.0794 11.1178 0
  endloop
endfacet
facet normal -0 0 1
  outer loop
    vertex 9.58181 16.6214 0
    vertex 11.9968 15.2676 0
    vertex 12.253 18.1608 0
  endloop
endfacet
facet normal 0 0 1
  outer loop
    vertex 9.57924 11.1194 0
    vertex 9.5825 8.37404 0
    vertex 11.9591 9.7469 0
  endloop
endfacet
facet normal 0 0 1
  outer loop
    vertex 9.5825 8.37404 0
    vertex 9.58654 5.63036 0
    vertex 11.9593 7.00458 0
  endloop
endfacet
facet normal -0 0 1
  outer loop
    vertex 16.7089 12.4891 0
    vertex 19.0794 11.1178 0
    vertex 19.0819 13.8556 0
  endloop
endfacet
facet normal 0 -0 1
  outer loop
    vertex 19.0848 16.5924 0
    vertex 21.4549 17.9589 0
    vertex 19.0283 19.2074 0
  endloop
endfacet
facet normal 0 0 1
  outer loop
    vertex 26.195 9.73602 0
    vertex 23.8193 8.3707 0
    vertex 26.1903 6.99447 0
  endloop
endfacet
facet normal 0 0 1
  outer loop
    vertex 23.8224 11.1108 0
    vertex 21.449 9.74688 0
    vertex 23.8193 8.3707 0
  endloop
endfacet
facet normal 0 0 1
  outer loop
    vertex 19.0775 8.38065 0
    vertex 16.6867 7.045 0
    vertex 19.0925 5.24018 0
  endloop
endfacet
facet normal 0 0 1
  outer loop
    vertex 16.7074 9.7497 0
    vertex 16.6867 7.045 0
    vertex 19.0775 8.38065 0
  endloop
endfacet
facet normal 0 -0 1
  outer loop
    vertex 21.4533 15.2222 0
    vertex 21.4549 17.9589 0
    vertex 19.0848 16.5924 0
  endloop
endfacet
facet normal 0 -0 1
  outer loop
    vertex 23.8243 13.8526 0
    vertex 26.2051 15.2176 0
    vertex 23.824 16.5899 0
  endloop
endfacet
facet normal -0 0 1
  outer loop
    vertex 11.9591 9.7469 0
    vertex 14.3312 8.38345 0
    vertex 14.3345 11.12 0
  endloop
endfacet
facet normal 0 0 1
  outer loop
    vertex 14.3345 11.12 0
    vertex 14.3312 8.38345 0
    vertex 16.7074 9.7497 0
  endloop
endfacet
facet normal 0 -0 1
  outer loop
    vertex 21.4549 17.9589 0
    vertex 21.7738 20.6746 0
    vertex 19.0283 19.2074 0
  endloop
endfacet
facet normal -0 0 1
  outer loop
    vertex 26.1101 4.26445 0
    vertex 28.6366 2.75043 0
    vertex 28.5125 5.68469 0
  endloop
endfacet
facet normal 0 0 1
  outer loop
    vertex 28.5743 11.1048 0
    vertex 28.5643 8.36591 0
    vertex 30.953 9.72521 0
  endloop
endfacet
facet normal 0 -0 1
  outer loop
    vertex 7.19711 15.2499 0
    vertex 7.23215 17.9578 0
    vertex 4.84148 16.6893 0
  endloop
endfacet
facet normal 0 0 1
  outer loop
    vertex 13.6667 25 0
    vertex 12.3803 22.6879 0
    vertex 15.0609 22.7176 0
  endloop
endfacet
facet normal -0 0 1
  outer loop
    vertex 16.4 25 0
    vertex 17.8146 22.8479 0
    vertex 19.1333 25 0
  endloop
endfacet
facet normal 0 0 1
  outer loop
    vertex 13.6667 0 0
    vertex 16.4 0 0
    vertex 14.6897 2.64192 0
  endloop
endfacet
facet normal -0 0 1
  outer loop
    vertex 24.6 25 0
    vertex 25.8289 22.7793 0
    vertex 27.3333 25 0
  endloop
endfacet
facet normal -0 0 1
  outer loop
    vertex 10.9333 25 0
    vertex 12.3803 22.6879 0
    vertex 13.6667 25 0
  endloop
endfacet
facet normal 0 0 1
  outer loop
    vertex 21.8667 0 0
    vertex 24.6 0 0
    vertex 23.5257 2.6402 0
  endloop
endfacet
facet normal -0 0 1
  outer loop
    vertex 13.6667 25 0
    vertex 15.0609 22.7176 0
    vertex 16.4 25 0
  endloop
endfacet
facet normal 0 0 1
  outer loop
    vertex 16.4 25 0
    vertex 15.0609 22.7176 0
    vertex 17.8146 22.8479 0
  endloop
endfacet
facet normal 0 0 1
  outer loop
    vertex 28.5806 16.5998 0
    vertex 26.2383 17.9099 0
    vertex 26.2051 15.2176 0
  endloop
endfacet
facet normal 0 -0 1
  outer loop
    vertex 19.0819 13.8556 0
    vertex 19.0848 16.5924 0
    vertex 16.7097 15.2298 0
  endloop
endfacet
facet normal 0 0 1
  outer loop
    vertex 19.1333 0 0
    vertex 21.8667 0 0
    vertex 20.5 2.36714 0
  endloop
endfacet
facet normal 0 -0 1
  outer loop
    vertex 21.8667 0 0
    vertex 23.5257 2.6402 0
    vertex 20.5 2.36714 0
  endloop
endfacet
facet normal 0 0 1
  outer loop
    vertex 16.4 0 0
    vertex 19.1333 0 0
    vertex 17.7667 2.36714 0
  endloop
endfacet
facet normal 0 -0 1
  outer loop
    vertex 16.4 0 0
    vertex 17.7667 2.36714 0
    vertex 14.6897 2.64192 0
  endloop
endfacet
facet normal 0 0 1
  outer loop
    vertex 19.0848 16.5924 0
    vertex 19.0283 19.2074 0
    vertex 16.7171 17.9625 0
  endloop
endfacet
facet normal 0 0 1
  outer loop
    vertex 12.253 18.1608 0
    vertex 11.9968 15.2676 0
    vertex 14.3315 16.6164 0
  endloop
endfacet
facet normal 0 -0 1
  outer loop
    vertex 19.1333 0 0
    vertex 20.5 2.36714 0
    vertex 17.7667 2.36714 0
  endloop
endfacet
facet normal 0 0 1
  outer loop
    vertex 2.40381 12.4973 0
    vertex 4.80428 13.8755 0
    vertex 2.40441 15.2679 0
  endloop
endfacet
facet normal 0 0 1
  outer loop
    vertex 9.57924 11.1194 0
    vertex 7.18957 9.73289 0
    vertex 9.5825 8.37404 0
  endloop
endfacet
facet normal 0 0 1
  outer loop
    vertex 16.7089 12.4891 0
    vertex 19.0819 13.8556 0
    vertex 16.7097 15.2298 0
  endloop
endfacet
facet normal -0 0 1
  outer loop
    vertex 4.8028 11.1111 0
    vertex 7.18957 9.73289 0
    vertex 7.1939 12.4947 0
  endloop
endfacet
facet normal -0 0 1
  outer loop
    vertex 19.0819 13.8556 0
    vertex 21.451 12.4846 0
    vertex 21.4533 15.2222 0
  endloop
endfacet
facet normal 0 0 1
  outer loop
    vertex 19.0794 11.1178 0
    vertex 19.0775 8.38065 0
    vertex 21.449 9.74688 0
  endloop
endfacet
facet normal -0 0 1
  outer loop
    vertex 23.8224 11.1108 0
    vertex 26.195 9.73602 0
    vertex 26.199 12.4807 0
  endloop
endfacet
facet normal 0 0 1
  outer loop
    vertex 21.4549 17.9589 0
    vertex 24.0899 19.1501 0
    vertex 21.7738 20.6746 0
  endloop
endfacet
facet normal 0 0 1
  outer loop
    vertex 19.0794 11.1178 0
    vertex 21.451 12.4846 0
    vertex 19.0819 13.8556 0
  endloop
endfacet
facet normal 0 0 1
  outer loop
    vertex 4.80428 13.8755 0
    vertex 7.19711 15.2499 0
    vertex 4.84148 16.6893 0
  endloop
endfacet
facet normal 0 0 1
  outer loop
    vertex 26.1903 6.99447 0
    vertex 26.1101 4.26445 0
    vertex 28.5125 5.68469 0
  endloop
endfacet
facet normal -0 0 1
  outer loop
    vertex 28.5766 13.8517 0
    vertex 30.9564 12.4756 0
    vertex 30.9576 15.2242 0
  endloop
endfacet
facet normal 0 0 1
  outer loop
    vertex 23.8193 8.3707 0
    vertex 21.449 9.74688 0
    vertex 21.4449 7.0118 0
  endloop
endfacet
facet normal -0 0 1
  outer loop
    vertex 30.9308 17.9233 0
    vertex 33.3287 16.5917 0
    vertex 33.175 19.1423 0
  endloop
endfacet
facet normal 0 0 1
  outer loop
    vertex 27.3333 25 0
    vertex 25.8289 22.7793 0
    vertex 28.6494 22.273 0
  endloop
endfacet
facet normal -0 0 1
  outer loop
    vertex 27.3333 25 0
    vertex 28.6494 22.273 0
    vertex 30.0667 25 0
  endloop
endfacet
facet normal 0 0 1
  outer loop
    vertex 19.0848 16.5924 0
    vertex 16.7171 17.9625 0
    vertex 16.7097 15.2298 0
  endloop
endfacet
facet normal -0 0 1
  outer loop
    vertex 12.3803 22.6879 0
    vertex 13.7592 20.5156 0
    vertex 15.0609 22.7176 0
  endloop
endfacet
facet normal 0 0 1
  outer loop
    vertex 21.4533 15.2222 0
    vertex 23.824 16.5899 0
    vertex 21.4549 17.9589 0
  endloop
endfacet
facet normal -0 0 1
  outer loop
    vertex 21.451 12.4846 0
    vertex 23.8224 11.1108 0
    vertex 23.8243 13.8526 0
  endloop
endfacet
facet normal -0 0 1
  outer loop
    vertex 28.5743 11.1048 0
    vertex 30.953 9.72521 0
    vertex 30.9564 12.4756 0
  endloop
endfacet
facet normal -0 0 1
  outer loop
    vertex 26.199 12.4807 0
    vertex 28.5743 11.1048 0
    vertex 28.5766 13.8517 0
  endloop
endfacet
facet normal 0 -0 1
  outer loop
    vertex 4.80428 13.8755 0
    vertex 4.84148 16.6893 0
    vertex 2.40441 15.2679 0
  endloop
endfacet
facet normal -0 0 1
  outer loop
    vertex 30.953 9.72521 0
    vertex 33.3352 8.34681 0
    vertex 33.3384 11.0993 0
  endloop
endfacet
facet normal -0 0 1
  outer loop
    vertex 21.4549 17.9589 0
    vertex 23.824 16.5899 0
    vertex 24.0899 19.1501 0
  endloop
endfacet
facet normal 0 0 1
  outer loop
    vertex 8.2 0 0
    vertex 10.9333 0 0
    vertex 9.56881 2.45251 0
  endloop
endfacet
facet normal -0 0 1
  outer loop
    vertex 30.0667 25 0
    vertex 31.555 22.7793 0
    vertex 32.8 25 0
  endloop
endfacet
facet normal 0 0 1
  outer loop
    vertex 19.0775 8.38065 0
    vertex 19.0925 5.24018 0
    vertex 21.4449 7.0118 0
  endloop
endfacet
facet normal -0 0 1
  outer loop
    vertex 8.2 25 0
    vertex 9.51432 22.2578 0
    vertex 10.9333 25 0
  endloop
endfacet
facet normal 0 0 1
  outer loop
    vertex 10.9333 25 0
    vertex 9.51432 22.2578 0
    vertex 12.3803 22.6879 0
  endloop
endfacet
facet normal 0 0 1
  outer loop
    vertex 21.451 12.4846 0
    vertex 23.8243 13.8526 0
    vertex 21.4533 15.2222 0
  endloop
endfacet
facet normal 0 0 1
  outer loop
    vertex 26.195 9.73602 0
    vertex 26.1903 6.99447 0
    vertex 28.5643 8.36591 0
  endloop
endfacet
facet normal -0 0 1
  outer loop
    vertex 21.4533 15.2222 0
    vertex 23.8243 13.8526 0
    vertex 23.824 16.5899 0
  endloop
endfacet
facet normal -0 0 1
  outer loop
    vertex 19.0775 8.38065 0
    vertex 21.4449 7.0118 0
    vertex 21.449 9.74688 0
  endloop
endfacet
facet normal 0 0 1
  outer loop
    vertex 23.8243 13.8526 0
    vertex 23.8224 11.1108 0
    vertex 26.199 12.4807 0
  endloop
endfacet
facet normal 0 0 1
  outer loop
    vertex 21.451 12.4846 0
    vertex 21.449 9.74688 0
    vertex 23.8224 11.1108 0
  endloop
endfacet
facet normal -0 0 1
  outer loop
    vertex 19.0794 11.1178 0
    vertex 21.449 9.74688 0
    vertex 21.451 12.4846 0
  endloop
endfacet
facet normal 0 0 1
  outer loop
    vertex 28.5743 11.1048 0
    vertex 30.9564 12.4756 0
    vertex 28.5766 13.8517 0
  endloop
endfacet
facet normal 0 0 1
  outer loop
    vertex 26.199 12.4807 0
    vertex 26.195 9.73602 0
    vertex 28.5743 11.1048 0
  endloop
endfacet
facet normal 0 0 1
  outer loop
    vertex 30.0667 0 0
    vertex 32.8 0 0
    vertex 31.5926 2.56749 0
  endloop
endfacet
facet normal 0 0 1
  outer loop
    vertex 7.1939 12.4947 0
    vertex 7.18957 9.73289 0
    vertex 9.57924 11.1194 0
  endloop
endfacet
facet normal 0 0 1
  outer loop
    vertex 30.9564 12.4756 0
    vertex 30.953 9.72521 0
    vertex 33.3384 11.0993 0
  endloop
endfacet
facet normal -0 0 1
  outer loop
    vertex 26.1903 6.99447 0
    vertex 28.5125 5.68469 0
    vertex 28.5643 8.36591 0
  endloop
endfacet
facet normal 0 0 1
  outer loop
    vertex 9.5825 8.37404 0
    vertex 7.18957 9.73289 0
    vertex 7.20425 6.94878 0
  endloop
endfacet
facet normal 0 0 1
  outer loop
    vertex 30.0667 25 0
    vertex 28.6494 22.273 0
    vertex 31.555 22.7793 0
  endloop
endfacet
facet normal 0 -0 1
  outer loop
    vertex 30.9576 15.2242 0
    vertex 33.3287 16.5917 0
    vertex 30.9308 17.9233 0
  endloop
endfacet
facet normal -0 0 1
  outer loop
    vertex 26.195 9.73602 0
    vertex 28.5643 8.36591 0
    vertex 28.5743 11.1048 0
  endloop
endfacet
facet normal 0 0 1
  outer loop
    vertex 30.9564 12.4756 0
    vertex 33.3122 13.8516 0
    vertex 30.9576 15.2242 0
  endloop
endfacet
facet normal -0 0 1
  outer loop
    vertex 32.8 25 0
    vertex 34.1823 22.8112 0
    vertex 35.5333 25 0
  endloop
endfacet
facet normal 0 0 1
  outer loop
    vertex 33.3352 8.34681 0
    vertex 33.1237 5.24885 0
    vertex 35.7163 6.96703 0
  endloop
endfacet
facet normal 0 0 1
  outer loop
    vertex 9.5825 8.37404 0
    vertex 7.20425 6.94878 0
    vertex 9.58654 5.63036 0
  endloop
endfacet
facet normal 0 0 1
  outer loop
    vertex 32.8 0 0
    vertex 35.5333 0 0
    vertex 34.2127 2.42785 0
  endloop
endfacet
facet normal -0 0 1
  outer loop
    vertex 33.3384 11.0993 0
    vertex 35.7226 9.72132 0
    vertex 35.6124 12.4787 0
  endloop
endfacet
facet normal -0 0 1
  outer loop
    vertex 5.46667 25 0
    vertex 6.6458 22.556 0
    vertex 8.2 25 0
  endloop
endfacet
facet normal 0 0 1
  outer loop
    vertex 33.3384 11.0993 0
    vertex 33.3352 8.34681 0
    vertex 35.7226 9.72132 0
  endloop
endfacet
facet normal 0 -0 1
  outer loop
    vertex 33.3287 16.5917 0
    vertex 35.6718 17.8821 0
    vertex 33.175 19.1423 0
  endloop
endfacet
facet normal 0 0 1
  outer loop
    vertex 2.73333 0 0
    vertex 5.46667 0 0
    vertex 4.41378 2.45899 0
  endloop
endfacet
facet normal -0 0 1
  outer loop
    vertex 35.5333 25 0
    vertex 36.8848 22.6692 0
    vertex 38.2667 25 0
  endloop
endfacet
facet normal 0 0 1
  outer loop
    vertex 35.5333 0 0
    vertex 38.2667 0 0
    vertex 36.8772 2.61005 0
  endloop
endfacet
facet normal -0 0 1
  outer loop
    vertex 30.9576 15.2242 0
    vertex 33.3122 13.8516 0
    vertex 33.3287 16.5917 0
  endloop
endfacet
facet normal 0 0 1
  outer loop
    vertex 32.8 25 0
    vertex 31.555 22.7793 0
    vertex 34.1823 22.8112 0
  endloop
endfacet
facet normal -0 0 1
  outer loop
    vertex 30.9564 12.4756 0
    vertex 33.3384 11.0993 0
    vertex 33.3122 13.8516 0
  endloop
endfacet
facet normal -0 0 1
  outer loop
    vertex 33.3352 8.34681 0
    vertex 35.7163 6.96703 0
    vertex 35.7226 9.72132 0
  endloop
endfacet
facet normal 0 0 1
  outer loop
    vertex 8.2 25 0
    vertex 6.6458 22.556 0
    vertex 9.51432 22.2578 0
  endloop
endfacet
facet normal 0 -0 1
  outer loop
    vertex 32.8 0 0
    vertex 34.2127 2.42785 0
    vertex 31.5926 2.56749 0
  endloop
endfacet
facet normal 0 -0 1
  outer loop
    vertex 33.3384 11.0993 0
    vertex 35.6124 12.4787 0
    vertex 33.3122 13.8516 0
  endloop
endfacet
facet normal 0 0 1
  outer loop
    vertex 35.5333 25 0
    vertex 34.1823 22.8112 0
    vertex 36.8848 22.6692 0
  endloop
endfacet
facet normal 0 -0 1
  outer loop
    vertex 35.5333 0 0
    vertex 36.8772 2.61005 0
    vertex 34.2127 2.42785 0
  endloop
endfacet
facet normal 0 0 1
  outer loop
    vertex 33.3287 16.5917 0
    vertex 33.3122 13.8516 0
    vertex 35.5969 15.2216 0
  endloop
endfacet
facet normal -0 0 1
  outer loop
    vertex 33.3287 16.5917 0
    vertex 35.5969 15.2216 0
    vertex 35.6718 17.8821 0
  endloop
endfacet
facet normal 0 0 1
  outer loop
    vertex 35.6124 12.4787 0
    vertex 35.5969 15.2216 0
    vertex 33.3122 13.8516 0
  endloop
endfacet
facet normal -0 0 1
  outer loop
    vertex 21.8667 25 0
    vertex 23.2007 22.8876 0
    vertex 24.6 25 0
  endloop
endfacet
facet normal 0 0 1
  outer loop
    vertex 2.39084 6.9591 0
    vertex 2.25583 4.25602 0
    vertex 4.67672 5.52223 0
  endloop
endfacet
facet normal 0 0 1
  outer loop
    vertex 31.5926 2.56749 0
    vertex 30.5826 4.68993 0
    vertex 28.6366 2.75043 0
  endloop
endfacet
facet normal 0 0 1
  outer loop
    vertex 24.6 25 0
    vertex 23.2007 22.8876 0
    vertex 25.8289 22.7793 0
  endloop
endfacet
facet normal 0 0 1
  outer loop
    vertex 0 2.77778 0
    vertex 2.25583 4.25602 0
    vertex 0 5.55556 0
  endloop
endfacet
facet normal 0 -0 1
  outer loop
    vertex 41 19.4444 0
    vertex 41 22.2222 0
    vertex 38.5731 20.96 0
  endloop
endfacet
facet normal 0 -0 1
  outer loop
    vertex 41 2.77778 0
    vertex 41 5.55556 0
    vertex 39.042 4.24569 0
  endloop
endfacet
facet normal -0 0 1
  outer loop
    vertex 2.73333 25 0
    vertex 4.03893 22.6961 0
    vertex 5.46667 25 0
  endloop
endfacet
facet normal 0 0 1
  outer loop
    vertex 15.0609 22.7176 0
    vertex 13.7592 20.5156 0
    vertex 16.6709 20.4652 0
  endloop
endfacet
facet normal 0 0 1
  outer loop
    vertex 21.8667 25 0
    vertex 20.5077 22.95 0
    vertex 23.2007 22.8876 0
  endloop
endfacet
facet normal 0 0 1
  outer loop
    vertex 9.56881 2.45251 0
    vertex 7.05054 4.0969 0
    vertex 6.83333 1.79102 0
  endloop
endfacet
facet normal 0 0 1
  outer loop
    vertex 16.6867 7.045 0
    vertex 16.5542 4.57868 0
    vertex 19.0925 5.24018 0
  endloop
endfacet
facet normal 0 0 1
  outer loop
    vertex 19.1333 25 0
    vertex 17.8146 22.8479 0
    vertex 20.5077 22.95 0
  endloop
endfacet
facet normal 0 -0 1
  outer loop
    vertex 21.7738 20.6746 0
    vertex 23.2007 22.8876 0
    vertex 20.5077 22.95 0
  endloop
endfacet
facet normal 0 -0 1
  outer loop
    vertex 7.23215 17.9578 0
    vertex 7.50135 20.3475 0
    vertex 5.02507 19.8127 0
  endloop
endfacet
facet normal -0 0 1
  outer loop
    vertex 19.0925 5.24018 0
    vertex 21.6309 4.60262 0
    vertex 21.4449 7.0118 0
  endloop
endfacet
facet normal -0 0 1
  outer loop
    vertex 0 5.55556 0
    vertex 2.25583 4.25602 0
    vertex 2.39084 6.9591 0
  endloop
endfacet
facet normal 0 0 1
  outer loop
    vertex 41 19.4444 0
    vertex 38.5731 20.96 0
    vertex 38.3872 18.1156 0
  endloop
endfacet
facet normal 0 0 1
  outer loop
    vertex 41 5.55556 0
    vertex 38.7118 6.95111 0
    vertex 39.042 4.24569 0
  endloop
endfacet
facet normal 0 0 1
  outer loop
    vertex 12.253 18.1608 0
    vertex 14.7929 18.5857 0
    vertex 13.7592 20.5156 0
  endloop
endfacet
facet normal 0 0 1
  outer loop
    vertex 23.5257 2.6402 0
    vertex 21.6309 4.60262 0
    vertex 20.5 2.36714 0
  endloop
endfacet
facet normal 0 0 1
  outer loop
    vertex 30.9151 7.0291 0
    vertex 30.5826 4.68993 0
    vertex 33.1237 5.24885 0
  endloop
endfacet
facet normal 0 0 1
  outer loop
    vertex 5.46667 25 0
    vertex 4.03893 22.6961 0
    vertex 6.6458 22.556 0
  endloop
endfacet
facet normal 0 0 1
  outer loop
    vertex 17.8146 22.8479 0
    vertex 16.6709 20.4652 0
    vertex 19.3073 21.3323 0
  endloop
endfacet
facet normal 0 -0 1
  outer loop
    vertex 26.2383 17.9099 0
    vertex 26.4033 20.3421 0
    vertex 24.0899 19.1501 0
  endloop
endfacet
facet normal 0 -0 1
  outer loop
    vertex 30.9308 17.9233 0
    vertex 33.175 19.1423 0
    vertex 30.8687 20.3831 0
  endloop
endfacet
facet normal 0 -0 1
  outer loop
    vertex 13.6667 0 0
    vertex 14.6897 2.64192 0
    vertex 12.3 1.92548 0
  endloop
endfacet
facet normal 0 -0 1
  outer loop
    vertex 10.9333 0 0
    vertex 12.3 1.92548 0
    vertex 9.56881 2.45251 0
  endloop
endfacet
facet normal 0 -0 1
  outer loop
    vertex 24.6 0 0
    vertex 26.0047 1.94882 0
    vertex 23.5257 2.6402 0
  endloop
endfacet
facet normal 0 0 1
  outer loop
    vertex 28.5125 5.68469 0
    vertex 28.6366 2.75043 0
    vertex 30.5826 4.68993 0
  endloop
endfacet
facet normal 0 0 1
  outer loop
    vertex 26.1101 4.26445 0
    vertex 26.0047 1.94882 0
    vertex 28.6366 2.75043 0
  endloop
endfacet
facet normal 0 0 1
  outer loop
    vertex 0 25 0
    vertex 0 22.2222 0
    vertex 2.03101 22.9574 0
  endloop
endfacet
facet normal -0 0 1
  outer loop
    vertex 0 25 0
    vertex 2.03101 22.9574 0
    vertex 2.73333 25 0
  endloop
endfacet
facet normal -0 0 1
  outer loop
    vertex 14.6897 2.64192 0
    vertex 17.7667 2.36714 0
    vertex 16.5542 4.57868 0
  endloop
endfacet
facet normal 0 -0 1
  outer loop
    vertex 8.2 0 0
    vertex 9.56881 2.45251 0
    vertex 6.83333 1.79102 0
  endloop
endfacet
facet normal 0 -0 1
  outer loop
    vertex 5.46667 0 0
    vertex 6.83333 1.79102 0
    vertex 4.41378 2.45899 0
  endloop
endfacet
facet normal 0 0 1
  outer loop
    vertex 12.3803 22.6879 0
    vertex 9.51432 22.2578 0
    vertex 11.4943 20.5782 0
  endloop
endfacet
facet normal -0 0 1
  outer loop
    vertex 12.253 18.1608 0
    vertex 14.3315 16.6164 0
    vertex 14.7929 18.5857 0
  endloop
endfacet
facet normal 0 0 1
  outer loop
    vertex 17.8146 22.8479 0
    vertex 15.0609 22.7176 0
    vertex 16.6709 20.4652 0
  endloop
endfacet
facet normal 0 0 1
  outer loop
    vertex 0 0 0
    vertex 1.99321 2.0054 0
    vertex 0 2.77778 0
  endloop
endfacet
facet normal 0 0 1
  outer loop
    vertex 41 25 0
    vertex 39.123 23.1159 0
    vertex 41 22.2222 0
  endloop
endfacet
facet normal 0 -0 1
  outer loop
    vertex 41 0 0
    vertex 41 2.77778 0
    vertex 39.0068 2.0054 0
  endloop
endfacet
facet normal 0 0 1
  outer loop
    vertex 0 0 0
    vertex 2.73333 0 0
    vertex 1.99321 2.0054 0
  endloop
endfacet
facet normal 0 0 1
  outer loop
    vertex 41 25 0
    vertex 38.2667 25 0
    vertex 39.123 23.1159 0
  endloop
endfacet
facet normal 0 0 1
  outer loop
    vertex 41 0 0
    vertex 39.0068 2.0054 0
    vertex 38.2667 0 0
  endloop
endfacet
facet normal 0 0 1
  outer loop
    vertex 36.8848 22.6692 0
    vertex 34.1823 22.8112 0
    vertex 35.5846 20.4856 0
  endloop
endfacet
facet normal 0 -0 1
  outer loop
    vertex 12.253 18.1608 0
    vertex 13.7592 20.5156 0
    vertex 11.4943 20.5782 0
  endloop
endfacet
facet normal -0 0 1
  outer loop
    vertex 33.175 19.1423 0
    vertex 35.6718 17.8821 0
    vertex 35.5846 20.4856 0
  endloop
endfacet
facet normal 0 0 1
  outer loop
    vertex 36.8772 2.61005 0
    vertex 35.3246 4.60131 0
    vertex 34.2127 2.42785 0
  endloop
endfacet
facet normal 0 0 1
  outer loop
    vertex 16.6867 7.045 0
    vertex 14.3331 5.6342 0
    vertex 16.5542 4.57868 0
  endloop
endfacet
facet normal -0 0 1
  outer loop
    vertex 33.1237 5.24885 0
    vertex 35.3246 4.60131 0
    vertex 35.7163 6.96703 0
  endloop
endfacet
facet normal 0 0 1
  outer loop
    vertex 23.8153 5.62729 0
    vertex 21.4449 7.0118 0
    vertex 21.6309 4.60262 0
  endloop
endfacet
facet normal -0 0 1
  outer loop
    vertex 19.1333 25 0
    vertex 20.5077 22.95 0
    vertex 21.8667 25 0
  endloop
endfacet
facet normal -0 0 1
  outer loop
    vertex 9.56079 19.3558 0
    vertex 12.253 18.1608 0
    vertex 11.4943 20.5782 0
  endloop
endfacet
facet normal 0 0 1
  outer loop
    vertex 34.1823 22.8112 0
    vertex 32.8 21.2298 0
    vertex 35.5846 20.4856 0
  endloop
endfacet
facet normal 0 -0 1
  outer loop
    vertex 33.175 19.1423 0
    vertex 35.5846 20.4856 0
    vertex 32.8 21.2298 0
  endloop
endfacet
facet normal 0 0 1
  outer loop
    vertex 30.9308 17.9233 0
    vertex 30.8687 20.3831 0
    vertex 28.5899 19.2896 0
  endloop
endfacet
facet normal 0 0 1
  outer loop
    vertex 30.9151 7.0291 0
    vertex 28.5125 5.68469 0
    vertex 30.5826 4.68993 0
  endloop
endfacet
facet normal 0 0 1
  outer loop
    vertex 10.9333 0 0
    vertex 13.6667 0 0
    vertex 12.3 1.92548 0
  endloop
endfacet
facet normal 0 0 1
  outer loop
    vertex 28.5899 19.2896 0
    vertex 26.4033 20.3421 0
    vertex 26.2383 17.9099 0
  endloop
endfacet
facet normal 0 0 1
  outer loop
    vertex 7.23215 17.9578 0
    vertex 9.56079 19.3558 0
    vertex 7.50135 20.3475 0
  endloop
endfacet
facet normal 0 0 1
  outer loop
    vertex 24.6 0 0
    vertex 27.3333 0 0
    vertex 26.0047 1.94882 0
  endloop
endfacet
facet normal 0 0 1
  outer loop
    vertex 13.7592 20.5156 0
    vertex 14.7929 18.5857 0
    vertex 16.6709 20.4652 0
  endloop
endfacet
facet normal 0 0 1
  outer loop
    vertex 38.3872 18.1156 0
    vertex 35.6718 17.8821 0
    vertex 37.1298 16.5956 0
  endloop
endfacet
facet normal 0 0 1
  outer loop
    vertex 5.46667 0 0
    vertex 8.2 0 0
    vertex 6.83333 1.79102 0
  endloop
endfacet
facet normal -0 0 1
  outer loop
    vertex 0 2.77778 0
    vertex 1.99321 2.0054 0
    vertex 2.25583 4.25602 0
  endloop
endfacet
facet normal 0 0 1
  outer loop
    vertex 41 22.2222 0
    vertex 39.123 23.1159 0
    vertex 38.5731 20.96 0
  endloop
endfacet
facet normal 0 0 1
  outer loop
    vertex 41 2.77778 0
    vertex 39.042 4.24569 0
    vertex 39.0068 2.0054 0
  endloop
endfacet
facet normal 0 0 1
  outer loop
    vertex 12.3803 22.6879 0
    vertex 11.4943 20.5782 0
    vertex 13.7592 20.5156 0
  endloop
endfacet
facet normal 0 0 1
  outer loop
    vertex 24.0899 19.1501 0
    vertex 26.4033 20.3421 0
    vertex 24.181 21.1338 0
  endloop
endfacet
facet normal 0 0 1
  outer loop
    vertex 33.175 19.1423 0
    vertex 32.8 21.2298 0
    vertex 30.8687 20.3831 0
  endloop
endfacet
facet normal 0 0 1
  outer loop
    vertex 2.73333 25 0
    vertex 2.03101 22.9574 0
    vertex 4.03893 22.6961 0
  endloop
endfacet
facet normal -0 0 1
  outer loop
    vertex 0 22.2222 0
    vertex 2.29867 20.8101 0
    vertex 2.03101 22.9574 0
  endloop
endfacet
facet normal 0 0 1
  outer loop
    vertex 19.0283 19.2074 0
    vertex 21.7738 20.6746 0
    vertex 19.3073 21.3323 0
  endloop
endfacet
facet normal 0 -0 1
  outer loop
    vertex 2.73333 0 0
    vertex 4.41378 2.45899 0
    vertex 1.99321 2.0054 0
  endloop
endfacet
facet normal 0 0 1
  outer loop
    vertex 38.2667 25 0
    vertex 36.8848 22.6692 0
    vertex 39.123 23.1159 0
  endloop
endfacet
facet normal 0 -0 1
  outer loop
    vertex 38.2667 0 0
    vertex 39.0068 2.0054 0
    vertex 36.8772 2.61005 0
  endloop
endfacet
facet normal -0 0 1
  outer loop
    vertex 17.8146 22.8479 0
    vertex 19.3073 21.3323 0
    vertex 20.5077 22.95 0
  endloop
endfacet
facet normal 0 0 1
  outer loop
    vertex 38.7068 12.4988 0
    vertex 38.5965 15.2815 0
    vertex 37.1498 13.8574 0
  endloop
endfacet
facet normal 0 -0 1
  outer loop
    vertex 38.7118 6.95111 0
    vertex 38.765 9.72416 0
    vertex 37.1609 8.34088 0
  endloop
endfacet
facet normal 0 0 1
  outer loop
    vertex 4.41378 2.45899 0
    vertex 2.25583 4.25602 0
    vertex 1.99321 2.0054 0
  endloop
endfacet
facet normal -0 0 1
  outer loop
    vertex 36.8848 22.6692 0
    vertex 38.5731 20.96 0
    vertex 39.123 23.1159 0
  endloop
endfacet
facet normal -0 0 1
  outer loop
    vertex 36.8772 2.61005 0
    vertex 39.0068 2.0054 0
    vertex 39.042 4.24569 0
  endloop
endfacet
facet normal 0 0 1
  outer loop
    vertex 16.7171 17.9625 0
    vertex 16.6709 20.4652 0
    vertex 14.7929 18.5857 0
  endloop
endfacet
facet normal 0 0 1
  outer loop
    vertex 38.3872 18.1156 0
    vertex 37.1298 16.5956 0
    vertex 38.5965 15.2815 0
  endloop
endfacet
facet normal 0 0 1
  outer loop
    vertex 16.7171 17.9625 0
    vertex 14.7929 18.5857 0
    vertex 14.3315 16.6164 0
  endloop
endfacet
facet normal 0 0 1
  outer loop
    vertex 38.7068 12.4988 0
    vertex 37.1712 11.1015 0
    vertex 38.765 9.72416 0
  endloop
endfacet
facet normal -0 0 1
  outer loop
    vertex 35.7163 6.96703 0
    vertex 37.1826 5.58177 0
    vertex 37.1609 8.34088 0
  endloop
endfacet
facet normal 0 -0 1
  outer loop
    vertex 35.7226 9.72132 0
    vertex 37.1712 11.1015 0
    vertex 35.6124 12.4787 0
  endloop
endfacet
facet normal -0 0 1
  outer loop
    vertex 35.7226 9.72132 0
    vertex 37.1609 8.34088 0
    vertex 37.1712 11.1015 0
  endloop
endfacet
facet normal 0 0 1
  outer loop
    vertex 38.7118 6.95111 0
    vertex 37.1609 8.34088 0
    vertex 37.1826 5.58177 0
  endloop
endfacet
facet normal 0 0 1
  outer loop
    vertex 35.7226 9.72132 0
    vertex 35.7163 6.96703 0
    vertex 37.1609 8.34088 0
  endloop
endfacet
facet normal -0 0 1
  outer loop
    vertex 35.6124 12.4787 0
    vertex 37.1712 11.1015 0
    vertex 37.1498 13.8574 0
  endloop
endfacet
facet normal 0 0 1
  outer loop
    vertex 38.765 9.72416 0
    vertex 37.1712 11.1015 0
    vertex 37.1609 8.34088 0
  endloop
endfacet
facet normal -0 0 1
  outer loop
    vertex 31.555 22.7793 0
    vertex 32.8 21.2298 0
    vertex 34.1823 22.8112 0
  endloop
endfacet
facet normal 0 0 1
  outer loop
    vertex 38.7068 12.4988 0
    vertex 37.1498 13.8574 0
    vertex 37.1712 11.1015 0
  endloop
endfacet
facet normal 0 0 1
  outer loop
    vertex 35.6718 17.8821 0
    vertex 35.5969 15.2216 0
    vertex 37.1298 16.5956 0
  endloop
endfacet
facet normal 0 -0 1
  outer loop
    vertex 35.6124 12.4787 0
    vertex 37.1498 13.8574 0
    vertex 35.5969 15.2216 0
  endloop
endfacet
facet normal 0 0 1
  outer loop
    vertex 38.5965 15.2815 0
    vertex 37.1298 16.5956 0
    vertex 37.1498 13.8574 0
  endloop
endfacet
facet normal -0 0 1
  outer loop
    vertex 35.5969 15.2216 0
    vertex 37.1498 13.8574 0
    vertex 37.1298 16.5956 0
  endloop
endfacet
facet normal 0 -0 1
  outer loop
    vertex 2.29867 20.8101 0
    vertex 4.03893 22.6961 0
    vertex 2.03101 22.9574 0
  endloop
endfacet
facet normal 0 0 1
  outer loop
    vertex 25.8289 22.7793 0
    vertex 23.2007 22.8876 0
    vertex 24.181 21.1338 0
  endloop
endfacet
facet normal 0 0 1
  outer loop
    vertex 38.7118 6.95111 0
    vertex 37.1826 5.58177 0
    vertex 39.042 4.24569 0
  endloop
endfacet
facet normal 0 0 1
  outer loop
    vertex 21.7738 20.6746 0
    vertex 20.5077 22.95 0
    vertex 19.3073 21.3323 0
  endloop
endfacet
facet normal 0 0 1
  outer loop
    vertex 31.555 22.7793 0
    vertex 30.8687 20.3831 0
    vertex 32.8 21.2298 0
  endloop
endfacet
facet normal 0 0 1
  outer loop
    vertex 35.7163 6.96703 0
    vertex 35.3246 4.60131 0
    vertex 37.1826 5.58177 0
  endloop
endfacet
facet normal 0 0 1
  outer loop
    vertex 25.8289 22.7793 0
    vertex 24.181 21.1338 0
    vertex 26.4033 20.3421 0
  endloop
endfacet
endsolid Created by Gmsh
