solid Created by Gmsh
facet normal 0 0 -1
  outer loop
    vertex 31.5926 2.56749 50
    vertex 33.1237 5.24885 50
    vertex 34.2127 2.42785 50
  endloop
endfacet
facet normal 0 0 -1
  outer loop
    vertex 38.3872 18.1156 50
    vertex 35.5846 20.4856 50
    vertex 38.5731 20.96 50
  endloop
endfacet
facet normal 0 -0 -1
  outer loop
    vertex 19.0925 5.24018 50
    vertex 20.5 2.36714 50
    vertex 17.7667 2.36714 50
  endloop
endfacet
facet normal -0 0 -1
  outer loop
    vertex 6.6458 22.556 50
    vertex 5.02507 19.8127 50
    vertex 4.03893 22.6961 50
  endloop
endfacet
facet normal -0 0 -1
  outer loop
    vertex 38.3872 18.1156 50
    vertex 35.6718 17.8821 50
    vertex 35.5846 20.4856 50
  endloop
endfacet
facet normal 0 0 -1
  outer loop
    vertex 14.6897 2.64192 50
    vertex 11.9959 4.24859 50
    vertex 14.3331 5.6342 50
  endloop
endfacet
facet normal 0 -0 -1
  outer loop
    vertex 6.6458 22.556 50
    vertex 7.50135 20.3475 50
    vertex 5.02507 19.8127 50
  endloop
endfacet
facet normal 0 0 -1
  outer loop
    vertex 31.5926 2.56749 50
    vertex 30.5826 4.68993 50
    vertex 33.1237 5.24885 50
  endloop
endfacet
facet normal 0 0 -1
  outer loop
    vertex 23.5257 2.6402 50
    vertex 23.8153 5.62729 50
    vertex 26.1101 4.26445 50
  endloop
endfacet
facet normal 0 0 -1
  outer loop
    vertex 4.41378 2.45899 50
    vertex 4.67672 5.52223 50
    vertex 7.05054 4.0969 50
  endloop
endfacet
facet normal -0 0 -1
  outer loop
    vertex 14.6897 2.64192 50
    vertex 12.3 1.92548 50
    vertex 11.9959 4.24859 50
  endloop
endfacet
facet normal 0 0 -1
  outer loop
    vertex 19.0925 5.24018 50
    vertex 21.6309 4.60262 50
    vertex 20.5 2.36714 50
  endloop
endfacet
facet normal 0 0 -1
  outer loop
    vertex 19.0925 5.24018 50
    vertex 17.7667 2.36714 50
    vertex 16.5542 4.57868 50
  endloop
endfacet
facet normal 0 0 -1
  outer loop
    vertex 27.3333 0 50
    vertex 28.6366 2.75043 50
    vertex 30.0667 0 50
  endloop
endfacet
facet normal 0 0 -1
  outer loop
    vertex 23.5257 2.6402 50
    vertex 26.1101 4.26445 50
    vertex 26.0047 1.94882 50
  endloop
endfacet
facet normal 0 0 -1
  outer loop
    vertex 9.56881 2.45251 50
    vertex 9.58654 5.63036 50
    vertex 11.9959 4.24859 50
  endloop
endfacet
facet normal 0 0 -1
  outer loop
    vertex 4.41378 2.45899 50
    vertex 7.05054 4.0969 50
    vertex 6.83333 1.79102 50
  endloop
endfacet
facet normal 0 0 -1
  outer loop
    vertex 28.5899 19.2896 50
    vertex 26.4033 20.3421 50
    vertex 28.6494 22.273 50
  endloop
endfacet
facet normal 0 0 -1
  outer loop
    vertex 9.56881 2.45251 50
    vertex 7.05054 4.0969 50
    vertex 9.58654 5.63036 50
  endloop
endfacet
facet normal 0 0 -1
  outer loop
    vertex 30.0667 0 50
    vertex 28.6366 2.75043 50
    vertex 31.5926 2.56749 50
  endloop
endfacet
facet normal 0 0 -1
  outer loop
    vertex 28.5899 19.2896 50
    vertex 28.6494 22.273 50
    vertex 30.8687 20.3831 50
  endloop
endfacet
facet normal 0 0 -1
  outer loop
    vertex 9.56079 19.3558 50
    vertex 7.50135 20.3475 50
    vertex 9.51432 22.2578 50
  endloop
endfacet
facet normal 0 0 -1
  outer loop
    vertex 2.29867 20.8101 50
    vertex 4.03893 22.6961 50
    vertex 5.02507 19.8127 50
  endloop
endfacet
facet normal 0 0 -1
  outer loop
    vertex 14.6897 2.64192 50
    vertex 14.3331 5.6342 50
    vertex 16.5542 4.57868 50
  endloop
endfacet
facet normal 0 0 -1
  outer loop
    vertex 23.5257 2.6402 50
    vertex 21.6309 4.60262 50
    vertex 23.8153 5.62729 50
  endloop
endfacet
facet normal 0 0 -1
  outer loop
    vertex 4.41378 2.45899 50
    vertex 2.25583 4.25602 50
    vertex 4.67672 5.52223 50
  endloop
endfacet
facet normal 0 0 -1
  outer loop
    vertex 33.1237 5.24885 50
    vertex 35.3246 4.60131 50
    vertex 34.2127 2.42785 50
  endloop
endfacet
facet normal 0 0 -1
  outer loop
    vertex 9.56079 19.3558 50
    vertex 9.51432 22.2578 50
    vertex 11.4943 20.5782 50
  endloop
endfacet
facet normal -0 0 -1
  outer loop
    vertex 9.58654 5.63036 50
    vertex 7.05054 4.0969 50
    vertex 7.20425 6.94878 50
  endloop
endfacet
facet normal 0 0 -1
  outer loop
    vertex 25.8289 22.7793 50
    vertex 28.6494 22.273 50
    vertex 26.4033 20.3421 50
  endloop
endfacet
facet normal 0 0 -1
  outer loop
    vertex 7.20425 6.94878 50
    vertex 7.05054 4.0969 50
    vertex 4.67672 5.52223 50
  endloop
endfacet
facet normal 0 0 -1
  outer loop
    vertex 27.3333 0 50
    vertex 26.0047 1.94882 50
    vertex 28.6366 2.75043 50
  endloop
endfacet
facet normal 0 0 -1
  outer loop
    vertex 6.6458 22.556 50
    vertex 9.51432 22.2578 50
    vertex 7.50135 20.3475 50
  endloop
endfacet
facet normal -0 0 -1
  outer loop
    vertex 7.20425 6.94878 50
    vertex 4.67672 5.52223 50
    vertex 4.78085 8.33744 50
  endloop
endfacet
facet normal 0 0 -1
  outer loop
    vertex 2.39084 6.9591 50
    vertex 4.78085 8.33744 50
    vertex 4.67672 5.52223 50
  endloop
endfacet
facet normal 0 0 -1
  outer loop
    vertex 21.7738 20.6746 50
    vertex 24.181 21.1338 50
    vertex 24.0899 19.1501 50
  endloop
endfacet
facet normal 0 0 -1
  outer loop
    vertex 36.8772 2.61005 50
    vertex 35.3246 4.60131 50
    vertex 37.1826 5.58177 50
  endloop
endfacet
facet normal 0 -0 -1
  outer loop
    vertex 36.8848 22.6692 50
    vertex 38.5731 20.96 50
    vertex 35.5846 20.4856 50
  endloop
endfacet
facet normal 0 0 -1
  outer loop
    vertex 36.8772 2.61005 50
    vertex 37.1826 5.58177 50
    vertex 39.042 4.24569 50
  endloop
endfacet
facet normal 0 0 -1
  outer loop
    vertex 21.7738 20.6746 50
    vertex 23.2007 22.8876 50
    vertex 24.181 21.1338 50
  endloop
endfacet
facet normal 0 0 -1
  outer loop
    vertex 31.555 22.7793 50
    vertex 30.8687 20.3831 50
    vertex 28.6494 22.273 50
  endloop
endfacet
facet normal -0 0 -1
  outer loop
    vertex 7.23215 17.9578 50
    vertex 4.84148 16.6893 50
    vertex 5.02507 19.8127 50
  endloop
endfacet
facet normal 0 0 -1
  outer loop
    vertex 9.56881 2.45251 50
    vertex 11.9959 4.24859 50
    vertex 12.3 1.92548 50
  endloop
endfacet
facet normal 0 0 -1
  outer loop
    vertex 2.40243 18.0483 50
    vertex 5.02507 19.8127 50
    vertex 4.84148 16.6893 50
  endloop
endfacet
facet normal 0 0 -1
  outer loop
    vertex 2.40243 18.0483 50
    vertex 4.84148 16.6893 50
    vertex 2.40441 15.2679 50
  endloop
endfacet
facet normal 0 0 -1
  outer loop
    vertex 0 16.6667 50
    vertex 2.40243 18.0483 50
    vertex 2.40441 15.2679 50
  endloop
endfacet
facet normal -0 0 -1
  outer loop
    vertex 19.0283 19.2074 50
    vertex 16.7171 17.9625 50
    vertex 16.6709 20.4652 50
  endloop
endfacet
facet normal 0 0 -1
  outer loop
    vertex 14.3354 13.8651 50
    vertex 14.3315 16.6164 50
    vertex 16.7097 15.2298 50
  endloop
endfacet
facet normal 0 0 -1
  outer loop
    vertex 19.0283 19.2074 50
    vertex 16.6709 20.4652 50
    vertex 19.3073 21.3323 50
  endloop
endfacet
facet normal 0 0 -1
  outer loop
    vertex 7.20425 6.94878 50
    vertex 4.78085 8.33744 50
    vertex 7.18957 9.73289 50
  endloop
endfacet
facet normal 0 -0 -1
  outer loop
    vertex 4.8028 11.1111 50
    vertex 7.18957 9.73289 50
    vertex 4.78085 8.33744 50
  endloop
endfacet
facet normal 0 0 -1
  outer loop
    vertex 11.9582 12.494 50
    vertex 11.9968 15.2676 50
    vertex 14.3354 13.8651 50
  endloop
endfacet
facet normal 0 0 -1
  outer loop
    vertex 14.3354 13.8651 50
    vertex 11.9968 15.2676 50
    vertex 14.3315 16.6164 50
  endloop
endfacet
facet normal 0 0 -1
  outer loop
    vertex 2.39084 6.9591 50
    vertex 2.40013 9.72655 50
    vertex 4.78085 8.33744 50
  endloop
endfacet
facet normal 0 0 -1
  outer loop
    vertex 0 8.33333 50
    vertex 2.40013 9.72655 50
    vertex 2.39084 6.9591 50
  endloop
endfacet
facet normal 0 0 -1
  outer loop
    vertex 0 13.8889 50
    vertex 0 16.6667 50
    vertex 2.40441 15.2679 50
  endloop
endfacet
facet normal -0 0 -1
  outer loop
    vertex 41 8.33333 50
    vertex 38.7118 6.95111 50
    vertex 38.765 9.72416 50
  endloop
endfacet
facet normal 0 0 -1
  outer loop
    vertex 2.40243 18.0483 50
    vertex 2.29867 20.8101 50
    vertex 5.02507 19.8127 50
  endloop
endfacet
facet normal 0 0 -1
  outer loop
    vertex 16.7171 17.9625 50
    vertex 16.7097 15.2298 50
    vertex 14.3315 16.6164 50
  endloop
endfacet
facet normal -0 0 -1
  outer loop
    vertex 16.6867 7.045 50
    vertex 14.3331 5.6342 50
    vertex 14.3312 8.38345 50
  endloop
endfacet
facet normal -0 0 -1
  outer loop
    vertex 41 13.8889 50
    vertex 38.7068 12.4988 50
    vertex 38.5965 15.2815 50
  endloop
endfacet
facet normal 0 0 -1
  outer loop
    vertex 30.953 9.72521 50
    vertex 30.9151 7.0291 50
    vertex 28.5643 8.36591 50
  endloop
endfacet
facet normal 0 0 -1
  outer loop
    vertex 9.58052 13.87 50
    vertex 11.9968 15.2676 50
    vertex 11.9582 12.494 50
  endloop
endfacet
facet normal 0 0 -1
  outer loop
    vertex 4.8028 11.1111 50
    vertex 4.80428 13.8755 50
    vertex 7.1939 12.4947 50
  endloop
endfacet
facet normal 0 -0 -1
  outer loop
    vertex 2.40381 12.4973 50
    vertex 4.8028 11.1111 50
    vertex 2.40013 9.72655 50
  endloop
endfacet
facet normal 0 0 -1
  outer loop
    vertex 11.9593 7.00458 50
    vertex 14.3312 8.38345 50
    vertex 14.3331 5.6342 50
  endloop
endfacet
facet normal 0 0 -1
  outer loop
    vertex 4.80428 13.8755 50
    vertex 7.19711 15.2499 50
    vertex 7.1939 12.4947 50
  endloop
endfacet
facet normal 0 0 -1
  outer loop
    vertex 23.8243 13.8526 50
    vertex 26.2051 15.2176 50
    vertex 26.199 12.4807 50
  endloop
endfacet
facet normal -0 0 -1
  outer loop
    vertex 26.2383 17.9099 50
    vertex 23.824 16.5899 50
    vertex 24.0899 19.1501 50
  endloop
endfacet
facet normal 0 0 -1
  outer loop
    vertex 0 19.4444 50
    vertex 2.29867 20.8101 50
    vertex 2.40243 18.0483 50
  endloop
endfacet
facet normal 0 0 -1
  outer loop
    vertex 26.2383 17.9099 50
    vertex 26.2051 15.2176 50
    vertex 23.824 16.5899 50
  endloop
endfacet
facet normal -0 0 -1
  outer loop
    vertex 30.9151 7.0291 50
    vertex 28.5125 5.68469 50
    vertex 28.5643 8.36591 50
  endloop
endfacet
facet normal 0 0 -1
  outer loop
    vertex 2.40381 12.4973 50
    vertex 4.80428 13.8755 50
    vertex 4.8028 11.1111 50
  endloop
endfacet
facet normal 0 0 -1
  outer loop
    vertex 26.199 12.4807 50
    vertex 26.2051 15.2176 50
    vertex 28.5766 13.8517 50
  endloop
endfacet
facet normal 0 0 -1
  outer loop
    vertex 7.1939 12.4947 50
    vertex 7.19711 15.2499 50
    vertex 9.58052 13.87 50
  endloop
endfacet
facet normal 0 -0 -1
  outer loop
    vertex 9.58052 13.87 50
    vertex 11.9582 12.494 50
    vertex 9.57924 11.1194 50
  endloop
endfacet
facet normal 0 0 -1
  outer loop
    vertex 0 11.1111 50
    vertex 2.40381 12.4973 50
    vertex 2.40013 9.72655 50
  endloop
endfacet
facet normal -0 0 -1
  outer loop
    vertex 41 16.6667 50
    vertex 38.5965 15.2815 50
    vertex 38.3872 18.1156 50
  endloop
endfacet
facet normal 0 0 -1
  outer loop
    vertex 7.19711 15.2499 50
    vertex 9.58181 16.6214 50
    vertex 9.58052 13.87 50
  endloop
endfacet
facet normal 0 0 -1
  outer loop
    vertex 0 5.55556 50
    vertex 0 8.33333 50
    vertex 2.39084 6.9591 50
  endloop
endfacet
facet normal -0 0 -1
  outer loop
    vertex 41 11.1111 50
    vertex 38.765 9.72416 50
    vertex 38.7068 12.4988 50
  endloop
endfacet
facet normal 0 0 -1
  outer loop
    vertex 41 16.6667 50
    vertex 38.3872 18.1156 50
    vertex 41 19.4444 50
  endloop
endfacet
facet normal 0 0 -1
  outer loop
    vertex 9.58181 16.6214 50
    vertex 9.56079 19.3558 50
    vertex 12.253 18.1608 50
  endloop
endfacet
facet normal 0 0 -1
  outer loop
    vertex 0 16.6667 50
    vertex 0 19.4444 50
    vertex 2.40243 18.0483 50
  endloop
endfacet
facet normal 0 0 -1
  outer loop
    vertex 41 5.55556 50
    vertex 38.7118 6.95111 50
    vertex 41 8.33333 50
  endloop
endfacet
facet normal 0 0 -1
  outer loop
    vertex 9.57924 11.1194 50
    vertex 11.9582 12.494 50
    vertex 11.9591 9.7469 50
  endloop
endfacet
facet normal 0 0 -1
  outer loop
    vertex 7.1939 12.4947 50
    vertex 9.58052 13.87 50
    vertex 9.57924 11.1194 50
  endloop
endfacet
facet normal 0 0 -1
  outer loop
    vertex 0 11.1111 50
    vertex 0 13.8889 50
    vertex 2.40381 12.4973 50
  endloop
endfacet
facet normal 0 0 -1
  outer loop
    vertex 11.9591 9.7469 50
    vertex 14.3312 8.38345 50
    vertex 11.9593 7.00458 50
  endloop
endfacet
facet normal 0 0 -1
  outer loop
    vertex 9.58181 16.6214 50
    vertex 7.23215 17.9578 50
    vertex 9.56079 19.3558 50
  endloop
endfacet
facet normal 0 0 -1
  outer loop
    vertex 28.5806 16.5998 50
    vertex 28.5899 19.2896 50
    vertex 30.9308 17.9233 50
  endloop
endfacet
facet normal 0 0 -1
  outer loop
    vertex 0 19.4444 50
    vertex 0 22.2222 50
    vertex 2.29867 20.8101 50
  endloop
endfacet
facet normal 0 -0 -1
  outer loop
    vertex 30.953 9.72521 50
    vertex 33.3352 8.34681 50
    vertex 30.9151 7.0291 50
  endloop
endfacet
facet normal 0 0 -1
  outer loop
    vertex 41 11.1111 50
    vertex 38.7068 12.4988 50
    vertex 41 13.8889 50
  endloop
endfacet
facet normal 0 0 -1
  outer loop
    vertex 28.5806 16.5998 50
    vertex 26.2383 17.9099 50
    vertex 28.5899 19.2896 50
  endloop
endfacet
facet normal 0 0 -1
  outer loop
    vertex 28.5766 13.8517 50
    vertex 28.5806 16.5998 50
    vertex 30.9576 15.2242 50
  endloop
endfacet
facet normal 0 0 -1
  outer loop
    vertex 11.9582 12.494 50
    vertex 14.3345 11.12 50
    vertex 11.9591 9.7469 50
  endloop
endfacet
facet normal 0 0 -1
  outer loop
    vertex 0 8.33333 50
    vertex 0 11.1111 50
    vertex 2.40013 9.72655 50
  endloop
endfacet
facet normal 0 -0 -1
  outer loop
    vertex 11.9593 7.00458 50
    vertex 11.9959 4.24859 50
    vertex 9.58654 5.63036 50
  endloop
endfacet
facet normal 0 0 -1
  outer loop
    vertex 11.9593 7.00458 50
    vertex 14.3331 5.6342 50
    vertex 11.9959 4.24859 50
  endloop
endfacet
facet normal 0 0 -1
  outer loop
    vertex 41 8.33333 50
    vertex 38.765 9.72416 50
    vertex 41 11.1111 50
  endloop
endfacet
facet normal 0 -0 -1
  outer loop
    vertex 11.9591 9.7469 50
    vertex 11.9593 7.00458 50
    vertex 9.5825 8.37404 50
  endloop
endfacet
facet normal 0 0 -1
  outer loop
    vertex 2.40013 9.72655 50
    vertex 4.8028 11.1111 50
    vertex 4.78085 8.33744 50
  endloop
endfacet
facet normal 0 0 -1
  outer loop
    vertex 23.8193 8.3707 50
    vertex 23.8153 5.62729 50
    vertex 21.4449 7.0118 50
  endloop
endfacet
facet normal 0 -0 -1
  outer loop
    vertex 23.8193 8.3707 50
    vertex 26.1903 6.99447 50
    vertex 23.8153 5.62729 50
  endloop
endfacet
facet normal 0 0 -1
  outer loop
    vertex 14.3345 11.12 50
    vertex 14.3354 13.8651 50
    vertex 16.7089 12.4891 50
  endloop
endfacet
facet normal 0 0 -1
  outer loop
    vertex 9.58052 13.87 50
    vertex 9.58181 16.6214 50
    vertex 11.9968 15.2676 50
  endloop
endfacet
facet normal 0 0 -1
  outer loop
    vertex 0 13.8889 50
    vertex 2.40441 15.2679 50
    vertex 2.40381 12.4973 50
  endloop
endfacet
facet normal 0 0 -1
  outer loop
    vertex 14.3345 11.12 50
    vertex 16.7089 12.4891 50
    vertex 16.7074 9.7497 50
  endloop
endfacet
facet normal 0 0 -1
  outer loop
    vertex 41 13.8889 50
    vertex 38.5965 15.2815 50
    vertex 41 16.6667 50
  endloop
endfacet
facet normal 0 -0 -1
  outer loop
    vertex 16.7089 12.4891 50
    vertex 19.0794 11.1178 50
    vertex 16.7074 9.7497 50
  endloop
endfacet
facet normal 0 0 -1
  outer loop
    vertex 33.3352 8.34681 50
    vertex 33.1237 5.24885 50
    vertex 30.9151 7.0291 50
  endloop
endfacet
facet normal 0 -0 -1
  outer loop
    vertex 23.8224 11.1108 50
    vertex 26.195 9.73602 50
    vertex 23.8193 8.3707 50
  endloop
endfacet
facet normal 0 0 -1
  outer loop
    vertex 7.19711 15.2499 50
    vertex 7.23215 17.9578 50
    vertex 9.58181 16.6214 50
  endloop
endfacet
facet normal 0 0 -1
  outer loop
    vertex 30.9576 15.2242 50
    vertex 28.5806 16.5998 50
    vertex 30.9308 17.9233 50
  endloop
endfacet
facet normal 0 0 -1
  outer loop
    vertex 26.1903 6.99447 50
    vertex 26.1101 4.26445 50
    vertex 23.8153 5.62729 50
  endloop
endfacet
facet normal 0 0 -1
  outer loop
    vertex 11.9582 12.494 50
    vertex 14.3354 13.8651 50
    vertex 14.3345 11.12 50
  endloop
endfacet
facet normal 0 0 -1
  outer loop
    vertex 16.7074 9.7497 50
    vertex 16.6867 7.045 50
    vertex 14.3312 8.38345 50
  endloop
endfacet
facet normal 0 0 -1
  outer loop
    vertex 14.3354 13.8651 50
    vertex 16.7097 15.2298 50
    vertex 16.7089 12.4891 50
  endloop
endfacet
facet normal 0 0 -1
  outer loop
    vertex 28.5766 13.8517 50
    vertex 26.2051 15.2176 50
    vertex 28.5806 16.5998 50
  endloop
endfacet
facet normal 0 0 -1
  outer loop
    vertex 19.0819 13.8556 50
    vertex 19.0848 16.5924 50
    vertex 21.4533 15.2222 50
  endloop
endfacet
facet normal 0 0 -1
  outer loop
    vertex 16.7074 9.7497 50
    vertex 19.0794 11.1178 50
    vertex 19.0775 8.38065 50
  endloop
endfacet
facet normal 0 0 -1
  outer loop
    vertex 9.58181 16.6214 50
    vertex 12.253 18.1608 50
    vertex 11.9968 15.2676 50
  endloop
endfacet
facet normal 0 0 -1
  outer loop
    vertex 9.57924 11.1194 50
    vertex 11.9591 9.7469 50
    vertex 9.5825 8.37404 50
  endloop
endfacet
facet normal 0 0 -1
  outer loop
    vertex 9.5825 8.37404 50
    vertex 11.9593 7.00458 50
    vertex 9.58654 5.63036 50
  endloop
endfacet
facet normal 0 0 -1
  outer loop
    vertex 16.7089 12.4891 50
    vertex 19.0819 13.8556 50
    vertex 19.0794 11.1178 50
  endloop
endfacet
facet normal 0 0 -1
  outer loop
    vertex 19.0848 16.5924 50
    vertex 19.0283 19.2074 50
    vertex 21.4549 17.9589 50
  endloop
endfacet
facet normal 0 0 -1
  outer loop
    vertex 26.195 9.73602 50
    vertex 26.1903 6.99447 50
    vertex 23.8193 8.3707 50
  endloop
endfacet
facet normal 0 0 -1
  outer loop
    vertex 23.8224 11.1108 50
    vertex 23.8193 8.3707 50
    vertex 21.449 9.74688 50
  endloop
endfacet
facet normal 0 -0 -1
  outer loop
    vertex 19.0775 8.38065 50
    vertex 19.0925 5.24018 50
    vertex 16.6867 7.045 50
  endloop
endfacet
facet normal 0 -0 -1
  outer loop
    vertex 16.7074 9.7497 50
    vertex 19.0775 8.38065 50
    vertex 16.6867 7.045 50
  endloop
endfacet
facet normal 0 0 -1
  outer loop
    vertex 21.4533 15.2222 50
    vertex 19.0848 16.5924 50
    vertex 21.4549 17.9589 50
  endloop
endfacet
facet normal 0 0 -1
  outer loop
    vertex 23.8243 13.8526 50
    vertex 23.824 16.5899 50
    vertex 26.2051 15.2176 50
  endloop
endfacet
facet normal 0 0 -1
  outer loop
    vertex 11.9591 9.7469 50
    vertex 14.3345 11.12 50
    vertex 14.3312 8.38345 50
  endloop
endfacet
facet normal 0 -0 -1
  outer loop
    vertex 14.3345 11.12 50
    vertex 16.7074 9.7497 50
    vertex 14.3312 8.38345 50
  endloop
endfacet
facet normal 0 0 -1
  outer loop
    vertex 21.4549 17.9589 50
    vertex 19.0283 19.2074 50
    vertex 21.7738 20.6746 50
  endloop
endfacet
facet normal 0 0 -1
  outer loop
    vertex 26.1101 4.26445 50
    vertex 28.5125 5.68469 50
    vertex 28.6366 2.75043 50
  endloop
endfacet
facet normal 0 -0 -1
  outer loop
    vertex 28.5743 11.1048 50
    vertex 30.953 9.72521 50
    vertex 28.5643 8.36591 50
  endloop
endfacet
facet normal 0 0 -1
  outer loop
    vertex 7.19711 15.2499 50
    vertex 4.84148 16.6893 50
    vertex 7.23215 17.9578 50
  endloop
endfacet
facet normal 0 -0 -1
  outer loop
    vertex 13.6667 25 50
    vertex 15.0609 22.7176 50
    vertex 12.3803 22.6879 50
  endloop
endfacet
facet normal 0 0 -1
  outer loop
    vertex 16.4 25 50
    vertex 19.1333 25 50
    vertex 17.8146 22.8479 50
  endloop
endfacet
facet normal 0 0 -1
  outer loop
    vertex 13.6667 0 50
    vertex 14.6897 2.64192 50
    vertex 16.4 0 50
  endloop
endfacet
facet normal 0 0 -1
  outer loop
    vertex 24.6 25 50
    vertex 27.3333 25 50
    vertex 25.8289 22.7793 50
  endloop
endfacet
facet normal 0 0 -1
  outer loop
    vertex 10.9333 25 50
    vertex 13.6667 25 50
    vertex 12.3803 22.6879 50
  endloop
endfacet
facet normal 0 0 -1
  outer loop
    vertex 21.8667 0 50
    vertex 23.5257 2.6402 50
    vertex 24.6 0 50
  endloop
endfacet
facet normal 0 0 -1
  outer loop
    vertex 13.6667 25 50
    vertex 16.4 25 50
    vertex 15.0609 22.7176 50
  endloop
endfacet
facet normal 0 -0 -1
  outer loop
    vertex 16.4 25 50
    vertex 17.8146 22.8479 50
    vertex 15.0609 22.7176 50
  endloop
endfacet
facet normal -0 0 -1
  outer loop
    vertex 28.5806 16.5998 50
    vertex 26.2051 15.2176 50
    vertex 26.2383 17.9099 50
  endloop
endfacet
facet normal 0 0 -1
  outer loop
    vertex 19.0819 13.8556 50
    vertex 16.7097 15.2298 50
    vertex 19.0848 16.5924 50
  endloop
endfacet
facet normal 0 0 -1
  outer loop
    vertex 19.1333 0 50
    vertex 20.5 2.36714 50
    vertex 21.8667 0 50
  endloop
endfacet
facet normal 0 0 -1
  outer loop
    vertex 21.8667 0 50
    vertex 20.5 2.36714 50
    vertex 23.5257 2.6402 50
  endloop
endfacet
facet normal 0 0 -1
  outer loop
    vertex 16.4 0 50
    vertex 17.7667 2.36714 50
    vertex 19.1333 0 50
  endloop
endfacet
facet normal 0 0 -1
  outer loop
    vertex 16.4 0 50
    vertex 14.6897 2.64192 50
    vertex 17.7667 2.36714 50
  endloop
endfacet
facet normal 0 0 -1
  outer loop
    vertex 19.0848 16.5924 50
    vertex 16.7171 17.9625 50
    vertex 19.0283 19.2074 50
  endloop
endfacet
facet normal 0 -0 -1
  outer loop
    vertex 12.253 18.1608 50
    vertex 14.3315 16.6164 50
    vertex 11.9968 15.2676 50
  endloop
endfacet
facet normal 0 0 -1
  outer loop
    vertex 19.1333 0 50
    vertex 17.7667 2.36714 50
    vertex 20.5 2.36714 50
  endloop
endfacet
facet normal 0 0 -1
  outer loop
    vertex 2.40381 12.4973 50
    vertex 2.40441 15.2679 50
    vertex 4.80428 13.8755 50
  endloop
endfacet
facet normal 0 -0 -1
  outer loop
    vertex 9.57924 11.1194 50
    vertex 9.5825 8.37404 50
    vertex 7.18957 9.73289 50
  endloop
endfacet
facet normal 0 0 -1
  outer loop
    vertex 16.7089 12.4891 50
    vertex 16.7097 15.2298 50
    vertex 19.0819 13.8556 50
  endloop
endfacet
facet normal 0 0 -1
  outer loop
    vertex 4.8028 11.1111 50
    vertex 7.1939 12.4947 50
    vertex 7.18957 9.73289 50
  endloop
endfacet
facet normal 0 0 -1
  outer loop
    vertex 19.0819 13.8556 50
    vertex 21.4533 15.2222 50
    vertex 21.451 12.4846 50
  endloop
endfacet
facet normal 0 -0 -1
  outer loop
    vertex 19.0794 11.1178 50
    vertex 21.449 9.74688 50
    vertex 19.0775 8.38065 50
  endloop
endfacet
facet normal 0 0 -1
  outer loop
    vertex 23.8224 11.1108 50
    vertex 26.199 12.4807 50
    vertex 26.195 9.73602 50
  endloop
endfacet
facet normal 0 0 -1
  outer loop
    vertex 21.4549 17.9589 50
    vertex 21.7738 20.6746 50
    vertex 24.0899 19.1501 50
  endloop
endfacet
facet normal 0 0 -1
  outer loop
    vertex 19.0794 11.1178 50
    vertex 19.0819 13.8556 50
    vertex 21.451 12.4846 50
  endloop
endfacet
facet normal 0 0 -1
  outer loop
    vertex 4.80428 13.8755 50
    vertex 4.84148 16.6893 50
    vertex 7.19711 15.2499 50
  endloop
endfacet
facet normal 0 -0 -1
  outer loop
    vertex 26.1903 6.99447 50
    vertex 28.5125 5.68469 50
    vertex 26.1101 4.26445 50
  endloop
endfacet
facet normal 0 0 -1
  outer loop
    vertex 28.5766 13.8517 50
    vertex 30.9576 15.2242 50
    vertex 30.9564 12.4756 50
  endloop
endfacet
facet normal -0 0 -1
  outer loop
    vertex 23.8193 8.3707 50
    vertex 21.4449 7.0118 50
    vertex 21.449 9.74688 50
  endloop
endfacet
facet normal 0 0 -1
  outer loop
    vertex 30.9308 17.9233 50
    vertex 33.175 19.1423 50
    vertex 33.3287 16.5917 50
  endloop
endfacet
facet normal 0 -0 -1
  outer loop
    vertex 27.3333 25 50
    vertex 28.6494 22.273 50
    vertex 25.8289 22.7793 50
  endloop
endfacet
facet normal 0 0 -1
  outer loop
    vertex 27.3333 25 50
    vertex 30.0667 25 50
    vertex 28.6494 22.273 50
  endloop
endfacet
facet normal -0 0 -1
  outer loop
    vertex 19.0848 16.5924 50
    vertex 16.7097 15.2298 50
    vertex 16.7171 17.9625 50
  endloop
endfacet
facet normal 0 0 -1
  outer loop
    vertex 12.3803 22.6879 50
    vertex 15.0609 22.7176 50
    vertex 13.7592 20.5156 50
  endloop
endfacet
facet normal 0 0 -1
  outer loop
    vertex 21.4533 15.2222 50
    vertex 21.4549 17.9589 50
    vertex 23.824 16.5899 50
  endloop
endfacet
facet normal 0 0 -1
  outer loop
    vertex 21.451 12.4846 50
    vertex 23.8243 13.8526 50
    vertex 23.8224 11.1108 50
  endloop
endfacet
facet normal 0 0 -1
  outer loop
    vertex 28.5743 11.1048 50
    vertex 30.9564 12.4756 50
    vertex 30.953 9.72521 50
  endloop
endfacet
facet normal 0 0 -1
  outer loop
    vertex 26.199 12.4807 50
    vertex 28.5766 13.8517 50
    vertex 28.5743 11.1048 50
  endloop
endfacet
facet normal 0 0 -1
  outer loop
    vertex 4.80428 13.8755 50
    vertex 2.40441 15.2679 50
    vertex 4.84148 16.6893 50
  endloop
endfacet
facet normal 0 0 -1
  outer loop
    vertex 30.953 9.72521 50
    vertex 33.3384 11.0993 50
    vertex 33.3352 8.34681 50
  endloop
endfacet
facet normal 0 0 -1
  outer loop
    vertex 21.4549 17.9589 50
    vertex 24.0899 19.1501 50
    vertex 23.824 16.5899 50
  endloop
endfacet
facet normal 0 0 -1
  outer loop
    vertex 8.2 0 50
    vertex 9.56881 2.45251 50
    vertex 10.9333 0 50
  endloop
endfacet
facet normal 0 0 -1
  outer loop
    vertex 30.0667 25 50
    vertex 32.8 25 50
    vertex 31.555 22.7793 50
  endloop
endfacet
facet normal 0 0 -1
  outer loop
    vertex 19.0775 8.38065 50
    vertex 21.4449 7.0118 50
    vertex 19.0925 5.24018 50
  endloop
endfacet
facet normal 0 0 -1
  outer loop
    vertex 8.2 25 50
    vertex 10.9333 25 50
    vertex 9.51432 22.2578 50
  endloop
endfacet
facet normal 0 -0 -1
  outer loop
    vertex 10.9333 25 50
    vertex 12.3803 22.6879 50
    vertex 9.51432 22.2578 50
  endloop
endfacet
facet normal 0 0 -1
  outer loop
    vertex 21.451 12.4846 50
    vertex 21.4533 15.2222 50
    vertex 23.8243 13.8526 50
  endloop
endfacet
facet normal 0 -0 -1
  outer loop
    vertex 26.195 9.73602 50
    vertex 28.5643 8.36591 50
    vertex 26.1903 6.99447 50
  endloop
endfacet
facet normal 0 0 -1
  outer loop
    vertex 21.4533 15.2222 50
    vertex 23.824 16.5899 50
    vertex 23.8243 13.8526 50
  endloop
endfacet
facet normal 0 0 -1
  outer loop
    vertex 19.0775 8.38065 50
    vertex 21.449 9.74688 50
    vertex 21.4449 7.0118 50
  endloop
endfacet
facet normal 0 -0 -1
  outer loop
    vertex 23.8243 13.8526 50
    vertex 26.199 12.4807 50
    vertex 23.8224 11.1108 50
  endloop
endfacet
facet normal 0 -0 -1
  outer loop
    vertex 21.451 12.4846 50
    vertex 23.8224 11.1108 50
    vertex 21.449 9.74688 50
  endloop
endfacet
facet normal 0 0 -1
  outer loop
    vertex 19.0794 11.1178 50
    vertex 21.451 12.4846 50
    vertex 21.449 9.74688 50
  endloop
endfacet
facet normal 0 0 -1
  outer loop
    vertex 28.5743 11.1048 50
    vertex 28.5766 13.8517 50
    vertex 30.9564 12.4756 50
  endloop
endfacet
facet normal 0 -0 -1
  outer loop
    vertex 26.199 12.4807 50
    vertex 28.5743 11.1048 50
    vertex 26.195 9.73602 50
  endloop
endfacet
facet normal 0 0 -1
  outer loop
    vertex 30.0667 0 50
    vertex 31.5926 2.56749 50
    vertex 32.8 0 50
  endloop
endfacet
facet normal 0 -0 -1
  outer loop
    vertex 7.1939 12.4947 50
    vertex 9.57924 11.1194 50
    vertex 7.18957 9.73289 50
  endloop
endfacet
facet normal 0 -0 -1
  outer loop
    vertex 30.9564 12.4756 50
    vertex 33.3384 11.0993 50
    vertex 30.953 9.72521 50
  endloop
endfacet
facet normal 0 0 -1
  outer loop
    vertex 26.1903 6.99447 50
    vertex 28.5643 8.36591 50
    vertex 28.5125 5.68469 50
  endloop
endfacet
facet normal -0 0 -1
  outer loop
    vertex 9.5825 8.37404 50
    vertex 7.20425 6.94878 50
    vertex 7.18957 9.73289 50
  endloop
endfacet
facet normal 0 -0 -1
  outer loop
    vertex 30.0667 25 50
    vertex 31.555 22.7793 50
    vertex 28.6494 22.273 50
  endloop
endfacet
facet normal 0 0 -1
  outer loop
    vertex 30.9576 15.2242 50
    vertex 30.9308 17.9233 50
    vertex 33.3287 16.5917 50
  endloop
endfacet
facet normal 0 0 -1
  outer loop
    vertex 26.195 9.73602 50
    vertex 28.5743 11.1048 50
    vertex 28.5643 8.36591 50
  endloop
endfacet
facet normal 0 0 -1
  outer loop
    vertex 30.9564 12.4756 50
    vertex 30.9576 15.2242 50
    vertex 33.3122 13.8516 50
  endloop
endfacet
facet normal 0 0 -1
  outer loop
    vertex 32.8 25 50
    vertex 35.5333 25 50
    vertex 34.1823 22.8112 50
  endloop
endfacet
facet normal 0 -0 -1
  outer loop
    vertex 33.3352 8.34681 50
    vertex 35.7163 6.96703 50
    vertex 33.1237 5.24885 50
  endloop
endfacet
facet normal 0 -0 -1
  outer loop
    vertex 9.5825 8.37404 50
    vertex 9.58654 5.63036 50
    vertex 7.20425 6.94878 50
  endloop
endfacet
facet normal 0 0 -1
  outer loop
    vertex 32.8 0 50
    vertex 34.2127 2.42785 50
    vertex 35.5333 0 50
  endloop
endfacet
facet normal 0 0 -1
  outer loop
    vertex 33.3384 11.0993 50
    vertex 35.6124 12.4787 50
    vertex 35.7226 9.72132 50
  endloop
endfacet
facet normal 0 0 -1
  outer loop
    vertex 5.46667 25 50
    vertex 8.2 25 50
    vertex 6.6458 22.556 50
  endloop
endfacet
facet normal 0 -0 -1
  outer loop
    vertex 33.3384 11.0993 50
    vertex 35.7226 9.72132 50
    vertex 33.3352 8.34681 50
  endloop
endfacet
facet normal 0 0 -1
  outer loop
    vertex 33.3287 16.5917 50
    vertex 33.175 19.1423 50
    vertex 35.6718 17.8821 50
  endloop
endfacet
facet normal 0 0 -1
  outer loop
    vertex 2.73333 0 50
    vertex 4.41378 2.45899 50
    vertex 5.46667 0 50
  endloop
endfacet
facet normal 0 0 -1
  outer loop
    vertex 35.5333 25 50
    vertex 38.2667 25 50
    vertex 36.8848 22.6692 50
  endloop
endfacet
facet normal 0 0 -1
  outer loop
    vertex 35.5333 0 50
    vertex 36.8772 2.61005 50
    vertex 38.2667 0 50
  endloop
endfacet
facet normal 0 0 -1
  outer loop
    vertex 30.9576 15.2242 50
    vertex 33.3287 16.5917 50
    vertex 33.3122 13.8516 50
  endloop
endfacet
facet normal 0 -0 -1
  outer loop
    vertex 32.8 25 50
    vertex 34.1823 22.8112 50
    vertex 31.555 22.7793 50
  endloop
endfacet
facet normal 0 0 -1
  outer loop
    vertex 30.9564 12.4756 50
    vertex 33.3122 13.8516 50
    vertex 33.3384 11.0993 50
  endloop
endfacet
facet normal 0 0 -1
  outer loop
    vertex 33.3352 8.34681 50
    vertex 35.7226 9.72132 50
    vertex 35.7163 6.96703 50
  endloop
endfacet
facet normal 0 -0 -1
  outer loop
    vertex 8.2 25 50
    vertex 9.51432 22.2578 50
    vertex 6.6458 22.556 50
  endloop
endfacet
facet normal 0 0 -1
  outer loop
    vertex 32.8 0 50
    vertex 31.5926 2.56749 50
    vertex 34.2127 2.42785 50
  endloop
endfacet
facet normal 0 0 -1
  outer loop
    vertex 33.3384 11.0993 50
    vertex 33.3122 13.8516 50
    vertex 35.6124 12.4787 50
  endloop
endfacet
facet normal 0 -0 -1
  outer loop
    vertex 35.5333 25 50
    vertex 36.8848 22.6692 50
    vertex 34.1823 22.8112 50
  endloop
endfacet
facet normal 0 0 -1
  outer loop
    vertex 35.5333 0 50
    vertex 34.2127 2.42785 50
    vertex 36.8772 2.61005 50
  endloop
endfacet
facet normal 0 -0 -1
  outer loop
    vertex 33.3287 16.5917 50
    vertex 35.5969 15.2216 50
    vertex 33.3122 13.8516 50
  endloop
endfacet
facet normal 0 0 -1
  outer loop
    vertex 33.3287 16.5917 50
    vertex 35.6718 17.8821 50
    vertex 35.5969 15.2216 50
  endloop
endfacet
facet normal 0 0 -1
  outer loop
    vertex 35.6124 12.4787 50
    vertex 33.3122 13.8516 50
    vertex 35.5969 15.2216 50
  endloop
endfacet
facet normal 0 0 -1
  outer loop
    vertex 21.8667 25 50
    vertex 24.6 25 50
    vertex 23.2007 22.8876 50
  endloop
endfacet
facet normal 0 -0 -1
  outer loop
    vertex 2.39084 6.9591 50
    vertex 4.67672 5.52223 50
    vertex 2.25583 4.25602 50
  endloop
endfacet
facet normal 0 0 -1
  outer loop
    vertex 31.5926 2.56749 50
    vertex 28.6366 2.75043 50
    vertex 30.5826 4.68993 50
  endloop
endfacet
facet normal 0 -0 -1
  outer loop
    vertex 24.6 25 50
    vertex 25.8289 22.7793 50
    vertex 23.2007 22.8876 50
  endloop
endfacet
facet normal 0 0 -1
  outer loop
    vertex 0 2.77778 50
    vertex 0 5.55556 50
    vertex 2.25583 4.25602 50
  endloop
endfacet
facet normal 0 0 -1
  outer loop
    vertex 41 19.4444 50
    vertex 38.5731 20.96 50
    vertex 41 22.2222 50
  endloop
endfacet
facet normal 0 0 -1
  outer loop
    vertex 41 2.77778 50
    vertex 39.042 4.24569 50
    vertex 41 5.55556 50
  endloop
endfacet
facet normal 0 0 -1
  outer loop
    vertex 2.73333 25 50
    vertex 5.46667 25 50
    vertex 4.03893 22.6961 50
  endloop
endfacet
facet normal 0 -0 -1
  outer loop
    vertex 15.0609 22.7176 50
    vertex 16.6709 20.4652 50
    vertex 13.7592 20.5156 50
  endloop
endfacet
facet normal 0 -0 -1
  outer loop
    vertex 21.8667 25 50
    vertex 23.2007 22.8876 50
    vertex 20.5077 22.95 50
  endloop
endfacet
facet normal -0 0 -1
  outer loop
    vertex 9.56881 2.45251 50
    vertex 6.83333 1.79102 50
    vertex 7.05054 4.0969 50
  endloop
endfacet
facet normal 0 -0 -1
  outer loop
    vertex 16.6867 7.045 50
    vertex 19.0925 5.24018 50
    vertex 16.5542 4.57868 50
  endloop
endfacet
facet normal 0 -0 -1
  outer loop
    vertex 19.1333 25 50
    vertex 20.5077 22.95 50
    vertex 17.8146 22.8479 50
  endloop
endfacet
facet normal 0 0 -1
  outer loop
    vertex 21.7738 20.6746 50
    vertex 20.5077 22.95 50
    vertex 23.2007 22.8876 50
  endloop
endfacet
facet normal 0 0 -1
  outer loop
    vertex 7.23215 17.9578 50
    vertex 5.02507 19.8127 50
    vertex 7.50135 20.3475 50
  endloop
endfacet
facet normal 0 0 -1
  outer loop
    vertex 19.0925 5.24018 50
    vertex 21.4449 7.0118 50
    vertex 21.6309 4.60262 50
  endloop
endfacet
facet normal 0 0 -1
  outer loop
    vertex 0 5.55556 50
    vertex 2.39084 6.9591 50
    vertex 2.25583 4.25602 50
  endloop
endfacet
facet normal -0 0 -1
  outer loop
    vertex 41 19.4444 50
    vertex 38.3872 18.1156 50
    vertex 38.5731 20.96 50
  endloop
endfacet
facet normal -0 0 -1
  outer loop
    vertex 41 5.55556 50
    vertex 39.042 4.24569 50
    vertex 38.7118 6.95111 50
  endloop
endfacet
facet normal 0 0 -1
  outer loop
    vertex 12.253 18.1608 50
    vertex 13.7592 20.5156 50
    vertex 14.7929 18.5857 50
  endloop
endfacet
facet normal -0 0 -1
  outer loop
    vertex 23.5257 2.6402 50
    vertex 20.5 2.36714 50
    vertex 21.6309 4.60262 50
  endloop
endfacet
facet normal 0 -0 -1
  outer loop
    vertex 30.9151 7.0291 50
    vertex 33.1237 5.24885 50
    vertex 30.5826 4.68993 50
  endloop
endfacet
facet normal 0 -0 -1
  outer loop
    vertex 5.46667 25 50
    vertex 6.6458 22.556 50
    vertex 4.03893 22.6961 50
  endloop
endfacet
facet normal 0 -0 -1
  outer loop
    vertex 17.8146 22.8479 50
    vertex 19.3073 21.3323 50
    vertex 16.6709 20.4652 50
  endloop
endfacet
facet normal 0 0 -1
  outer loop
    vertex 26.2383 17.9099 50
    vertex 24.0899 19.1501 50
    vertex 26.4033 20.3421 50
  endloop
endfacet
facet normal 0 0 -1
  outer loop
    vertex 30.9308 17.9233 50
    vertex 30.8687 20.3831 50
    vertex 33.175 19.1423 50
  endloop
endfacet
facet normal 0 0 -1
  outer loop
    vertex 13.6667 0 50
    vertex 12.3 1.92548 50
    vertex 14.6897 2.64192 50
  endloop
endfacet
facet normal 0 0 -1
  outer loop
    vertex 10.9333 0 50
    vertex 9.56881 2.45251 50
    vertex 12.3 1.92548 50
  endloop
endfacet
facet normal 0 0 -1
  outer loop
    vertex 24.6 0 50
    vertex 23.5257 2.6402 50
    vertex 26.0047 1.94882 50
  endloop
endfacet
facet normal 0 0 -1
  outer loop
    vertex 28.5125 5.68469 50
    vertex 30.5826 4.68993 50
    vertex 28.6366 2.75043 50
  endloop
endfacet
facet normal 0 -0 -1
  outer loop
    vertex 26.1101 4.26445 50
    vertex 28.6366 2.75043 50
    vertex 26.0047 1.94882 50
  endloop
endfacet
facet normal 0 0 -1
  outer loop
    vertex 0 25 50
    vertex 2.03101 22.9574 50
    vertex 0 22.2222 50
  endloop
endfacet
facet normal 0 0 -1
  outer loop
    vertex 0 25 50
    vertex 2.73333 25 50
    vertex 2.03101 22.9574 50
  endloop
endfacet
facet normal 0 0 -1
  outer loop
    vertex 14.6897 2.64192 50
    vertex 16.5542 4.57868 50
    vertex 17.7667 2.36714 50
  endloop
endfacet
facet normal 0 0 -1
  outer loop
    vertex 8.2 0 50
    vertex 6.83333 1.79102 50
    vertex 9.56881 2.45251 50
  endloop
endfacet
facet normal 0 0 -1
  outer loop
    vertex 5.46667 0 50
    vertex 4.41378 2.45899 50
    vertex 6.83333 1.79102 50
  endloop
endfacet
facet normal 0 0 -1
  outer loop
    vertex 12.3803 22.6879 50
    vertex 11.4943 20.5782 50
    vertex 9.51432 22.2578 50
  endloop
endfacet
facet normal 0 0 -1
  outer loop
    vertex 12.253 18.1608 50
    vertex 14.7929 18.5857 50
    vertex 14.3315 16.6164 50
  endloop
endfacet
facet normal 0 0 -1
  outer loop
    vertex 17.8146 22.8479 50
    vertex 16.6709 20.4652 50
    vertex 15.0609 22.7176 50
  endloop
endfacet
facet normal 0 0 -1
  outer loop
    vertex 0 0 50
    vertex 0 2.77778 50
    vertex 1.99321 2.0054 50
  endloop
endfacet
facet normal 0 -0 -1
  outer loop
    vertex 41 25 50
    vertex 41 22.2222 50
    vertex 39.123 23.1159 50
  endloop
endfacet
facet normal 0 0 -1
  outer loop
    vertex 41 0 50
    vertex 39.0068 2.0054 50
    vertex 41 2.77778 50
  endloop
endfacet
facet normal 0 0 -1
  outer loop
    vertex 0 0 50
    vertex 1.99321 2.0054 50
    vertex 2.73333 0 50
  endloop
endfacet
facet normal -0 0 -1
  outer loop
    vertex 41 25 50
    vertex 39.123 23.1159 50
    vertex 38.2667 25 50
  endloop
endfacet
facet normal 0 0 -1
  outer loop
    vertex 41 0 50
    vertex 38.2667 0 50
    vertex 39.0068 2.0054 50
  endloop
endfacet
facet normal -0 0 -1
  outer loop
    vertex 36.8848 22.6692 50
    vertex 35.5846 20.4856 50
    vertex 34.1823 22.8112 50
  endloop
endfacet
facet normal 0 0 -1
  outer loop
    vertex 12.253 18.1608 50
    vertex 11.4943 20.5782 50
    vertex 13.7592 20.5156 50
  endloop
endfacet
facet normal 0 0 -1
  outer loop
    vertex 33.175 19.1423 50
    vertex 35.5846 20.4856 50
    vertex 35.6718 17.8821 50
  endloop
endfacet
facet normal -0 0 -1
  outer loop
    vertex 36.8772 2.61005 50
    vertex 34.2127 2.42785 50
    vertex 35.3246 4.60131 50
  endloop
endfacet
facet normal 0 0 -1
  outer loop
    vertex 16.6867 7.045 50
    vertex 16.5542 4.57868 50
    vertex 14.3331 5.6342 50
  endloop
endfacet
facet normal 0 0 -1
  outer loop
    vertex 33.1237 5.24885 50
    vertex 35.7163 6.96703 50
    vertex 35.3246 4.60131 50
  endloop
endfacet
facet normal -0 0 -1
  outer loop
    vertex 23.8153 5.62729 50
    vertex 21.6309 4.60262 50
    vertex 21.4449 7.0118 50
  endloop
endfacet
facet normal 0 0 -1
  outer loop
    vertex 19.1333 25 50
    vertex 21.8667 25 50
    vertex 20.5077 22.95 50
  endloop
endfacet
facet normal 0 0 -1
  outer loop
    vertex 9.56079 19.3558 50
    vertex 11.4943 20.5782 50
    vertex 12.253 18.1608 50
  endloop
endfacet
facet normal 0 -0 -1
  outer loop
    vertex 34.1823 22.8112 50
    vertex 35.5846 20.4856 50
    vertex 32.8 21.2298 50
  endloop
endfacet
facet normal 0 0 -1
  outer loop
    vertex 33.175 19.1423 50
    vertex 32.8 21.2298 50
    vertex 35.5846 20.4856 50
  endloop
endfacet
facet normal 0 0 -1
  outer loop
    vertex 30.9308 17.9233 50
    vertex 28.5899 19.2896 50
    vertex 30.8687 20.3831 50
  endloop
endfacet
facet normal 0 0 -1
  outer loop
    vertex 30.9151 7.0291 50
    vertex 30.5826 4.68993 50
    vertex 28.5125 5.68469 50
  endloop
endfacet
facet normal 0 0 -1
  outer loop
    vertex 10.9333 0 50
    vertex 12.3 1.92548 50
    vertex 13.6667 0 50
  endloop
endfacet
facet normal -0 0 -1
  outer loop
    vertex 28.5899 19.2896 50
    vertex 26.2383 17.9099 50
    vertex 26.4033 20.3421 50
  endloop
endfacet
facet normal 0 0 -1
  outer loop
    vertex 7.23215 17.9578 50
    vertex 7.50135 20.3475 50
    vertex 9.56079 19.3558 50
  endloop
endfacet
facet normal 0 0 -1
  outer loop
    vertex 24.6 0 50
    vertex 26.0047 1.94882 50
    vertex 27.3333 0 50
  endloop
endfacet
facet normal 0 0 -1
  outer loop
    vertex 13.7592 20.5156 50
    vertex 16.6709 20.4652 50
    vertex 14.7929 18.5857 50
  endloop
endfacet
facet normal 0 0 -1
  outer loop
    vertex 38.3872 18.1156 50
    vertex 37.1298 16.5956 50
    vertex 35.6718 17.8821 50
  endloop
endfacet
facet normal 0 0 -1
  outer loop
    vertex 5.46667 0 50
    vertex 6.83333 1.79102 50
    vertex 8.2 0 50
  endloop
endfacet
facet normal 0 0 -1
  outer loop
    vertex 0 2.77778 50
    vertex 2.25583 4.25602 50
    vertex 1.99321 2.0054 50
  endloop
endfacet
facet normal -0 0 -1
  outer loop
    vertex 41 22.2222 50
    vertex 38.5731 20.96 50
    vertex 39.123 23.1159 50
  endloop
endfacet
facet normal -0 0 -1
  outer loop
    vertex 41 2.77778 50
    vertex 39.0068 2.0054 50
    vertex 39.042 4.24569 50
  endloop
endfacet
facet normal 0 -0 -1
  outer loop
    vertex 12.3803 22.6879 50
    vertex 13.7592 20.5156 50
    vertex 11.4943 20.5782 50
  endloop
endfacet
facet normal 0 0 -1
  outer loop
    vertex 24.0899 19.1501 50
    vertex 24.181 21.1338 50
    vertex 26.4033 20.3421 50
  endloop
endfacet
facet normal 0 0 -1
  outer loop
    vertex 33.175 19.1423 50
    vertex 30.8687 20.3831 50
    vertex 32.8 21.2298 50
  endloop
endfacet
facet normal 0 -0 -1
  outer loop
    vertex 2.73333 25 50
    vertex 4.03893 22.6961 50
    vertex 2.03101 22.9574 50
  endloop
endfacet
facet normal 0 0 -1
  outer loop
    vertex 0 22.2222 50
    vertex 2.03101 22.9574 50
    vertex 2.29867 20.8101 50
  endloop
endfacet
facet normal 0 0 -1
  outer loop
    vertex 19.0283 19.2074 50
    vertex 19.3073 21.3323 50
    vertex 21.7738 20.6746 50
  endloop
endfacet
facet normal 0 0 -1
  outer loop
    vertex 2.73333 0 50
    vertex 1.99321 2.0054 50
    vertex 4.41378 2.45899 50
  endloop
endfacet
facet normal 0 -0 -1
  outer loop
    vertex 38.2667 25 50
    vertex 39.123 23.1159 50
    vertex 36.8848 22.6692 50
  endloop
endfacet
facet normal 0 0 -1
  outer loop
    vertex 38.2667 0 50
    vertex 36.8772 2.61005 50
    vertex 39.0068 2.0054 50
  endloop
endfacet
facet normal 0 0 -1
  outer loop
    vertex 17.8146 22.8479 50
    vertex 20.5077 22.95 50
    vertex 19.3073 21.3323 50
  endloop
endfacet
facet normal 0 0 -1
  outer loop
    vertex 38.7068 12.4988 50
    vertex 37.1498 13.8574 50
    vertex 38.5965 15.2815 50
  endloop
endfacet
facet normal 0 0 -1
  outer loop
    vertex 38.7118 6.95111 50
    vertex 37.1609 8.34088 50
    vertex 38.765 9.72416 50
  endloop
endfacet
facet normal -0 0 -1
  outer loop
    vertex 4.41378 2.45899 50
    vertex 1.99321 2.0054 50
    vertex 2.25583 4.25602 50
  endloop
endfacet
facet normal 0 0 -1
  outer loop
    vertex 36.8848 22.6692 50
    vertex 39.123 23.1159 50
    vertex 38.5731 20.96 50
  endloop
endfacet
facet normal 0 0 -1
  outer loop
    vertex 36.8772 2.61005 50
    vertex 39.042 4.24569 50
    vertex 39.0068 2.0054 50
  endloop
endfacet
facet normal 0 0 -1
  outer loop
    vertex 16.7171 17.9625 50
    vertex 14.7929 18.5857 50
    vertex 16.6709 20.4652 50
  endloop
endfacet
facet normal 0 -0 -1
  outer loop
    vertex 38.3872 18.1156 50
    vertex 38.5965 15.2815 50
    vertex 37.1298 16.5956 50
  endloop
endfacet
facet normal -0 0 -1
  outer loop
    vertex 16.7171 17.9625 50
    vertex 14.3315 16.6164 50
    vertex 14.7929 18.5857 50
  endloop
endfacet
facet normal 0 -0 -1
  outer loop
    vertex 38.7068 12.4988 50
    vertex 38.765 9.72416 50
    vertex 37.1712 11.1015 50
  endloop
endfacet
facet normal 0 0 -1
  outer loop
    vertex 35.7163 6.96703 50
    vertex 37.1609 8.34088 50
    vertex 37.1826 5.58177 50
  endloop
endfacet
facet normal 0 0 -1
  outer loop
    vertex 35.7226 9.72132 50
    vertex 35.6124 12.4787 50
    vertex 37.1712 11.1015 50
  endloop
endfacet
facet normal 0 0 -1
  outer loop
    vertex 35.7226 9.72132 50
    vertex 37.1712 11.1015 50
    vertex 37.1609 8.34088 50
  endloop
endfacet
facet normal -0 0 -1
  outer loop
    vertex 38.7118 6.95111 50
    vertex 37.1826 5.58177 50
    vertex 37.1609 8.34088 50
  endloop
endfacet
facet normal 0 -0 -1
  outer loop
    vertex 35.7226 9.72132 50
    vertex 37.1609 8.34088 50
    vertex 35.7163 6.96703 50
  endloop
endfacet
facet normal 0 0 -1
  outer loop
    vertex 35.6124 12.4787 50
    vertex 37.1498 13.8574 50
    vertex 37.1712 11.1015 50
  endloop
endfacet
facet normal -0 0 -1
  outer loop
    vertex 38.765 9.72416 50
    vertex 37.1609 8.34088 50
    vertex 37.1712 11.1015 50
  endloop
endfacet
facet normal 0 0 -1
  outer loop
    vertex 31.555 22.7793 50
    vertex 34.1823 22.8112 50
    vertex 32.8 21.2298 50
  endloop
endfacet
facet normal -0 0 -1
  outer loop
    vertex 38.7068 12.4988 50
    vertex 37.1712 11.1015 50
    vertex 37.1498 13.8574 50
  endloop
endfacet
facet normal 0 -0 -1
  outer loop
    vertex 35.6718 17.8821 50
    vertex 37.1298 16.5956 50
    vertex 35.5969 15.2216 50
  endloop
endfacet
facet normal 0 0 -1
  outer loop
    vertex 35.6124 12.4787 50
    vertex 35.5969 15.2216 50
    vertex 37.1498 13.8574 50
  endloop
endfacet
facet normal -0 0 -1
  outer loop
    vertex 38.5965 15.2815 50
    vertex 37.1498 13.8574 50
    vertex 37.1298 16.5956 50
  endloop
endfacet
facet normal 0 0 -1
  outer loop
    vertex 35.5969 15.2216 50
    vertex 37.1298 16.5956 50
    vertex 37.1498 13.8574 50
  endloop
endfacet
facet normal 0 0 -1
  outer loop
    vertex 2.29867 20.8101 50
    vertex 2.03101 22.9574 50
    vertex 4.03893 22.6961 50
  endloop
endfacet
facet normal -0 0 -1
  outer loop
    vertex 25.8289 22.7793 50
    vertex 24.181 21.1338 50
    vertex 23.2007 22.8876 50
  endloop
endfacet
facet normal 0 -0 -1
  outer loop
    vertex 38.7118 6.95111 50
    vertex 39.042 4.24569 50
    vertex 37.1826 5.58177 50
  endloop
endfacet
facet normal 0 0 -1
  outer loop
    vertex 21.7738 20.6746 50
    vertex 19.3073 21.3323 50
    vertex 20.5077 22.95 50
  endloop
endfacet
facet normal 0 -0 -1
  outer loop
    vertex 31.555 22.7793 50
    vertex 32.8 21.2298 50
    vertex 30.8687 20.3831 50
  endloop
endfacet
facet normal 0 -0 -1
  outer loop
    vertex 35.7163 6.96703 50
    vertex 37.1826 5.58177 50
    vertex 35.3246 4.60131 50
  endloop
endfacet
facet normal 0 -0 -1
  outer loop
    vertex 25.8289 22.7793 50
    vertex 26.4033 20.3421 50
    vertex 24.181 21.1338 50
  endloop
endfacet
endsolid Created by Gmsh
