solid Created by Gmsh
facet normal 0 0 -1
  outer loop
    vertex 39.8034 16.6712 50
    vertex 42.6245 16.8667 50
    vertex 40.3259 14.1857 50
  endloop
endfacet
facet normal 0 0 -1
  outer loop
    vertex 40.3259 14.1857 50
    vertex 42.6245 16.8667 50
    vertex 43.2961 14.0668 50
  endloop
endfacet
facet normal 0 -0 -1
  outer loop
    vertex 37.7755 22.5274 50
    vertex 38.478 20.3035 50
    vertex 35.4457 20.2123 50
  endloop
endfacet
facet normal 0 0 -1
  outer loop
    vertex 37.76 18.1744 50
    vertex 35.4457 20.2123 50
    vertex 38.478 20.3035 50
  endloop
endfacet
facet normal -0 0 -1
  outer loop
    vertex 7.47054 22.2614 50
    vertex 5.65167 19.1528 50
    vertex 4.5476 22.4098 50
  endloop
endfacet
facet normal 0 -0 -1
  outer loop
    vertex 7.47054 22.2614 50
    vertex 8.42801 19.754 50
    vertex 5.65167 19.1528 50
  endloop
endfacet
facet normal -0 0 -1
  outer loop
    vertex 37.7755 22.5274 50
    vertex 35.4457 20.2123 50
    vertex 35.1517 22.9328 50
  endloop
endfacet
facet normal 0 -0 -1
  outer loop
    vertex 24.5333 25 50
    vertex 26.5646 22.0101 50
    vertex 23.0214 22.4474 50
  endloop
endfacet
facet normal 0 0 -1
  outer loop
    vertex 3.06667 0 50
    vertex 5.0185 2.92652 50
    vertex 6.13333 0 50
  endloop
endfacet
facet normal 0 0 -1
  outer loop
    vertex 39.8667 0 50
    vertex 41.0158 2.91716 50
    vertex 42.9333 0 50
  endloop
endfacet
facet normal 0 0 -1
  outer loop
    vertex 13.7356 4.45444 50
    vertex 16.2192 5.90987 50
    vertex 16.5834 2.84452 50
  endloop
endfacet
facet normal 0 -0 -1
  outer loop
    vertex 32.1493 22.2249 50
    vertex 32.3019 18.7668 50
    vertex 29.4009 20.3796 50
  endloop
endfacet
facet normal 0 0 -1
  outer loop
    vertex 32.1493 22.2249 50
    vertex 35.4457 20.2123 50
    vertex 32.3019 18.7668 50
  endloop
endfacet
facet normal 0 0 -1
  outer loop
    vertex 10.7775 18.6438 50
    vertex 10.7402 21.9115 50
    vertex 13.2542 19.7691 50
  endloop
endfacet
facet normal 0 0 -1
  outer loop
    vertex 3.06667 0 50
    vertex 2.2821 2.29729 50
    vertex 5.0185 2.92652 50
  endloop
endfacet
facet normal 0 0 -1
  outer loop
    vertex 42.9333 0 50
    vertex 41.0158 2.91716 50
    vertex 43.7179 2.29729 50
  endloop
endfacet
facet normal 0 0 -1
  outer loop
    vertex 13.7356 4.45444 50
    vertex 16.5834 2.84452 50
    vertex 13.8 1.97675 50
  endloop
endfacet
facet normal 0 0 -1
  outer loop
    vertex 10.7724 2.75947 50
    vertex 10.8034 6.15859 50
    vertex 13.7356 4.45444 50
  endloop
endfacet
facet normal 0 0 -1
  outer loop
    vertex 24.5333 25 50
    vertex 27.6 25 50
    vertex 26.5646 22.0101 50
  endloop
endfacet
facet normal 0 0 -1
  outer loop
    vertex 10.7724 2.75947 50
    vertex 8.09456 4.72848 50
    vertex 10.8034 6.15859 50
  endloop
endfacet
facet normal 0 -0 -1
  outer loop
    vertex 32.0981 6.37215 50
    vertex 32.176 3.03073 50
    vertex 29.607 5.19876 50
  endloop
endfacet
facet normal 0 0 -1
  outer loop
    vertex 10.7775 18.6438 50
    vertex 8.42801 19.754 50
    vertex 10.7402 21.9115 50
  endloop
endfacet
facet normal 0 0 -1
  outer loop
    vertex 23.0214 22.4474 50
    vertex 26.5646 22.0101 50
    vertex 24.0499 19.8756 50
  endloop
endfacet
facet normal -0 0 -1
  outer loop
    vertex 18.7662 7.85807 50
    vertex 16.2192 5.90987 50
    vertex 16.1034 9.39329 50
  endloop
endfacet
facet normal 0 0 -1
  outer loop
    vertex 29.4116 17.069 50
    vertex 26.7873 18.8758 50
    vertex 29.4009 20.3796 50
  endloop
endfacet
facet normal 0 0 -1
  outer loop
    vertex 32.0981 6.37215 50
    vertex 34.8844 5.25092 50
    vertex 32.176 3.03073 50
  endloop
endfacet
facet normal 0 0 -1
  outer loop
    vertex 2.57799 20.2832 50
    vertex 4.5476 22.4098 50
    vertex 5.65167 19.1528 50
  endloop
endfacet
facet normal -0 0 -1
  outer loop
    vertex 43.3369 20.2833 50
    vertex 40.5996 18.75 50
    vertex 40.9817 22.1328 50
  endloop
endfacet
facet normal 0 0 -1
  outer loop
    vertex 29.4116 17.069 50
    vertex 29.4009 20.3796 50
    vertex 32.3019 18.7668 50
  endloop
endfacet
facet normal 0 -0 -1
  outer loop
    vertex 13.4566 10.8912 50
    vertex 13.6093 7.55847 50
    vertex 10.7909 9.3171 50
  endloop
endfacet
facet normal 0 0 -1
  outer loop
    vertex 13.6093 7.55847 50
    vertex 16.1034 9.39329 50
    vertex 16.2192 5.90987 50
  endloop
endfacet
facet normal 0 0 -1
  outer loop
    vertex 26.7533 15.5677 50
    vertex 24.0895 17.0687 50
    vertex 26.7873 18.8758 50
  endloop
endfacet
facet normal 0 0 -1
  outer loop
    vertex 40.5996 18.75 50
    vertex 38.478 20.3035 50
    vertex 40.9817 22.1328 50
  endloop
endfacet
facet normal 0 0 -1
  outer loop
    vertex 26.7533 15.5677 50
    vertex 26.7873 18.8758 50
    vertex 29.4116 17.069 50
  endloop
endfacet
facet normal 0 0 -1
  outer loop
    vertex 35.5537 2.48518 50
    vertex 34.8844 5.25092 50
    vertex 37.9323 4.73711 50
  endloop
endfacet
facet normal 0 0 -1
  outer loop
    vertex 10.8034 6.15859 50
    vertex 10.7909 9.3171 50
    vertex 13.6093 7.55847 50
  endloop
endfacet
facet normal 0 0 -1
  outer loop
    vertex 28.9883 2.49087 50
    vertex 29.607 5.19876 50
    vertex 32.176 3.03073 50
  endloop
endfacet
facet normal 0 0 -1
  outer loop
    vertex 13.9365 22.5031 50
    vertex 13.2542 19.7691 50
    vertex 10.7402 21.9115 50
  endloop
endfacet
facet normal 0 0 -1
  outer loop
    vertex 13.4566 10.8912 50
    vertex 16.1034 9.39329 50
    vertex 13.6093 7.55847 50
  endloop
endfacet
facet normal -0 0 -1
  outer loop
    vertex 42.6245 16.8667 50
    vertex 39.8034 16.6712 50
    vertex 40.5996 18.75 50
  endloop
endfacet
facet normal 0 0 -1
  outer loop
    vertex 10.8034 6.15859 50
    vertex 13.6093 7.55847 50
    vertex 13.7356 4.45444 50
  endloop
endfacet
facet normal 0 0 -1
  outer loop
    vertex 7.47054 22.2614 50
    vertex 10.7402 21.9115 50
    vertex 8.42801 19.754 50
  endloop
endfacet
facet normal -0 0 -1
  outer loop
    vertex 29.4009 20.3796 50
    vertex 26.7873 18.8758 50
    vertex 26.5646 22.0101 50
  endloop
endfacet
facet normal -0 0 -1
  outer loop
    vertex 8.13024 17.0683 50
    vertex 5.44216 15.6409 50
    vertex 5.65167 19.1528 50
  endloop
endfacet
facet normal 0 0 -1
  outer loop
    vertex 2.70074 17.1777 50
    vertex 5.65167 19.1528 50
    vertex 5.44216 15.6409 50
  endloop
endfacet
facet normal 0 0 -1
  outer loop
    vertex 24.4718 4.81527 50
    vertex 26.7389 6.32192 50
    vertex 27.4131 4.28893 50
  endloop
endfacet
facet normal 0 0 -1
  outer loop
    vertex 24.4718 4.81527 50
    vertex 27.4131 4.28893 50
    vertex 26.0403 2.36263 50
  endloop
endfacet
facet normal 0 0 -1
  outer loop
    vertex 2.70074 17.1777 50
    vertex 5.44216 15.6409 50
    vertex 2.70344 14.0482 50
  endloop
endfacet
facet normal 0 0 -1
  outer loop
    vertex 13.7356 4.45444 50
    vertex 13.6093 7.55847 50
    vertex 16.2192 5.90987 50
  endloop
endfacet
facet normal 0 0 -1
  outer loop
    vertex 0 15.625 50
    vertex 2.70074 17.1777 50
    vertex 2.70344 14.0482 50
  endloop
endfacet
facet normal 0 -0 -1
  outer loop
    vertex 5.37537 6.27423 50
    vertex 8.09456 4.72848 50
    vertex 5.0185 2.92652 50
  endloop
endfacet
facet normal 0 0 -1
  outer loop
    vertex 35.5537 2.48518 50
    vertex 32.176 3.03073 50
    vertex 34.8844 5.25092 50
  endloop
endfacet
facet normal 0 0 -1
  outer loop
    vertex 26.7873 18.8758 50
    vertex 24.0499 19.8756 50
    vertex 26.5646 22.0101 50
  endloop
endfacet
facet normal 0 -0 -1
  outer loop
    vertex 5.39279 9.37502 50
    vertex 8.08238 7.8263 50
    vertex 5.37537 6.27423 50
  endloop
endfacet
facet normal 0 0 -1
  outer loop
    vertex 2.64726 4.78207 50
    vertex 2.6925 7.82573 50
    vertex 5.37537 6.27423 50
  endloop
endfacet
facet normal 0 0 -1
  outer loop
    vertex 2.6925 7.82573 50
    vertex 5.39279 9.37502 50
    vertex 5.37537 6.27423 50
  endloop
endfacet
facet normal 0 0 -1
  outer loop
    vertex 43.3524 4.78156 50
    vertex 40.894 6.2269 50
    vertex 43.34 7.82126 50
  endloop
endfacet
facet normal 0 0 -1
  outer loop
    vertex 0 6.25 50
    vertex 2.6925 7.82573 50
    vertex 2.64726 4.78207 50
  endloop
endfacet
facet normal 0 -0 -1
  outer loop
    vertex 8.08238 7.8263 50
    vertex 8.09456 4.72848 50
    vertex 5.37537 6.27423 50
  endloop
endfacet
facet normal -0 0 -1
  outer loop
    vertex 46 6.25 50
    vertex 43.3524 4.78156 50
    vertex 43.34 7.82126 50
  endloop
endfacet
facet normal -0 0 -1
  outer loop
    vertex 43.3524 4.78156 50
    vertex 41.0158 2.91716 50
    vertex 40.894 6.2269 50
  endloop
endfacet
facet normal -0 0 -1
  outer loop
    vertex 43.34 7.82126 50
    vertex 40.894 6.2269 50
    vertex 40.7662 9.45555 50
  endloop
endfacet
facet normal 0 0 -1
  outer loop
    vertex 29.4116 17.069 50
    vertex 32.3019 18.7668 50
    vertex 32.1028 15.5589 50
  endloop
endfacet
facet normal 0 0 -1
  outer loop
    vertex 0 12.5 50
    vertex 0 15.625 50
    vertex 2.70344 14.0482 50
  endloop
endfacet
facet normal 0 0 -1
  outer loop
    vertex 2.64726 4.78207 50
    vertex 5.37537 6.27423 50
    vertex 5.0185 2.92652 50
  endloop
endfacet
facet normal 0 0 -1
  outer loop
    vertex 8.08238 7.8263 50
    vertex 10.7909 9.3171 50
    vertex 10.8034 6.15859 50
  endloop
endfacet
facet normal 0 0 -1
  outer loop
    vertex 2.70074 17.1777 50
    vertex 2.57799 20.2832 50
    vertex 5.65167 19.1528 50
  endloop
endfacet
facet normal 0 -0 -1
  outer loop
    vertex 40.894 6.2269 50
    vertex 41.0158 2.91716 50
    vertex 37.9323 4.73711 50
  endloop
endfacet
facet normal 0 0 -1
  outer loop
    vertex 42.6245 16.8667 50
    vertex 40.5996 18.75 50
    vertex 43.3369 20.2833 50
  endloop
endfacet
facet normal 0 -0 -1
  outer loop
    vertex 2.70343 10.9336 50
    vertex 5.39279 9.37502 50
    vertex 2.6925 7.82573 50
  endloop
endfacet
facet normal -0 0 -1
  outer loop
    vertex 46 12.5 50
    vertex 43.556 10.8944 50
    vertex 43.2961 14.0668 50
  endloop
endfacet
facet normal 0 0 -1
  outer loop
    vertex 8.08238 7.8263 50
    vertex 10.8034 6.15859 50
    vertex 8.09456 4.72848 50
  endloop
endfacet
facet normal 0 0 -1
  outer loop
    vertex 43.556 10.8944 50
    vertex 43.34 7.82126 50
    vertex 40.7662 9.45555 50
  endloop
endfacet
facet normal 0 0 -1
  outer loop
    vertex 5.39279 9.37502 50
    vertex 5.40081 12.4804 50
    vertex 8.0821 10.9266 50
  endloop
endfacet
facet normal 0 0 -1
  outer loop
    vertex 2.70343 10.9336 50
    vertex 5.40081 12.4804 50
    vertex 5.39279 9.37502 50
  endloop
endfacet
facet normal 0 0 -1
  outer loop
    vertex 0 9.375 50
    vertex 2.70343 10.9336 50
    vertex 2.6925 7.82573 50
  endloop
endfacet
facet normal 0 0 -1
  outer loop
    vertex 10.7699 15.5591 50
    vertex 10.7775 18.6438 50
    vertex 13.4444 17.0879 50
  endloop
endfacet
facet normal 0 0 -1
  outer loop
    vertex 46 3.125 50
    vertex 43.3524 4.78156 50
    vertex 46 6.25 50
  endloop
endfacet
facet normal 0 0 -1
  outer loop
    vertex 29.415 14.0014 50
    vertex 32.1028 15.5589 50
    vertex 32.0774 12.4585 50
  endloop
endfacet
facet normal 0 0 -1
  outer loop
    vertex 0 3.125 50
    vertex 0 6.25 50
    vertex 2.64726 4.78207 50
  endloop
endfacet
facet normal 0 0 -1
  outer loop
    vertex 0 18.75 50
    vertex 2.57799 20.2832 50
    vertex 2.70074 17.1777 50
  endloop
endfacet
facet normal -0 0 -1
  outer loop
    vertex 46 18.75 50
    vertex 42.6245 16.8667 50
    vertex 43.3369 20.2833 50
  endloop
endfacet
facet normal 0 0 -1
  outer loop
    vertex 8.0821 10.9266 50
    vertex 8.08906 14.0211 50
    vertex 10.7621 12.4714 50
  endloop
endfacet
facet normal 0 0 -1
  outer loop
    vertex 5.40081 12.4804 50
    vertex 8.08906 14.0211 50
    vertex 8.0821 10.9266 50
  endloop
endfacet
facet normal -0 0 -1
  outer loop
    vertex 46 9.375 50
    vertex 43.34 7.82126 50
    vertex 43.556 10.8944 50
  endloop
endfacet
facet normal 0 0 -1
  outer loop
    vertex 32.1493 22.2249 50
    vertex 35.1517 22.9328 50
    vertex 35.4457 20.2123 50
  endloop
endfacet
facet normal 0 0 -1
  outer loop
    vertex 8.08906 14.0211 50
    vertex 10.7699 15.5591 50
    vertex 10.7621 12.4714 50
  endloop
endfacet
facet normal 0 0 -1
  outer loop
    vertex 5.39279 9.37502 50
    vertex 8.0821 10.9266 50
    vertex 8.08238 7.8263 50
  endloop
endfacet
facet normal 0 0 -1
  outer loop
    vertex 8.0821 10.9266 50
    vertex 10.7909 9.3171 50
    vertex 8.08238 7.8263 50
  endloop
endfacet
facet normal 0 0 -1
  outer loop
    vertex 34.7356 17.0791 50
    vertex 32.3019 18.7668 50
    vertex 35.4457 20.2123 50
  endloop
endfacet
facet normal 0 0 -1
  outer loop
    vertex 34.7356 17.0791 50
    vertex 35.4457 20.2123 50
    vertex 37.76 18.1744 50
  endloop
endfacet
facet normal 0 0 -1
  outer loop
    vertex 37.9323 4.73711 50
    vertex 34.8844 5.25092 50
    vertex 36.8391 7.0667 50
  endloop
endfacet
facet normal -0 0 -1
  outer loop
    vertex 46 15.625 50
    vertex 43.2961 14.0668 50
    vertex 42.6245 16.8667 50
  endloop
endfacet
facet normal 0 0 -1
  outer loop
    vertex 0 9.375 50
    vertex 0 12.5 50
    vertex 2.70343 10.9336 50
  endloop
endfacet
facet normal 0 0 -1
  outer loop
    vertex 29.415 14.0014 50
    vertex 29.4116 17.069 50
    vertex 32.1028 15.5589 50
  endloop
endfacet
facet normal 0 0 -1
  outer loop
    vertex 0 15.625 50
    vertex 0 18.75 50
    vertex 2.70074 17.1777 50
  endloop
endfacet
facet normal 0 0 -1
  outer loop
    vertex 46 15.625 50
    vertex 42.6245 16.8667 50
    vertex 46 18.75 50
  endloop
endfacet
facet normal 0 0 -1
  outer loop
    vertex 10.7621 12.4714 50
    vertex 10.7699 15.5591 50
    vertex 13.437 14.01 50
  endloop
endfacet
facet normal -0 0 -1
  outer loop
    vertex 34.7356 17.0791 50
    vertex 32.1028 15.5589 50
    vertex 32.3019 18.7668 50
  endloop
endfacet
facet normal 0 0 -1
  outer loop
    vertex 10.7621 12.4714 50
    vertex 13.4566 10.8912 50
    vertex 10.7909 9.3171 50
  endloop
endfacet
facet normal 0 0 -1
  outer loop
    vertex 0 6.25 50
    vertex 0 9.375 50
    vertex 2.6925 7.82573 50
  endloop
endfacet
facet normal 0 0 -1
  outer loop
    vertex 46 6.25 50
    vertex 43.34 7.82126 50
    vertex 46 9.375 50
  endloop
endfacet
facet normal 0 0 -1
  outer loop
    vertex 0 18.75 50
    vertex 0 21.875 50
    vertex 2.57799 20.2832 50
  endloop
endfacet
facet normal 0 0 -1
  outer loop
    vertex 46 18.75 50
    vertex 43.3369 20.2833 50
    vertex 46 21.875 50
  endloop
endfacet
facet normal 0 0 -1
  outer loop
    vertex 10.7699 15.5591 50
    vertex 8.13024 17.0683 50
    vertex 10.7775 18.6438 50
  endloop
endfacet
facet normal 0 0 -1
  outer loop
    vertex 13.437 14.01 50
    vertex 16.1061 15.5442 50
    vertex 16.1036 12.467 50
  endloop
endfacet
facet normal 0 0 -1
  outer loop
    vertex 46 9.375 50
    vertex 43.556 10.8944 50
    vertex 46 12.5 50
  endloop
endfacet
facet normal 0 0 -1
  outer loop
    vertex 13.437 14.01 50
    vertex 16.1036 12.467 50
    vertex 13.4566 10.8912 50
  endloop
endfacet
facet normal 0 0 -1
  outer loop
    vertex 34.7434 14.0004 50
    vertex 34.7356 17.0791 50
    vertex 37.3916 15.4568 50
  endloop
endfacet
facet normal 0 0 -1
  outer loop
    vertex 16.1036 12.467 50
    vertex 16.1061 15.5442 50
    vertex 18.7675 14.0036 50
  endloop
endfacet
facet normal 0 0 -1
  outer loop
    vertex 29.4078 10.9204 50
    vertex 32.0711 9.3771 50
    vertex 29.4384 7.90263 50
  endloop
endfacet
facet normal 0 0 -1
  outer loop
    vertex 16.1061 15.5442 50
    vertex 13.4444 17.0879 50
    vertex 15.9071 18.4536 50
  endloop
endfacet
facet normal -0 0 -1
  outer loop
    vertex 24.0895 17.0687 50
    vertex 21.4257 15.519 50
    vertex 21.4056 18.4721 50
  endloop
endfacet
facet normal 0 0 -1
  outer loop
    vertex 8.0821 10.9266 50
    vertex 10.7621 12.4714 50
    vertex 10.7909 9.3171 50
  endloop
endfacet
facet normal 0 0 -1
  outer loop
    vertex 0 12.5 50
    vertex 2.70344 14.0482 50
    vertex 2.70343 10.9336 50
  endloop
endfacet
facet normal 0 0 -1
  outer loop
    vertex 46 12.5 50
    vertex 43.2961 14.0668 50
    vertex 46 15.625 50
  endloop
endfacet
facet normal 0 -0 -1
  outer loop
    vertex 29.4078 10.9204 50
    vertex 29.4384 7.90263 50
    vertex 26.7578 9.39641 50
  endloop
endfacet
facet normal 0 0 -1
  outer loop
    vertex 18.7706 17.0763 50
    vertex 21.4056 18.4721 50
    vertex 21.4257 15.519 50
  endloop
endfacet
facet normal 0 0 -1
  outer loop
    vertex 16.1061 15.5442 50
    vertex 18.7706 17.0763 50
    vertex 18.7675 14.0036 50
  endloop
endfacet
facet normal 0 0 -1
  outer loop
    vertex 10.7621 12.4714 50
    vertex 13.437 14.01 50
    vertex 13.4566 10.8912 50
  endloop
endfacet
facet normal 0 0 -1
  outer loop
    vertex 15.9071 18.4536 50
    vertex 15.8214 20.6441 50
    vertex 18.5269 20.1367 50
  endloop
endfacet
facet normal 0 0 -1
  outer loop
    vertex 18.7706 17.0763 50
    vertex 15.9071 18.4536 50
    vertex 18.5269 20.1367 50
  endloop
endfacet
facet normal 0 0 -1
  outer loop
    vertex 37.3916 15.4568 50
    vertex 34.7356 17.0791 50
    vertex 37.76 18.1744 50
  endloop
endfacet
facet normal 0 -0 -1
  outer loop
    vertex 32.0711 9.3771 50
    vertex 32.0981 6.37215 50
    vertex 29.4384 7.90263 50
  endloop
endfacet
facet normal 0 0 -1
  outer loop
    vertex 16.1036 12.467 50
    vertex 18.7675 14.0036 50
    vertex 18.7655 10.9298 50
  endloop
endfacet
facet normal 0 0 -1
  outer loop
    vertex 24.0873 13.9986 50
    vertex 24.0895 17.0687 50
    vertex 26.7533 15.5677 50
  endloop
endfacet
facet normal 0 -0 -1
  outer loop
    vertex 18.7675 14.0036 50
    vertex 21.427 12.4647 50
    vertex 18.7655 10.9298 50
  endloop
endfacet
facet normal 0 0 -1
  outer loop
    vertex 16.1061 15.5442 50
    vertex 15.9071 18.4536 50
    vertex 18.7706 17.0763 50
  endloop
endfacet
facet normal 0 0 -1
  outer loop
    vertex 8.08906 14.0211 50
    vertex 8.13024 17.0683 50
    vertex 10.7699 15.5591 50
  endloop
endfacet
facet normal 0 0 -1
  outer loop
    vertex 10.7699 15.5591 50
    vertex 13.4444 17.0879 50
    vertex 13.437 14.01 50
  endloop
endfacet
facet normal 0 0 -1
  outer loop
    vertex 21.4257 9.39344 50
    vertex 24.0834 7.85779 50
    vertex 21.4312 6.47633 50
  endloop
endfacet
facet normal 0 -0 -1
  outer loop
    vertex 24.0834 7.85779 50
    vertex 24.4718 4.81527 50
    vertex 21.4312 6.47633 50
  endloop
endfacet
facet normal 0 0 -1
  outer loop
    vertex 18.7655 10.9298 50
    vertex 21.427 12.4647 50
    vertex 21.4257 9.39344 50
  endloop
endfacet
facet normal 0 0 -1
  outer loop
    vertex 13.437 14.01 50
    vertex 13.4444 17.0879 50
    vertex 16.1061 15.5442 50
  endloop
endfacet
facet normal 0 0 -1
  outer loop
    vertex 18.7706 17.0763 50
    vertex 18.5269 20.1367 50
    vertex 21.4056 18.4721 50
  endloop
endfacet
facet normal 0 0 -1
  outer loop
    vertex 24.0873 13.9986 50
    vertex 21.4257 15.519 50
    vertex 24.0895 17.0687 50
  endloop
endfacet
facet normal 0 0 -1
  outer loop
    vertex 13.4566 10.8912 50
    vertex 16.1036 12.467 50
    vertex 16.1034 9.39329 50
  endloop
endfacet
facet normal 0 -0 -1
  outer loop
    vertex 21.4257 9.39344 50
    vertex 21.4312 6.47633 50
    vertex 18.7662 7.85807 50
  endloop
endfacet
facet normal 0 0 -1
  outer loop
    vertex 18.7675 14.0036 50
    vertex 18.7706 17.0763 50
    vertex 21.4257 15.519 50
  endloop
endfacet
facet normal 0 -0 -1
  outer loop
    vertex 21.427 12.4647 50
    vertex 24.0857 10.9279 50
    vertex 21.4257 9.39344 50
  endloop
endfacet
facet normal 0 0 -1
  outer loop
    vertex 21.4257 9.39344 50
    vertex 24.0857 10.9279 50
    vertex 24.0834 7.85779 50
  endloop
endfacet
facet normal 0 0 -1
  outer loop
    vertex 21.427 12.4647 50
    vertex 24.0873 13.9986 50
    vertex 24.0857 10.9279 50
  endloop
endfacet
facet normal 0 0 -1
  outer loop
    vertex 18.7655 10.9298 50
    vertex 21.4257 9.39344 50
    vertex 18.7662 7.85807 50
  endloop
endfacet
facet normal 0 0 -1
  outer loop
    vertex 32.0774 12.4585 50
    vertex 32.1028 15.5589 50
    vertex 34.7434 14.0004 50
  endloop
endfacet
facet normal 0 -0 -1
  outer loop
    vertex 18.7655 10.9298 50
    vertex 18.7662 7.85807 50
    vertex 16.1034 9.39329 50
  endloop
endfacet
facet normal 0 0 -1
  outer loop
    vertex 21.427 12.4647 50
    vertex 21.4257 15.519 50
    vertex 24.0873 13.9986 50
  endloop
endfacet
facet normal -0 0 -1
  outer loop
    vertex 29.4384 7.90263 50
    vertex 26.7389 6.32192 50
    vertex 26.7578 9.39641 50
  endloop
endfacet
facet normal 0 0 -1
  outer loop
    vertex 21.4667 25 50
    vertex 24.5333 25 50
    vertex 23.0214 22.4474 50
  endloop
endfacet
facet normal 0 0 -1
  outer loop
    vertex 12.2667 25 50
    vertex 15.3333 25 50
    vertex 13.9365 22.5031 50
  endloop
endfacet
facet normal 0 0 -1
  outer loop
    vertex 27.6 0 50
    vertex 28.9883 2.49087 50
    vertex 30.6667 0 50
  endloop
endfacet
facet normal 0 0 -1
  outer loop
    vertex 18.4 0 50
    vertex 19.9333 2.65581 50
    vertex 21.4667 0 50
  endloop
endfacet
facet normal 0 0 -1
  outer loop
    vertex 30.6667 25 50
    vertex 33.7333 25 50
    vertex 32.1493 22.2249 50
  endloop
endfacet
facet normal 0 -0 -1
  outer loop
    vertex 16.1036 12.467 50
    vertex 18.7655 10.9298 50
    vertex 16.1034 9.39329 50
  endloop
endfacet
facet normal 0 0 -1
  outer loop
    vertex 18.7675 14.0036 50
    vertex 21.4257 15.519 50
    vertex 21.427 12.4647 50
  endloop
endfacet
facet normal 0 0 -1
  outer loop
    vertex 26.7533 15.5677 50
    vertex 29.4116 17.069 50
    vertex 29.415 14.0014 50
  endloop
endfacet
facet normal 0 0 -1
  outer loop
    vertex 18.4 0 50
    vertex 16.5834 2.84452 50
    vertex 19.9333 2.65581 50
  endloop
endfacet
facet normal 0 0 -1
  outer loop
    vertex 15.3333 0 50
    vertex 16.5834 2.84452 50
    vertex 18.4 0 50
  endloop
endfacet
facet normal 0 0 -1
  outer loop
    vertex 24.0873 13.9986 50
    vertex 26.7533 15.5677 50
    vertex 26.7453 12.4616 50
  endloop
endfacet
facet normal 0 0 -1
  outer loop
    vertex 8.08906 14.0211 50
    vertex 5.44216 15.6409 50
    vertex 8.13024 17.0683 50
  endloop
endfacet
facet normal 0 -0 -1
  outer loop
    vertex 24.0857 10.9279 50
    vertex 26.7578 9.39641 50
    vertex 24.0834 7.85779 50
  endloop
endfacet
facet normal 0 0 -1
  outer loop
    vertex 2.70343 10.9336 50
    vertex 2.70344 14.0482 50
    vertex 5.40081 12.4804 50
  endloop
endfacet
facet normal 0 0 -1
  outer loop
    vertex 29.4078 10.9204 50
    vertex 32.0774 12.4585 50
    vertex 32.0711 9.3771 50
  endloop
endfacet
facet normal 0 0 -1
  outer loop
    vertex 30.6667 0 50
    vertex 32.176 3.03073 50
    vertex 33.7333 0 50
  endloop
endfacet
facet normal 0 0 -1
  outer loop
    vertex 30.6667 0 50
    vertex 28.9883 2.49087 50
    vertex 32.176 3.03073 50
  endloop
endfacet
facet normal 0 0 -1
  outer loop
    vertex 5.40081 12.4804 50
    vertex 5.44216 15.6409 50
    vertex 8.08906 14.0211 50
  endloop
endfacet
facet normal 0 0 -1
  outer loop
    vertex 24.0857 10.9279 50
    vertex 24.0873 13.9986 50
    vertex 26.7453 12.4616 50
  endloop
endfacet
facet normal 0 0 -1
  outer loop
    vertex 24.0834 7.85779 50
    vertex 26.7389 6.32192 50
    vertex 24.4718 4.81527 50
  endloop
endfacet
facet normal 0 0 -1
  outer loop
    vertex 26.7453 12.4616 50
    vertex 29.415 14.0014 50
    vertex 29.4078 10.9204 50
  endloop
endfacet
facet normal 0 0 -1
  outer loop
    vertex 24.0834 7.85779 50
    vertex 26.7578 9.39641 50
    vertex 26.7389 6.32192 50
  endloop
endfacet
facet normal 0 0 -1
  outer loop
    vertex 34.7434 14.0004 50
    vertex 32.1028 15.5589 50
    vertex 34.7356 17.0791 50
  endloop
endfacet
facet normal 0 -0 -1
  outer loop
    vertex 12.2667 25 50
    vertex 13.9365 22.5031 50
    vertex 10.7402 21.9115 50
  endloop
endfacet
facet normal 0 0 -1
  outer loop
    vertex 9.2 25 50
    vertex 12.2667 25 50
    vertex 10.7402 21.9115 50
  endloop
endfacet
facet normal 0 0 -1
  outer loop
    vertex 34.7434 14.0004 50
    vertex 37.3916 15.4568 50
    vertex 37.3919 12.5665 50
  endloop
endfacet
facet normal 0 0 -1
  outer loop
    vertex 33.7333 0 50
    vertex 35.5537 2.48518 50
    vertex 36.8 0 50
  endloop
endfacet
facet normal 0 0 -1
  outer loop
    vertex 32.0774 12.4585 50
    vertex 34.7434 14.0004 50
    vertex 34.7434 10.9143 50
  endloop
endfacet
facet normal 0 0 -1
  outer loop
    vertex 26.7453 12.4616 50
    vertex 26.7533 15.5677 50
    vertex 29.415 14.0014 50
  endloop
endfacet
facet normal 0 0 -1
  outer loop
    vertex 26.7453 12.4616 50
    vertex 29.4078 10.9204 50
    vertex 26.7578 9.39641 50
  endloop
endfacet
facet normal 0 -0 -1
  outer loop
    vertex 34.7434 10.9143 50
    vertex 37.6074 9.49199 50
    vertex 34.7145 8.02519 50
  endloop
endfacet
facet normal 0 0 -1
  outer loop
    vertex 5.40081 12.4804 50
    vertex 2.70344 14.0482 50
    vertex 5.44216 15.6409 50
  endloop
endfacet
facet normal 0 0 -1
  outer loop
    vertex 24.0857 10.9279 50
    vertex 26.7453 12.4616 50
    vertex 26.7578 9.39641 50
  endloop
endfacet
facet normal 0 0 -1
  outer loop
    vertex 32.0711 9.3771 50
    vertex 34.7145 8.02519 50
    vertex 32.0981 6.37215 50
  endloop
endfacet
facet normal 0 -0 -1
  outer loop
    vertex 29.415 14.0014 50
    vertex 32.0774 12.4585 50
    vertex 29.4078 10.9204 50
  endloop
endfacet
facet normal 0 0 -1
  outer loop
    vertex 9.2 0 50
    vertex 10.7724 2.75947 50
    vertex 12.2667 0 50
  endloop
endfacet
facet normal 0 0 -1
  outer loop
    vertex 34.7434 10.9143 50
    vertex 37.3919 12.5665 50
    vertex 37.6074 9.49199 50
  endloop
endfacet
facet normal 0 0 -1
  outer loop
    vertex 34.7434 10.9143 50
    vertex 34.7434 14.0004 50
    vertex 37.3919 12.5665 50
  endloop
endfacet
facet normal 0 -0 -1
  outer loop
    vertex 32.0774 12.4585 50
    vertex 34.7434 10.9143 50
    vertex 32.0711 9.3771 50
  endloop
endfacet
facet normal 0 0 -1
  outer loop
    vertex 33.7333 0 50
    vertex 32.176 3.03073 50
    vertex 35.5537 2.48518 50
  endloop
endfacet
facet normal 0 0 -1
  outer loop
    vertex 32.0711 9.3771 50
    vertex 34.7434 10.9143 50
    vertex 34.7145 8.02519 50
  endloop
endfacet
facet normal 0 0 -1
  outer loop
    vertex 6.13333 25 50
    vertex 9.2 25 50
    vertex 7.47054 22.2614 50
  endloop
endfacet
facet normal 0 0 -1
  outer loop
    vertex 36.8 25 50
    vertex 39.8667 25 50
    vertex 37.7755 22.5274 50
  endloop
endfacet
facet normal 0 0 -1
  outer loop
    vertex 16.2192 5.90987 50
    vertex 18.9244 5.0839 50
    vertex 16.5834 2.84452 50
  endloop
endfacet
facet normal 0 0 -1
  outer loop
    vertex 37.3919 12.5665 50
    vertex 37.3916 15.4568 50
    vertex 40.3259 14.1857 50
  endloop
endfacet
facet normal 0 -0 -1
  outer loop
    vertex 9.2 25 50
    vertex 10.7402 21.9115 50
    vertex 7.47054 22.2614 50
  endloop
endfacet
facet normal 0 0 -1
  outer loop
    vertex 18.5269 20.1367 50
    vertex 15.8214 20.6441 50
    vertex 16.9042 22.6153 50
  endloop
endfacet
facet normal 0 0 -1
  outer loop
    vertex 24.5333 0 50
    vertex 26.0403 2.36263 50
    vertex 27.6 0 50
  endloop
endfacet
facet normal 0 0 -1
  outer loop
    vertex 15.3333 25 50
    vertex 18.4 25 50
    vertex 16.9042 22.6153 50
  endloop
endfacet
facet normal 0 0 -1
  outer loop
    vertex 27.6 0 50
    vertex 26.0403 2.36263 50
    vertex 28.9883 2.49087 50
  endloop
endfacet
facet normal 0 0 -1
  outer loop
    vertex 39.8667 25 50
    vertex 42.9333 25 50
    vertex 40.9817 22.1328 50
  endloop
endfacet
facet normal 0 0 -1
  outer loop
    vertex 3.06667 25 50
    vertex 6.13333 25 50
    vertex 4.5476 22.4098 50
  endloop
endfacet
facet normal 0 -0 -1
  outer loop
    vertex 15.3333 25 50
    vertex 16.9042 22.6153 50
    vertex 13.9365 22.5031 50
  endloop
endfacet
facet normal 0 0 -1
  outer loop
    vertex 35.5537 2.48518 50
    vertex 37.9323 4.73711 50
    vertex 38.2151 2.08876 50
  endloop
endfacet
facet normal 0 -0 -1
  outer loop
    vertex 18.4 25 50
    vertex 19.9333 22.6784 50
    vertex 16.9042 22.6153 50
  endloop
endfacet
facet normal -0 0 -1
  outer loop
    vertex 10.7724 2.75947 50
    vertex 7.79156 2.16418 50
    vertex 8.09456 4.72848 50
  endloop
endfacet
facet normal -0 0 -1
  outer loop
    vertex 32.1493 22.2249 50
    vertex 29.4009 20.3796 50
    vertex 29.2346 22.9542 50
  endloop
endfacet
facet normal 0 0 -1
  outer loop
    vertex 24.5333 0 50
    vertex 23 2.27124 50
    vertex 26.0403 2.36263 50
  endloop
endfacet
facet normal 0 0 -1
  outer loop
    vertex 19.9333 2.65581 50
    vertex 16.5834 2.84452 50
    vertex 18.9244 5.0839 50
  endloop
endfacet
facet normal 0 0 -1
  outer loop
    vertex 10.7724 2.75947 50
    vertex 13.7356 4.45444 50
    vertex 13.8 1.97675 50
  endloop
endfacet
facet normal 0 0 -1
  outer loop
    vertex 18.5269 20.1367 50
    vertex 16.9042 22.6153 50
    vertex 19.9333 22.6784 50
  endloop
endfacet
facet normal 0 -0 -1
  outer loop
    vertex 21.4667 25 50
    vertex 23.0214 22.4474 50
    vertex 19.9333 22.6784 50
  endloop
endfacet
facet normal 0 0 -1
  outer loop
    vertex 8.13024 17.0683 50
    vertex 5.65167 19.1528 50
    vertex 8.42801 19.754 50
  endloop
endfacet
facet normal 0 -0 -1
  outer loop
    vertex 24.4718 4.81527 50
    vertex 26.0403 2.36263 50
    vertex 23 2.27124 50
  endloop
endfacet
facet normal 0 0 -1
  outer loop
    vertex 21.4667 0 50
    vertex 19.9333 2.65581 50
    vertex 23 2.27124 50
  endloop
endfacet
facet normal 0 -0 -1
  outer loop
    vertex 39.8667 25 50
    vertex 40.9817 22.1328 50
    vertex 37.7755 22.5274 50
  endloop
endfacet
facet normal 0 -0 -1
  outer loop
    vertex 6.13333 25 50
    vertex 7.47054 22.2614 50
    vertex 4.5476 22.4098 50
  endloop
endfacet
facet normal -0 0 -1
  outer loop
    vertex 15.9071 18.4536 50
    vertex 13.4444 17.0879 50
    vertex 13.2542 19.7691 50
  endloop
endfacet
facet normal 0 -0 -1
  outer loop
    vertex 33.7333 25 50
    vertex 35.1517 22.9328 50
    vertex 32.1493 22.2249 50
  endloop
endfacet
facet normal 0 0 -1
  outer loop
    vertex 37.76 18.1744 50
    vertex 40.5996 18.75 50
    vertex 39.8034 16.6712 50
  endloop
endfacet
facet normal 0 0 -1
  outer loop
    vertex 24.0895 17.0687 50
    vertex 24.0499 19.8756 50
    vertex 26.7873 18.8758 50
  endloop
endfacet
facet normal 0 0 -1
  outer loop
    vertex 24.0895 17.0687 50
    vertex 21.4056 18.4721 50
    vertex 24.0499 19.8756 50
  endloop
endfacet
facet normal 0 -0 -1
  outer loop
    vertex 36.8 25 50
    vertex 37.7755 22.5274 50
    vertex 35.1517 22.9328 50
  endloop
endfacet
facet normal 0 -0 -1
  outer loop
    vertex 29.4384 7.90263 50
    vertex 29.607 5.19876 50
    vertex 26.7389 6.32192 50
  endloop
endfacet
facet normal 0 -0 -1
  outer loop
    vertex 46 25 50
    vertex 46 21.875 50
    vertex 43.7157 22.7006 50
  endloop
endfacet
facet normal 0 0 -1
  outer loop
    vertex 0 25 50
    vertex 2.28427 22.7006 50
    vertex 0 21.875 50
  endloop
endfacet
facet normal 0 0 -1
  outer loop
    vertex 0 25 50
    vertex 3.06667 25 50
    vertex 2.28427 22.7006 50
  endloop
endfacet
facet normal -0 0 -1
  outer loop
    vertex 46 25 50
    vertex 43.7157 22.7006 50
    vertex 42.9333 25 50
  endloop
endfacet
facet normal 0 0 -1
  outer loop
    vertex 46 0 50
    vertex 43.7179 2.29729 50
    vertex 46 3.125 50
  endloop
endfacet
facet normal 0 0 -1
  outer loop
    vertex 0 0 50
    vertex 0 3.125 50
    vertex 2.2821 2.29729 50
  endloop
endfacet
facet normal 0 -0 -1
  outer loop
    vertex 18.7662 7.85807 50
    vertex 18.9244 5.0839 50
    vertex 16.2192 5.90987 50
  endloop
endfacet
facet normal 0 0 -1
  outer loop
    vertex 46 0 50
    vertex 42.9333 0 50
    vertex 43.7179 2.29729 50
  endloop
endfacet
facet normal 0 0 -1
  outer loop
    vertex 0 0 50
    vertex 2.2821 2.29729 50
    vertex 3.06667 0 50
  endloop
endfacet
facet normal 0 0 -1
  outer loop
    vertex 37.6074 9.49199 50
    vertex 39.6183 11.6458 50
    vertex 40.7662 9.45555 50
  endloop
endfacet
facet normal 0 -0 -1
  outer loop
    vertex 43.3524 4.78156 50
    vertex 43.7179 2.29729 50
    vertex 41.0158 2.91716 50
  endloop
endfacet
facet normal 0 -0 -1
  outer loop
    vertex 2.64726 4.78207 50
    vertex 5.0185 2.92652 50
    vertex 2.2821 2.29729 50
  endloop
endfacet
facet normal 0 0 -1
  outer loop
    vertex 15.3333 0 50
    vertex 13.8 1.97675 50
    vertex 16.5834 2.84452 50
  endloop
endfacet
facet normal 0 -0 -1
  outer loop
    vertex 30.6667 25 50
    vertex 32.1493 22.2249 50
    vertex 29.2346 22.9542 50
  endloop
endfacet
facet normal -0 0 -1
  outer loop
    vertex 40.894 6.2269 50
    vertex 37.9323 4.73711 50
    vertex 38.9644 7.71458 50
  endloop
endfacet
facet normal 0 0 -1
  outer loop
    vertex 12.2667 0 50
    vertex 10.7724 2.75947 50
    vertex 13.8 1.97675 50
  endloop
endfacet
facet normal -0 0 -1
  outer loop
    vertex 43.556 10.8944 50
    vertex 40.7662 9.45555 50
    vertex 41.65 12.3836 50
  endloop
endfacet
facet normal 0 0 -1
  outer loop
    vertex 37.3916 15.4568 50
    vertex 37.76 18.1744 50
    vertex 39.8034 16.6712 50
  endloop
endfacet
facet normal 0 0 -1
  outer loop
    vertex 37.3919 12.5665 50
    vertex 39.6183 11.6458 50
    vertex 37.6074 9.49199 50
  endloop
endfacet
facet normal 0 0 -1
  outer loop
    vertex 18.7662 7.85807 50
    vertex 21.4312 6.47633 50
    vertex 18.9244 5.0839 50
  endloop
endfacet
facet normal 0 0 -1
  outer loop
    vertex 36.8 0 50
    vertex 35.5537 2.48518 50
    vertex 38.2151 2.08876 50
  endloop
endfacet
facet normal 0 0 -1
  outer loop
    vertex 9.2 0 50
    vertex 7.79156 2.16418 50
    vertex 10.7724 2.75947 50
  endloop
endfacet
facet normal 0 0 -1
  outer loop
    vertex 6.13333 0 50
    vertex 5.0185 2.92652 50
    vertex 7.79156 2.16418 50
  endloop
endfacet
facet normal 0 0 -1
  outer loop
    vertex 18.4 25 50
    vertex 21.4667 25 50
    vertex 19.9333 22.6784 50
  endloop
endfacet
facet normal 0 0 -1
  outer loop
    vertex 39.8667 0 50
    vertex 38.2151 2.08876 50
    vertex 41.0158 2.91716 50
  endloop
endfacet
facet normal 0 0 -1
  outer loop
    vertex 21.4667 0 50
    vertex 23 2.27124 50
    vertex 24.5333 0 50
  endloop
endfacet
facet normal 0 0 -1
  outer loop
    vertex 21.4056 18.4721 50
    vertex 21.2874 20.866 50
    vertex 24.0499 19.8756 50
  endloop
endfacet
facet normal 0 0 -1
  outer loop
    vertex 37.7755 22.5274 50
    vertex 40.9817 22.1328 50
    vertex 38.478 20.3035 50
  endloop
endfacet
facet normal 0 0 -1
  outer loop
    vertex 37.9323 4.73711 50
    vertex 36.8391 7.0667 50
    vertex 38.9644 7.71458 50
  endloop
endfacet
facet normal 0 0 -1
  outer loop
    vertex 40.7662 9.45555 50
    vertex 39.6183 11.6458 50
    vertex 41.65 12.3836 50
  endloop
endfacet
facet normal 0 0 -1
  outer loop
    vertex 33.7333 25 50
    vertex 36.8 25 50
    vertex 35.1517 22.9328 50
  endloop
endfacet
facet normal 0 0 -1
  outer loop
    vertex 10.7775 18.6438 50
    vertex 13.2542 19.7691 50
    vertex 13.4444 17.0879 50
  endloop
endfacet
facet normal 0 0 -1
  outer loop
    vertex 8.13024 17.0683 50
    vertex 8.42801 19.754 50
    vertex 10.7775 18.6438 50
  endloop
endfacet
facet normal 0 -0 -1
  outer loop
    vertex 27.6 25 50
    vertex 29.2346 22.9542 50
    vertex 26.5646 22.0101 50
  endloop
endfacet
facet normal 0 0 -1
  outer loop
    vertex 6.13333 0 50
    vertex 7.79156 2.16418 50
    vertex 9.2 0 50
  endloop
endfacet
facet normal 0 0 -1
  outer loop
    vertex 32.0981 6.37215 50
    vertex 34.7145 8.02519 50
    vertex 34.8844 5.25092 50
  endloop
endfacet
facet normal 0 0 -1
  outer loop
    vertex 36.8 0 50
    vertex 38.2151 2.08876 50
    vertex 39.8667 0 50
  endloop
endfacet
facet normal 0 0 -1
  outer loop
    vertex 29.4384 7.90263 50
    vertex 32.0981 6.37215 50
    vertex 29.607 5.19876 50
  endloop
endfacet
facet normal 0 0 -1
  outer loop
    vertex 8.09456 4.72848 50
    vertex 7.79156 2.16418 50
    vertex 5.0185 2.92652 50
  endloop
endfacet
facet normal 0 0 -1
  outer loop
    vertex 29.4009 20.3796 50
    vertex 26.5646 22.0101 50
    vertex 29.2346 22.9542 50
  endloop
endfacet
facet normal 0 -0 -1
  outer loop
    vertex 21.4312 6.47633 50
    vertex 21.6701 4.08613 50
    vertex 18.9244 5.0839 50
  endloop
endfacet
facet normal -0 0 -1
  outer loop
    vertex 41.0158 2.91716 50
    vertex 38.2151 2.08876 50
    vertex 37.9323 4.73711 50
  endloop
endfacet
facet normal 0 -0 -1
  outer loop
    vertex 23.0214 22.4474 50
    vertex 24.0499 19.8756 50
    vertex 21.2874 20.866 50
  endloop
endfacet
facet normal 0 0 -1
  outer loop
    vertex 34.7145 8.02519 50
    vertex 36.8391 7.0667 50
    vertex 34.8844 5.25092 50
  endloop
endfacet
facet normal 0 0 -1
  outer loop
    vertex 12.2667 0 50
    vertex 13.8 1.97675 50
    vertex 15.3333 0 50
  endloop
endfacet
facet normal 0 0 -1
  outer loop
    vertex 37.76 18.1744 50
    vertex 38.478 20.3035 50
    vertex 40.5996 18.75 50
  endloop
endfacet
facet normal 0 0 -1
  outer loop
    vertex 27.6 25 50
    vertex 30.6667 25 50
    vertex 29.2346 22.9542 50
  endloop
endfacet
facet normal 0 0 -1
  outer loop
    vertex 19.9333 2.65581 50
    vertex 18.9244 5.0839 50
    vertex 21.6701 4.08613 50
  endloop
endfacet
facet normal 0 0 -1
  outer loop
    vertex 40.3259 14.1857 50
    vertex 43.2961 14.0668 50
    vertex 41.65 12.3836 50
  endloop
endfacet
facet normal 0 0 -1
  outer loop
    vertex 37.6074 9.49199 50
    vertex 40.7662 9.45555 50
    vertex 38.9644 7.71458 50
  endloop
endfacet
facet normal 0 0 -1
  outer loop
    vertex 18.5269 20.1367 50
    vertex 21.2874 20.866 50
    vertex 21.4056 18.4721 50
  endloop
endfacet
facet normal 0 0 -1
  outer loop
    vertex 37.3916 15.4568 50
    vertex 39.8034 16.6712 50
    vertex 40.3259 14.1857 50
  endloop
endfacet
facet normal -0 0 -1
  outer loop
    vertex 46 3.125 50
    vertex 43.7179 2.29729 50
    vertex 43.3524 4.78156 50
  endloop
endfacet
facet normal 0 0 -1
  outer loop
    vertex 0 3.125 50
    vertex 2.64726 4.78207 50
    vertex 2.2821 2.29729 50
  endloop
endfacet
facet normal 0 0 -1
  outer loop
    vertex 0 21.875 50
    vertex 2.28427 22.7006 50
    vertex 2.57799 20.2832 50
  endloop
endfacet
facet normal -0 0 -1
  outer loop
    vertex 46 21.875 50
    vertex 43.3369 20.2833 50
    vertex 43.7157 22.7006 50
  endloop
endfacet
facet normal 0 -0 -1
  outer loop
    vertex 42.9333 25 50
    vertex 43.7157 22.7006 50
    vertex 40.9817 22.1328 50
  endloop
endfacet
facet normal 0 -0 -1
  outer loop
    vertex 3.06667 25 50
    vertex 4.5476 22.4098 50
    vertex 2.28427 22.7006 50
  endloop
endfacet
facet normal 0 0 -1
  outer loop
    vertex 37.6074 9.49199 50
    vertex 36.8391 7.0667 50
    vertex 34.7145 8.02519 50
  endloop
endfacet
facet normal 0 0 -1
  outer loop
    vertex 26.7389 6.32192 50
    vertex 29.607 5.19876 50
    vertex 27.4131 4.28893 50
  endloop
endfacet
facet normal 0 0 -1
  outer loop
    vertex 15.9071 18.4536 50
    vertex 13.2542 19.7691 50
    vertex 15.8214 20.6441 50
  endloop
endfacet
facet normal 0 0 -1
  outer loop
    vertex 21.4312 6.47633 50
    vertex 24.4718 4.81527 50
    vertex 21.6701 4.08613 50
  endloop
endfacet
facet normal 0 0 -1
  outer loop
    vertex 37.3919 12.5665 50
    vertex 40.3259 14.1857 50
    vertex 39.6183 11.6458 50
  endloop
endfacet
facet normal 0 0 -1
  outer loop
    vertex 19.9333 2.65581 50
    vertex 21.6701 4.08613 50
    vertex 23 2.27124 50
  endloop
endfacet
facet normal -0 0 -1
  outer loop
    vertex 23.0214 22.4474 50
    vertex 21.2874 20.866 50
    vertex 19.9333 22.6784 50
  endloop
endfacet
facet normal 0 0 -1
  outer loop
    vertex 40.894 6.2269 50
    vertex 38.9644 7.71458 50
    vertex 40.7662 9.45555 50
  endloop
endfacet
facet normal 0 0 -1
  outer loop
    vertex 43.556 10.8944 50
    vertex 41.65 12.3836 50
    vertex 43.2961 14.0668 50
  endloop
endfacet
facet normal 0 0 -1
  outer loop
    vertex 43.3369 20.2833 50
    vertex 40.9817 22.1328 50
    vertex 43.7157 22.7006 50
  endloop
endfacet
facet normal 0 0 -1
  outer loop
    vertex 2.57799 20.2832 50
    vertex 2.28427 22.7006 50
    vertex 4.5476 22.4098 50
  endloop
endfacet
facet normal 0 0 -1
  outer loop
    vertex 13.9365 22.5031 50
    vertex 16.9042 22.6153 50
    vertex 15.8214 20.6441 50
  endloop
endfacet
facet normal -0 0 -1
  outer loop
    vertex 28.9883 2.49087 50
    vertex 26.0403 2.36263 50
    vertex 27.4131 4.28893 50
  endloop
endfacet
facet normal 0 0 -1
  outer loop
    vertex 18.5269 20.1367 50
    vertex 19.9333 22.6784 50
    vertex 21.2874 20.866 50
  endloop
endfacet
facet normal 0 0 -1
  outer loop
    vertex 24.4718 4.81527 50
    vertex 23 2.27124 50
    vertex 21.6701 4.08613 50
  endloop
endfacet
facet normal 0 -0 -1
  outer loop
    vertex 13.9365 22.5031 50
    vertex 15.8214 20.6441 50
    vertex 13.2542 19.7691 50
  endloop
endfacet
facet normal 0 0 -1
  outer loop
    vertex 28.9883 2.49087 50
    vertex 27.4131 4.28893 50
    vertex 29.607 5.19876 50
  endloop
endfacet
facet normal 0 -0 -1
  outer loop
    vertex 37.6074 9.49199 50
    vertex 38.9644 7.71458 50
    vertex 36.8391 7.0667 50
  endloop
endfacet
facet normal 0 -0 -1
  outer loop
    vertex 40.3259 14.1857 50
    vertex 41.65 12.3836 50
    vertex 39.6183 11.6458 50
  endloop
endfacet
endsolid Created by Gmsh
